<?xml version="1.0" encoding="utf-8"?>
<svg version="1.1" xmlns:xlink="http://www.w3.org/1999/xlink" width="10px" height="10px" xmlns="http://www.w3.org/2000/svg">
  <g transform="matrix(1 0 0 1 -560 -1008 )">
    <path d="M 6.07421875 5.8171834625323005  C 6.243489583333334 5.608311800172265  6.356336805555557 5.503875968992248  6.412760416666666 5.503875968992248  C 6.469184027777778 5.503875968992248  6.6807725694444455 5.598621877691645  7.047526041666666 5.7881136950904395  C 7.414279513888889 5.977605512489232  7.6085069444444455 6.091731266149871  7.630208333333334 6.130490956072352  C 7.638888888888889 6.152024117140396  7.643229166666666 6.184323858742463  7.643229166666666 6.227390180878554  C 7.643229166666666 6.369509043927648  7.606336805555557 6.533161068044788  7.532552083333334 6.718346253229974  C 7.463107638888889 6.886304909560723  7.309027777777778 7.027347114556417  7.0703125 7.141472868217054  C 6.831597222222223 7.25559862187769  6.610243055555555 7.31266149870801  6.40625 7.31266149870801  C 6.158854166666668 7.31266149870801  5.746527777777778 7.179155900086132  5.169270833333334 6.912144702842378  C 4.743923611111112 6.718346253229974  4.375 6.464254952627044  4.0625 6.149870801033592  C 3.75 5.8354866494401385  3.4288194444444446 5.437123169681309  3.098958333333333 4.9547803617571065  C 2.786458333333333 4.4939707149009465  2.6323784722222228 4.076227390180879  2.63671875 3.701550387596899  L 2.63671875 3.6498708010335914  C 2.649739583333334 3.2579672695951754  2.8103298611111116 2.917743324720068  3.118489583333333 2.6291989664082682  C 3.22265625 2.5344530577088706  3.3355034722222228 2.4870801033591725  3.45703125 2.4870801033591725  C 3.483072916666667 2.4870801033591725  3.522135416666667 2.49031007751938  3.57421875 2.496770025839793  C 3.626302083333333 2.503229974160207  3.6675347222222228 2.506459948320413  3.697916666666667 2.506459948320413  C 3.7803819444444446 2.506459948320413  3.837890625 2.5204565030146417  3.870442708333333 2.548449612403101  C 3.902994791666667 2.5764427217915586  3.9366319444444446 2.6356589147286824  3.971354166666667 2.72609819121447  C 4.006076388888889 2.8122308354866488  4.077690972222222 3.0017226528854426  4.186197916666667 3.2945736434108532  C 4.294704861111112 3.587424633936261  4.348958333333333 3.7489233419465973  4.348958333333333 3.7790697674418605  C 4.348958333333333 3.869509043927648  4.274088541666667 3.993324720068906  4.124348958333333 4.150516795865633  C 3.974609375 4.307708871662359  3.899739583333333 4.407838070628768  3.899739583333333 4.450904392764858  C 3.899739583333333 4.481050818260121  3.9105902777777786 4.513350559862187  3.932291666666667 4.547803617571059  C 4.079861111111112 4.862187769164513  4.301215277777779 5.157192075796726  4.596354166666667 5.4328165374676995  C 4.839409722222222 5.6610680447889745  5.1671006944444455 5.8785529715762275  5.579427083333334 6.0852713178294575  C 5.631510416666666 6.115417743324719  5.679253472222222 6.130490956072352  5.72265625 6.130490956072352  C 5.787760416666668 6.130490956072352  5.904947916666668 6.026055124892333  6.07421875 5.8171834625323005  Z M 2.845052083333333 8.255813953488373  C 3.5308159722222228 8.703703703703704  4.279513888888888 8.927648578811368  5.091145833333334 8.927648578811368  C 5.642361111111112 8.927648578811368  6.170789930555557 8.819982773471144  6.676432291666666 8.604651162790697  C 7.182074652777778 8.389319552110251  7.6171875 8.10077519379845  7.981770833333334 7.739018087855297  C 8.346354166666666 7.377260981912145  8.637152777777779 6.945521102497846  8.854166666666666 6.4437984496124034  C 9.071180555555557 5.942075796726959  9.1796875 5.4177433247200675  9.1796875 4.870801033591732  C 9.1796875 4.323858742463393  9.071180555555557 3.7995262704565027  8.854166666666666 3.297803617571059  C 8.637152777777779 2.7960809646856157  8.346354166666666 2.3643410852713176  7.981770833333334 2.0025839793281652  C 7.6171875 1.6408268733850129  7.182074652777778 1.352282515073212  6.676432291666666 1.136950904392765  C 6.170789930555557 0.9216192937123158  5.642361111111112 0.8139534883720934  5.091145833333334 0.8139534883720934  C 4.539930555555555 0.8139534883720934  4.011501736111112 0.9216192937123158  3.505859375 1.136950904392765  C 3.000217013888889 1.352282515073212  2.565104166666667 1.6408268733850129  2.2005208333333335 2.0025839793281652  C 1.8359375 2.3643410852713176  1.5451388888888888 2.7960809646856157  1.328125 3.297803617571059  C 1.1111111111111112 3.7995262704565027  1.0026041666666667 4.323858742463393  1.0026041666666667 4.870801033591732  C 1.0026041666666667 5.74504737295435  1.2630208333333335 6.537467700258398  1.7838541666666665 7.2480620155038755  L 1.26953125 8.753229974160208  L 2.845052083333333 8.255813953488373  Z M 3.186848958333333 0.3875968992248058  C 3.792317708333333 0.12919896640826822  4.427083333333333 0  5.091145833333334 0  C 5.755208333333334 0  6.389973958333334 0.12919896640826822  6.995442708333334 0.3875968992248058  C 7.600911458333334 0.6459948320413433  8.12282986111111 0.9926787252368641  8.561197916666666 1.427648578811369  C 8.999565972222223 1.862618432385874  9.348958333333334 2.380490956072352  9.609375 2.9812661498708017  C 9.869791666666666 3.5820413436692498  10 4.2118863049095605  10 4.870801033591732  C 10 5.529715762273901  9.869791666666666 6.159560723514213  9.609375 6.760335917312661  C 9.348958333333334 7.361111111111112  8.999565972222223 7.878983634797587  8.561197916666666 8.313953488372093  C 8.12282986111111 8.748923341946597  7.600911458333334 9.095607235142118  6.995442708333334 9.354005167958658  C 6.389973958333334 9.612403100775195  5.755208333333334 9.741602067183463  5.091145833333334 9.741602067183463  C 4.244791666666667 9.741602067183463  3.4526909722222228 9.539190353143841  2.71484375 9.1343669250646  L 0 10  L 0.8854166666666667 7.383720930232558  C 0.41666666666666663 6.617140396210164  0.18229166666666669 5.779500430663221  0.18229166666666669 4.870801033591732  C 0.18229166666666669 4.2118863049095605  0.3125 3.5820413436692498  0.5729166666666666 2.9812661498708017  C 0.8333333333333333 2.380490956072352  1.1827256944444446 1.862618432385874  1.62109375 1.427648578811369  C 2.059461805555556 0.9926787252368641  2.581380208333333 0.6459948320413433  3.186848958333333 0.3875968992248058  Z " fill-rule="nonzero" fill="#000000" stroke="none" transform="matrix(1 0 0 1 560 1008 )" />
  </g>
</svg>