<?xml version="1.0" encoding="utf-8"?>
<svg version="1.1" xmlns:xlink="http://www.w3.org/1999/xlink" width="12px" height="12px" xmlns="http://www.w3.org/2000/svg">
  <g transform="matrix(1 0 0 1 -189 -2698 )">
    <path d="M 7.4140625 7.414062500000001  C 7.8046875 7.023437499999999  8 6.552083333333333  8 6  C 8 5.447916666666666  7.8046875 4.9765625  7.4140625 4.5859375  C 7.0234375 4.1953125  6.552083333333334 4  6 4  C 5.447916666666667 4  4.9765625 4.1953125  4.5859375 4.5859375  C 4.1953125 4.9765625  4 5.447916666666666  4 6  C 4 6.552083333333333  4.1953125 7.023437499999999  4.5859375 7.414062500000001  C 4.9765625 7.8046875  5.447916666666667 8  6 8  C 6.552083333333334 8  7.0234375 7.8046875  7.4140625 7.414062500000001  Z M 8.1796875 3.8203125  C 8.778645833333334 4.419270833333332  9.078125 5.145833333333332  9.078125 6  C 9.078125 6.854166666666667  8.778645833333334 7.580729166666667  8.1796875 8.1796875  C 7.580729166666667 8.778645833333332  6.854166666666667 9.078125  6 9.078125  C 5.145833333333334 9.078125  4.419270833333334 8.778645833333332  3.8203125 8.1796875  C 3.221354166666667 7.580729166666667  2.921875 6.854166666666667  2.921875 6  C 2.921875 5.145833333333332  3.221354166666667 4.419270833333332  3.8203125 3.8203125  C 4.419270833333334 3.2213541666666656  5.145833333333334 2.9218750000000004  6 2.9218750000000004  C 6.854166666666667 2.9218750000000004  7.580729166666667 3.2213541666666656  8.1796875 3.8203125  Z M 9.7109375 2.2890625000000004  C 9.8515625 2.4296875000000004  9.921875 2.5989583333333326  9.921875 2.7968749999999996  C 9.921875 2.9947916666666665  9.8515625 3.1640625  9.7109375 3.3046875  C 9.5703125 3.4453125  9.401041666666668 3.515625  9.203125 3.515625  C 9.005208333333334 3.515625  8.8359375 3.4453125  8.6953125 3.3046875  C 8.5546875 3.1640625  8.484375 2.9947916666666665  8.484375 2.7968749999999996  C 8.484375 2.5989583333333326  8.5546875 2.4296875000000004  8.6953125 2.2890625000000004  C 8.8359375 2.1484375000000004  9.005208333333334 2.0781250000000004  9.203125 2.0781250000000004  C 9.401041666666668 2.0781250000000004  9.5703125 2.1484375000000004  9.7109375 2.2890625000000004  Z M 6.59765625 1.0742187499999996  C 6.235677083333334 1.0768229166666656  6.036458333333334 1.078125  6 1.078125  C 5.963541666666667 1.078125  5.764322916666667 1.0768229166666656  5.40234375 1.0742187499999996  C 5.040364583333334 1.0716145833333321  4.765625 1.0716145833333321  4.578125 1.0742187499999996  C 4.390625 1.0768229166666656  4.139322916666667 1.0846354166666665  3.82421875 1.0976562499999996  C 3.509114583333334 1.1106770833333326  3.240885416666667 1.13671875  3.01953125 1.1757812500000004  C 2.7981770833333335 1.2148437499999996  2.611979166666667 1.2630208333333326  2.4609375 1.3203124999999996  C 2.2005208333333335 1.4244791666666665  1.9713541666666667 1.5755208333333321  1.7734375 1.7734375000000004  C 1.5755208333333335 1.971354166666666  1.4244791666666667 2.2005208333333326  1.3203125 2.4609375  C 1.2630208333333335 2.6119791666666656  1.21484375 2.7981770833333326  1.17578125 3.0195312499999996  C 1.13671875 3.2408854166666665  1.1106770833333335 3.509114583333332  1.09765625 3.8242187500000004  C 1.0846354166666667 4.139322916666666  1.0768229166666667 4.390625  1.07421875 4.578125  C 1.0716145833333335 4.765625  1.0716145833333335 5.040364583333332  1.07421875 5.40234375  C 1.0768229166666667 5.764322916666666  1.078125 5.963541666666666  1.078125 6  C 1.078125 6.036458333333333  1.0768229166666667 6.235677083333333  1.07421875 6.59765625  C 1.0716145833333335 6.959635416666667  1.0716145833333335 7.234374999999999  1.07421875 7.421874999999999  C 1.0768229166666667 7.609374999999999  1.0846354166666667 7.860677083333331  1.09765625 8.17578125  C 1.1106770833333335 8.490885416666664  1.13671875 8.759114583333332  1.17578125 8.98046875  C 1.21484375 9.201822916666666  1.2630208333333335 9.388020833333332  1.3203125 9.5390625  C 1.4244791666666667 9.799479166666666  1.5755208333333335 10.028645833333334  1.7734375 10.2265625  C 1.9713541666666667 10.424479166666666  2.2005208333333335 10.575520833333334  2.4609375 10.6796875  C 2.611979166666667 10.736979166666666  2.7981770833333335 10.78515625  3.01953125 10.82421875  C 3.240885416666667 10.86328125  3.509114583333334 10.889322916666666  3.82421875 10.90234375  C 4.139322916666667 10.915364583333334  4.390625 10.923177083333334  4.578125 10.92578125  C 4.765625 10.928385416666666  5.040364583333334 10.928385416666666  5.40234375 10.92578125  C 5.764322916666667 10.923177083333334  5.963541666666667 10.921875  6 10.921875  C 6.036458333333334 10.921875  6.235677083333334 10.923177083333334  6.59765625 10.92578125  C 6.959635416666667 10.928385416666666  7.234375 10.928385416666666  7.421875 10.92578125  C 7.609375 10.923177083333334  7.860677083333334 10.915364583333334  8.17578125 10.90234375  C 8.490885416666668 10.889322916666666  8.759114583333334 10.86328125  8.98046875 10.82421875  C 9.201822916666668 10.78515625  9.388020833333334 10.736979166666666  9.5390625 10.6796875  C 9.799479166666668 10.575520833333334  10.028645833333334 10.424479166666666  10.2265625 10.2265625  C 10.424479166666668 10.028645833333334  10.575520833333334 9.799479166666666  10.6796875 9.5390625  C 10.736979166666668 9.388020833333332  10.78515625 9.201822916666666  10.82421875 8.98046875  C 10.86328125 8.759114583333332  10.889322916666668 8.490885416666664  10.90234375 8.17578125  C 10.915364583333334 7.860677083333331  10.923177083333334 7.609374999999999  10.92578125 7.421874999999999  C 10.928385416666668 7.234374999999999  10.928385416666668 6.959635416666667  10.92578125 6.59765625  C 10.923177083333334 6.235677083333333  10.921875 6.036458333333333  10.921875 6  C 10.921875 5.963541666666666  10.923177083333334 5.764322916666666  10.92578125 5.40234375  C 10.928385416666668 5.040364583333332  10.928385416666668 4.765625  10.92578125 4.578125  C 10.923177083333334 4.390625  10.915364583333334 4.139322916666666  10.90234375 3.8242187500000004  C 10.889322916666668 3.509114583333332  10.86328125 3.2408854166666665  10.82421875 3.0195312499999996  C 10.78515625 2.7981770833333326  10.736979166666668 2.6119791666666656  10.6796875 2.4609375  C 10.575520833333334 2.2005208333333326  10.424479166666668 1.971354166666666  10.2265625 1.7734375000000004  C 10.028645833333334 1.5755208333333321  9.799479166666668 1.4244791666666665  9.5390625 1.3203124999999996  C 9.388020833333334 1.2630208333333326  9.201822916666668 1.2148437499999996  8.98046875 1.1757812500000004  C 8.759114583333334 1.13671875  8.490885416666668 1.1106770833333326  8.17578125 1.0976562499999996  C 7.860677083333334 1.0846354166666665  7.609375 1.0768229166666656  7.421875 1.0742187499999996  C 7.234375 1.0716145833333321  6.959635416666667 1.0716145833333321  6.59765625 1.0742187499999996  Z M 11.9609375 3.5234374999999996  C 11.986979166666666 3.9817708333333326  12 4.807291666666666  12 6  C 12 7.192708333333334  11.986979166666666 8.018229166666666  11.9609375 8.4765625  C 11.908854166666668 9.559895833333334  11.5859375 10.3984375  10.9921875 10.9921875  C 10.3984375 11.5859375  9.559895833333334 11.908854166666666  8.4765625 11.9609375  C 8.018229166666668 11.986979166666666  7.192708333333334 12  6 12  C 4.807291666666667 12  3.981770833333333 11.986979166666666  3.5234375 11.9609375  C 2.440104166666667 11.908854166666666  1.6015625000000002 11.5859375  1.0078125 10.9921875  C 0.4140625 10.3984375  0.09114583333333334 9.559895833333334  0.0390625 8.4765625  C 0.013020833333333332 8.018229166666666  0 7.192708333333334  0 6  C 0 4.807291666666666  0.013020833333333332 3.9817708333333326  0.0390625 3.5234374999999996  C 0.09114583333333334 2.440104166666666  0.4140625 1.6015624999999996  1.0078125 1.0078125  C 1.6015625000000002 0.41406250000000044  2.440104166666667 0.0911458333333326  3.5234375 0.039062500000000444  C 3.981770833333333 0.013020833333331705  4.807291666666667 0  6 0  C 7.192708333333334 0  8.018229166666668 0.013020833333331705  8.4765625 0.039062500000000444  C 9.559895833333334 0.0911458333333326  10.3984375 0.41406250000000044  10.9921875 1.0078125  C 11.5859375 1.6015624999999996  11.908854166666668 2.440104166666666  11.9609375 3.5234374999999996  Z " fill-rule="nonzero" fill="#000000" stroke="none" transform="matrix(1 0 0 1 189 2698 )" />
  </g>
</svg>