<?xml version="1.0" encoding="utf-8"?>
<svg version="1.1" xmlns:xlink="http://www.w3.org/1999/xlink" width="178px" height="58px" xmlns="http://www.w3.org/2000/svg">
  <defs>
    <filter x="200px" y="499px" width="178px" height="58px" filterUnits="userSpaceOnUse" id="filter82">
      <feOffset dx="3" dy="3" in="SourceAlpha" result="shadowOffsetInner" />
      <feGaussianBlur stdDeviation="5" in="shadowOffsetInner" result="shadowGaussian" />
      <feComposite in2="shadowGaussian" operator="atop" in="SourceAlpha" result="shadowComposite" />
      <feColorMatrix type="matrix" values="0 0 0 0 0.5294117647058824  0 0 0 0 0.0196078431372549  0 0 0 0 0.6980392156862745  0 0 0 0.996078431372549 0  " in="shadowComposite" />
    </filter>
    <g id="widget83">
      <path d="M 208.5 511  A 3.5 3.5 0 0 1 212 507.5 L 360 507.5  A 3.5 3.5 0 0 1 363.5 511 L 363.5 539  A 3.5 3.5 0 0 1 360 542.5 L 212 542.5  A 3.5 3.5 0 0 1 208.5 539 L 208.5 511  Z " fill-rule="nonzero" fill="#ffffff" stroke="none" fill-opacity="0" />
      <path d="M 208 511  A 4 4 0 0 1 212 507 L 360 507  A 4 4 0 0 1 364 511 L 364 539  A 4 4 0 0 1 360 543 L 212 543  A 4 4 0 0 1 208 539 L 208 511  Z " stroke-width="2" stroke="#ffffff" fill="none" />
    </g>
  </defs>
  <g transform="matrix(1 0 0 1 -200 -499 )">
    <use xlink:href="#widget83" filter="url(#filter82)" />
    <use xlink:href="#widget83" />
  </g>
</svg>