<?xml version="1.0" encoding="utf-8"?>
<svg version="1.1" xmlns:xlink="http://www.w3.org/1999/xlink" width="11px" height="11px" xmlns="http://www.w3.org/2000/svg">
  <g transform="matrix(1 0 0 1 -223 -519 )">
    <path d="M 6.796223958333333 6.796223958333334  C 7.154296875 6.438151041666666  7.333333333333333 6.006076388888888  7.333333333333333 5.5  C 7.333333333333333 4.99392361111111  7.154296875 4.561848958333333  6.796223958333333 4.203776041666667  C 6.438151041666667 3.845703125  6.00607638888889 3.666666666666667  5.5 3.666666666666667  C 4.993923611111112 3.666666666666667  4.561848958333334 3.845703125  4.203776041666666 4.203776041666667  C 3.845703125 4.561848958333333  3.6666666666666665 4.99392361111111  3.6666666666666665 5.5  C 3.6666666666666665 6.006076388888888  3.845703125 6.438151041666666  4.203776041666666 6.796223958333334  C 4.561848958333334 7.154296875  4.993923611111112 7.333333333333334  5.5 7.333333333333334  C 6.00607638888889 7.333333333333334  6.438151041666667 7.154296875  6.796223958333333 6.796223958333334  Z M 7.498046875 3.501953125  C 8.04709201388889 4.0509982638888875  8.321614583333332 4.7170138888888875  8.321614583333332 5.5  C 8.321614583333332 6.282986111111112  8.04709201388889 6.949001736111112  7.498046875 7.498046875  C 6.949001736111112 8.04709201388889  6.282986111111112 8.321614583333332  5.5 8.321614583333332  C 4.717013888888889 8.321614583333332  4.050998263888889 8.04709201388889  3.501953125 7.498046875  C 2.9529079861111116 6.949001736111112  2.678385416666667 6.282986111111112  2.678385416666667 5.5  C 2.678385416666667 4.7170138888888875  2.9529079861111116 4.0509982638888875  3.501953125 3.501953125  C 4.050998263888889 2.9529079861111103  4.717013888888889 2.678385416666667  5.5 2.678385416666667  C 6.282986111111112 2.678385416666667  6.949001736111112 2.9529079861111103  7.498046875 3.501953125  Z M 8.901692708333332 2.098307291666667  C 9.030598958333332 2.227213541666667  9.095052083333332 2.3823784722222214  9.095052083333332 2.563802083333333  C 9.095052083333332 2.745225694444444  9.030598958333332 2.900390625  8.901692708333332 3.029296875  C 8.772786458333332 3.158203125  8.617621527777779 3.22265625  8.436197916666668 3.22265625  C 8.254774305555555 3.22265625  8.099609375 3.158203125  7.970703125 3.029296875  C 7.841796875 2.900390625  7.77734375 2.745225694444444  7.77734375 2.563802083333333  C 7.77734375 2.3823784722222214  7.841796875 2.227213541666667  7.970703125 2.098307291666667  C 8.099609375 1.969401041666667  8.254774305555555 1.904947916666667  8.436197916666668 1.904947916666667  C 8.617621527777779 1.904947916666667  8.772786458333332 1.969401041666667  8.901692708333332 2.098307291666667  Z M 6.0478515625 0.9847005208333329  C 5.71603732638889 0.9870876736111102  5.53342013888889 0.98828125  5.5 0.98828125  C 5.466579861111112 0.98828125  5.283962673611112 0.9870876736111102  4.9521484375 0.9847005208333329  C 4.620334201388889 0.9823133680555545  4.368489583333334 0.9823133680555545  4.196614583333334 0.9847005208333329  C 4.024739583333334 0.9870876736111102  3.7943793402777777 0.9942491319444443  3.5055338541666665 1.006184895833333  C 3.2166883680555562 1.0181206597222214  2.970811631944445 1.0419921875  2.7679036458333335 1.077799479166667  C 2.5649956597222223 1.113606770833333  2.3943142361111116 1.1577690972222214  2.255859375 1.210286458333333  C 2.0171440972222223 1.3057725694444442  1.807074652777778 1.4442274305555545  1.6256510416666667 1.625651041666667  C 1.4442274305555558 1.8070746527777772  1.3057725694444444 2.0171440972222214  1.2102864583333335 2.255859375  C 1.1577690972222223 2.3943142361111103  1.1136067708333335 2.5649956597222214  1.0777994791666665 2.767903645833333  C 1.0419921875 2.970811631944444  1.0181206597222223 3.2166883680555545  1.0061848958333335 3.505533854166667  C 0.9942491319444444 3.7943793402777772  0.9870876736111113 4.024739583333333  0.9847005208333334 4.196614583333333  C 0.9823133680555557 4.368489583333333  0.9823133680555557 4.6203342013888875  0.9847005208333334 4.9521484375  C 0.9870876736111113 5.28396267361111  0.98828125 5.46657986111111  0.98828125 5.5  C 0.98828125 5.533420138888888  0.9870876736111113 5.716037326388888  0.9847005208333334 6.0478515625  C 0.9823133680555557 6.379665798611112  0.9823133680555557 6.631510416666666  0.9847005208333334 6.803385416666666  C 0.9870876736111113 6.975260416666666  0.9942491319444444 7.2056206597222205  1.0061848958333335 7.494466145833334  C 1.0181206597222223 7.783311631944443  1.0419921875 8.029188368055554  1.0777994791666665 8.232096354166666  C 1.1136067708333335 8.435004340277777  1.1577690972222223 8.605685763888888  1.2102864583333335 8.744140625  C 1.3057725694444444 8.982855902777777  1.4442274305555558 9.192925347222223  1.6256510416666667 9.374348958333332  C 1.807074652777778 9.555772569444445  2.0171440972222223 9.694227430555555  2.255859375 9.789713541666668  C 2.3943142361111116 9.842230902777777  2.5649956597222223 9.886393229166668  2.7679036458333335 9.922200520833332  C 2.970811631944445 9.9580078125  3.2166883680555562 9.981879340277777  3.5055338541666665 9.993815104166668  C 3.7943793402777777 10.005750868055555  4.024739583333334 10.01291232638889  4.196614583333334 10.015299479166668  C 4.368489583333334 10.017686631944445  4.620334201388889 10.017686631944445  4.9521484375 10.015299479166668  C 5.283962673611112 10.01291232638889  5.466579861111112 10.01171875  5.5 10.01171875  C 5.53342013888889 10.01171875  5.71603732638889 10.01291232638889  6.0478515625 10.015299479166668  C 6.379665798611112 10.017686631944445  6.631510416666667 10.017686631944445  6.803385416666667 10.015299479166668  C 6.975260416666667 10.01291232638889  7.205620659722223 10.005750868055555  7.494466145833333 9.993815104166668  C 7.7833116319444455 9.981879340277777  8.029188368055555 9.9580078125  8.232096354166668 9.922200520833332  C 8.435004340277779 9.886393229166668  8.60568576388889 9.842230902777777  8.744140625 9.789713541666668  C 8.982855902777779 9.694227430555555  9.192925347222223 9.555772569444445  9.374348958333332 9.374348958333332  C 9.555772569444446 9.192925347222223  9.694227430555555 8.982855902777777  9.789713541666668 8.744140625  C 9.842230902777779 8.605685763888888  9.886393229166668 8.435004340277777  9.922200520833332 8.232096354166666  C 9.9580078125 8.029188368055554  9.981879340277779 7.783311631944443  9.993815104166668 7.494466145833334  C 10.005750868055555 7.2056206597222205  10.01291232638889 6.975260416666666  10.015299479166668 6.803385416666666  C 10.017686631944446 6.631510416666666  10.017686631944446 6.379665798611112  10.015299479166668 6.0478515625  C 10.01291232638889 5.716037326388888  10.01171875 5.533420138888888  10.01171875 5.5  C 10.01171875 5.46657986111111  10.01291232638889 5.28396267361111  10.015299479166668 4.9521484375  C 10.017686631944446 4.6203342013888875  10.017686631944446 4.368489583333333  10.015299479166668 4.196614583333333  C 10.01291232638889 4.024739583333333  10.005750868055555 3.7943793402777772  9.993815104166668 3.505533854166667  C 9.981879340277779 3.2166883680555545  9.9580078125 2.970811631944444  9.922200520833332 2.767903645833333  C 9.886393229166668 2.5649956597222214  9.842230902777779 2.3943142361111103  9.789713541666668 2.255859375  C 9.694227430555555 2.0171440972222214  9.555772569444446 1.8070746527777772  9.374348958333332 1.625651041666667  C 9.192925347222223 1.4442274305555545  8.982855902777779 1.3057725694444442  8.744140625 1.210286458333333  C 8.60568576388889 1.1577690972222214  8.435004340277779 1.113606770833333  8.232096354166668 1.077799479166667  C 8.029188368055555 1.0419921875  7.7833116319444455 1.0181206597222214  7.494466145833333 1.006184895833333  C 7.205620659722223 0.9942491319444443  6.975260416666667 0.9870876736111102  6.803385416666667 0.9847005208333329  C 6.631510416666667 0.9823133680555545  6.379665798611112 0.9823133680555545  6.0478515625 0.9847005208333329  Z M 10.964192708333332 3.229817708333333  C 10.98806423611111 3.6499565972222214  11 4.406684027777777  11 5.5  C 11 6.593315972222223  10.98806423611111 7.350043402777777  10.964192708333332 7.770182291666666  C 10.916449652777779 8.763237847222223  10.620442708333332 9.531901041666668  10.076171875 10.076171875  C 9.531901041666668 10.620442708333332  8.763237847222223 10.916449652777777  7.770182291666667 10.964192708333332  C 7.350043402777779 10.98806423611111  6.593315972222223 11  5.5 11  C 4.406684027777778 11  3.6499565972222223 10.98806423611111  3.2298177083333335 10.964192708333332  C 2.236762152777778 10.916449652777777  1.4680989583333335 10.620442708333332  0.923828125 10.076171875  C 0.3795572916666667 9.531901041666668  0.08355034722222224 8.763237847222223  0.03580729166666667 7.770182291666666  C 0.011935763888888886 7.350043402777777  0 6.593315972222223  0 5.5  C 0 4.406684027777777  0.011935763888888886 3.6499565972222214  0.03580729166666667 3.229817708333333  C 0.08355034722222224 2.2367621527777772  0.3795572916666667 1.468098958333333  0.923828125 0.923828125  C 1.4680989583333335 0.3795572916666671  2.236762152777778 0.08355034722222154  3.2298177083333335 0.035807291666667074  C 3.6499565972222223 0.011935763888887396  4.406684027777778 0  5.5 0  C 6.593315972222223 0  7.350043402777779 0.011935763888887396  7.770182291666667 0.035807291666667074  C 8.763237847222223 0.08355034722222154  9.531901041666668 0.3795572916666671  10.076171875 0.923828125  C 10.620442708333332 1.468098958333333  10.916449652777779 2.2367621527777772  10.964192708333332 3.229817708333333  Z " fill-rule="nonzero" fill="#fffcfc" stroke="none" transform="matrix(1 0 0 1 223 519 )" />
  </g>
</svg>