<?xml version="1.0" encoding="utf-8"?>
<svg version="1.1" xmlns:xlink="http://www.w3.org/1999/xlink" width="158px" height="38px" xmlns="http://www.w3.org/2000/svg">
  <g transform="matrix(1 0 0 1 -207 -506 )">
    <path d="M 208.5 511  A 3.5 3.5 0 0 1 212 507.5 L 360 507.5  A 3.5 3.5 0 0 1 363.5 511 L 363.5 539  A 3.5 3.5 0 0 1 360 542.5 L 212 542.5  A 3.5 3.5 0 0 1 208.5 539 L 208.5 511  Z " fill-rule="nonzero" fill="#ffffff" stroke="none" />
    <path d="M 208 511  A 4 4 0 0 1 212 507 L 360 507  A 4 4 0 0 1 364 511 L 364 539  A 4 4 0 0 1 360 543 L 212 543  A 4 4 0 0 1 208 539 L 208 511  Z " stroke-width="2" stroke="#ffffff" fill="none" />
  </g>
</svg>