<?xml version="1.0" encoding="utf-8"?>
<svg version="1.1" xmlns:xlink="http://www.w3.org/1999/xlink" width="9px" height="9px" xmlns="http://www.w3.org/2000/svg">
  <g transform="matrix(1 0 0 1 -16 0 )">
    <path d="M 20.5 1  C 22.46 1  24 2.54  24 4.5  C 24 6.46  22.46 8  20.5 8  C 18.54 8  17 6.46  17 4.5  C 17 2.54  18.54 1  20.5 1  Z " fill-rule="nonzero" fill="#f2f2f2" stroke="none" />
    <path d="M 20.5 1  C 22.46 1  24 2.54  24 4.5  C 24 6.46  22.46 8  20.5 8  C 18.54 8  17 6.46  17 4.5  C 17 2.54  18.54 1  20.5 1  Z " stroke-width="2" stroke="#cccccc" fill="none" />
  </g>
</svg>