<?xml version="1.0" encoding="utf-8"?>
<svg version="1.1" xmlns:xlink="http://www.w3.org/1999/xlink" width="36px" height="9px" xmlns="http://www.w3.org/2000/svg">
  <g transform="matrix(1 0 0 1 -428 -143 )">
    <path d="M 24.999809999999997 7.00115999999997  C 24.745659999999987 6.711043333333308  24.555210000000002 6.336166666666642  24.42971666666668 5.87596666666667  C 24.282166666666683 5.335903333333334  24.25270000000002 4.867643333333348  24.34292000000002 4.471966666666674  C 24.431536666666688 4.075683333333345  24.586713333333336 3.7713533333333373  24.80468000000002 3.5595399999999984  C 25.02368666666669 3.3465566666666575  25.255563333333356 3.2063733333333317  25.50039666666669 3.1395966666666766  C 25.795756666666676 3.058953333333335  26.074130000000025 3.056440000000009  26.33547333333334 3.1326633333333405  C 26.59759666666669 3.208670000000012  26.829213333333342 3.3399266666666847  27.028893333333343 3.5260866666666857  C 27.229353333333336 3.7106000000000137  27.39501666666669 3.924016666666688  27.528440000000003 4.165686666666673  C 27.640413333333342 4.36978666666667  27.72426333333334 4.576183333333333  27.780683333333343 4.783793333333335  L 27.819033333333337 4.924279999999996  C 27.871466666666663 5.11611666666667  27.902060000000006 5.308040000000005  27.911506666666668 5.501436666666663  C 27.92073666666667 5.694616666666661  27.914583333333326 5.8941666666666634  27.892049999999998 6.10160333333333  C 27.85066666666667 6.46599333333333  27.731629999999996 6.776476666666667  27.53619666666667 7.033486666666661  C 27.43206666666667 7.1672566666666455  27.310906666666654 7.281483333333313  27.175403333333335 7.376816666666656  C 27.03925000000001 7.472626666666656  26.886543333333336 7.542913333333331  26.718279999999993 7.588673333333318  L 26.67767666666667 7.599593333333317  C 26.41975666666667 7.670009999999991  26.13930333333333 7.660779999999974  25.836490000000012 7.570559999999986  C 25.533936666666676 7.481596666666647  25.25452333333334 7.29231666666665  24.999809999999997 7.00115999999997  Z M 28.991200000000006 5.920686666666668  C 28.70779999999999 5.658910000000006  28.47908666666666 5.305873333333338  28.306186666666676 4.861403333333342  C 28.102996666666684 4.339410000000001  28.02495333333333 3.876956666666672  28.07305333333335 3.4740866666666648  C 28.12007 3.0707833333333383  28.242486666666665 2.7518500000000046  28.437010000000015 2.518413333333328  C 28.632573333333355 2.283719999999988  28.84850333333334 2.1200933333333296  29.085146666666688 2.027966666666657  C 29.370280000000008 1.9169033333333232  29.647050000000007 1.88539999999999  29.914893333333353 1.9338466666666534  C 30.183603333333338 1.9821199999999806  30.427656666666692 2.0883733333333225  30.64549333333335 2.25251999999999  C 30.864153333333334 2.415236666666658  31.051310000000015 2.6100199999999916  31.209346666666676 2.836609999999993  C 31.34199000000001 3.0279699999999963  31.44677 3.2242266666666666  31.52494333333334 3.4249466666666564  L 31.577636666666677 3.5606666666666626  C 31.649743333333348 3.7457433333333228  31.700270000000003 3.9335933333333344  31.729736666666668 4.1249533333333375  C 31.759203333333332 4.315966666666668  31.773979999999995 4.515430000000009  31.773416666666677 4.723950000000002  C 31.77012333333336 5.090419999999995  31.68432333333334 5.411693333333332  31.51688333333334 5.687683333333339  C 31.42709666666667 5.831723333333343  31.318676666666676 5.9579966666666735  31.194093333333342 6.066980000000001  C 31.068383333333344 6.1764399999999995  30.923996666666667 6.262109999999993  30.761323333333337 6.32559333333333  L 30.72241000000001 6.340630000000004  C 30.473243333333343 6.43765333333333  30.193179999999998 6.457673333333332  29.882566666666676 6.399650000000008  C 29.572300000000013 6.342796666666672  29.274686666666668 6.183503333333334  28.991200000000006 5.920686666666668  Z M 1.3509899999999888 1.1268066666667096  L 1.3734366666666702 1.0800066666666623  C 1.4828533333333311 0.8534166666666607  1.6450933333333353 0.694816666666668  1.8601133333333308 0.6073266666666655  C 2.0751333333333335 0.5196199999999891  2.3196200000000005 0.4930999999999841  2.5948299999999946 0.5273333333333312  C 2.837843333333332 0.5600066666666663  3.0811166666666594 0.6355366666666669  3.3236533333333327 0.7524933333333195  L 3.396106666666661 0.7874199999999973  C 3.6610899999999944 0.915079999999989  3.9283266666666634 1.097773333333322  4.198423333333324 1.3361066666666659  L 3.878406666666656 2.0005366666666617  C 3.814099999999989 1.826120000000003  3.711833333333324 1.6666099999999915  3.5714333333333244 1.5205333333333328  C 3.430816666666658 1.375150000000005  3.272693333333322 1.2600133333333332  3.0975833333333256 1.1756000000000029  C 2.911683333333322 1.085943333333347  2.7327166666666542 1.0450800000000129  2.5619833333333233 1.0535300000000092  C 2.3907299999999836 1.0629766666666853  2.262983333333324 1.1190500000000014  2.1773133333333163 1.223613333333347  C 2.137836666666651 1.2744433333333376  2.106203333333319 1.32531666666668  2.0820666666666554 1.3751500000000192  C 2.014639999999993 1.5152900000000216  2.0115633333333207 1.6536533333333523  2.0717533333333265 1.7906300000000215  C 2.1589833333333246 1.9834633333333613  2.3135966666666548 2.214863333333355  2.5352466666666515 2.484613333333357  L 2.9187466666666566 2.970986666666704  C 2.989639999999987 3.0579133333333743  3.0541199999999904 3.152900000000031  3.1139633333333165 3.257680000000036  C 3.174283333333321 3.3616800000000353  3.227193333333318 3.473046666666704  3.2736033333333197 3.5908266666667004  C 3.3483533333333213 3.8044600000000344  3.336609999999986 4.01220000000005  3.2391099999999895 4.214133333333379  L 3.2099033333333225 4.274886666666703  C 3.1524433333333235 4.394226666666711  3.0779099999999957 4.495626666666709  2.9866499999999903 4.580386666666712  C 2.8949566666666584 4.66614333333338  2.7867533333333228 4.737946666666716  2.660263333333326 4.796880000000044  C 2.4259166666666587 4.909503333333376  2.1602399999999946 4.9567366666667  1.862496666666658 4.9385366666666926  C 1.5645366666666547 4.920986666666707  1.258516666666658 4.83601000000003  0.9432666666666591 4.683996666666687  C 0.6458699999999951 4.5407800000000265  0.3428833333333259 4.324850000000026  0.033873333333325206 4.037463333333349  L 0.2390133333333253 3.2023000000000224  C 0.3493833333333214 3.4514233333333664  0.48622999999998484 3.6681766666666817  0.6521099999999862 3.851130000000026  C 0.817556666666654 4.0339533333333435  1.0174533333333216 4.181590000000014  1.2501966666666604 4.293910000000025  C 1.362733333333324 4.3481633333333605  1.4744466666666582 4.3860366666666835  1.585726666666659 4.406533333333357  C 1.695706666666652 4.427680000000038  1.8163033333333232 4.436693333333366  1.9481666666666584 4.432923333333363  C 2.1861966666666603 4.425210000000035  2.354546666666657 4.319823333333375  2.4527399999999915 4.115853333333376  C 2.585079999999998 3.841120000000032  2.496073333333328 3.5175500000000426  2.185373333333324 3.142110000000045  L 1.653976666666658 2.4951866666667115  C 1.4939033333333214 2.2904366666667073  1.3760366666666641 2.0618533333333744  1.2985566666666557 1.8104333333333642  C 1.2281399999999891 1.5726633333333808  1.2458633333333253 1.3447733333333787  1.3509899999999888 1.1268066666667096  Z M 15.219389999999997 8.578016666666699  C 15.420326666666668 8.515530000000041  15.529656666666668 8.30848333333337  15.546599999999998 7.9545366666666695  L 15.685179999999995 5.050249999999991  C 15.695493333333324 4.830420000000004  15.689816666666665 4.6578666666666635  15.666719999999998 4.534063333333336  C 15.64297333333333 4.409956666666673  15.563066666666664 4.31904333333334  15.425439999999995 4.26024000000001  L 15.426089999999995 4.247153333333344  L 17.546216666666666 4.3485100000000045  C 17.65437666666665 4.35353666666667  17.750879999999995 4.374120000000005  17.858043333333327 4.324633333333338  L 17.871346666666653 4.325196666666685  L 17.83438333333332 5.097570000000019  L 17.821296666666655 5.096790000000013  C 17.671709999999976 4.919513333333356  17.42969333333332 4.822836666666674  17.093296666666646 4.80667333333335  L 17.01832999999999 4.803033333333346  L 16.659919999999985 4.785830000000004  L 16.50690999999999 4.791983333333334  L 16.36676999999999 4.810660000000013  L 16.30770666666666 6.0481300000000005  L 16.931749999999994 6.0780300000000125  C 17.08636333333334 6.085656666666665  17.23742333333334 6.113520000000008  17.389653333333328 6.054500000000004  L 17.409456666666657 6.055626666666669  L 17.375439999999998 6.763736666666674  L 17.35585333333333 6.762826666666669  C 17.284743333333324 6.6301400000000115  17.102483333333325 6.556083333333348  16.80907333333333 6.542086666666677  L 16.285173333333333 6.517083333333346  L 16.209859999999992 8.093333333333348  C 16.685096666666666 8.156600000000012  17.312736666666666 8.322696666666673  17.79113666666666 8.155560000000008  C 17.96785 8.095500000000015  18.135506666666657 8.00302666666667  18.297443333333334 7.879006666666683  L 18.309489999999997 7.879570000000015  L 17.971490000000003 8.734666666666698  L 15.218263333333333 8.603366666666702  L 15.219389999999997 8.578016666666699  Z M 3.913073333333344 5.544336666666638  C 3.9957100000000096 5.430239999999955  4.092863333333341 5.240916666666635  4.2037533333333315 4.976410000000001  L 5.186163333333326 2.6317300000000046  C 5.298916666666663 2.3627599999999944  5.366169999999997 2.1681066666666595  5.38961333333333 2.0462533333333255  C 5.404043333333334 1.929079999999999  5.360016666666667 1.8196633333333239  5.259656666666665 1.7187399999999968  L 5.264769999999999 1.706563333333321  L 6.426016666666669 2.1933699999999874  L 6.42081666666666 2.2054166666666504  C 6.357766666666663 2.204289999999986  6.297489999999996 2.2171599999999785  6.2393366666666665 2.2443299999999766  C 6.185300000000005 2.2731466666666478  6.1389766666666645 2.312623333333306  6.10019333333333 2.362196666666648  C 6.062536666666659 2.411943333333312  6.034196666666666 2.4503799999999814  6.017946666666667 2.4785033333333217  C 6.0024766666666665 2.506713333333309  5.988003333333332 2.535356666666644  5.975263333333331 2.5659499999999866  L 5.821819999999995 2.8979699999999724  L 4.839193333333327 5.242606666666646  C 4.716993333333328 5.53510666666665  4.649869999999993 5.740376666666634  4.63847333333333 5.856509999999972  C 4.626556666666666 5.973596666666637  4.66464666666667 6.085309999999964  4.750533333333337 6.191909999999979  L 4.740783333333333 6.21548333333331  L 3.5795366666666695 5.728893333333303  L 3.589416666666672 5.705449999999971  C 3.722060000000006 5.711689999999962  3.830740000000006 5.6581299999999715  3.913073333333344 5.544336666666638  Z M 5.921010000000017 6.37326000000003  C 6.0026933333333545 6.277926666666701  6.074930000000023 6.125696666666698  6.137979999999999 5.916136666666674  L 6.942766666666664 3.2393933333333536  C 7.010929999999995 3.013063333333349  7.034373333333328 2.846316666666681  7.012186666666665 2.740150000000014  C 6.9814633333333305 2.6387933333333535  6.918976666666666 2.5322800000000143  6.824466666666666 2.420783333333347  L 6.828193333333338 2.408043333333353  L 7.760900000000007 2.6888433333333523  C 7.747900000000001 2.7318300000000164  7.782610000000005 2.8506066666666925  7.866113333333338 3.0442633333333475  L 9.30404333333334 6.669746666666697  L 10.05037333333334 4.187526666666699  C 10.10363000000001 4.009946666666693  10.128763333333339 3.8572400000000187  10.126250000000006 3.727543333333358  C 10.123650000000005 3.5983233333333544  10.058476666666671 3.4739566666666803  9.932506666666676 3.355310000000017  L 9.936406666666677 3.342786666666683  L 11.054276666666674 3.678880000000021  L 11.05042000000001 3.6913600000000315  C 10.899663333333336 3.736210000000014  10.784873333333337 3.799780000000027  10.706266666666671 3.8811600000000226  C 10.62731333333334 3.9634066666666854  10.554036666666676 4.1187133333333605  10.486003333333343 4.345216666666687  L 9.413070000000005 7.955923333333359  C 9.222490000000008 7.830776666666694  9.086640000000003 7.703246666666686  9.005866666666677 7.573073333333369  C 8.926220000000015 7.458153333333371  8.843756666666678 7.302760000000035  8.758996666666675 7.1053766666667  L 7.354390000000016 3.5349266666667063  L 6.596923333333351 6.054153333333375  C 6.531836666666685 6.270993333333365  6.507136666666689 6.433103333333378  6.524123333333357 6.537450000000035  C 6.541066666666687 6.642793333333373  6.6015600000000205 6.763476666666691  6.707250000000023 6.899110000000022  L 6.699753333333355 6.92355000000002  L 5.572653333333356 6.584553333333361  L 5.579716666666684 6.560200000000023  C 5.725880000000018 6.531296666666705  5.838763333333354 6.469763333333361  5.921010000000017 6.37326000000003  Z M 10.98468333333335 6.936550000000025  C 10.886576666666684 6.646996666666695  10.864866666666686 6.335950000000025  10.916043333333342 6.003063333333344  L 10.942000000000007 5.834020000000024  C 11.002970000000005 5.43682666666669  11.142330000000001 5.085956666666689  11.35223666666667 4.777640000000034  C 11.589703333333333 4.428720000000027  11.90014333333334 4.1726200000000375  12.291746666666668 4.014583333333363  C 12.68244 3.8571533333333576  13.12023666666667 3.814600000000027  13.60284 3.888656666666691  C 13.953926666666668 3.9424766666666784  14.337556666666664 4.065110000000033  14.752040000000001 4.255126666666683  L 14.638376666666673 4.994046666666691  C 14.280573333333344 4.683216666666695  13.906736666666674 4.498703333333353  13.516043333333336 4.438513333333347  L 13.43947333333334 4.426770000000019  C 13.20941666666667 4.391193333333362  12.997603333333345 4.40142000000003  12.80507333333334 4.455326666666693  C 12.612456666666674 4.5093633333333685  12.437476666666676 4.605303333333353  12.279223333333341 4.744316666666691  C 12.121230000000011 4.882766666666683  11.993786666666672 5.042406666666693  11.894813333333346 5.222846666666683  C 11.79675000000001 5.4020300000000105  11.730666666666679 5.602013333333346  11.69673666666668 5.822493333333355  C 11.64954666666668 6.129120000000015  11.675460000000015 6.43904000000002  11.772743333333352 6.753726666666694  C 11.86478333333335 7.051340000000025  12.030100000000012 7.306616666666699  12.267176666666685 7.5200766666666965  C 12.495196666666686 7.725433333333356  12.780850000000022 7.8561266666666825  13.123876666666689 7.907693333333356  L 13.150050000000029 7.911636666666695  C 13.35653333333336 7.9426200000000335  13.575886666666698 7.939760000000035  13.809800000000024 7.901323333333352  C 14.04219666666669 7.863060000000019  14.290236666666694 7.791646666666679  14.551883333333357 7.687863333333368  L 14.571686666666693 7.690940000000026  L 14.114346666666684 8.406113333333366  C 13.895556666666685 8.453996666666697  13.706363333333357 8.478003333333362  13.546420000000026 8.480950000000036  C 13.386996666666683 8.48359333333336  13.224453333333358 8.472326666666689  13.060956666666684 8.447496666666694  L 12.996780000000022 8.437833333333359  C 12.683350000000026 8.39038333333336  12.397350000000024 8.300986666666688  12.139083333333353 8.171983333333372  C 11.880730000000014 8.042936666666705  11.646470000000022 7.8720733333333754  11.436910000000019 7.659783333333365  C 11.227913333333355 7.448143333333363  11.076376666666683 7.206863333333359  10.98468333333335 6.936550000000025  Z M 23.88202666666669 8.030890000000028  L 20.851986666666676 8.41725000000001  L 22.300403333333335 5.633083333333346  C 22.48379 5.29907  22.56456333333334 5.041713333333334  22.541726666666676 4.8619666666666745  C 22.526473333333342 4.742626666666666  22.475166666666667 4.636936666666671  22.386506666666676 4.545806666666678  C 22.299493333333345 4.455586666666676  22.195623333333344 4.39084666666669  22.076066666666676 4.353536666666685  C 21.947150000000008 4.3200833333333435  21.825773333333345 4.310853333333355  21.70972666666667 4.325630000000018  C 21.383210000000005 4.367273333333358  21.028223333333344 4.5528266666666894  20.646066666666684 4.882203333333351  L 20.62652333333334 4.884500000000017  L 20.90719333333334 4.039500000000018  C 21.214816666666678 3.91127666666668  21.487643333333352 3.8318900000000156  21.725196666666676 3.8015133333333466  C 22.075936666666678 3.756923333333347  22.409863333333348 3.801166666666674  22.727366666666683 3.934156666666695  C 23.04387333333335 4.068750000000023  23.22375000000001 4.299716666666697  23.26587000000002 4.6296566666666905  C 23.294990000000027 4.8583266666666844  23.237616666666682 5.125216666666688  23.092926666666685 5.4306733333333455  L 21.92461666666668 7.731673333333347  C 21.967300000000023 7.726083333333349  22.00903000000001 7.720970000000008  22.04816000000001 7.71598666666668  C 22.08776666666668 7.710960000000014  22.128153333333344 7.705716666666689  22.16888666666668 7.701773333333364  L 22.399376666666683 7.693453333333366  L 22.62033333333335 7.68751666666671  L 22.873920000000027 7.676380000000037  C 23.100553333333366 7.647476666666705  23.318390000000022 7.592876666666697  23.526390000000035 7.511756666666699  C 23.734216666666697 7.430853333333374  23.93164333333337 7.328803333333354  24.115116666666694 7.205390000000023  L 24.141420000000025 7.2018366666666935  L 23.88202666666669 8.030890000000028  Z M 33.43706999999998 5.212490000000074  L 33.55324666666668 4.697776666666684  C 33.88067333333335 4.400033333333354  34.12251666666667 4.073993333333334  34.27977333333334 3.71844333333334  C 34.43642333333335 3.3644100000000066  34.513080000000016 3.014319999999998  34.51026333333334 2.6689533333333486  C 34.50697000000001 2.322720000000004  34.430139999999994 2.0045233333333385  34.27986000000001 1.7132800000000117  C 34.17317333333335 1.5061033333333427  34.03277333333334 1.3274833333333476  33.85857333333334 1.1772900000000135  C 33.68415666666667 1.0275733333333505  33.48885333333334 0.9281666666666837  33.27348666666667 0.8814966666666919  C 33.05924666666668 0.8339600000000189  32.84752 0.86490000000002  32.63852333333334 0.9724966666666859  C 32.36548000000002 1.113243333333358  32.20094333333334 1.3072466666666855  32.141706666666664 1.5565866666666892  C 32.11133000000001 1.685503333333358  32.09993333333334 1.81294666666669  32.10881666666667 1.9388733333333619  C 32.11757 2.063543333333371  32.15033000000001 2.180846666666696  32.20709666666667 2.2907833333333656  L 32.22486333333333 2.3250166666666985  C 32.34511333333333 2.558670000000035  32.53569333333333 2.7351666666667143  32.79539 2.856066666666706  C 33.05512999999999 2.976793333333376  33.32115333333334 2.967693333333358  33.59419666666666 2.8270766666666987  C 33.69750333333333 2.773733333333368  33.791796666666656 2.7064800000000275  33.878159999999994 2.6259233333333754  C 33.9637 2.5459300000000553  34.04924 2.446956666666722  34.13538666666666 2.3293500000000478  L 34.001573333333326 2.980780000000067  C 33.942076666666665 3.053796666666713  33.877336666666665 3.118320000000068  33.808739999999986 3.1759966666667196  C 33.73992666666665 3.2324166666667224  33.656076666666664 3.287060000000068  33.55900999999999 3.3371100000000524  C 33.39793999999999 3.4201366666667212  33.22967666666665 3.469320000000053  33.054479999999984 3.486480000000057  C 32.879586666666654 3.501820000000066  32.69983999999998 3.485440000000054  32.51350666666666 3.4346966666667242  C 32.150806666666654 3.3384533333333906  31.873429999999985 3.1036300000000523  31.68150666666665 2.7316133333333994  C 31.538463333333326 2.453890000000058  31.48308333333331 2.1681066666667164  31.514023333333313 1.8740033333333912  C 31.546003333333317 1.57912000000006  31.649396666666647 1.3146133333333978  31.823943333333318 1.079443333333387  C 31.91199666666664 0.963180000000051  32.01027666666664 0.8578366666667279  32.11618333333331 0.762286666666725  C 32.223823333333314 0.6670400000000711  32.343423333333305 0.5855733333334001  32.47368333333331 0.5182333333333986  C 32.9284233333333 0.2841033333334053  33.37947999999997 0.2503033333333917  33.82776333333331 0.41674666666673943  C 34.27691333333331 0.5842300000000762  34.61447999999997 0.887433333333405  34.84050666666664 1.325880000000069  C 35.077973333333304 1.786210000000068  35.162386666666634 2.2635700000000725  35.09309666666664 2.758826666666735  C 35.024369999999976 3.25404000000006  34.83721333333331 3.717880000000065  34.53175666666664 4.149870000000064  C 34.22707999999996 4.580386666666726  33.86186666666663 4.935200000000066  33.43706999999998 5.212490000000074  Z M 25.071136666666646 5.634210000000039  C 25.081146666666655 5.6372866666666965  25.088773333333307 5.64890000000004  25.094016666666676 5.668140000000008  C 25.222110000000015 6.13809000000002  25.431236666666678 6.5092400000000055  25.719620000000006 6.781806666666682  C 25.99894666666667 7.050213333333346  26.284253333333325 7.144073333333338  26.575279999999992 7.0646433333333505  C 26.784059999999997 7.007660000000001  26.94448 6.89057333333335  27.05844666666667 6.712733333333347  C 27.172673333333336 6.535153333333355  27.234336666666664 6.308866666666674  27.246426666666665 6.030710000000013  C 27.25804000000001 5.7540266666666895  27.219126666666668 5.452210000000022  27.13016333333333 5.126126666666693  C 27.090903333333316 4.982303333333363  27.044579999999996 4.846020000000024  26.99249333333333 4.7183600000000325  C 26.93971333333333 4.591176666666698  26.875060000000005 4.459660000000028  26.79692999999999 4.324286666666694  C 26.647429999999986 4.078760000000031  26.47244999999998 3.8906933333333598  26.270949999999985 3.760433333333367  C 26.171066666666647 3.6961700000000235  26.069016666666656 3.6540500000000407  25.965146666666655 3.634246666666712  C 25.86149333333333 3.614486666666707  25.75840333333332 3.6186900000000435  25.65591999999998 3.6465533333333724  L 25.63052666666664 3.6534866666667085  C 25.328926666666646 3.7359933333333686  25.125173333333322 3.949410000000043  25.020739999999975 4.292783333333361  C 24.966573333333315 4.47140333333337  24.942349999999976 4.672426666666695  24.94962999999997 4.896070000000037  C 24.95690999999998 5.119626666666704  24.997859999999974 5.365933333333373  25.071136666666646 5.634210000000039  Z M 28.91883333333334 4.553996666666677  C 28.92906000000002 4.556120000000021  28.938073333333335 4.566736666666671  28.945223333333345 4.585153333333338  C 29.121893333333347 5.0390700000000095  29.36846 5.386213333333345  29.684056666666677 5.627406666666673  C 29.989643333333348 5.864960000000011  30.28327 5.928660000000008  30.56428666666669 5.819199999999995  C 30.76609000000002 5.7405933333333365  30.91333666666668 5.607386666666656  31.008193333333338 5.4189733333333265  C 31.10318000000001 5.230343333333337  31.14109666666667 4.998683333333318  31.123893333333342 4.72087333333333  C 31.106516666666693 4.444406666666666  31.03631666666668 4.148179999999996  30.913640000000015 3.8334933333333368  C 30.85951666666668 3.6944366666666753  30.799196666666674 3.5639600000000087  30.73424 3.4422366666666733  C 30.668026666666677 3.32107666666667  30.59033000000001 3.1972733333333423  30.49842000000001 3.0706533333333397  C 30.32422000000001 2.8422000000000054  30.130346666666682 2.673503333333329  29.91623666666669 2.5648233333333366  C 29.81033000000002 2.5113500000000073  29.704510000000013 2.480410000000006  29.599036666666677 2.4715266666666764  C 29.493823333333353 2.46268666666667  29.391773333333347 2.4775933333333455  29.292800000000028 2.516030000000015  L 29.268316666666692 2.525563333333352  C 28.97685666666669 2.639010000000013  28.79663333333336 2.8725766666666885  28.728730000000013 3.2249200000000116  C 28.693326666666692 3.4082200000000142  28.690510000000017 3.6108466666666885  28.720973333333347 3.832323333333335  C 28.75156666666669 4.053973333333346  28.817910000000012 4.294690000000003  28.91883333333334 4.553996666666677  Z " fill-rule="nonzero" fill="#ffffff" stroke="none" transform="matrix(1 0 0 1 428 143 )" />
  </g>
</svg>