<?xml version="1.0" encoding="utf-8"?>
<svg version="1.1" xmlns:xlink="http://www.w3.org/1999/xlink" width="11px" height="9px" xmlns="http://www.w3.org/2000/svg">
  <g transform="matrix(1 0 0 1 -255 -119 )">
    <path d="M 6.326793333333335 2.8190666666666573  C 6.313966666666673 3.9414866666666626  4.64273 3.785919999999976  4.642729999999993 3.7859200000000044  L 4.642469999999996 1.8454966666666621  C 4.642469999999996 1.8454966666666621  6.340746666666661 1.581639999999993  6.326793333333335 2.8190666666666573  Z M 10.61176666666666 8.10105333333334  C 10.286636666666652 6.89370000000001  9.747136666666655 5.555176666666682  8.747826666666661 4.923983333333339  C 8.747826666666661 4.923983333333339  10.24750666666666 4.016063333333335  10.010733333333327 2.2395700000000005  C 9.904003333333335 1.4405900000000003  9.469803333333331 0.9367533333333427  9.024033333333328 0.6247966666666684  C 8.55845999999999 0.2986266666666779  7.9918766666666565 0.14813000000000898  7.4232133333333294 0.14813000000000898  L 0.734583333333326 0.14869333333334112  L 0.7353633333333249 8.95086333333333  L 4.643033333333328 8.950646666666671  L 4.642729999999993 5.55574  C 6.971679999999999 5.752906666666675  6.8141199999999955 8.950300000000013  6.8141199999999955 8.950300000000013  L 10.840133333333327 8.949780000000018  L 10.61176666666666 8.10105333333334  Z " fill-rule="nonzero" fill="#8d4d0e" stroke="none" transform="matrix(1 0 0 1 255 119 )" />
  </g>
</svg>