<?xml version="1.0" encoding="utf-8"?>
<svg version="1.1" xmlns:xlink="http://www.w3.org/1999/xlink" width="12px" height="12px" xmlns="http://www.w3.org/2000/svg">
  <g transform="matrix(1 0 0 1 -189 -1944 )">
    <path d="M 7.2890625 6.9806201550387605  C 7.4921875 6.7299741602067185  7.627604166666668 6.604651162790697  7.6953125 6.604651162790697  C 7.763020833333334 6.604651162790697  8.016927083333334 6.718346253229974  8.45703125 6.945736434108528  C 8.897135416666668 7.173126614987079  9.130208333333334 7.3100775193798455  9.15625 7.356589147286822  C 9.166666666666668 7.382428940568475  9.171875 7.421188630490956  9.171875 7.472868217054264  C 9.171875 7.643410852713178  9.127604166666668 7.839793281653746  9.0390625 8.062015503875969  C 8.955729166666668 8.263565891472869  8.770833333333334 8.432816537467701  8.484375 8.569767441860463  C 8.197916666666668 8.70671834625323  7.932291666666667 8.775193798449614  7.6875 8.775193798449614  C 7.390625000000001 8.775193798449614  6.895833333333334 8.614987080103358  6.203125 8.294573643410853  C 5.692708333333334 8.062015503875969  5.25 7.757105943152453  4.875 7.379844961240311  C 4.5 7.002583979328166  4.114583333333334 6.52454780361757  3.71875 5.945736434108527  C 3.34375 5.3927648578811365  3.158854166666667 4.891472868217054  3.1640625 4.441860465116279  L 3.1640625 4.379844961240309  C 3.1796875000000004 3.9095607235142107  3.372395833333334 3.5012919896640815  3.7421875 3.155038759689922  C 3.8671875 3.041343669250645  4.002604166666667 2.9844961240310073  4.1484375 2.9844961240310073  C 4.1796875 2.9844961240310073  4.2265625 2.988372093023256  4.2890625 2.9961240310077515  C 4.3515625 3.0038759689922485  4.401041666666667 3.0077519379844957  4.4375 3.0077519379844957  C 4.536458333333334 3.0077519379844957  4.60546875 3.0245478036175704  4.64453125 3.058139534883721  C 4.68359375 3.0917312661498704  4.723958333333334 3.162790697674419  4.765625 3.271317829457364  C 4.807291666666667 3.3746770025839785  4.893229166666667 3.602067183462531  5.0234375 3.9534883720930236  C 5.153645833333334 4.304909560723514  5.21875 4.498708010335917  5.21875 4.534883720930233  C 5.21875 4.643410852713178  5.12890625 4.791989664082687  4.94921875 4.98062015503876  C 4.76953125 5.169250645994831  4.6796875 5.289405684754522  4.6796875 5.34108527131783  C 4.6796875 5.377260981912144  4.692708333333334 5.416020671834625  4.71875 5.45736434108527  C 4.895833333333334 5.834625322997416  5.161458333333334 6.188630490956071  5.515625 6.5193798449612395  C 5.807291666666667 6.79328165374677  6.200520833333334 7.054263565891473  6.6953125 7.3023255813953485  C 6.7578125 7.3385012919896635  6.815104166666666 7.356589147286822  6.8671875 7.356589147286822  C 6.945312500000001 7.356589147286822  7.085937500000001 7.2312661498708  7.2890625 6.9806201550387605  Z M 3.4140625 9.906976744186046  C 4.236979166666667 10.444444444444445  5.135416666666666 10.713178294573643  6.109375 10.713178294573643  C 6.770833333333334 10.713178294573643  7.404947916666668 10.583979328165373  8.01171875 10.325581395348838  C 8.618489583333334 10.0671834625323  9.140625 9.720930232558139  9.578125 9.286821705426357  C 10.015625 8.852713178294573  10.364583333333334 8.334625322997415  10.625 7.732558139534884  C 10.885416666666668 7.13049095607235  11.015625 6.5012919896640815  11.015625 5.844961240310078  C 11.015625 5.188630490956072  10.885416666666668 4.5594315245478025  10.625 3.957364341085271  C 10.364583333333334 3.3552971576227386  10.015625 2.837209302325581  9.578125 2.4031007751937983  C 9.140625 1.9689922480620154  8.618489583333334 1.6227390180878545  8.01171875 1.364341085271318  C 7.404947916666668 1.105943152454779  6.770833333333334 0.976744186046512  6.109375 0.976744186046512  C 5.447916666666667 0.976744186046512  4.813802083333334 1.105943152454779  4.20703125 1.364341085271318  C 3.600260416666667 1.6227390180878545  3.078125 1.9689922480620154  2.640625 2.4031007751937983  C 2.203125 2.837209302325581  1.8541666666666667 3.3552971576227386  1.59375 3.957364341085271  C 1.3333333333333335 4.5594315245478025  1.203125 5.188630490956072  1.203125 5.844961240310078  C 1.203125 6.894056847545219  1.515625 7.844961240310077  2.140625 8.69767441860465  L 1.5234375 10.503875968992249  L 3.4140625 9.906976744186046  Z M 3.82421875 0.46511627906976694  C 4.55078125 0.15503875968992187  5.3125 0  6.109375 0  C 6.90625 0  7.66796875 0.15503875968992187  8.39453125 0.46511627906976694  C 9.12109375 0.775193798449612  9.747395833333334 1.1912144702842369  10.2734375 1.713178294573643  C 10.799479166666668 2.235142118863049  11.21875 2.8565891472868223  11.53125 3.577519379844962  C 11.84375 4.2984496124031  12 5.054263565891472  12 5.844961240310078  C 12 6.6356589147286815  11.84375 7.391472868217055  11.53125 8.112403100775193  C 11.21875 8.833333333333334  10.799479166666668 9.454780361757106  10.2734375 9.976744186046512  C 9.747395833333334 10.498708010335918  9.12109375 10.914728682170542  8.39453125 11.224806201550388  C 7.66796875 11.534883720930234  6.90625 11.689922480620154  6.109375 11.689922480620154  C 5.09375 11.689922480620154  4.143229166666667 11.44702842377261  3.2578125 10.96124031007752  L 0 12  L 1.0625 8.86046511627907  C 0.5 7.940568475452197  0.21875 6.935400516795866  0.21875 5.844961240310078  C 0.21875 5.054263565891472  0.375 4.2984496124031  0.6875 3.577519379844962  C 1 2.8565891472868223  1.4192708333333335 2.235142118863049  1.9453125 1.713178294573643  C 2.471354166666667 1.1912144702842369  3.09765625 0.775193798449612  3.82421875 0.46511627906976694  Z " fill-rule="nonzero" fill="#000000" stroke="none" transform="matrix(1 0 0 1 189 1944 )" />
  </g>
</svg>