<?xml version="1.0" encoding="utf-8"?>
<svg version="1.1" xmlns:xlink="http://www.w3.org/1999/xlink" width="10px" height="11px" xmlns="http://www.w3.org/2000/svg">
  <g transform="matrix(1 0 0 1 -278 -118 )">
    <path d="M 8.761466666666664 8.585689999999971  C 9.45935 6.913846666666644  9.02263666666667 5.546853333333303  6.595406666666662 4.855339999999998  C 5.9042400000000015 4.658476666666672  5.367166666666662 4.368880000000004  5.128096666666664 4.132886666666664  C 4.691903333333329 3.7016766666666716  4.80049666666666 3.0570933333333414  5.404303333333331 2.9484133333333347  C 6.576729999999998 2.7378566666666586  7.6927366666666614 4.045179999999988  7.6927366666666614 4.045179999999988  L 8.728836666666666 1.5101366666666536  C 8.728836666666666 1.5101366666666536  3.361396666666664 -0.5374500000000211  1.4273866666666635 2.146963333333332  C 0.9635466666666588 2.790636666666657  0.8339799999999968 3.4469199999999915  0.8699900000000014 4.028366666666656  C 0.9811399999999963 5.82747999999998  3.0782133333333377 6.38266666666665  3.8258433333333386 6.751086666666652  C 4.759979999999999 7.211589999999987  4.668156666666661 7.869303333333307  4.398363333333336 8.07314333333332  C 4.068813333333338 8.322526666666647  3.4317700000000144 8.191269999999975  3.1153500000000065 8.027383333333304  C 2.316890000000008 7.613203333333303  1.4313300000000027 6.7513466666666355  1.4313300000000027 6.7513466666666355  L 0.4840633333333315 9.448586666666628  C 0.4840633333333315 9.448586666666628  3.3683300000000003 10.582446666666627  5.655116666666672 10.277206666666643  C 7.23435666666667 10.146253333333306  8.352096666666668 9.5664533333333  8.761466666666664 8.585689999999971  Z " fill-rule="nonzero" fill="#8d4d0e" stroke="none" transform="matrix(1 0 0 1 278 118 )" />
  </g>
</svg>