<?xml version="1.0" encoding="utf-8"?>
<svg version="1.1" xmlns:xlink="http://www.w3.org/1999/xlink" width="66px" height="11px" xmlns="http://www.w3.org/2000/svg">
  <g transform="matrix(1 0 0 1 -85 -106 )">
    <path d="M 1.6868999999999943 10.411326666666653  L 0.39508999999999617 10.411326666666653  L 0.39508999999999617 0.6349366666666612  L 6.850586666666665 0.6349366666666612  C 7.194609999999997 0.6349366666666612  7.523943333333328 0.7061766666666642  7.835033333333335 0.8525999999999884  C 8.146080000000005 0.999066666666657  8.41691333333334 1.196969999999986  8.647446666666667 1.4463099999999898  C 8.87798 1.695693333333324  9.064616666666666 1.992526666666656  9.2074 2.3329533333333288  C 9.350096666666666 2.673336666666657  9.423286666666662 3.03746666666666  9.434249999999999 3.429329999999993  L 9.434249999999999 4.826483333333329  C 9.434249999999999 5.198586666666664  9.368426666666664 5.550843333333327  9.236649999999997 5.887283333333329  C 9.101233333333333 6.2236799999999874  8.918280000000003 6.516569999999987  8.687746666666662 6.77388333333333  C 8.45353 7.031153333333335  8.17901333333333 7.233000000000004  7.864283333333326 7.387353333333323  C 7.549596666666659 7.541749999999992  7.2128966666666585 7.616933333333321  6.850586666666658 7.616933333333321  L 1.6868999999999943 7.616933333333321  L 1.6868999999999943 10.411326666666653  Z M 1.6869000000000014 2.032133333333327  L 1.6868999999999943 6.223679999999995  L 6.850586666666665 6.223679999999995  C 7.212896666666673 6.223679999999995  7.516663333333327 6.089129999999997  7.7691666666666634 5.816043333333333  C 8.018029999999996 5.546899999999994  8.142439999999993 5.218346666666662  8.142439999999993 4.826483333333329  L 8.142439999999993 3.429329999999993  C 8.142439999999993 3.03746666666666  8.018029999999996 2.7089566666666656  7.7691666666666634 2.435869999999994  C 7.516663333333327 2.166726666666662  7.2128966666666585 2.032133333333327  6.850586666666665 2.032133333333327  L 1.6869000000000014 2.032133333333327  Z M 11.754446666666674 10.411326666666653  L 10.462636666666661 10.411326666666653  L 10.462636666666661 0.6349366666666612  L 16.91813333333333 0.6349366666666612  C 17.251149999999996 0.6349366666666612  17.57684333333333 0.7061766666666642  17.895213333333324 0.8525999999999884  C 18.20994333333332 0.999066666666657  18.48445999999999 1.196969999999986  18.722316666666664 1.4463099999999898  C 18.956533333333326 1.695693333333324  19.146766666666664 1.992526666666656  19.28950666666666 2.3329533333333288  C 19.432203333333327 2.673336666666657  19.501796666666657 3.03746666666666  19.501796666666657 3.429329999999993  L 19.501796666666657 4.826483333333329  C 19.501796666666657 5.12730333333333  19.457856666666665 5.412306666666666  19.37370333333333 5.685436666666661  C 19.285866666666656 5.958523333333325  19.161456666666666 6.211849999999991  19.00407 6.445373333333328  C 18.843086666666665 6.67885333333333  18.652723333333334 6.88867333333333  18.436880000000002 7.066816666666669  C 18.217266666666667 7.244916666666669  17.97213 7.383453333333321  17.70493666666667 7.478396666666654  L 19.501796666666664 9.421809999999994  L 19.501796666666664 10.411326666666653  L 18.586900000000007 10.411326666666653  L 16.003236666666673 7.616933333333321  L 11.754446666666674 7.616933333333321  L 11.754446666666674 10.411326666666653  Z M 11.754446666666666 2.032133333333327  L 11.754446666666666 6.223679999999995  L 16.91813333333333 6.223679999999995  C 17.28044333333333 6.223679999999995  17.58412333333333 6.089129999999997  17.83671333333333 5.816043333333333  C 18.085533333333323 5.546899999999994  18.20994333333332 5.218346666666662  18.20994333333332 4.826483333333329  L 18.20994333333332 3.429329999999993  C 18.20994333333332 3.03746666666666  18.085533333333323 2.7089566666666656  17.83671333333333 2.435869999999994  C 17.584123333333324 2.166726666666662  17.280443333333324 2.032133333333327  16.91813333333333 2.032133333333327  L 11.754446666666666 2.032133333333327  Z M 29.693709999999996 10.411326666666668  L 20.65450666666667 10.411326666666653  L 20.65450666666667 0.6349366666666612  L 29.693709999999996 0.6349366666666612  L 29.693709999999996 2.032133333333327  L 21.94636 2.032133333333327  L 21.94636 4.826483333333329  L 28.40185666666666 4.826483333333329  L 28.40185666666666 6.223679999999995  L 21.94636 6.223679999999995  L 21.94636 9.014129999999994  L 29.693709999999996 9.014129999999994  L 29.693709999999996 10.411326666666668  Z M 32.01382000000001 10.411326666666653  L 30.722010000000004 10.411326666666653  L 30.722010000000004 0.6349366666666612  L 32.01382000000001 0.6349366666666612  L 35.88938 6.682839999999992  L 39.76117000000002 0.6349366666666612  L 41.05306666666668 0.6349366666666612  L 41.05306666666668 10.411326666666653  L 39.76117000000002 10.411326666666653  L 39.76117000000002 3.1363966666666627  L 35.88938000000002 9.18434333333333  L 32.01382000000001 3.1363966666666627  L 32.01382000000001 10.411326666666653  Z M 45.12982333333336 8.713309999999993  C 44.99076666666669 8.372926666666658  44.92117333333334 8.008796666666655  44.92117333333333 7.616933333333321  L 44.92117333333333 0.6349366666666612  L 46.213026666666664 0.6349366666666612  L 46.213026666666664 7.616933333333321  C 46.213026666666664 8.008796666666655  46.33748 8.337306666666663  46.589983333333336 8.606449999999995  C 46.83884666666667 8.87957999999999  47.14261333333333 9.014129999999994  47.50488 9.014129999999994  L 51.376756666666665 9.014129999999994  C 51.73902333333332 9.014129999999994  52.04274666666666 8.87957999999999  52.295249999999996 8.606449999999995  C 52.54415666666665 8.337306666666663  52.66856666666666 8.008796666666655  52.66856666666666 7.616933333333321  L 52.66856666666666 0.6349366666666612  L 53.960376666666676 0.6349366666666612  L 53.960376666666676 7.616933333333321  C 53.960376666666676 7.988993333333326  53.89451 8.341293333333326  53.76273333333333 8.677689999999998  C 53.62731666666667 9.014129999999994  53.44436333333333 9.31096333333332  53.213830000000016 9.56429  C 52.97961333333335 9.821603333333329  52.70509666666668 10.023449999999997  52.390453333333355 10.17780333333333  C 52.07572333333334 10.332199999999986  51.73902333333335 10.411326666666653  51.37675666666668 10.411326666666653  L 47.50488000000003 10.411326666666653  C 47.16085666666669 10.411326666666653  46.831523333333365 10.340086666666664  46.52043333333336 10.193663333333333  C 46.20570333333335 10.051140000000004  45.93123000000001 9.853279999999998  45.69333000000003 9.599953333333332  C 45.45551666666668 9.350613333333328  45.2651966666667 9.053736666666666  45.12982333333336 8.713309999999993  Z M 56.54035666666665 10.411326666666653  L 55.248546666666655 10.411326666666653  L 55.248546666666655 0.6349366666666612  L 56.54035666666665 0.6349366666666612  L 60.41587333333332 6.682839999999992  L 64.28770666666665 0.6349366666666612  L 65.57951666666665 0.6349366666666612  L 65.57951666666665 10.411326666666653  L 64.28770666666665 10.411326666666653  L 64.28770666666665 3.1363966666666627  L 60.41587333333332 9.18434333333333  L 56.54035666666665 3.1363966666666627  L 56.54035666666665 10.411326666666653  Z " fill-rule="nonzero" fill="#ffffff" stroke="none" transform="matrix(1 0 0 1 85 106 )" />
  </g>
</svg>