<?xml version="1.0" encoding="utf-8"?>
<svg version="1.1" xmlns:xlink="http://www.w3.org/1999/xlink" width="66px" height="6px" xmlns="http://www.w3.org/2000/svg">
  <g transform="matrix(1 0 0 1 -85 -119 )">
    <path d="M 3.0179266666666607 1.2814266666666754  L 4.984999999999999 1.2814266666666754  L 4.984999999999999 0.6257500000000107  L 0.3951766666666643 0.6257500000000107  L 0.3951766666666643 1.2814266666666754  L 2.362249999999996 1.2814266666666754  L 2.362249999999996 5.215573333333339  L 3.0179266666666607 5.215573333333339  L 3.0179266666666607 1.2814266666666754  Z M 9.246963333333333 1.9371466666666777  L 9.246963333333333 2.5928233333333424  C 9.246963333333333 2.9534433333333396  8.951906666666666 3.248500000000007  8.591286666666669 3.248500000000007  L 5.968536666666672 3.248500000000007  L 5.968536666666672 1.2814266666666896  L 8.591286666666669 1.2814266666666896  C 8.951906666666666 1.2814266666666896  9.246963333333333 1.576483333333357  9.246963333333333 1.9371466666666777  Z M 9.437153333333335 5.2155733333333245  L 9.902683333333336 5.215573333333339  L 9.902683333333336 4.750043333333338  L 8.991253333333333 3.8386133333333277  C 9.535476666666668 3.6550533333333277  9.902683333333336 3.1501333333333292  9.902683333333336 2.592823333333328  L 9.902683333333336 1.9371466666666493  C 9.902683333333336 1.209319999999991  9.279766666666667 0.6257499999999823  8.591286666666669 0.6257499999999823  L 5.312860000000008 0.6257499999999823  L 5.312860000000008 5.2155733333333245  L 5.968536666666672 5.2155733333333245  L 5.968536666666672 3.9041766666666575  L 8.125756666666668 3.9041766666666575  L 9.437153333333335 5.2155733333333245  Z M 14.426900000000003 0.6257500000000107  L 14.426899999999996 3.9041766666666717  C 14.426899999999996 4.264840000000007  14.131843333333329 4.559896666666674  13.771223333333332 4.559896666666674  L 11.80415 4.559896666666674  C 11.443530000000003 4.559896666666674  11.148473333333335 4.264840000000007  11.148473333333335 3.9041766666666717  L 11.148473333333335 0.6257500000000107  L 10.49279666666667 0.6257500000000107  L 10.49279666666667 3.9041766666666717  C 10.49279666666667 4.645133333333348  11.102583333333328 5.215573333333339  11.804150000000007 5.215573333333339  L 13.771223333333339 5.215573333333339  C 14.505593333333337 5.215573333333339  15.082620000000006 4.599243333333348  15.082620000000006 3.9041766666666717  L 15.082620000000006 0.6257500000000107  L 14.426900000000003 0.6257500000000107  Z M 18.95116 0.6257500000000107  L 16.984086666666663 0.6257500000000107  C 16.24971666666667 0.6454233333333406  15.672733333333326 1.2289933333333352  15.672733333333326 1.9371466666666635  L 15.672733333333326 3.9041766666666717  C 15.672733333333326 4.645133333333348  16.28251999999999 5.215573333333339  16.984086666666663 5.215573333333339  L 18.95116 5.215573333333339  C 19.68553 5.215573333333339  20.26255666666666 4.599243333333348  20.26255666666666 3.9041766666666717  L 19.606836666666666 3.9041766666666717  C 19.606836666666666 4.264840000000007  19.31178 4.559896666666674  18.95116 4.559896666666674  L 16.984086666666663 4.559896666666674  C 16.623466666666673 4.559896666666674  16.328410000000005 4.264840000000007  16.328410000000005 3.9041766666666717  L 16.328410000000005 1.9371466666666635  C 16.328410000000005 1.5764833333333428  16.623466666666673 1.2814266666666754  16.984086666666663 1.2814266666666754  L 18.95116 1.2814266666666754  C 19.31178 1.2814266666666754  19.606836666666666 1.5764833333333428  19.606836666666666 1.9371466666666635  L 20.26255666666666 1.9371466666666635  C 20.242883333333324 1.2093200000000053  19.652770000000004 0.6257500000000107  18.95116 0.6257500000000107  Z M 23.08204 2.92064000000002  L 25.376973333333332 0.6257500000000107  L 24.452456666666663 0.6257500000000107  L 22.485383333333324 2.5928233333333424  L 21.442783333333324 2.5928233333333424  L 21.442783333333324 0.6257500000000107  L 20.78710666666666 0.6257500000000107  L 20.78710666666666 5.215573333333339  L 21.442783333333324 5.215573333333339  L 21.442783333333324 3.248500000000007  L 22.485383333333324 3.248500000000007  L 24.452456666666663 5.215573333333339  L 25.376973333333332 5.215573333333339  L 23.08204 2.92064000000002  Z M 32.26168666666666 1.9371466666666635  L 32.26168666666666 3.9041766666666717  C 32.26168666666666 4.264840000000007  31.966630000000002 4.559896666666674  31.606010000000005 4.559896666666674  L 28.98326 4.559896666666674  L 28.98326 1.2814266666666754  L 31.606010000000005 1.2814266666666754  C 31.966630000000002 1.2814266666666754  32.26168666666666 1.5764833333333428  32.26168666666666 1.9371466666666635  Z M 32.917406666666665 3.9041766666666717  L 32.917406666666665 1.9371466666666635  C 32.897733333333335 1.2093200000000053  32.30762 0.6257500000000107  31.606010000000005 0.6257500000000107  L 28.327583333333337 0.6257500000000107  L 28.327583333333337 5.215573333333339  L 31.606010000000005 5.215573333333339  C 32.340379999999996 5.215573333333339  32.917406666666665 4.599243333333348  32.917406666666665 3.9041766666666717  Z M 34.163196666666664 2.592823333333328  L 34.163196666666664 1.2814266666666754  L 38.09734333333333 1.2814266666666754  L 38.09734333333333 0.6257500000000107  L 33.50752 0.6257500000000107  L 33.50752 5.215573333333339  L 38.09734333333333 5.215573333333339  L 38.09734333333333 4.559896666666674  L 34.163196666666664 4.559896666666674  L 34.163196666666664 3.248499999999993  L 37.441623333333325 3.248499999999993  L 37.441623333333325 2.592823333333328  L 34.163196666666664 2.592823333333328  Z M 40.91678333333333 1.2814266666666754  L 42.88385666666666 1.2814266666666754  L 42.88385666666666 0.6257500000000107  L 38.29403333333333 0.6257500000000107  L 38.29403333333333 1.2814266666666754  L 40.26110666666666 1.2814266666666754  L 40.26110666666666 5.215573333333339  L 40.91678333333333 5.215573333333339  L 40.91678333333333 1.2814266666666754  Z M 44.32638 1.2814266666666754  L 46.29345333333333 1.2814266666666754  C 46.65407333333334 1.2814266666666754  46.94913000000001 1.5764833333333428  46.94913000000001 1.9371466666666635  L 46.94913000000001 3.248499999999993  L 43.670703333333336 3.248499999999993  L 43.670703333333336 1.9371466666666635  C 43.670703333333336 1.5764833333333428  43.96576 1.2814266666666754  44.32638 1.2814266666666754  Z M 47.60485000000003 5.215573333333339  L 47.60485 1.9371466666666635  C 47.58517666666667 1.2093200000000053  46.995063333333334 0.6257500000000107  46.29345333333333 0.6257500000000107  L 44.32638 0.6257500000000107  C 43.59201 0.6257500000000107  43.015026666666685 1.2420800000000156  43.015026666666685 1.9371466666666635  L 43.015026666666685 5.215573333333339  L 43.67070333333335 5.215573333333339  L 43.67070333333335 3.9041766666666717  L 46.949130000000025 3.9041766666666717  L 46.949130000000025 5.215573333333339  L 47.60485000000003 5.215573333333339  Z M 48.26052666666668 0.6257500000000107  L 48.26052666666668 5.215573333333339  L 48.91620333333336 5.215573333333339  L 48.91620333333336 0.6257500000000107  L 48.26052666666668 0.6257500000000107  Z M 50.22760000000001 4.559896666666674  L 50.22760000000001 0.6257500000000107  L 49.57192333333333 0.6257500000000107  L 49.57192333333333 5.215573333333339  L 54.161789999999996 5.215573333333339  L 54.161789999999996 4.559896666666674  L 50.22760000000001 4.559896666666674  Z M 54.48965 0.6257500000000107  L 54.48965 5.215573333333339  L 55.145326666666676 5.215573333333339  L 55.145326666666676 0.6257500000000107  L 54.48965 0.6257500000000107  Z M 60.39087000000001 5.215573333333339  L 60.39087000000001 0.6257500000000107  L 59.735150000000004 0.6257500000000107  L 59.735150000000004 4.100910000000013  L 56.45672333333333 0.6257500000000107  L 55.801046666666664 0.6257500000000107  L 55.801046666666664 5.215573333333339  L 56.45672333333333 5.215573333333339  L 56.45672333333333 1.687979999999996  L 59.735150000000004 5.215573333333339  L 60.39087000000001 5.215573333333339  Z M 62.948013333333336 2.5928233333333424  L 62.948013333333336 3.248499999999993  L 64.91508666666667 3.248499999999993  L 64.91508666666667 3.9041766666666717  C 64.91508666666667 4.264840000000007  64.62003 4.559896666666674  64.25940999999999 4.559896666666674  L 62.29233666666667 4.559896666666674  C 61.93171666666666 4.559896666666674  61.63665999999999 4.264840000000007  61.63665999999999 3.9041766666666717  L 61.63665999999999 1.9371466666666635  C 61.63665999999999 1.5764833333333428  61.93171666666666 1.2814266666666754  62.29233666666667 1.2814266666666754  L 64.25940999999999 1.2814266666666754  C 64.62003 1.2814266666666754  64.91508666666667 1.5764833333333428  64.91508666666667 1.9371466666666635  L 65.57080666666667 1.9371466666666635  C 65.55113333333333 1.2093200000000053  64.96101999999999 0.6257500000000107  64.25940999999999 0.6257500000000107  L 62.29233666666667 0.6257500000000107  C 61.55796666666666 0.6257500000000107  60.98098333333334 1.2420800000000156  60.98098333333334 1.9371466666666635  L 60.98098333333334 3.9041766666666717  C 60.98098333333334 4.645133333333348  61.590770000000006 5.215573333333339  62.29233666666667 5.215573333333339  L 64.25940999999999 5.215573333333339  C 64.99378 5.215573333333339  65.57080666666667 4.599243333333348  65.57080666666667 3.9041766666666717  L 65.57080666666667 2.5928233333333424  L 62.948013333333336 2.5928233333333424  Z " fill-rule="nonzero" fill="#00ffff" stroke="none" transform="matrix(1 0 0 1 85 119 )" />
  </g>
</svg>