<?xml version="1.0" encoding="utf-8"?>
<svg version="1.1" xmlns:xlink="http://www.w3.org/1999/xlink" width="39px" height="45px" xmlns="http://www.w3.org/2000/svg">
  <g transform="matrix(1 0 0 1 -120 -91 )">
    <path d="M 7.092433999999983 14.097210000000002  C 4.8260139999999865 15.460494000000004  0.8186859999999854 19.177948000000008  0.12352400000000328 22.263524000000004  C 1.2877780000000028 21.633648000000008  10.739506000000006 12.622048000000008  15.681846000000007 20.834953999999996  C 16.801978000000005 22.69629400000001  16.521125999999995 25.422212000000002  15.734366000000009 27.521088000000006  C 13.764970000000007 32.77459599999999  9.220222000000007 37.33016000000001  5.650058000000001 41.10031599999999  C 4.323382000000009 42.501352  2.869644000000008 43.48870199999999  1.624374000000003 44.91279999999999  C 4.312072000000001 44.81340199999998  13.361735999999993 39.80486599999999  15.365867999999992 38.53648199999999  C 23.679991999999984 33.274472  30.605221999999998 25.978768000000002  34.648533999999984 17.066461999999994  C 36.61657799999999 12.72838799999999  38.604121999999975 6.266945999999997  38.73204199999999 0.4942179999999965  C 38.03997399999999 0.9656499999999966  37.473355999999995 3.183371999999999  35.893232 5.331803999999998  C 34.724141999999986 6.9214699999999985  33.705904000000004 7.956945999999996  32.087846 9.042342000000005  C 24.64815399999999 14.033146000000002  16.353972 8.526476000000002  7.092433999999983 14.097210000000002  Z " fill-rule="nonzero" fill="#3c3b6e" stroke="none" transform="matrix(1 0 0 1 120 91 )" />
  </g>
</svg>