<?xml version="1.0" encoding="utf-8"?>
<svg version="1.1" xmlns:xlink="http://www.w3.org/1999/xlink" width="40px" height="45px" xmlns="http://www.w3.org/2000/svg">
  <g transform="matrix(1 0 0 1 -81 -91 )">
    <path d="M 32.15461400000002 14.097210000000002  C 34.42103400000001 15.460494000000004  38.42836200000001 19.177948000000008  39.123524 22.263524000000004  C 37.959270000000004 21.633648000000008  28.507542 12.622048000000008  23.565202 20.834953999999996  C 22.44507 22.69629400000001  22.725922000000004 25.422212000000002  23.512681999999998 27.521088000000006  C 25.482077999999994 32.77459599999999  30.026825999999993 37.33016000000001  33.59699 41.10031599999999  C 34.923666 42.501352  36.377404 43.48870199999999  37.622674 44.91279999999999  C 34.934976 44.81340199999998  25.885312000000006 39.80486599999999  23.881180000000008 38.53648199999999  C 15.567056000000008 33.274472  8.641826000000002 25.978768000000002  4.598514000000009 17.066461999999994  C 2.630470000000006 12.72838799999999  0.6429260000000028 6.266945999999997  0.5150060000000067 0.4942179999999965  C 1.2070740000000093 0.9656499999999966  1.7736920000000076 3.183371999999999  3.353816000000009 5.331803999999998  C 4.522906000000006 6.9214699999999985  5.54114400000001 7.956945999999996  7.159202000000008 9.042342000000005  C 14.598894000000001 14.033146000000002  22.893076 8.526476000000002  32.15461400000002 14.097210000000002  Z " fill-rule="nonzero" fill="#b22234" stroke="none" transform="matrix(1 0 0 1 81 91 )" />
  </g>
</svg>