<?xml version="1.0" encoding="utf-8"?>
<svg version="1.1" xmlns:xlink="http://www.w3.org/1999/xlink" width="7px" height="7px" xmlns="http://www.w3.org/2000/svg">
  <g transform="matrix(1 0 0 1 -137 -88 )">
    <path d="M 6.6014200000000045 0.40484599999999915  C 5.424139999999994 0.40484599999999915  4.32668000000001 0.7463559999999987  3.402483999999987 1.3355159999999984  L 3.9455459999999936 1.3355159999999984  L 3.4403919999999886 1.7025059999999996  L 3.6333640000000003 2.2963459999999927  L 3.128236000000001 1.929329999999993  L 2.6230819999999966 2.2963459999999927  L 2.789767999999995 1.7833399999999955  C 2.345011999999997 2.153813999999997  1.9551680000000002 2.5878839999999954  1.6339120000000094 3.0715359999999947  L 1.8079299999999987 3.0715359999999947  L 1.4863619999999997 3.3051459999999935  C 1.4362859999999955 3.388709999999996  1.3882380000000012 3.4735999999999976  1.3421920000000114 3.559763999999994  L 1.4957220000000149 4.032339999999991  L 1.2092540000000156 3.8242099999999937  C 1.138040000000018 3.9750879999999924  1.0729100000000216 4.129345999999998  1.0143580000000156 4.286827999999993  L 1.183540000000022 4.807555999999991  L 1.8079300000000276 4.807555999999991  L 1.3027760000000228 5.174545999999992  L 1.4957220000000149 5.768359999999994  L 0.9905940000000157 5.401369999999993  L 0.6880060000000157 5.621225999999993  C 0.6577420000000131 5.864689999999989  0.6419340000000204 6.11265199999999  0.6419340000000204 6.364331999999997  L 6.6014200000000045 6.364331999999997  C 6.6014200000000045 3.0730179999999976  6.6014200000000045 2.684993999999996  6.6014200000000045 0.40484599999999915  Z M 3.4403919999999886 5.174545999999992  L 3.6333640000000003 5.768359999999994  L 3.128236000000001 5.401369999999993  L 2.6230819999999966 5.768359999999994  L 2.816053999999994 5.174545999999992  L 2.3108999999999895 4.807555999999991  L 2.935289999999995 4.807555999999991  L 3.128236000000001 4.213715999999991  L 3.321181999999993 4.807555999999991  L 3.9455459999999936 4.807555999999991  L 3.4403919999999886 5.174545999999992  Z M 3.9455459999999936 3.0715359999999947  L 3.4403919999999886 3.438525999999996  L 3.6333640000000003 4.032339999999991  L 3.128236000000001 3.665349999999989  L 2.6230819999999966 4.032339999999991  L 2.816053999999994 3.438525999999996  L 2.3108999999999895 3.0715359999999947  L 2.935289999999995 3.0715359999999947  L 3.128236000000001 2.4776959999999946  L 3.321181999999993 3.0715359999999947  L 3.9455459999999936 3.0715359999999947  Z M 5.578033999999988 5.174545999999992  L 5.771005999999986 5.768359999999994  L 5.265851999999981 5.401369999999993  L 4.760723999999996 5.768359999999994  L 4.953695999999994 5.174545999999992  L 4.448541999999989 4.807555999999991  L 5.0729319999999944 4.807555999999991  L 5.265851999999981 4.213715999999991  L 5.458797999999987 4.807555999999991  L 6.083187999999993 4.807555999999991  L 5.578033999999988 5.174545999999992  Z M 6.083187999999993 3.0715359999999947  L 5.578033999999988 3.438525999999996  L 5.771005999999986 4.032339999999991  L 5.265851999999981 3.665349999999989  L 4.760723999999996 4.032339999999991  L 4.953669999999988 3.438525999999996  L 4.448515999999984 3.0715359999999947  L 5.0729319999999944 3.0715359999999947  L 5.265851999999981 2.4776959999999946  L 5.458797999999987 3.0715359999999947  L 6.083187999999993 3.0715359999999947  Z M 6.083187999999993 1.3355159999999913  L 5.578033999999988 1.7025059999999925  L 5.771005999999986 2.2963459999999927  L 5.265851999999981 1.929329999999993  L 4.760723999999996 2.2963459999999927  L 4.953695999999994 1.7025059999999925  L 4.448541999999989 1.3355159999999913  L 5.0729319999999944 1.3355159999999913  L 5.265851999999981 0.7416759999999911  L 5.458797999999987 1.3355159999999913  L 6.083187999999993 1.3355159999999913  Z " fill-rule="nonzero" fill="#3c3b6e" stroke="none" transform="matrix(1 0 0 1 137 88 )" />
  </g>
</svg>