<?xml version="1.0" encoding="utf-8"?>
<svg version="1.1" xmlns:xlink="http://www.w3.org/1999/xlink" width="72px" height="15px" xmlns="http://www.w3.org/2000/svg">
  <g transform="matrix(1 0 0 1 -85 -143 )">
    <path d="M 5.623950000000001 4.351707999999988  L 5.623950000000001 5.255337999999995  L 3.3807219999999987 5.255337999999995  L 3.3807219999999987 4.351707999999988  L 3.8563139999999976 4.351707999999988  L 2.9130599999999944 3.083453999999975  L 2.2789199999999923 3.083453999999975  L 2.2789199999999923 4.351707999999988  L 2.714887999999995 4.351707999999988  L 2.714887999999995 5.255337999999995  L 0.6619019999999978 5.255337999999995  L 0.6619019999999978 4.351707999999988  L 1.2167679999999947 4.351707999999988  L 1.2167679999999947 1.0066779999999795  L 0.6619019999999978 1.0066779999999795  L 0.6619019999999978 0.10304799999997272  L 2.738677999999993 0.10304799999997272  L 2.738677999999993 1.0066779999999795  L 2.2789199999999923 1.0066779999999795  L 2.2789199999999923 2.2194479999999714  L 2.9288939999999926 2.2194479999999714  L 3.840453999999994 1.0066779999999795  L 3.396581999999995 1.0066779999999795  L 3.396581999999995 0.10304799999997272  L 5.536745999999994 0.10304799999997272  L 5.536745999999994 1.0066779999999795  L 4.958115999999997 1.0066779999999795  L 3.7294860000000014 2.552377999999976  L 5.092873999999995 4.351707999999988  L 5.623950000000001 4.351707999999988  Z M 10.736616000000005 0.10304799999998693  L 10.736615999999998 1.0066779999999937  L 10.292718 1.0066779999999937  L 8.794597999999993 3.241975999999994  L 8.794597999999993 4.351708000000002  L 9.634813999999999 4.351708000000002  L 9.634813999999999 5.255338000000009  L 6.939757999999998 5.255338000000009  L 6.939757999999998 4.351708000000002  L 7.732419999999998 4.351708000000002  L 7.732419999999998 3.234045999999992  L 6.186745999999999 1.0066779999999937  L 5.726987999999999 1.0066779999999937  L 5.726987999999999 0.10304799999998693  L 7.859248000000001 0.10304799999998693  L 7.859248000000001 1.0066779999999937  L 7.431210000000007 1.0066779999999937  L 8.295216000000003 2.3066519999999855  L 8.342770000000002 2.3066519999999855  L 9.198846000000003 1.0066779999999937  L 8.707394 1.0066779999999937  L 8.707394 0.10304799999998693  L 10.736616000000005 0.10304799999998693  Z M 15.777911999999986 4.3517079999999595  L 15.777911999999993 5.255337999999995  L 14.46210399999999 5.255337999999995  L 13.439575999999995 3.289529999999985  L 12.742021999999992 3.289529999999985  L 12.742021999999992 4.351707999999988  L 13.296887999999988 4.351707999999988  L 13.296887999999988 5.255337999999995  L 11.12500399999999 5.255337999999995  L 11.12500399999999 4.351707999999988  L 11.679869999999994 4.351707999999988  L 11.679869999999994 1.0066779999999795  L 11.12500399999999 1.0066779999999795  L 11.12500399999999 0.10304799999997272  L 13.455409999999993 0.10304799999997272  C 14.094827999999993 0.10304799999997272  14.586279999999995 0.23382799999997417  14.929766 0.4954139999999683  C 15.273252 0.7569999999999766  15.444981999999996 1.1467139999999745  15.444981999999996 1.6645819999999816  C 15.444981999999996 2.0133719999999755  15.355151999999997 2.3053259999999796  15.175491999999991 2.5404699999999707  C 14.995832 2.7756399999999672  14.75803599999999 2.9513479999999674  14.46210399999999 3.067593999999957  L 15.159631999999988 4.3517079999999595  L 15.777911999999986 4.3517079999999595  Z M 14.081619999999994 2.2511679999999785  C 14.22958599999999 2.11903599999998  14.303555999999993 1.9314459999999798  14.303555999999993 1.6883719999999727  C 14.303555999999993 1.4294379999999904  14.226933999999986 1.2510779999999784  14.073689999999992 1.1533179999999845  C 13.920445999999998 1.0555579999999765  13.650929999999995 1.0066779999999795  13.265193999999994 1.0066779999999795  L 12.742021999999992 1.0066779999999795  L 12.742021999999992 2.4493139999999727  L 13.24933399999999 2.4493139999999727  C 13.65623399999999 2.4493139999999727  13.93365399999999 2.3832739999999717  14.081619999999994 2.2511679999999785  Z M 21.04117 2.409690000000012  L 21.041169999999987 3.3053899999999743  L 20.787513999999987 3.3053899999999743  L 20.787513999999987 5.255337999999995  L 19.963157999999986 5.255337999999995  L 19.860093999999982 4.716331999999994  C 19.701571999999985 4.901295999999988  19.499447999999987 5.050561999999999  19.253721999999982 5.164181999999997  C 19.007995999999984 5.277801999999994  18.71866799999998 5.334612000000007  18.38576399999998 5.334612000000007  C 17.661793999999972 5.334612000000007  17.08711599999998 5.083607999999998  16.661729999999977 4.581574000000003  C 16.236317999999983 4.079566  16.023637999999984 3.4586340000000035  16.023637999999984 2.718829999999997  C 16.023637999999984 1.9789999999999994  16.24822599999998 1.3448860000000025  16.697401999999983 0.8164359999999959  C 17.146577999999977 0.28801200000000904  17.807107999999985 0.02377399999998886  18.679043999999976 0.02377399999998886  C 19.096499999999978 0.02377399999998886  19.475657999999974 0.08456199999997693  19.81651799999998 0.2060859999999991  C 20.15735199999998 0.32763599999999826  20.41233399999998 0.4729499999999973  20.58141199999998 0.6420540000000017  L 20.72409999999998 1.7597160000000116  L 19.868023999999984 1.8389640000000185  L 19.725361999999983 1.2365440000000234  C 19.587951999999987 1.146714000000017  19.414895999999985 1.0780220000000185  19.20616799999999 1.0304680000000133  C 18.997413999999985 0.982914000000008  18.805871999999994 0.9591240000000028  18.631489999999992 0.9591240000000028  C 18.208729999999996 0.9591240000000028  17.858639999999994 1.1018119999999954  17.581193999999996 1.3871620000000036  C 17.30377399999999 1.6725119999999976  17.165063999999994 2.111131999999998  17.165063999999994 2.7029700000000076  C 17.165063999999994 3.2736960000000153  17.295843999999995 3.6990820000000184  17.557429999999997 3.9791539999999945  C 17.819015999999998 4.259225999999998  18.158523999999993 4.399262000000007  18.576005999999992 4.399262000000007  C 18.924769999999988 4.399262000000007  19.202189999999995 4.306780000000003  19.408291999999996 4.121842000000015  C 19.614367999999992 3.936878000000007  19.717431999999995 3.675292000000013  19.717431999999995 3.33711000000001  L 19.717431999999995 3.305390000000017  L 18.710738 3.305390000000017  L 18.710738 2.409690000000012  L 21.04117 2.409690000000012  Z M 26.21724999999997 0.10304799999997272  L 26.217249999999986 1.0066779999999795  L 25.77335199999999 1.0066779999999795  L 24.27523199999999 3.2419759999999798  L 24.27523199999999 4.351707999999988  L 25.115447999999986 4.351707999999988  L 25.115447999999986 5.255337999999995  L 22.420391999999985 5.255337999999995  L 22.420391999999985 4.351707999999988  L 23.21305399999998 4.351707999999988  L 23.21305399999998 3.234045999999978  L 21.66737999999998 1.0066779999999795  L 21.207621999999972 1.0066779999999795  L 21.207621999999972 0.10304799999997272  L 23.339881999999967 0.10304799999997272  L 23.339881999999967 1.0066779999999795  L 22.911843999999967 1.0066779999999795  L 23.77584999999997 2.3066519999999713  L 23.823403999999968 2.3066519999999713  L 24.67947999999997 1.0066779999999795  L 24.188027999999967 1.0066779999999795  L 24.188027999999967 0.10304799999997272  L 26.21724999999997 0.10304799999997272  Z M 30.814647999999977 3.4797719999999543  L 30.656125999999986 5.255337999999966  L 26.486739999999983 5.255337999999966  L 26.462949999999978 4.708401999999964  L 29.07873199999998 1.014607999999967  L 29.07873199999998 1.0066779999999511  L 27.68364999999998 1.0066779999999511  L 27.525127999999974 1.8072699999999458  L 26.621497999999974 1.727995999999962  L 26.78001999999998 0.1030479999999443  L 30.63233599999998 0.1030479999999443  L 30.648195999999977 0.5865699999999521  L 27.99278999999997 4.335847999999942  L 27.99278999999997 4.351707999999945  L 29.75249599999998 4.351707999999945  L 29.911017999999977 3.4005239999999475  L 30.814647999999977 3.4797719999999543  Z M 37.22728799999996 0.10304799999997272  L 37.22728799999999 1.0066779999999795  L 36.78338999999998 1.0066779999999795  L 35.28526999999998 3.2419759999999798  L 35.28526999999998 4.351707999999988  L 36.12548599999998 4.351707999999988  L 36.12548599999998 5.255337999999995  L 33.43042999999997 5.255337999999995  L 33.43042999999997 4.351707999999988  L 34.22309199999998 4.351707999999988  L 34.22309199999998 3.234045999999978  L 32.677417999999975 1.0066779999999795  L 32.21765999999997 1.0066779999999795  L 32.21765999999997 0.10304799999997272  L 34.349919999999955 0.10304799999997272  L 34.349919999999955 1.0066779999999795  L 33.921881999999954 1.0066779999999795  L 34.78588799999996 2.3066519999999713  L 34.83344199999996 2.3066519999999713  L 35.689517999999964 1.0066779999999795  L 35.198065999999955 1.0066779999999795  L 35.198065999999955 0.10304799999997272  L 37.22728799999996 0.10304799999997272  Z M 43.116729999999976 0.10304799999997272  L 43.11672999999999 1.0066779999999795  L 42.561863999999986 1.0066779999999795  L 42.561863999999986 5.255337999999966  L 41.96737399999998 5.263267999999982  L 39.20099999999998 1.98958199999997  L 39.16927999999997 1.98958199999997  L 39.16927999999997 4.351707999999988  L 39.88266799999998 4.351707999999988  L 39.88266799999998 5.255337999999995  L 37.62360599999998 5.255337999999995  L 37.62360599999998 4.351707999999988  L 38.178471999999985 4.351707999999988  L 38.178471999999985 1.0066779999999795  L 37.53640199999998 1.0066779999999795  L 37.53640199999998 0.10304799999997272  L 38.93941399999997 0.10304799999997272  L 41.53933599999998 3.162727999999973  L 41.571055999999984 3.162727999999973  L 41.571055999999984 1.0066779999999795  L 40.82594799999998 1.0066779999999795  L 40.82594799999998 0.10304799999997272  L 43.116729999999976 0.10304799999997272  Z M 48.15802599999999 0.10304799999998693  L 48.31657399999999 1.8468939999999776  L 47.41294399999998 1.9261679999999755  L 47.254395999999986 1.0066779999999795  L 46.43796999999999 1.0066779999999795  L 46.43796999999999 4.351707999999988  L 47.27818599999999 4.351707999999988  L 47.27818599999999 5.255337999999995  L 44.58312999999998 5.255337999999995  L 44.58312999999998 4.351707999999988  L 45.375791999999976 4.351707999999988  L 45.375791999999976 1.0066779999999795  L 44.55936599999998 1.0066779999999795  L 44.40081799999999 1.9261679999999755  L 43.497187999999994 1.8468939999999776  L 43.65573599999999 0.10304799999998693  L 48.15802599999999 0.10304799999998693  Z M 53.53227799999995 0.10304799999997272  L 53.53227799999998 1.0066779999999795  L 53.08837999999997 1.0066779999999795  L 51.59025999999997 3.2419759999999798  L 51.59025999999997 4.351707999999988  L 52.43047599999997 4.351707999999988  L 52.43047599999997 5.255337999999995  L 49.735419999999976 5.255337999999995  L 49.735419999999976 4.351707999999988  L 50.52808199999997 4.351707999999988  L 50.52808199999997 3.234045999999978  L 48.982407999999964 1.0066779999999795  L 48.522649999999956 1.0066779999999795  L 48.522649999999956 0.10304799999997272  L 50.65490999999996 0.10304799999997272  L 50.65490999999996 1.0066779999999795  L 50.22687199999996 1.0066779999999795  L 51.09087799999996 2.3066519999999713  L 51.13843199999995 2.3066519999999713  L 51.99450799999995 1.0066779999999795  L 51.50305599999996 1.0066779999999795  L 51.50305599999996 0.10304799999997272  L 53.53227799999995 0.10304799999997272  Z M 60.49973199999998 0.10304799999998693  L 60.49973199999998 1.0066779999999795  L 59.865617999999984 1.0066779999999795  L 59.865617999999984 4.351707999999988  L 60.42045799999998 4.351707999999988  L 60.42045799999998 5.255337999999995  L 58.351637999999994 5.255337999999995  L 58.351637999999994 4.351707999999988  L 58.80343999999998 4.351707999999988  L 58.80343999999998 2.385899999999978  L 58.77174599999998 2.385899999999978  L 57.416287999999966 4.8352299999999815  L 56.97238999999996 4.8352299999999815  L 55.51391999999997 2.290791999999996  L 55.48219999999998 2.290791999999996  L 55.48219999999998 4.351708000000002  L 55.97365199999997 4.351708000000002  L 55.97365199999997 5.255338000000009  L 53.93652599999996 5.255338000000009  L 53.93652599999996 4.351708000000002  L 54.49136599999997 4.351708000000002  L 54.49136599999997 1.0066779999999937  L 53.857251999999974 1.0066779999999937  L 53.857251999999974 0.10304799999998693  L 55.379161999999965 0.10304799999998693  L 57.21021199999997 3.2974599999999867  L 57.24190599999997 3.2974599999999867  L 58.96198799999998 0.10304799999998693  L 60.49973199999998 0.10304799999998693  Z M 66.19102799999997 4.351707999999945  L 66.19102799999997 5.255337999999966  L 64.13804199999997 5.255337999999966  L 64.13804199999997 4.3517079999999595  L 64.55021999999997 4.3517079999999595  L 64.35997799999997 3.828561999999963  L 62.60820199999996 3.828561999999963  L 62.39419599999998 4.3517079999999595  L 62.87771799999997 4.3517079999999595  L 62.87771799999997 5.255337999999966  L 60.84849599999997 5.255337999999966  L 60.84849599999997 4.3517079999999595  L 61.316183999999964 4.3517079999999595  L 62.79051399999997 1.0066779999999511  L 62.07712599999998 1.0066779999999511  L 62.07712599999998 0.1030479999999443  L 63.84476199999999 0.1030479999999443  L 65.69957599999998 4.351707999999945  L 66.19102799999997 4.351707999999945  Z M 62.90941199999999 3.067593999999957  L 64.07462799999998 3.067593999999957  L 63.535621999999975 1.617027999999948  L 63.488067999999984 1.617027999999948  L 62.90941199999999 3.067593999999957  Z M 71.46221599999993 4.3517079999999595  L 71.46221599999997 5.255337999999966  L 69.21898799999997 5.255337999999966  L 69.21898799999997 4.3517079999999595  L 69.69457999999996 4.3517079999999595  L 68.75132599999996 3.0834539999999606  L 68.11718599999996 3.0834539999999606  L 68.11718599999996 4.3517079999999595  L 68.55315399999996 4.3517079999999595  L 68.55315399999996 5.255337999999966  L 66.50016799999996 5.255337999999966  L 66.50016799999996 4.3517079999999595  L 67.05503399999996 4.3517079999999595  L 67.05503399999996 1.0066779999999511  L 66.50016799999996 1.0066779999999511  L 66.50016799999996 0.1030479999999443  L 68.57694399999997 0.1030479999999443  L 68.57694399999997 1.0066779999999511  L 68.11718599999996 1.0066779999999511  L 68.11718599999996 2.219447999999943  L 68.76715999999995 2.219447999999943  L 69.67871999999996 1.0066779999999511  L 69.23484799999994 1.0066779999999511  L 69.23484799999994 0.1030479999999443  L 71.37501199999994 0.1030479999999443  L 71.37501199999994 1.0066779999999511  L 70.79638199999994 1.0066779999999511  L 69.56775199999993 2.5523779999999476  L 70.93113999999993 4.3517079999999595  L 71.46221599999993 4.3517079999999595  Z M 29.245183999999966 9.614939999999962  L 29.40370599999997 11.200263999999976  L 28.50007599999997 11.279537999999974  L 28.341553999999974 10.518569999999968  L 26.994025999999977 10.518569999999968  L 26.994025999999977 11.961205999999976  L 29.157979999999974 11.961205999999976  L 29.157979999999974 12.856931999999972  L 26.994025999999977 12.856931999999972  L 26.994025999999977 13.863599999999977  L 27.834241999999975 13.863599999999977  L 27.834241999999975 14.767229999999984  L 25.377007999999975 14.767229999999984  L 25.377007999999975 13.863599999999977  L 25.931873999999972 13.863599999999977  L 25.931873999999972 10.518569999999968  L 25.377007999999975 10.518569999999968  L 25.377007999999975 9.614939999999962  L 29.245183999999966 9.614939999999962  Z M 35.047447999999974 9.614939999999962  L 35.047447999999974 10.518569999999968  L 34.58771599999997 10.518569999999968  L 34.58771599999997 12.634969999999967  C 34.58771599999997 12.99959399999996  34.51902399999997 13.351009999999974  34.38161399999997 13.689217999999983  C 34.24422999999997 14.027425999999977  34.01436399999997 14.30484599999997  33.69201599999997 14.521503999999979  C 33.369667999999976 14.738161999999988  32.93369999999997 14.846503999999982  32.38411199999996 14.846503999999982  C 31.602031999999966 14.846503999999982  31.049817999999966 14.631145999999973  30.72746999999997 14.20048199999998  C 30.40512199999997 13.769791999999967  30.243947999999968 13.277039999999985  30.243947999999968 12.722173999999967  L 30.243947999999968 10.518569999999968  L 29.78418999999996 10.518569999999968  L 29.78418999999996 9.614939999999962  L 31.90851999999996 9.614939999999962  L 31.90851999999996 10.518569999999968  L 31.306099999999958 10.518569999999968  L 31.306099999999958 12.69045399999996  C 31.306099999999958 13.044521999999958  31.39197799999996 13.336475999999962  31.563707999999963 13.566341999999949  C 31.735463999999965 13.796233999999941  32.027417999999955 13.911153999999954  32.439595999999966 13.911153999999954  C 32.84649599999996 13.911153999999954  33.141101999999975 13.794907999999964  33.32341399999997 13.562389999999965  C 33.50572599999997 13.329871999999966  33.596881999999965 13.020731999999953  33.596881999999965 12.634969999999967  L 33.596881999999965 10.518569999999968  L 32.99446199999997 10.518569999999968  L 32.99446199999997 9.614939999999962  L 35.047447999999974 9.614939999999962  Z M 41.07167399999996 9.614939999999962  L 41.07167399999997 10.518569999999968  L 40.51680799999997 10.518569999999968  L 40.51680799999997 14.76722999999997  L 39.922317999999976 14.775159999999971  L 37.15594399999996 11.501473999999973  L 37.12422399999997 11.501473999999973  L 37.12422399999997 13.863599999999977  L 37.837611999999964 13.863599999999977  L 37.837611999999964 14.767229999999984  L 35.578549999999964 14.767229999999984  L 35.578549999999964 13.863599999999977  L 36.13341599999997 13.863599999999977  L 36.13341599999997 10.518569999999968  L 35.491345999999965 10.518569999999968  L 35.491345999999965 9.614939999999962  L 36.89435799999997 9.614939999999962  L 39.49427999999996 12.674619999999962  L 39.52599999999997 12.674619999999962  L 39.52599999999997 10.518569999999968  L 38.780891999999966 10.518569999999968  L 38.780891999999966 9.614939999999962  L 41.07167399999996 9.614939999999962  Z M 45.95046999999997 10.320397999999926  C 46.39701999999997 10.790711999999928  46.62028199999996 11.406365999999935  46.620281999999975 12.167307999999963  C 46.620281999999975 12.94938799999997  46.39041599999997 13.578249999999954  45.930657999999966 14.053841999999946  C 45.47092599999998 14.529433999999952  44.83415999999997 14.767229999999941  44.02035999999997 14.767229999999941  L 41.59481999999997 14.767229999999941  L 41.59481999999997 13.863599999999934  L 42.149685999999974 13.863599999999934  L 42.149685999999974 10.518569999999926  L 41.59481999999997 10.518569999999926  L 41.59481999999997 9.614939999999919  L 43.95694599999996 9.614939999999919  C 44.83943799999996 9.614939999999919  45.50394599999997 9.850109999999916  45.95046999999997 10.320397999999926  Z M 45.07855999999998 13.46725599999995  C 45.34542399999998 13.203043999999949  45.47885599999998 12.775005999999948  45.47885599999998 12.183167999999952  C 45.47885599999998 11.073435999999958  44.96361399999998 10.518569999999954  43.93315599999998 10.518569999999954  L 43.211837999999986 10.518569999999954  L 43.211837999999986 13.863599999999963  L 43.93315599999998 13.863599999999963  C 44.42988599999998 13.863599999999963  44.81169599999998 13.73149399999997  45.07855999999998 13.46725599999995  Z " fill-rule="nonzero" fill="#b22234" stroke="none" transform="matrix(1 0 0 1 85 143 )" />
  </g>
</svg>