<?xml version="1.0" encoding="utf-8"?>
<svg version="1.1" xmlns:xlink="http://www.w3.org/1999/xlink" width="13px" height="10px" xmlns="http://www.w3.org/2000/svg">
  <g transform="matrix(1 0 0 1 -189 -1983 )">
    <path d="M 12.002511160714286 9.0234375  C 12.048456101190478 8.978456439393941  12.071428571428571 8.925189393939394  12.071428571428571 8.863636363636363  L 12.071428571428571 3.409090909090909  C 11.91666666666667 3.579545454545454  11.74981398809524 3.735795454545454  11.570870535714286 3.877840909090909  C 10.274739583333334 4.853219696969696  9.244605654761905 5.653409090909092  8.48046875 6.278409090909092  C 8.233816964285714 6.482007575757574  8.03311011904762 6.640625  7.878348214285714 6.754261363636363  C 7.72358630952381 6.867897727272727  7.514415922619049 6.982717803030303  7.250837053571428 7.098721590909092  C 6.98725818452381 7.214725378787879  6.739397321428572 7.272727272727273  6.507254464285714 7.272727272727273  L 6.5 7.272727272727273  L 6.492745535714286 7.272727272727273  C 6.260602678571429 7.272727272727273  6.012741815476191 7.214725378787879  5.749162946428571 7.098721590909092  C 5.4855840773809526 6.982717803030303  5.276413690476191 6.867897727272727  5.121651785714286 6.754261363636363  C 4.966889880952381 6.640625  4.766183035714286 6.482007575757574  4.51953125 6.278409090909092  C 3.755394345238096 5.653409090909092  2.7252604166666674 4.853219696969696  1.4291294642857142 3.877840909090909  C 1.2501860119047619 3.735795454545454  1.0833333333333335 3.579545454545454  0.9285714285714285 3.409090909090909  L 0.9285714285714285 8.863636363636363  C 0.9285714285714285 8.925189393939394  0.951543898809524 8.978456439393941  0.9974888392857143 9.0234375  C 1.0434337797619047 9.068418560606059  1.0978422619047619 9.09090909090909  1.1607142857142858 9  L 11.839285714285714 9  C 11.902157738095237 9.09090909090909  11.956566220238095 9.068418560606059  12.002511160714286 9.0234375  Z M 11.734095982142858 2.333096590909091  C 11.958984375 1.9898200757575746  12.071428571428571 1.6785037878787878  12.071428571428571 1.399147727272727  L 12.071428571428571 1.321022727272727  L 12.071428571428571 1.2251420454545459  C 12.071428571428571 1.2251420454545459  12.07021949404762 1.1943655303030287  12.067801339285714 1.1328125  C 12.06538318452381 1.071259469696969  12.058128720238095 1.0416666666666652  12.046037946428571 1.0440340909090906  C 12.03394717261905 1.046401515151515  12.020647321428571 1.0250946969696961  12.006138392857142 0.9801136363636365  C 11.991629464285714 0.9351325757575746  11.969866071428571 0.9173768939393934  11.940848214285714 0.9268465909090906  C 11.911830357142858 0.9363162878787878  11.877976190476192 0.9303977272727271  11.839285714285714 1  L 1.1607142857142858 1  C 1.0978422619047619 0.9090909090909094  1.0434337797619047 0.9315814393939381  0.9974888392857143 0.9765625  C 0.951543898809524 1.0215435606060597  0.9285714285714285 1.0748106060606055  0.9285714285714285 1.1363636363636365  C 0.9285714285714285 1.9318181818181823  1.2840401785714286 2.604166666666665  1.9949776785714286 3.153409090909091  C 2.9283854166666674 3.8731060606060597  3.8980654761904767 4.623579545454546  4.904017857142857 5.404829545454546  C 4.933035714285714 5.428503787878787  5.017671130952381 5.498342803030303  5.157924107142857 5.614346590909092  C 5.298177083333334 5.730350378787879  5.4094122023809526 5.819128787878787  5.491629464285714 5.880681818181818  C 5.573846726190477 5.942234848484848  5.681454613095239 6.016808712121211  5.814453125 6.104403409090908  C 5.947451636904762 6.1919981060606055  6.0695684523809526 6.257102272727273  6.180803571428571 6.299715909090908  C 6.292038690476191 6.342329545454546  6.396019345238096 6.363636363636363  6.492745535714286 6.363636363636363  L 6.5 6.363636363636363  L 6.507254464285714 6.363636363636363  C 6.603980654761906 6.363636363636363  6.70796130952381 6.342329545454546  6.819196428571428 6.299715909090908  C 6.930431547619049 6.257102272727273  7.052548363095238 6.1919981060606055  7.185546875 6.104403409090908  C 7.318545386904762 6.016808712121211  7.426153273809524 5.942234848484848  7.508370535714286 5.880681818181818  C 7.590587797619049 5.819128787878787  7.701822916666668 5.730350378787879  7.842075892857142 5.614346590909092  C 7.9823288690476195 5.498342803030303  8.066964285714286 5.428503787878787  8.095982142857142 5.404829545454546  C 9.101934523809524 4.623579545454546  10.071614583333334 3.8731060606060597  11.005022321428571 3.153409090909091  C 11.266183035714286 2.9498106060606055  11.509207589285714 2.6763731060606055  11.734095982142858 2.333096590909091  Z M 12.659040178571429 0.3338068181818177  C 12.886346726190478 0.5563446969696961  13 0.8238636363636365  13 1.1363636363636365  L 13 8.863636363636363  C 13 9.176136363636363  12.886346726190478 9.443655303030305  12.659040178571429 9.666193181818182  C 12.431733630952383 9.888731060606059  12.158482142857146 10  11.839285714285714 10  L 1.1607142857142858 10  C 0.8415178571428572 10  0.5682663690476191 9.888731060606059  0.34095982142857145 9.666193181818182  C 0.11365327380952381 9.443655303030305  0 9.176136363636363  0 8.863636363636363  L 0 1.1363636363636365  C 0 0.8238636363636365  0.11365327380952381 0.5563446969696961  0.34095982142857145 0.3338068181818177  C 0.5682663690476191 0.11126893939393812  0.8415178571428572 0  1.1607142857142858 0  L 11.839285714285714 0  C 12.158482142857146 0  12.431733630952383 0.11126893939393812  12.659040178571429 0.3338068181818177  Z " fill-rule="nonzero" fill="#000000" stroke="none" transform="matrix(1 0 0 1 189 1983 )" />
  </g>
</svg>