<?xml version="1.0" encoding="utf-8"?>
<svg version="1.1" xmlns:xlink="http://www.w3.org/1999/xlink" width="9px" height="9px" xmlns="http://www.w3.org/2000/svg">
  <g transform="matrix(1 0 0 1 -92 -90 )">
    <path d="M 4.645654 0.12290000000001555  C 5.005026000000001 0.45167000000002133  4.621344000000001 1.235570000000017  4.862025999999993 1.6168339999999972  C 4.868187999999989 1.139552000000002  5.291077999999992 0.8111979999999974  5.309147999999993 0.17521200000000192  C 5.612697999999995 0.5561640000000025  5.1111059999999995 1.2703579999999945  5.2891540000000035 1.6845639999999946  C 5.369962000000008 1.2140679999999975  5.839002000000001 0.9559399999999982  5.956288000000001 0.33056199999999336  C 6.196502000000002 0.754335999999995  5.5893760000000015 1.3812479999999994  5.700422000000003 1.8182299999999927  C 5.853822000000001 1.3661419999999964  6.357467999999997 1.184584000000001  6.571187999999999 0.5852579999999961  C 6.742163999999995 1.0413500000000013  6.0444280000000035 1.5655879999999982  6.085715999999998 2.014555999999999  C 6.307963999999998 1.5920559999999995  6.833840000000002 1.491488000000004  7.138638 0.933008000000001  C 7.236215999999999 1.410263999999998  6.464978000000002 1.8188540000000017  6.435597999999999 2.2687580000000054  C 6.721181999999999 1.8861940000000033  7.256287999999998 1.869164000000005  7.6447279999999935 1.365231999999999  C 7.666411999999994 1.8518219999999985  6.840781999999997 2.1348060000000046  6.741357999999991 2.574544000000003  C 7.083309999999997 2.241432000000003  7.614463999999998 2.3082780000000014  8.076977999999997 1.871296000000008  C 8.022247999999998 2.3553380000000033  7.162505999999993 2.5056440000000038  6.995585999999996 2.9244520000000094  C 7.385377999999996 2.6488780000000034  7.899579999999993 2.7980400000000145  8.424727999999995 2.4387980000000056  C 8.29498799999999 2.908280000000005  7.4223499999999945 2.922294000000001  7.191885999999997 3.309798000000008  C 7.6200019999999995 3.0985739999999993  8.104563999999996 3.326360000000001  8.679424000000004 3.0536460000000076  C 8.477820000000001 3.4970500000000087  7.613710000000005 3.374382000000004  7.325499999999998 3.7210660000000075  C 7.781409999999994 3.579418000000011  8.224345999999997 3.880186000000009  8.834825999999993 3.700786000000008  C 8.566323999999994 4.107244000000016  7.732035999999987 3.8508840000000077  7.393151999999986 4.148220000000009  C 7.865597999999984 4.079658000000009  8.256013999999986 4.445998000000003  8.887033999999986 4.364280000000008  C 8.558263999999987 4.723704000000012  7.774311999999988 4.340021999999998  7.39309999999999 4.580678000000006  C 7.870459999999987 4.586866000000008  8.19873599999999 5.009808  8.83474799999999 5.02785200000001  C 8.453795999999983 5.331402000000011  7.739575999999985 4.829784000000011  7.325421999999989 5.007806000000009  C 7.7958659999999895 5.0885880000000085  8.054019999999987 5.5576540000000065  8.679371999999994 5.67499200000001  C 8.255649999999989 5.915206000000012  7.628685999999988 5.308028000000014  7.191755999999991 5.419152000000011  C 7.643791999999991 5.572500000000005  7.825349999999986 6.0761460000000085  8.424675999999991 6.289892000000009  C 7.9685579999999945 6.460816000000015  7.444371999999994 5.763054000000011  6.995377999999995 5.8044200000000075  C 7.417903999999993 6.02664200000001  7.518419999999992 6.552544000000012  8.076977999999997 6.85734200000001  C 7.599747999999998 6.954816000000015  7.191105999999991 6.183630000000015  6.741175999999996 6.154328000000014  C 7.123714 6.4398080000000135  7.140769999999989 6.97501800000002  7.644701999999988 7.363406000000012  C 7.1581119999999885 7.385064000000014  6.875153999999988 6.559486000000007  6.4353379999999945 6.460088000000013  C 6.768527999999996 6.801936000000012  6.701655999999993 7.333168000000008  7.138637999999993 7.795656000000008  C 6.654621999999989 7.740952000000007  6.50428999999999 6.881236000000008  6.085481999999985 6.714238000000009  C 6.36110799999998 7.104082000000005  6.211893999999987 7.618310000000015  6.571187999999992 8.143406000000013  C 6.101679999999988 8.01364000000001  6.087639999999993 7.140976000000009  5.70018799999999 6.910590000000013  C 5.911359999999995 7.338706000000009  5.683573999999993 7.823242000000015  5.956287999999994 8.398128000000014  C 5.5128839999999855 8.19652400000001  5.63555199999999 7.332414000000014  5.288867999999987 7.0441780000000165  C 5.430463999999986 7.500062000000014  5.129747999999985 7.943024000000008  5.309147999999986 8.55350400000001  C 4.902689999999986 8.284976000000015  5.159075999999985 7.450766000000009  4.861713999999985 7.11185600000001  C 4.930275999999985 7.584250000000004  4.563909999999986 7.974744000000015  4.645653999999993 8.605712000000011  C 4.286203999999991 8.276968000000018  4.6699119999999965 7.493068000000015  4.429255999999995 7.111778000000015  C 4.423041999999995 7.589086000000016  4.0001259999999945 7.91738800000001  3.9820819999999912 8.553374000000012  C 3.67853199999999 8.172448000000017  4.1801499999999905 7.458306000000007  4.002127999999985 7.044074000000009  C 3.92131999999998 7.514544000000015  3.4522799999999876 7.7726980000000125  3.334941999999984 8.39807600000001  C 3.094727999999982 7.974302000000009  3.7019059999999797 7.347390000000011  3.5908339999999868 6.910434000000016  C 3.4374079999999836 7.362470000000016  2.9337619999999873 7.544054000000017  2.720093999999982 8.143354000000016  C 2.5490919999999875 7.687262000000025  3.246853999999985 7.163076000000025  3.2054879999999883 6.714108000000024  C 2.9832919999999916 7.136530000000022  2.457441999999986 7.237150000000014  2.1525919999999914 7.795604000000019  C 2.055117999999986 7.3183480000000145  2.826277999999988 6.909758000000018  2.855657999999991 6.4598800000000125  C 2.570073999999991 6.842392000000011  2.0349159999999884 6.859474000000013  1.6465279999999893 7.363406000000012  C 1.6248699999999872 6.876764000000016  2.450499999999991 6.593832000000006  2.549845999999988 6.154068000000009  C 2.2079459999999926 6.487206000000008  1.6767399999999952 6.420360000000002  1.214277999999993 6.857290000000013  C 1.268981999999994 6.373274000000009  2.128697999999993 6.222994000000014  2.2956959999999924 5.8041860000000085  C 1.9058519999999888 6.079708000000011  1.391623999999993 5.930598000000003  0.8665279999999882 6.289840000000012  C 0.9962939999999918 5.820332000000008  1.868957999999985 5.806370000000008  2.099343999999988 5.41884000000001  C 1.6712279999999922 5.630064000000019  1.1866919999999865 5.402278000000017  0.6118059999999943 5.67499200000001  C 0.8134619999999941 5.231588000000009  1.677519999999987 5.354256000000014  1.9657559999999918 5.00757200000001  C 1.5098719999999943 5.14916800000001  1.066909999999993 4.848452000000009  0.45642999999999034 5.027800000000006  C 0.7249579999999938 4.621394000000002  1.5592199999999892 4.87775400000001  1.898077999999991 4.580444000000007  C 1.4256839999999897 4.648954000000003  1.035189999999993 4.282640000000001  0.4042219999999901 4.364280000000008  C 0.7330179999999871 4.004882000000009  1.5168659999999932 4.388616000000006  1.898155999999993 4.1479340000000064  C 1.4208479999999923 4.1417200000000065  1.0925459999999916 3.7188560000000095  0.4565599999999961 3.700786000000008  C 0.837459999999993 3.3972360000000066  1.5516279999999938 3.8988800000000055  1.9658339999999939 3.7208060000000103  C 1.495363999999995 3.6399720000000073  1.2372359999999958 3.1709320000000076  0.6119099999999946 3.0536460000000147  C 1.0356319999999926 2.813432000000013  1.6625699999999952 3.420558000000014  2.099499999999992 3.309512000000012  C 1.6474639999999923 3.1561120000000145  1.465853999999993 2.652466000000018  0.8665279999999953 2.438746000000016  C 1.3226719999999972 2.2677960000000112  1.846909999999994 2.965584000000014  2.295825999999991 2.924192000000012  C 1.8733779999999953 2.7019960000000154  1.772835999999998 2.1760940000000133  1.2143299999999968 1.8712960000000152  C 1.6915599999999955 1.7737700000000203  2.1001759999999905 2.5449560000000133  2.550053999999996 2.5743360000000166  C 2.1675419999999903 2.2887260000000254  2.1504599999999954 1.7536460000000176  1.646579999999993 1.365232000000013  C 2.1331439999999944 1.3435480000000126  2.416101999999995 2.169152000000018  2.855865999999999 2.268550000000019  C 2.5227280000000007 1.926624000000018  2.589573999999999 1.395444000000019  2.1526440000000022 0.9329560000000185  C 2.636659999999999 0.9876860000000107  2.786991999999998 1.847428000000015  3.205748 2.014400000000016  C 2.9302000000000064 1.6245560000000197  3.079335999999998 1.1103280000000169  2.720093999999996 0.5852060000000137  C 3.1895759999999953 0.7149980000000156  3.203564 1.587662000000016  3.5910939999999982 1.8180480000000188  C 3.379869999999997 1.389932000000016  3.6076559999999986 0.9054220000000157  3.334994000000002 0.33051000000001807  C 3.778345999999999 0.5321140000000213  3.655704 1.396224000000018  4.002388000000003 1.6844340000000173  C 3.8607920000000036 1.2285500000000198  4.161508000000005 0.7855620000000201  3.982133999999995 0.1751340000000141  C 4.388539999999999 0.44363600000001924  4.132179999999998 1.2778980000000146  4.429542000000005 1.6167820000000148  C 4.3609539999999996 1.144336000000017  4.7272940000000006 0.753920000000015  4.645654 0.12290000000001555  Z " fill-rule="nonzero" fill="#ffdf09" stroke="none" transform="matrix(1 0 0 1 92 90 )" />
  </g>
</svg>