<?xml version="1.0" encoding="utf-8"?>
<svg version="1.1" xmlns:xlink="http://www.w3.org/1999/xlink" width="57px" height="16px" xmlns="http://www.w3.org/2000/svg">
  <g transform="matrix(1 0 0 1 -244 -102 )">
    <path d="M 18 15.347456666666659  L 13.35373333333333 15.347456666666659  L 13.312176666666666 7.635336666666667  L 9.570429999999995 13.913123333333331  L 7.741156666666662 13.913123333333331  L 4.020209999999995 7.84320666666666  L 4.020209999999995 15.347456666666659  L 1 15.347456666666659  L 1 0.7962533333333326  L 3.604426666666661 0.7962533333333326  L 8.718149999999994 9.194383333333334  L 13.707116666666657 0.7962533333333326  L 18 0.7962533333333326  L 18 15.347456666666659  Z M 30.939916666666655 15.347456666666659  L 29.796609999999998 12.520346666666669  L 23.643536666666662 12.520346666666669  L 22.500186666666657 15.347456666666659  L 18.30114333333333 15.347456666666659  L 24.72444333333332 0.7962533333333326  L 28.778016666666655 0.7962533333333326  L 35.22211666666666 15.347456666666659  L 30.939916666666655 15.347456666666659  Z M 24.849200000000003 9.485409999999995  L 28.590946666666667 9.485409999999995  L 26.720073333333332 4.829026666666664  L 24.849200000000003 9.485409999999995  Z M 45.927659999999975 11.751223333333328  L 45.92765999999999 7.760049999999993  L 49.56545 7.760049999999993  L 49.56545 13.788409999999999  C 48.73397 14.384286666666654  47.77773333333333 14.841626666666656  46.69678333333333 15.160386666666668  C 45.61583333333333 15.479103333333327  44.534883333333326 15.638483333333326  43.453933333333325 15.638483333333326  C 41.92950999999999 15.638483333333326  40.55757666666666 15.31625666666666  39.33804666666667 14.671846666666667  C 38.118516666666665 14.027436666666674  37.162279999999996 13.130133333333333  36.46938 11.979893333333337  C 35.77643666666667 10.829653333333333  35.429986666666665 9.526966666666667  35.429986666666665 8.071876666666668  C 35.429986666666665 6.616743333333332  35.77643666666667 5.314056666666666  36.46938 4.163816666666662  C 37.162279999999996 3.0135766666666584  38.12545 2.116273333333325  39.35880333333333 1.4718633333333315  C 40.59219999999999 0.827453333333338  41.98497666666667 0.5052266666666654  43.53708999999999 0.5052266666666654  C 44.8952 0.5052266666666654  46.11472999999998 0.7338966666666664  47.19567999999998 1.1911933333333309  C 48.27663 1.648533333333333  49.17739999999999 2.3068099999999987  49.898033333333316 3.166023333333328  L 47.27883666666665 5.535793333333331  C 46.29490999999997 4.454843333333329  45.116936666666646 3.9143899999999974  43.74495999999998 3.9143899999999974  C 42.49773999999998 3.9143899999999974  41.49301333333331 4.2919966666666625  40.73077999999998 5.047296666666668  C 39.96858999999999 5.802553333333336  39.58747333333332 6.810746666666667  39.58747333333332 8.071876666666668  C 39.58747333333332 8.87562333333333  39.76071999999998 9.592789999999994  40.10716999999998 10.22333333333333  C 40.45361999999999 10.853920000000002  40.93864999999998 11.345883333333333  41.56230333333332 11.69926666666666  C 42.18591333333332 12.05265  42.89961333333332 12.229363333333325  43.70340333333331 12.229363333333325  C 44.49332666666665 12.229363333333325  45.23471666666664 12.069983333333326  45.927659999999975 11.751223333333328  Z M 52 15.347456666666659  L 52 0.7962533333333255  L 56 0.7962533333333255  L 56 15.347456666666659  L 52 15.347456666666659  Z " fill-rule="nonzero" fill="#cf995b" stroke="none" transform="matrix(1 0 0 1 244 102 )" />
  </g>
</svg>