<?xml version="1.0" encoding="utf-8"?>
<svg version="1.1" xmlns:xlink="http://www.w3.org/1999/xlink" width="70px" height="14px" xmlns="http://www.w3.org/2000/svg">
  <g transform="matrix(1 0 0 1 -242 -121 )">
    <path d="M 4.009369999999993 7.704473333333311  C 4.178629999999995 7.549339999999987  4.3478899999999925 7.394163333333309  4.517193333333331 7.238986666666662  C 4.6018233333333285 7.309533333333321  4.6018233333333285 7.394163333333325  4.6018233333333285 7.464709999999982  C 4.658243333333331 7.789146666666653  4.785166666666665 8.099456666666654  4.968553333333329 8.367473333333336  C 5.180149999999998 8.705993333333325  5.518669999999997 8.832959999999986  5.9136533333333325 8.720119999999994  C 6.125206666666664 8.649573333333336  6.308593333333334 8.550816666666663  6.491979999999998 8.437976666666671  C 6.971550000000001 8.11354  7.437036666666663 7.789146666666667  7.916649999999997 7.478793333333343  C 8.184666666666665 7.295406666666679  8.438556666666663 7.083853333333337  8.650153333333336 6.829920000000001  C 8.734783333333333 6.731206666666665  8.72065666666667 6.646576666666661  8.650153333333336 6.576030000000003  C 8.565523333333331 6.491399999999999  8.509103333333329 6.5478200000000015  8.438556666666663 6.60423999999999  C 7.733263333333333 7.238986666666662  6.929256666666664 7.704473333333325  6.111123333333332 8.155876666666657  C 5.94186333333333 8.25463333333333  5.772603333333333 8.29692666666665  5.589216666666665 8.325136666666666  C 5.391746666666666 8.367473333333336  5.222443333333331 8.282843333333332  5.137813333333334 8.099456666666654  C 5.109603333333332 8.00069999999998  5.081393333333331 7.901986666666659  5.081393333333331 7.803229999999985  C 5.0673099999999955 7.507003333333315  5.081393333333331 7.224903333333317  5.109603333333332 6.928676666666647  C 5.137813333333334 6.70299666666665  5.222443333333331 6.50552666666664  5.391746666666663 6.336223333333308  C 5.984156666666665 5.715603333333306  6.520189999999996 5.052603333333309  7.056223333333328 4.375563333333318  C 7.662759999999999 3.627933333333317  8.226959999999998 2.8662199999999842  8.748866666666657 2.0763399999999876  C 8.91816999999999 1.7941966666666502  9.087429999999998 1.5120966666666504  9.157933333333325 1.1876599999999797  C 9.270816666666661 0.6798366666666453  8.819413333333323 0.25668666666663853  8.325716666666658 0.42594666666664693  C 8.128246666666662 0.48236666666664973  7.987196666666655 0.6093333333333106  7.832019999999993 0.7221733333333162  C 6.929256666666657 1.3851299999999895  6.2521733333333245 2.259683333333328  5.716183333333326 3.2470766666666435  C 5.46224999999999 3.726689999999976  5.23656999999999 4.206259999999972  5.053183333333326 4.699999999999974  C 4.982679999999991 4.869259999999983  4.968553333333325 4.869259999999983  4.841629999999995 4.770503333333309  C 4.460773333333325 4.4884033333333235  4.051706666666661 4.460193333333308  3.614429999999995 4.643536666666648  C 3.3464133333333272 4.742293333333322  3.092523333333329 4.897469999999984  2.88092666666666 5.09493999999998  C 2.2743899999999933 5.630973333333316  1.7806933333333284 6.265719999999973  1.3857099999999924 6.971013333333303  C 1.1882399999999933 7.323659999999975  1.018979999999992 7.704473333333297  0.9343499999999914 8.09945666666664  C 0.8638033333333262 8.39568333333331  0.8638033333333262 8.677783333333295  1.018979999999992 8.959883333333309  C 1.230533333333323 9.354866666666652  1.484466666666659 9.439496666666642  1.9076166666666552 9.256109999999978  C 2.161506666666657 9.143269999999973  2.3872299999999913 8.959883333333309  2.6270366666666582 8.804749999999984  C 3.1348166666666586 8.494396666666646  3.5720933333333242 8.099456666666654  4.009369999999993 7.704473333333311  Z M 1.837113333333324 8.579026666666664  C 1.7524833333333267 8.607236666666651  1.6678099999999922 8.663700000000006  1.5549699999999973 8.663699999999977  C 1.5408866666666654 8.564943333333318  1.5831799999999985 8.494396666666646  1.6255166666666625 8.42389333333331  C 2.0345833333333267 7.577549999999974  2.5564899999999966 6.815836666666655  3.2335733333333283 6.152879999999982  C 3.4733366666666647 5.927156666666647  3.727269999999997 5.687393333333318  4.023496666666663 5.532216666666642  C 4.20684 5.433459999999968  4.390226666666663 5.3629566666666335  4.5876966666666625 5.334746666666646  C 4.756956666666664 5.306536666666659  4.799293333333328 5.348829999999978  4.77108333333333 5.518089999999987  C 4.714663333333327 5.800233333333324  4.658243333333328 6.068249999999978  4.601823333333326 6.350349999999992  C 4.573613333333327 6.449106666666665  4.517193333333328 6.51961  4.446646666666659 6.590156666666658  C 3.8118999999999943 7.168483333333327  3.1630266666666564 7.746809999999982  2.429523333333325 8.21229666666666  C 2.232053333333326 8.325136666666666  2.0486666666666586 8.480313333333314  1.837113333333324 8.579026666666664  Z M 5.800813333333328 5.165486666666652  C 5.75847666666666 5.207779999999985  5.730266666666662 5.278326666666658  5.6597199999999965 5.2783266666666435  C 5.9136533333333325 4.276806666666644  7.4511633333333265 1.9352466666666432  8.523186666666668 1.2440799999999825  C 8.565523333333331 1.3428366666666562  8.494976666666666 1.413339999999991  8.466766666666665 1.4697599999999795  C 8.24108666666666 1.921163333333311  7.973069999999993 2.344313333333318  7.676843333333331 2.753379999999993  C 7.0985166666666615 3.5997233333333303  6.463769999999997 4.38964666666665  5.800813333333328 5.165486666666652  Z M 8.621943333333313 6.124669999999995  C 8.353926666666645 6.61836666666666  8.128246666666648 7.112063333333339  8.114119999999993 7.690389999999979  C 8.085909999999991 8.127666666666642  8.24108666666666 8.522606666666647  8.509103333333329 8.889379999999974  C 8.80532999999999 9.28431999999998  9.200269999999996 9.41128666666664  9.693966666666661 9.312529999999981  C 9.99019333333333 9.256109999999978  10.27229333333333 9.12918666666664  10.540309999999991 8.988093333333325  C 11.414863333333322 8.494396666666646  12.275333333333322 7.9584066666666615  13.093466666666664 7.351869999999991  C 13.234516666666657 7.267196666666649  13.361439999999995 7.154356666666644  13.488406666666663 7.041516666666652  C 13.57303666666666 6.9710133333333175  13.57303666666666 6.8863833333333275  13.502533333333325 6.801709999999986  C 13.43198666666666 6.717079999999996  13.361439999999995 6.717079999999996  13.276809999999992 6.787626666666654  C 13.234516666666657 6.815836666666655  13.178096666666654 6.8581299999999885  13.121676666666666 6.900466666666659  C 12.247123333333327 7.535213333333332  11.316149999999993 8.071246666666667  10.342839999999995 8.536733333333316  C 9.99019333333333 8.691909999999993  9.623463333333326 8.818833333333316  9.228479999999998 8.804749999999984  C 8.833539999999992 8.790623333333315  8.69249 8.62136333333332  8.720699999999994 8.226423333333315  C 8.748909999999995 7.873776666666644  8.875833333333325 7.563423333333318  9.031009999999995 7.253113333333318  C 9.10155666666666 7.097936666666641  9.115639999999992 7.097936666666641  9.270816666666661 7.182566666666659  C 9.567043333333324 7.351869999999991  9.891436666666662 7.450583333333312  10.229999999999997 7.521129999999985  C 10.921166666666664 7.662179999999992  11.457199999999993 7.436499999999995  11.894476666666662 6.8863833333333275  C 12.07781999999999 6.646576666666661  12.204786666666664 6.378559999999993  12.275333333333322 6.068249999999992  C 12.331753333333324 5.772023333333323  12.303543333333323 5.475796666666653  12.162493333333323 5.20778  C 12.021399999999986 4.982099999999988  11.866266666666654 4.756419999999991  11.668796666666651 4.58711666666666  C 11.386653333333314 4.333226666666661  11.062216666666657 4.248596666666671  10.695486666666646 4.333226666666661  C 10.441596666666648 4.389646666666664  10.201789999999981 4.50248666666667  9.976109999999984 4.6294533333333305  C 9.369529999999983 4.9961833333333345  8.946379999999984 5.518090000000001  8.621943333333313 6.124669999999995  Z M 10.258209999999991 6.928676666666632  C 10.173579999999994 6.956886666666634  10.08894999999999 6.956886666666634  10.004319999999993 6.956886666666648  C 9.820933333333329 6.956886666666648  9.651673333333328 6.914593333333315  9.482413333333326 6.858129999999974  C 9.313109999999995 6.815836666666655  9.299026666666663 6.773499999999984  9.397739999999999 6.632449999999963  C 9.524706666666667 6.463189999999969  9.665756666666667 6.279803333333291  9.80680666666666 6.124669999999966  C 10.201789999999995 5.729686666666623  10.653149999999997 5.377039999999965  11.203266666666657 5.207779999999971  C 11.330233333333325 5.151359999999968  11.499493333333326 5.080813333333296  11.612333333333325 5.207779999999971  C 11.69700666666666 5.306536666666631  11.640543333333326 5.46166999999997  11.598249999999993 5.5886366666666305  C 11.38665333333332 6.279803333333291  10.921166666666657 6.702996666666635  10.258209999999991 6.928676666666632  Z M 15.195176666666661 2.6405399999999872  C 15.265723333333334 2.6264566666666553  15.350353333333324 2.5841199999999844  15.47727666666666 2.626456666666641  C 15.434983333333328 2.7392966666666467  15.364436666666663 2.8239266666666367  15.308016666666667 2.9226833333333104  C 14.814319999999995 3.627933333333303  14.348833333333332 4.3473533333333165  13.939766666666664 5.09493999999998  C 12.994709999999996 6.844046666666642  12.106029999999997 8.62136333333332  11.372526666666666 10.469226666666643  C 11.13276333333333 11.103973333333315  10.921166666666664 11.738719999999972  10.794200000000004 12.387593333333314  C 10.75190666666667 12.585063333333323  10.737779999999999 12.782533333333319  10.794200000000004 12.980003333333315  C 10.850620000000006 13.135179999999991  10.921166666666664 13.262146666666652  11.076300000000003 13.346776666666642  C 11.17505666666667 13.417279999999977  11.302023333333338 13.389069999999975  11.372526666666673 13.304439999999971  C 11.457156666666677 13.219809999999981  11.443073333333345 13.135179999999977  11.400736666666674 13.050549999999973  C 11.372526666666673 13.008213333333302  11.344316666666671 12.951793333333313  11.31610666666667 12.923583333333312  C 11.203266666666664 12.838953333333322  11.203266666666664 12.726113333333316  11.245603333333335 12.599189999999979  C 11.31610666666667 12.373466666666644  11.372526666666673 12.161913333333317  11.45715666666667 11.936189999999982  C 12.120156666666666 10.144789999999972  12.994709999999996 8.452103333333312  13.996186666666667 6.815836666666655  C 14.913076666666669 5.292409999999975  15.970973333333331 3.853656666666638  17.014830000000003 2.4007333333333207  C 17.11354333333334 2.2738099999999832  17.212300000000006 2.203263333333325  17.36747666666667 2.1750533333333095  C 17.931676666666668 2.062213333333304  18.481793333333336 1.9775833333333137  19.046036666666673 1.892953333333324  C 19.920590000000004 1.7801133333333183  20.79514333333334 1.6813566666666446  21.669696666666667 1.7236933333333155  C 21.909503333333333 1.7377766666666474  22.121056666666668 1.7801133333333183  22.346780000000006 1.864743333333308  C 22.45962 1.9070366666666418  22.544249999999998 1.9775833333333137  22.53012333333333 2.1186333333333067  C 22.53012333333333 2.189179999999979  22.53012333333333 2.2596833333333137  22.55833333333333 2.3161033333333165  C 22.58654333333333 2.3866499999999746  22.61479666666667 2.457196666666647  22.69942666666666 2.4430699999999774  C 22.769929999999995 2.428943333333308  22.78405666666666 2.3584399999999732  22.798139999999997 2.3020199999999704  C 22.840476666666667 2.0340033333333167  22.67121666666666 1.6672733333333127  22.417283333333337 1.5261799999999681  C 22.248023333333336 1.4274666666666462  22.078763333333328 1.356919999999974  21.895376666666664 1.3428366666666278  C 21.387596666666667 1.2582066666666378  20.879773333333326 1.2440799999999683  20.37195 1.2722899999999697  C 19.539733333333338 1.3146266666666406  18.721600000000002 1.4274666666666462  17.889383333333335 1.5261799999999681  C 17.832963333333332 1.5403066666666376  17.762416666666674 1.568516666666639  17.70599666666667 1.483886666666649  C 17.818836666666677 1.3146266666666406  17.945803333333338 1.1453666666666464  18.086853333333337 0.9901899999999841  C 18.199693333333336 0.8773499999999785  18.199693333333336 0.7503833333333176  18.14327333333334 0.6234166666666425  C 18.11506333333334 0.5529133333333078  18.086853333333337 0.49649333333330503  18.04451666666667 0.44007333333330223  C 17.80475333333333 0.059216666666642936  17.63545 0.04508999999997343  17.311056666666666 0.36952666666664413  C 16.95841 0.7080899999999843  16.648056666666662 1.0748199999999741  16.365956666666662 1.4697599999999795  C 16.18257 1.7377766666666474  15.956890000000001 1.850616666666653  15.646579999999993 1.9070366666666558  C 14.292413333333329 2.1609699999999776  12.938289999999995 2.4430699999999916  11.626460000000002 2.8662199999999842  C 11.146846666666661 3.0213966666666465  10.66723333333333 3.176573333333309  10.229956666666666 3.4163799999999753  C 9.933773333333328 3.5715133333333  9.891436666666662 3.7548999999999775  10.060696666666665 4.022916666666646  C 10.145326666666662 4.149839999999983  10.201746666666665 4.1780499999999705  10.356923333333327 4.135756666666651  C 10.596729999999992 4.065209999999993  10.83653666666666 3.980579999999975  11.076299999999996 3.8959499999999845  C 12.43046666666666 3.444589999999991  13.784633333333325 2.9649766666666437  15.195176666666661 2.6405399999999872  Z M 17.649533333333338 7.648053333333266  C 17.720080000000003 7.577549999999932  17.80471 7.507003333333273  17.875256666666658 7.436499999999967  C 17.889339999999997 7.450583333333299  17.889339999999997 7.464709999999954  17.903466666666663 7.478793333333286  C 17.861129999999996 7.633969999999962  17.818836666666655 7.803229999999957  17.776499999999995 7.972489999999965  C 17.691869999999994 8.409766666666627  17.762416666666667 8.818833333333302  18.0586 9.17147999999996  C 18.25611333333333 9.411286666666626  18.51000333333333 9.453579999999945  18.80623 9.312529999999953  C 18.96136333333333 9.227899999999948  19.116540000000004 9.115059999999957  19.25759 9.002219999999951  C 19.850043333333332 8.522606666666618  20.42837 8.043036666666623  20.97848666666666 7.5352133333332745  C 21.204209999999996 7.337743333333279  21.41576333333333 7.140273333333283  21.627359999999996 6.928676666666604  C 21.726116666666666 6.844046666666614  21.71199 6.74528999999994  21.641486666666665 6.66065999999995  C 21.570939999999993 6.547819999999945  21.486310000000003 6.6042399999999475  21.40168 6.66065999999995  C 21.232419999999994 6.801709999999943  21.063116666666666 6.928676666666604  20.893856666666665 7.069726666666625  C 20.315530000000003 7.56342333333329  19.723076666666664 8.02890999999994  19.07424666666666 8.452103333333284  C 18.919069999999998 8.564943333333275  18.74980999999999 8.64957333333328  18.580549999999995 8.73420333333327  C 18.510003333333323 8.76241333333327  18.425373333333333 8.818833333333274  18.36895333333333 8.76241333333327  C 18.284323333333326 8.705993333333268  18.35482666666666 8.621363333333264  18.36895333333333 8.550816666666591  C 18.425373333333333 8.395683333333267  18.481793333333336 8.24050666666659  18.552339999999994 8.085329999999928  C 18.876733333333327 7.337743333333265  19.328136666666662 6.64657666666659  19.79362333333333 5.969493333333261  C 20.019303333333333 5.65918333333326  20.005219999999994 5.461669999999941  19.765413333333328 5.193696666666597  C 19.582026666666664 4.982099999999932  19.46918666666666 4.982099999999932  19.257589999999993 5.193696666666597  C 19.04603666666666 5.3911666666666065  19.04603666666666 5.3911666666666065  18.890859999999996 5.151359999999926  C 18.848523333333326 5.080813333333268  18.806229999999992 5.024393333333265  18.749810000000004 4.967973333333262  C 18.38303666666667 4.5306966666666  17.889340000000004 4.4037733333332625  17.33922333333333 4.601243333333258  C 17.113543333333332 4.67178999999993  16.901946666666667 4.784629999999922  16.718560000000004 4.925679999999929  C 16.055603333333337 5.377039999999923  15.590116666666667 5.997703333333263  15.195176666666669 6.674786666666591  C 14.92716 7.140273333333255  14.743773333333337 7.633969999999919  14.659143333333333 8.155876666666586  C 14.588639999999998 8.564943333333261  14.659143333333333 8.945799999999934  14.89895 9.284319999999923  C 15.08233666666667 9.538253333333259  15.308016666666667 9.580546666666592  15.604243333333336 9.4394966666666  C 15.78758666666667 9.340739999999926  15.970973333333331 9.213816666666588  16.140233333333335 9.072766666666595  C 16.676266666666677 8.635489999999933  17.14175333333334 8.127666666666599  17.649533333333338 7.648053333333266  Z M 15.364436666666656 8.818833333333302  C 15.265679999999984 8.875253333333305  15.223386666666656 8.832959999999957  15.251596666666657 8.691909999999964  C 15.279806666666659 8.635489999999962  15.29388999999999 8.536733333333288  15.336226666666661 8.452103333333298  C 15.759376666666661 7.549339999999958  16.295409999999997 6.717079999999967  17.071206666666654 6.054123333333294  C 17.32513999999999 5.828443333333283  17.593113333333328 5.645056666666619  17.917549999999984 5.518089999999958  C 18.086809999999986 5.4475866666666235  18.27019666666665 5.433459999999954  18.45358333333332 5.461669999999955  C 18.679263333333324 5.489879999999943  18.77801999999999 5.729686666666609  18.679263333333324 5.941283333333288  C 18.524086666666662 6.237509999999958  18.270196666666656 6.449106666666609  18.03038999999999 6.67478666666662  C 17.480273333333322 7.154356666666616  16.93015666666666 7.633969999999948  16.380039999999987 8.113539999999958  C 16.16844333333332 8.311053333333291  15.928679999999993 8.494396666666617  15.688873333333317 8.649573333333294  C 15.590116666666653 8.720119999999952  15.477276666666654 8.776539999999954  15.364436666666656 8.818833333333302  Z M 21.119536666666676 9.326656666666622  C 21.20416666666668 9.425369999999958  21.30292333333334 9.49591666666663  21.443973333333325 9.49591666666663  C 21.65556999999999 9.510043333333286  21.810703333333322 9.397159999999957  21.951753333333322 9.27023666666662  C 22.882769999999994 8.536733333333288  23.785533333333326 7.760936666666622  24.660086666666658 6.971013333333289  C 24.70237999999999 6.928676666666618  24.758799999999994 6.886383333333299  24.787009999999995 6.8299199999999445  C 24.843429999999998 6.75941666666661  24.801136666666665 6.688869999999952  24.744716666666662 6.632449999999949  C 24.70237999999999 6.576029999999946  24.645959999999988 6.576029999999946  24.58954 6.618366666666617  C 24.54720333333333 6.646576666666618  24.504909999999995 6.67478666666662  24.46257333333333 6.717079999999953  C 24.081716666666672 7.027433333333278  23.686776666666667 7.351869999999948  23.30592 7.676263333333267  C 22.88277 8.014826666666607  22.45957666666667 8.339263333333278  22.0223 8.64957333333328  C 21.853040000000007 8.762413333333285  21.68378 8.87525333333329  21.500393333333335 8.931673333333265  C 21.38755333333333 8.974009999999936  21.345216666666673 8.931673333333265  21.359343333333335 8.818833333333274  C 21.40163666666667 8.649573333333265  21.44397333333334 8.466186666666601  21.500393333333335 8.296926666666607  C 21.726073333333336 7.704473333333269  22.03642666666667 7.140273333333283  22.389029999999998 6.6042399999999475  C 22.671173333333336 6.195173333333273  22.967399999999998 5.800233333333267  23.249499999999998 5.391166666666621  C 23.334130000000002 5.278326666666615  23.390549999999998 5.1654866666666095  23.362340000000003 5.010309999999947  C 23.30592 4.812839999999952  23.17895333333334 4.629453333333288  23.009693333333338 4.502486666666627  C 22.86864333333334 4.403773333333291  22.78401333333334 4.417856666666623  22.64296333333334 4.544823333333298  C 22.61475333333334 4.573033333333285  22.58654333333334 4.601243333333301  22.558333333333337 4.64353666666662  C 21.853040000000007 5.419376666666622  21.31700666666668 6.308013333333292  20.964360000000006 7.295406666666623  C 20.85152 7.648053333333294  20.766890000000004 8.000699999999952  20.781016666666673 8.367473333333294  C 20.795100000000005 8.734203333333298  20.87973000000001 9.058639999999968  21.119536666666676 9.326656666666622  Z M 23.60214666666667 3.2470766666666293  C 23.58802 3.3317066666666193  23.57393666666667 3.416379999999961  23.55980999999999 3.4586733333333086  C 23.54572666666666 3.740773333333294  23.658566666666665 4.022916666666632  23.82782666666666 4.121629999999982  C 23.898373333333332 4.1780499999999705  23.96887666666666 4.19217666666664  24.039423333333325 4.149839999999969  C 24.10992666666666 4.093419999999966  24.12405333333333 4.022916666666632  24.095843333333328 3.966496666666629  C 24.039423333333325 3.7972366666666204  24.12405333333333 3.6702699999999595  24.1946 3.5292199999999663  C 24.293313333333337 3.345833333333303  24.420279999999998 3.1765733333332946  24.561329999999995 3.0213966666666323  C 24.70237999999999 2.8380099999999686  24.857556666666667 2.6546666666666283  24.99860666666666 2.4712799999999646  C 25.125573333333328 2.316103333333288  25.13965666666666 2.146843333333308  25.055026666666663 1.9775833333332997  C 24.99860666666666 1.8647433333332941  24.942186666666657 1.7659866666666204  24.857556666666667 1.6813566666666304  C 24.688296666666666 1.512096666666622  24.561329999999995 1.4979699999999667  24.363859999999995 1.6672733333332985  C 24.1946 1.8083233333332913  24.053506666666664 1.9916666666666316  23.968876666666667 2.2032633333332967  C 23.827826666666667 2.5418266666666227  23.686776666666667 2.8944733333332806  23.60214666666667 3.2470766666666293  Z M 24.39206999999999 6.590156666666601  C 24.152263333333323 7.140273333333269  23.983003333333322 7.704473333333269  23.926583333333326 8.311053333333291  C 23.912456666666657 8.635489999999962  23.983003333333322 8.931673333333308  24.180473333333325 9.18560666666663  C 24.39206999999999 9.425369999999972  24.589539999999992 9.481789999999961  24.885766666666655 9.340739999999954  C 24.99860666666666 9.284319999999951  25.11144666666666 9.213816666666617  25.210203333333325 9.143269999999958  C 25.534596666666665 8.88937999999996  25.84494999999999 8.649573333333294  26.15526 8.395683333333295  C 26.747713333333323 7.916069999999962  27.32604 7.422373333333283  27.862073333333328 6.872256666666615  C 27.932576666666662 6.801709999999957  28.00312333333332 6.717079999999953  28.059543333333323 6.632449999999949  C 28.130046666666658 6.547819999999959  28.087753333333325 6.449106666666609  28.017206666666652 6.392643333333282  C 27.918493333333316 6.308013333333292  27.862073333333328 6.3785599999999505  27.791526666666655 6.434979999999953  C 27.69276999999999 6.547819999999959  27.59405666666666 6.6606599999999645  27.495299999999986 6.75941666666661  C 27.043939999999985 7.154356666666616  26.57845333333332 7.5352133333332745  26.09883999999999 7.901986666666602  C 25.717983333333322 8.184086666666602  25.351253333333318 8.480313333333271  24.928059999999988 8.720119999999937  C 24.815219999999982 8.790623333333272  24.64595999999998 8.903463333333278  24.53311999999999 8.832959999999943  C 24.40615333333332 8.748329999999953  24.504909999999988 8.564943333333275  24.54720333333332 8.423893333333268  C 24.801136666666658 7.521129999999929  25.25249666666665 6.702996666666593  25.70389999999999 5.898946666666603  C 25.746193333333323 5.814316666666613  25.81673999999999 5.7578966666666105  25.915453333333318 5.772023333333266  C 26.08475666666665 5.772023333333266  26.225806666666656 5.701476666666608  26.366856666666656 5.602763333333257  C 26.50790666666665 5.504006666666584  26.663083333333326 5.391166666666578  26.80413333333332 5.278326666666601  C 27.410669999999982 4.798713333333268  27.918493333333316 4.220386666666599  28.42627333333332 3.64205999999993  C 28.835339999999988 3.1765733333332804  29.216196666666654 2.6828766666666155  29.540633333333318 2.175053333333267  C 29.73810333333332 1.8788266666665976  29.893279999999983 1.5685166666665964  29.949699999999986 1.2299966666665938  C 29.992036666666657 0.9196433333332692  29.752229999999983 0.4823666666666071  29.470086666666653 0.3836533333332568  C 29.357246666666647 0.327233333333254  29.230323333333317 0.327233333333254  29.103356666666656 0.3695266666666015  C 28.934096666666655 0.4400733333332596  28.778919999999985 0.524703333333278  28.623743333333316 0.6375433333332552  C 28.200593333333323 0.9478533333332564  27.83386333333332 1.314626666666598  27.495299999999986 1.7095666666665892  C 26.916973333333324 2.344313333333261  26.43735999999999 3.049606666666591  25.95778999999999 3.768983333333253  C 25.351253333333325 4.657663333333261  24.81521999999999 5.602763333333257  24.39206999999999 6.590156666666601  Z M 29.30082666666665 1.3146266666666264  C 29.046936666666653 2.273809999999955  27.326039999999992 4.290933333333285  26.155259999999984 5.151359999999968  C 26.83234333333332 3.966496666666629  28.73662666666666 1.5403066666666376  29.30082666666665 1.3146266666666264  Z M 27.53763666666667 9.326656666666622  C 27.622266666666675 9.425369999999958  27.721023333333335 9.49591666666663  27.86207333333332 9.49591666666663  C 28.073669999999986 9.510043333333286  28.22880333333331 9.397159999999957  28.369853333333317 9.27023666666662  C 29.30086999999999 8.536733333333288  30.203633333333322 7.760936666666622  31.078186666666653 6.971013333333289  C 31.120479999999986 6.928676666666618  31.17689999999999 6.886383333333299  31.205109999999987 6.8299199999999445  C 31.261529999999993 6.75941666666661  31.219236666666653 6.688869999999952  31.162816666666657 6.632449999999949  C 31.120479999999986 6.576029999999946  31.06405999999998 6.576029999999946  31.007639999999988 6.618366666666617  C 30.965303333333324 6.646576666666618  30.92300999999999 6.67478666666662  30.880673333333327 6.717079999999953  C 30.499816666666657 7.027433333333278  30.104876666666655 7.351869999999948  29.724019999999996 7.676263333333267  C 29.300869999999996 8.014826666666607  28.87767666666666 8.339263333333278  28.440399999999997 8.64957333333328  C 28.271139999999995 8.762413333333285  28.101879999999994 8.87525333333329  27.91849333333333 8.931673333333265  C 27.805653333333325 8.974009999999936  27.76331666666666 8.931673333333265  27.77744333333333 8.818833333333274  C 27.819736666666664 8.649573333333265  27.862073333333335 8.466186666666601  27.91849333333333 8.296926666666607  C 28.144173333333327 7.704473333333269  28.454526666666666 7.140273333333283  28.807129999999994 6.6042399999999475  C 29.08927333333333 6.195173333333273  29.385499999999986 5.800233333333267  29.667599999999993 5.391166666666621  C 29.752229999999997 5.278326666666615  29.808649999999986 5.1654866666666095  29.78043999999999 5.010309999999947  C 29.724019999999996 4.812839999999952  29.597053333333328 4.629453333333288  29.427793333333334 4.502486666666627  C 29.286743333333334 4.403773333333291  29.20211333333333 4.417856666666623  29.061063333333337 4.544823333333298  C 29.032853333333335 4.573033333333285  29.004643333333334 4.601243333333301  28.976433333333333 4.64353666666662  C 28.271139999999995 5.419376666666622  27.735106666666667 6.308013333333292  27.382460000000002 7.295406666666623  C 27.269619999999996 7.648053333333294  27.18499 8.000699999999952  27.19911666666667 8.367473333333294  C 27.2132 8.734203333333298  27.297830000000005 9.058639999999968  27.53763666666667 9.326656666666622  Z M 30.020246666666665 3.2470766666666293  C 30.006119999999996 3.3317066666666193  29.992036666666664 3.416379999999961  29.977909999999987 3.4586733333333086  C 29.963826666666655 3.740773333333294  30.076666666666654 4.022916666666632  30.245926666666655 4.121629999999982  C 30.31647333333332 4.1780499999999705  30.386976666666648 4.19217666666664  30.45752333333332 4.149839999999969  C 30.528026666666655 4.093419999999966  30.542153333333324 4.022916666666632  30.513943333333323 3.966496666666629  C 30.45752333333332 3.7972366666666204  30.542153333333324 3.6702699999999595  30.61269999999999 3.5292199999999663  C 30.711413333333326 3.345833333333303  30.838379999999994 3.1765733333332946  30.97942999999999 3.0213966666666323  C 31.120479999999986 2.8380099999999686  31.275656666666656 2.6546666666666283  31.416706666666656 2.4712799999999646  C 31.543673333333317 2.316103333333288  31.557756666666652 2.146843333333308  31.473126666666662 1.9775833333332997  C 31.416706666666656 1.8647433333332941  31.360286666666653 1.7659866666666204  31.275656666666656 1.6813566666666304  C 31.10639666666666 1.512096666666622  30.97942999999999 1.4979699999999667  30.78195999999999 1.6672733333332985  C 30.61269999999999 1.8083233333332913  30.471606666666652 1.9916666666666316  30.386976666666662 2.2032633333332967  C 30.245926666666662 2.5418266666666227  30.104876666666655 2.8944733333332806  30.020246666666665 3.2470766666666293  Z M 32.460519999999995 6.350350000000034  C 32.26304999999999 6.561946666666714  32.07966333333333 6.773500000000041  31.88219333333332 6.971013333333303  C 31.88219333333332 6.971013333333303  31.868066666666657 6.956886666666648  31.853983333333318 6.942803333333316  C 31.910403333333317 6.872256666666658  31.95269666666666 6.78762666666664  32.00915999999999 6.7170799999999815  C 32.34767999999999 6.251593333333318  32.686199999999985 5.772023333333308  33.03884666666666 5.320619999999991  C 33.19402333333332 5.109066666666649  33.19402333333332 4.925679999999986  33.09526666666666 4.72820999999999  C 33.03884666666666 4.601243333333329  32.96834333333332 4.502486666666655  32.869586666666656 4.417856666666665  C 32.72853666666666 4.276806666666658  32.62977999999999 4.276806666666658  32.47464666666666 4.417856666666665  C 32.40409999999999 4.4884033333333235  32.33355333333333 4.573033333333328  32.26304999999999 4.657663333333332  C 31.727016666666657 5.29240999999999  31.23332 5.983620000000002  30.824253333333324 6.702996666666664  C 30.499816666666653 7.2531133333333315  30.23184333333333 7.8173566666666545  30.090749999999993 8.437976666666671  C 30.02024666666665 8.776539999999997  30.118959999999987 9.044513333333342  30.34468333333332 9.284320000000008  C 30.47160666666666 9.425370000000001  30.598573333333327 9.411286666666669  30.75374999999999 9.284320000000008  C 30.866589999999995 9.185606666666672  30.965303333333324 9.072766666666666  31.06405999999999 8.945800000000006  C 31.50133666666666 8.395683333333338  31.92448666666666 7.831440000000015  32.38997333333332 7.3095333333333485  C 33.03884666666666 6.590156666666687  33.730013333333325 5.913073333333358  34.54814666666666 5.36295666666669  C 34.59048333333333 5.334746666666689  34.632819999999995 5.278326666666686  34.71744999999999 5.3206200000000194  C 34.60456666666666 5.504006666666683  34.50585333333333 5.6732666666666915  34.39301333333332 5.856653333333355  C 33.96981999999999 6.477316666666681  33.701803333333324 7.168483333333356  33.588963333333325 7.901986666666687  C 33.53254333333332 8.240506666666676  33.588963333333325 8.550816666666691  33.74413999999999 8.832960000000014  C 33.96981999999999 9.213816666666688  34.18141666666666 9.284320000000022  34.576356666666655 9.072766666666695  C 35.59200333333332 8.536733333333345  36.53705999999998 7.8737766666667  37.38340333333332 7.0838533333333515  C 37.42573999999999 7.041516666666694  37.468033333333324 6.9992233333333616  37.51036999999999 6.942803333333359  C 37.56678999999998 6.858130000000017  37.55266333333332 6.7452900000000255  37.46803333333332 6.674786666666705  C 37.38340333333332 6.604240000000033  37.326983333333324 6.6606600000000356  37.27056333333332 6.717080000000024  C 37.24235333333332 6.7452900000000255  37.21414333333332 6.759416666666695  37.18593333333332 6.787626666666682  C 36.410136666666645 7.4365000000000245  35.59200333333332 8.000700000000009  34.689239999999984 8.452103333333355  C 34.54814666666665 8.508523333333358  34.421223333333316 8.56494333333336  34.280173333333316 8.621363333333363  C 34.124996666666654 8.677783333333366  34.09678666666665 8.64957333333335  34.124996666666654 8.48031333333337  C 34.153206666666655 8.25463333333336  34.251963333333315 8.043036666666694  34.33659333333332 7.831440000000028  C 34.590483333333324 7.25311333333336  34.94312999999998 6.7452900000000255  35.26756666666665 6.209300000000027  C 35.436826666666654 5.92715666666669  35.62021333333332 5.65918333333336  35.733053333333324 5.334746666666689  C 35.85997666666666 4.982100000000017  35.789473333333326 4.671790000000016  35.56379333333332 4.3896466666666925  C 35.39448999999999 4.1639666666666955  35.21114666666666 4.121630000000039  34.94312999999999 4.234513333333368  C 34.731533333333324 4.333226666666704  34.53406333333333 4.474276666666711  34.350676666666665 4.615326666666704  C 33.65951 5.137276666666708  33.038846666666664 5.729686666666709  32.460519999999995 6.350350000000034  Z M 40.71235666666665 6.336223333333308  C 40.923953333333316 6.152879999999982  41.13550666666666 5.969493333333304  41.38943999999999 5.78610666666664  C 41.375313333333324 5.941283333333317  41.33301999999999 6.025913333333307  41.30476666666665 6.1246699999999805  C 40.93803666666665 7.1120633333333245  40.54309666666664 8.071246666666639  40.11990333333331 9.030429999999981  C 39.96472666666665 9.383076666666653  39.73904666666666 9.665176666666653  39.41460999999998 9.890856666666664  C 38.83628333333332 10.328133333333327  38.286166666666645 10.80774666666666  37.77834333333331 11.329653333333326  C 37.43982333333331 11.682299999999998  37.115386666666645 12.049029999999988  36.861496666666646 12.458096666666648  C 36.74865666666663 12.655609999999996  36.66402666666665 12.867163333333323  36.66402666666665 13.092886666666658  C 36.64989999999998 13.516036666666665  37.03075666666665 13.81226333333332  37.439823333333315 13.71350666666666  C 37.66550333333332 13.657086666666672  37.86301666666665 13.544246666666666  38.046359999999986 13.403196666666659  C 38.455426666666646 13.092886666666658  38.80807333333332 12.712029999999999  39.14663666666665 12.302963333333324  C 39.880096666666645 11.386073333333329  40.43021333333331 10.342259999999982  40.93803666666665 9.284319999999994  C 40.99445666666665 9.171479999999988  41.05087666666665 9.072766666666652  41.14963333333332 8.988093333333325  C 42.02418666666663 8.325136666666651  42.87052999999997 7.61984333333332  43.787376666666646 7.013306666666651  C 43.84379666666665 6.9710133333333175  43.90021666666665 6.928676666666647  43.95663666666664 6.886383333333313  C 43.99897333333331 6.829919999999987  43.99897333333331 6.773499999999984  43.95663666666664 6.7170799999999815  C 43.92842666666664 6.660659999999979  43.872006666666636 6.646576666666647  43.801503333333315 6.674786666666648  C 43.74508333333331 6.70299666666665  43.68866333333331 6.731206666666651  43.63224333333331 6.773499999999984  C 42.92694999999998 7.210776666666646  42.27807666666665 7.718599999999981  41.615119999999976 8.212296666666646  C 41.544573333333304 8.268716666666649  41.47406999999998 8.339263333333307  41.37531333333331 8.353346666666638  C 41.34710333333331 8.254633333333317  41.40352333333331 8.198213333333314  41.43173333333331 8.127666666666627  C 41.742043333333314 7.309533333333305  42.05239666666664 6.477316666666638  42.27807666666665 5.630973333333301  C 42.362706666666654 5.292409999999961  42.26399333333332 5.0243933333333075  42.05239666666664 4.798713333333296  C 41.911346666666645 4.64353666666662  41.78437999999997 4.629453333333288  41.615119999999976 4.756419999999963  C 41.488153333333315 4.855133333333299  41.36122999999998 4.967973333333305  41.23426333333332 5.066729999999964  C 41.02266666666665 5.250116666666628  41.02266666666665 5.250116666666628  40.881616666666645 5.038519999999977  C 40.514886666666655 4.558906666666644  40.09169333333331 4.417856666666651  39.499239999999986 4.587116666666645  C 39.217139999999986 4.671789999999987  38.94912333333331 4.81283999999998  38.70935999999998 4.982099999999988  C 38.01814999999998 5.504006666666655  37.48215999999998 6.152879999999996  37.01667333333331 6.872256666666658  C 36.72044666666664 7.309533333333321  36.49476666666664 7.789146666666653  36.39600999999998 8.31105333333332  C 36.33958999999998 8.57902666666665  36.38188333333331 8.832959999999972  36.50884999999998 9.072766666666638  C 36.74865666666665 9.524126666666646  37.016673333333316 9.608756666666636  37.453949999999985 9.312529999999981  C 37.80659666666665 9.08684999999997  38.11690666666665 8.832959999999986  38.39900666666665 8.550816666666648  C 39.17484666666665 7.8173566666666545  39.90830666666664 7.041516666666652  40.71235666666665 6.336223333333308  Z M 37.35519333333331 8.635490000000004  C 37.284646666666646 8.691910000000007  37.20001666666665 8.74833000000001  37.08717666666665 8.734203333333312  C 37.07309333333331 8.62136333333332  37.12951333333332 8.550816666666648  37.171806666666654 8.480313333333314  C 37.72192333333333 7.507003333333315  38.356713333333325 6.618366666666645  39.24534999999999 5.91307333333333  C 39.513366666666656 5.70147666666665  39.795466666666655 5.532216666666656  40.119903333333326 5.405249999999995  C 40.26095333333332 5.348829999999992  40.402003333333326 5.348829999999992  40.543096666666656 5.348829999999992  C 40.61359999999999 5.362956666666648  40.68414666666665 5.391166666666663  40.69822999999998 5.461669999999998  C 40.71235666666665 5.532216666666656  40.68414666666665 5.574553333333327  40.627726666666646 5.6168466666666745  C 39.71083666666665 6.5055266666666824  38.83628333333332 7.450583333333328  37.86301666666665 8.282843333333332  C 37.70783999999998 8.40976666666667  37.52445333333333 8.522606666666675  37.35519333333331 8.635490000000004  Z M 37.94764666666665 11.781056666666657  C 38.35671333333332 11.343779999999995  38.77986333333332 10.93471333333332  39.27355999999999 10.582066666666648  C 39.03375333333333 11.061636666666644  38.765779999999985 11.527123333333321  38.42721666666665 11.964399999999983  C 38.159199999999984 12.317046666666656  37.877099999999984 12.669693333333313  37.52445333333333 12.951793333333327  C 37.411613333333314 13.050549999999987  37.29877333333332 13.12109666666666  37.171806666666654 13.177516666666662  C 37.12951333333332 13.191599999999994  37.08717666666665 13.20572666666665  37.058966666666656 13.177516666666662  C 37.016673333333316 13.14930666666666  37.03075666666665 13.10696999999999  37.04488333333332 13.064676666666657  C 37.07309333333331 12.951793333333327  37.12951333333332 12.838953333333322  37.20001666666665 12.740239999999986  C 37.39752999999998 12.387593333333314  37.66550333333332 12.077239999999989  37.94764666666665 11.781056666666657  Z M 48.004966666666675 6.53373666666667  C 47.68057333333334 6.561946666666671  47.34201 6.576030000000003  46.96115333333333 6.60423999999999  C 47.07399333333332 6.449106666666665  47.17274999999999 6.364433333333324  47.285589999999985 6.279803333333334  C 47.624153333333325 6.011829999999989  47.990883333333315 5.772023333333323  48.37173999999999 5.574553333333327  C 48.90772999999999 5.29240999999999  49.471973333333324 5.066730000000007  50.06442666666665 4.953890000000001  C 50.14905666666665 4.939763333333332  50.24776999999999 4.897469999999998  50.304233333333315 4.99618333333332  C 50.34652666666665 5.066729999999978  50.26189666666666 5.137276666666665  50.23368666666666 5.193696666666668  C 50.07850999999998 5.447586666666666  49.96567 5.71560333333332  49.86695666666665 5.997703333333334  C 49.810493333333326 6.195173333333329  49.838746666666665 6.350350000000006  49.97979666666666 6.491399999999999  C 50.07850999999998 6.576030000000003  50.13492999999998 6.576030000000003  50.219559999999994 6.477316666666667  C 50.26189666666667 6.420896666666664  50.30423333333334 6.364433333333338  50.33244333333333 6.308013333333335  C 50.57220666666667 5.941283333333331  50.85435 5.602763333333343  51.17878666666667 5.320620000000005  C 51.31983666666667 5.193696666666668  51.47497 5.080813333333339  51.61606333333333 4.953890000000001  C 51.757113333333336 4.841049999999996  51.78532333333334 4.784629999999993  51.728903333333335 4.6294533333333305  C 51.686566666666664 4.530696666666671  51.630146666666654 4.431983333333335  51.5596 4.347353333333345  C 51.41855000000001 4.20626  51.305710000000005 4.178050000000013  51.12232333333334 4.276806666666673  C 51.023610000000005 4.3191433333333435  50.93898 4.389646666666678  50.84022333333334 4.446066666666681  C 50.76972000000001 4.502486666666684  50.69917333333335 4.502486666666684  50.628626666666676 4.4601933333333506  C 50.23368666666667 4.234513333333339  49.81049333333334 4.262723333333341  49.387343333333334 4.347353333333345  C 48.30119333333333 4.573033333333342  47.384346666666666 5.1090666666666635  46.59442333333334 5.898946666666674  C 46.48158333333333 6.025913333333349  46.39695333333332 6.166963333333342  46.32640666666667 6.308013333333349  C 46.128936666666675 6.660660000000021  46.48158333333335 7.210776666666689  46.834230000000005 7.196693333333357  C 47.144540000000006 7.196693333333357  47.45485000000001 7.210776666666689  47.76520333333333 7.16848333333337  C 47.86391666666667 7.1543566666667155  47.976756666666674 7.1543566666667155  48.089639999999996 7.1402733333333686  C 48.089639999999996 7.196693333333371  48.061386666666664 7.196693333333371  48.03317666666666 7.210776666666702  C 47.694656666666674 7.351870000000048  47.398430000000005 7.5493400000000435  47.102203333333335 7.775020000000041  C 46.77781 8.028910000000039  46.48158333333333 8.296926666666707  46.22765 8.621363333333377  C 46.114810000000006 8.76241333333337  46.03018 8.931673333333379  46.086600000000004 9.129186666666712  C 46.15714666666666 9.397160000000042  46.31232333333334 9.580546666666706  46.59442333333334 9.665176666666696  C 46.806020000000004 9.721596666666699  47.0317 9.707513333333367  47.24329666666668 9.679303333333365  C 47.779286666666664 9.580546666666692  48.27298333333334 9.368950000000027  48.73847000000001 9.086850000000027  C 49.16166333333334 8.832960000000014  49.55660333333334 8.536733333333345  49.86695666666667 8.155876666666686  C 50.24777 7.690390000000021  50.23368666666667 7.23898666666669  49.79641000000001 6.815836666666684  C 49.68357 6.702996666666678  49.54252000000001 6.646576666666675  49.40147000000002 6.604240000000004  C 48.950066666666686 6.491399999999999  48.47045333333335 6.491399999999999  48.004966666666675 6.53373666666667  Z M 48.80901666666668 7.210776666666661  C 48.78080666666668 7.1684833333333415  48.73847000000001 7.140273333333326  48.69617666666666 7.1120633333333245  C 48.96419333333331 7.069726666666654  49.203956666666656 7.1120633333333245  49.44376333333332 7.168483333333327  C 49.64123333333332 7.196693333333315  49.65536 7.253113333333318  49.542519999999996 7.422373333333327  C 49.45788999999999 7.563423333333318  49.34500666666665 7.704473333333311  49.218083333333325 7.8173566666666545  C 48.68204999999999 8.29692666666665  48.103723333333335 8.720119999999994  47.44076666666666 9.002219999999994  C 47.200959999999995 9.100976666666668  46.94706999999998 9.171480000000003  46.69313666666666 9.171480000000003  C 46.495666666666665 9.15739666666667  46.46745666666665 9.11506  46.580296666666655 8.959883333333323  C 46.664926666666666 8.832959999999986  46.76368333333332 8.72011999999998  46.86243999999999 8.607236666666651  C 47.215086666666664 8.226423333333315  47.610026666666656 7.901986666666659  48.061386666666664 7.633969999999991  C 48.2589 7.521129999999985  48.45637000000001 7.436499999999995  48.69617666666667 7.436499999999995  C 48.752596666666676 7.436499999999995  48.82310000000001 7.450583333333328  48.85131 7.394163333333325  C 48.89364666666667 7.32365999999999  48.85131 7.267196666666663  48.80901666666668 7.210776666666661  Z M 51.64422999999998 6.124669999999995  C 51.376213333333325 6.61836666666666  51.150533333333314 7.112063333333339  51.13640666666666 7.690389999999979  C 51.10819666666666 8.127666666666642  51.26337333333332 8.522606666666647  51.53139 8.889379999999974  C 51.82761666666667 9.28431999999998  52.22255666666666 9.41128666666664  52.71625333333333 9.312529999999981  C 53.01248 9.256109999999978  53.294579999999996 9.12918666666664  53.562596666666664 8.988093333333325  C 54.43715000000001 8.494396666666646  55.297619999999995 7.9584066666666615  56.11575333333333 7.351869999999991  C 56.25680333333332 7.267196666666649  56.38372666666666 7.154356666666644  56.510693333333336 7.041516666666652  C 56.595323333333326 6.9710133333333175  56.595323333333326 6.8863833333333275  56.52481999999999 6.801709999999986  C 56.45427333333333 6.717079999999996  56.38372666666665 6.717079999999996  56.29909666666666 6.787626666666654  C 56.25680333333332 6.815836666666655  56.20038333333332 6.8581299999999885  56.14396333333332 6.900466666666659  C 55.26940999999999 7.535213333333332  54.33843666666665 8.071246666666667  53.365126666666654 8.536733333333316  C 53.01247999999998 8.691909999999993  52.64574999999999 8.818833333333316  52.250766666666664 8.804749999999984  C 51.85582666666666 8.790623333333315  51.714776666666666 8.62136333333332  51.74298666666665 8.226423333333315  C 51.771196666666654 7.873776666666644  51.89812 7.563423333333318  52.053296666666654 7.253113333333318  C 52.123843333333326 7.097936666666641  52.13792666666666 7.097936666666641  52.29310333333332 7.182566666666659  C 52.58932999999999 7.351869999999991  52.91372333333334 7.450583333333312  53.25228666666665 7.521129999999985  C 53.94345333333332 7.662179999999992  54.47948666666666 7.436499999999995  54.91676333333332 6.8863833333333275  C 55.10010666666666 6.646576666666661  55.22707333333332 6.378559999999993  55.29761999999998 6.068249999999992  C 55.35403999999998 5.772023333333323  55.32582999999998 5.475796666666653  55.184779999999975 5.20778  C 55.043686666666645 4.982099999999988  54.8885533333333 4.756419999999991  54.69108333333331 4.58711666666666  C 54.40893999999997 4.333226666666661  54.084503333333316 4.248596666666671  53.71777333333331 4.333226666666661  C 53.463883333333314 4.389646666666664  53.22407666666665 4.50248666666667  52.99839666666665 4.6294533333333305  C 52.39181666666666 4.9961833333333345  51.96866666666665 5.518090000000001  51.64422999999998 6.124669999999995  Z M 53.280496666666664 6.928676666666632  C 53.19586666666666 6.956886666666634  53.111236666666656 6.956886666666634  53.026606666666666 6.956886666666648  C 52.84321999999999 6.956886666666648  52.673959999999994 6.914593333333315  52.5047 6.858129999999974  C 52.33539666666667 6.815836666666655  52.321313333333336 6.773499999999984  52.42002666666666 6.632449999999963  C 52.54699333333333 6.463189999999969  52.688043333333326 6.279803333333291  52.82909333333333 6.124669999999966  C 53.224076666666676 5.729686666666623  53.67543666666667 5.377039999999965  54.22555333333332 5.207779999999971  C 54.35252 5.151359999999968  54.52177999999999 5.080813333333296  54.63462 5.207779999999971  C 54.71929333333334 5.306536666666631  54.66283 5.46166999999997  54.620536666666666 5.5886366666666305  C 54.40893999999999 6.279803333333291  53.94345333333334 6.702996666666635  53.280496666666664 6.928676666666632  Z M 57.709683333333345 6.505526666666626  C 57.46987666666668 6.759416666666638  57.23007 7.027433333333291  56.990263333333324 7.281323333333304  C 56.976179999999985 7.267196666666649  56.96205333333333 7.253113333333318  56.94797 7.238986666666634  C 57.117230000000006 6.985096666666635  57.286489999999986 6.731206666666637  57.455749999999995 6.463189999999983  C 57.667346666666674 6.1246699999999805  57.92123666666666 5.814316666666642  58.14695999999999 5.489879999999971  C 58.23158999999998 5.377039999999965  58.30209333333332 5.264199999999974  58.27388333333333 5.109066666666635  C 58.21746333333333 4.8833433333333005  58.10462333333332 4.685873333333305  57.93536333333333 4.530696666666628  C 57.794313333333335 4.403773333333291  57.69555666666666 4.417856666666623  57.56859 4.587116666666631  C 56.99026333333333 5.292409999999961  56.45427333333333 6.040039999999976  56.01699666666665 6.844046666666642  C 55.70664333333333 7.394163333333309  55.45275333333333 7.972489999999979  55.31170333333334 8.593153333333305  C 55.24115666666667 8.861169999999973  55.26936666666667 9.115059999999971  55.41041666666666 9.340739999999968  C 55.60793000000001 9.651093333333307  55.73485333333332 9.665176666666639  55.974659999999986 9.38307666666664  C 56.60940666666666 8.649573333333308  57.230069999999984 7.901986666666645  57.89302666666666 7.196693333333315  C 58.471353333333326 6.590156666666644  59.063806666666665 5.983619999999988  59.74088999999999 5.489879999999971  C 60.03711666666666 5.2783266666666435  60.051199999999994 5.221906666666641  60.14995666666667 5.616846666666646  C 60.262796666666674 6.025913333333307  60.46026666666667 6.40676999999998  60.77057666666667 6.70299666666665  C 60.89754333333333 6.829919999999987  61.03859333333334 6.914593333333315  61.23610666666667 6.886383333333313  C 61.41945000000001 6.844046666666642  61.51820666666667 6.731206666666637  61.48999666666667 6.590156666666644  C 61.46178666666668 6.378559999999965  61.306610000000006 6.265719999999973  61.13735000000001 6.293929999999975  C 60.91167 6.336223333333294  60.85525000000001 6.322139999999962  60.75649333333334 6.124669999999966  C 60.64365333333333 5.8848633333333  60.615443333333346 5.630973333333301  60.657736666666665 5.377039999999965  C 60.71415666666667 5.052603333333309  60.64365333333333 4.770503333333295  60.46026666666667 4.5166133333332965  C 60.29100666666666 4.290933333333285  60.14995666666667 4.27680666666663  59.92427666666667 4.460193333333294  C 59.12022666666668 5.066729999999964  58.41493333333334 5.786106666666626  57.709683333333345 6.505526666666626  Z M 61.34894666666666 6.110543333333311  C 61.15147666666667 6.632449999999963  61.02451000000001 7.154356666666644  60.98217333333332 7.67626333333331  C 60.95396333333332 8.18408666666663  61.09505666666665 8.593153333333305  61.40536666666665 8.945799999999977  C 61.57462666666666 9.12918666666664  61.772096666666656 9.21381666666663  62.04011333333331 9.199689999999975  C 62.29400333333332 9.185606666666644  62.49151666666664 9.072766666666638  62.70306999999998 8.931673333333322  C 63.055716666666655 8.70599333333331  63.36606999999999 8.395683333333324  63.634043333333324 8.071246666666639  C 64.48038666666666 7.041516666666638  65.21388999999999 5.927156666666647  65.90505666666667 4.784629999999979  C 65.98973 4.615326666666647  66.07436 4.446066666666638  66.13078 4.262723333333312  C 66.1872 4.0934199999999805  66.13078 3.9523699999999873  66.01794 3.8254466666666502  C 65.93326666666665 3.7407733333333084  65.84863666666666 3.768983333333324  65.84863666666666 3.881866666666653  C 65.82042666666666 4.051126666666661  65.74992333333333 4.192176666666654  65.65116666666667 4.333226666666647  C 65.01642 5.362956666666648  64.29704333333332 6.322139999999976  63.52120333333333 7.238986666666662  C 63.21089333333333 7.591633333333319  62.886456666666675 7.930196666666647  62.47739 8.184086666666644  C 62.294003333333336 8.29692666666665  62.110659999999996 8.395683333333324  61.89906333333333 8.437976666666643  C 61.74388666666667 8.480313333333314  61.701593333333335 8.437976666666643  61.72980333333332 8.268716666666649  C 61.80030666666666 7.887859999999975  61.941356666666664 7.535213333333303  62.09653333333332 7.168483333333298  C 62.378633333333326 6.533736666666641  62.70307000000001 5.913073333333315  63.04163333333332 5.306536666666631  C 63.11213666666666 5.151359999999968  63.19676666666666 5.010309999999961  63.253186666666664 4.855133333333313  C 63.32373333333332 4.699999999999974  63.30964999999999 4.544823333333312  63.23910333333332 4.38964666666665  C 63.18268333333333 4.276806666666644  63.11213666666666 4.163966666666639  63.04163333333332 4.079336666666649  C 62.7877 3.783109999999979  62.61843999999999 3.783109999999979  62.406886666666665 4.121629999999982  C 61.983693333333335 4.756419999999977  61.63104666666666 5.405249999999981  61.34894666666666 6.110543333333311  Z M 65.55245333333332 9.326656666666622  C 65.63708333333331 9.425369999999958  65.73583999999998 9.49591666666663  65.87688999999997 9.49591666666663  C 66.08848666666665 9.510043333333286  66.24361999999998 9.397159999999957  66.38466999999999 9.27023666666662  C 67.31568666666664 8.536733333333288  68.21844999999999 7.760936666666622  69.09300333333331 6.971013333333289  C 69.13529666666665 6.928676666666618  69.19171666666665 6.886383333333299  69.21992666666665 6.8299199999999445  C 69.27634666666665 6.75941666666661  69.2340533333333 6.688869999999952  69.17763333333333 6.632449999999949  C 69.13529666666666 6.576029999999946  69.07887666666666 6.576029999999946  69.02245666666666 6.618366666666617  C 68.98011999999999 6.646576666666618  68.93782666666665 6.67478666666662  68.89549 6.717079999999953  C 68.51463333333332 7.027433333333278  68.11969333333333 7.351869999999948  67.73883666666667 7.676263333333267  C 67.31568666666666 8.014826666666607  66.89249333333332 8.339263333333278  66.45521666666666 8.64957333333328  C 66.28595666666665 8.762413333333285  66.11669666666667 8.87525333333329  65.93330999999999 8.931673333333265  C 65.82047 8.974009999999936  65.77813333333333 8.931673333333265  65.79226 8.818833333333274  C 65.83455333333333 8.649573333333265  65.87689 8.466186666666601  65.93330999999999 8.296926666666607  C 66.15899 7.704473333333269  66.46934333333334 7.140273333333283  66.82194666666666 6.6042399999999475  C 67.10409 6.195173333333273  67.40031666666667 5.800233333333267  67.68241666666667 5.391166666666621  C 67.76704666666666 5.278326666666615  67.82346666666666 5.1654866666666095  67.79525666666666 5.010309999999947  C 67.73883666666667 4.812839999999952  67.61187 4.629453333333288  67.44261 4.502486666666627  C 67.30156 4.403773333333291  67.21692999999999 4.417856666666623  67.07587999999998 4.544823333333298  C 67.04767 4.573033333333285  67.01946 4.601243333333301  66.99125 4.64353666666662  C 66.28595666666666 5.419376666666622  65.74992333333333 6.308013333333292  65.39727666666666 7.295406666666623  C 65.28443666666666 7.648053333333294  65.19980666666666 8.000699999999952  65.21393333333333 8.367473333333294  C 65.22801666666666 8.734203333333298  65.31264666666665 9.058639999999968  65.55245333333332 9.326656666666622  Z M 68.03506333333331 3.2470766666666293  C 68.02093666666666 3.3317066666666193  68.00685333333332 3.416379999999961  67.99272666666666 3.4586733333333086  C 67.97864333333331 3.740773333333294  68.09148333333331 4.022916666666632  68.26074333333331 4.121629999999982  C 68.33128999999997 4.1780499999999705  68.4017933333333 4.19217666666664  68.47233999999999 4.149839999999969  C 68.54284333333332 4.093419999999966  68.55696999999998 4.022916666666632  68.52875999999999 3.966496666666629  C 68.47233999999999 3.7972366666666204  68.55696999999998 3.6702699999999595  68.62751666666665 3.5292199999999663  C 68.72622999999999 3.345833333333303  68.85319666666666 3.1765733333332946  68.99424666666665 3.0213966666666323  C 69.13529666666666 2.8380099999999686  69.29047333333332 2.6546666666666283  69.43152333333333 2.4712799999999646  C 69.55848999999999 2.316103333333288  69.57257333333332 2.146843333333308  69.48794333333333 1.9775833333332997  C 69.43152333333333 1.8647433333332941  69.37510333333333 1.7659866666666204  69.29047333333332 1.6813566666666304  C 69.12121333333333 1.512096666666622  68.99424666666665 1.4979699999999667  68.79677666666666 1.6672733333332985  C 68.62751666666665 1.8083233333332913  68.48642333333333 1.9916666666666316  68.40179333333332 2.2032633333332967  C 68.26074333333332 2.5418266666666227  68.11969333333333 2.8944733333332806  68.03506333333331 3.2470766666666293  Z " fill-rule="nonzero" fill="#6e273e" stroke="none" transform="matrix(1 0 0 1 242 121 )" />
  </g>
</svg>