<?xml version="1.0" encoding="utf-8"?>
<svg version="1.1" xmlns:xlink="http://www.w3.org/1999/xlink" width="12px" height="6px" xmlns="http://www.w3.org/2000/svg">
  <g transform="matrix(1 0 0 1 -310 -125 )">
    <path d="M 0.8814066666666633 2.674786666666634  C 0.7262299999999868 2.985096666666635  0.6415999999999826 3.3236599999999754  0.6133899999999954 3.7468099999999964  C 0.5992633333333401 4.085329999999999  0.726230000000001 4.452103333333326  0.951909999999998 4.790623333333343  C 1.3186833333333254 5.312529999999995  1.798253333333335 5.467706666666672  2.418916666666661 5.270236666666676  C 2.6023033333333245 5.213816666666673  2.785646666666665 5.143270000000001  2.940823333333327 5.044513333333342  C 3.970553333333328 4.480313333333328  4.972030000000004 3.8737766666666715  5.903003333333331 3.1684833333333415  C 5.9876766666666725 3.0979366666666692  6.058180000000007 3.0274333333333345  6.142809999999997 2.9568866666666622  C 6.255650000000003 2.8440466666666566  6.269776666666658 2.745289999999983  6.185146666666668 2.646576666666661  C 6.086389999999994 2.5478199999999873  6.001760000000004 2.6183666666666596  5.91713 2.674786666666648  C 5.1977533333333525 3.224903333333316  4.4360400000000055 3.676263333333324  3.6602000000000032 4.099456666666654  C 3.2793433333333297 4.311053333333334  2.9126133333333257 4.508523333333329  2.5176733333333345 4.677783333333323  C 2.2637400000000127 4.776539999999983  1.9957666666666682 4.832959999999986  1.7136233333333308 4.804749999999984  C 1.3751033333333424 4.762413333333313  1.1917166666666787 4.607236666666637  1.2340533333333497 4.254633333333317  C 1.2481366666666815 4.028909999999982  1.3327666666666715 3.803229999999985  1.4315233333333452 3.605759999999975  C 1.614910000000009 3.2249033333333017  1.854673333333352 2.9145933333333005  2.1368166666666752 2.604239999999976  C 2.489463333333333 2.2092999999999705  2.898529999999994 1.8566533333333126  3.335806666666656 1.5463433333332972  C 3.561486666666667 1.391166666666635  3.8012933333333194 1.264199999999974  4.06926666666665 1.2219066666666407  C 4.210359999999994 1.2077799999999854  4.252653333333328 1.250116666666628  4.224443333333326 1.3770399999999654  C 4.182106666666655 1.5745533333333128  4.111603333333321 1.757896666666639  3.998763333333315 1.9271566666666473  C 3.8859233333333236 2.096459999999979  3.773083333333318 2.251593333333304  3.6743266666666585 2.4208966666666356  C 3.561486666666653 2.604239999999976  3.575569999999985 2.759416666666638  3.7307466666666613 2.900466666666631  C 3.8577133333333222 3.027433333333292  3.9846366666666597 3.027433333333292  4.168023333333323 2.8722566666666296  C 4.421913333333322 2.6606599999999645  4.647636666666656 2.4067699999999803  4.774559999999994 2.0823333333332954  C 5.056659999999994 1.391166666666635  4.577089999999998 0.4742766666666256  3.871796666666654 0.3191433333333009  C 3.8153766666666513 0.3050166666666456  3.744829999999993 0.3050166666666456  3.6884099999999904 0.3050166666666456  C 3.349890000000002 0.2768066666666442  3.0536633333333327 0.4178566666666512  2.7715633333333187 0.5871166666666312  C 1.9252199999999817 1.0949399999999656  1.3045566666666417 1.8002333333333098  0.8814066666666633 2.674786666666634  Z M 6.185146666666654 2.124670000000009  C 5.917129999999986 2.618366666666688  5.691449999999989 3.112063333333353  5.6773233333333195 3.6903899999999936  C 5.649113333333332 4.12766666666667  5.80428999999998 4.522606666666661  6.0723066666666625 4.8893799999999885  C 6.368533333333332 5.284319999999994  6.763473333333323 5.411286666666655  7.257170000000002 5.312529999999995  C 7.553396666666671 5.2561099999999925  7.835496666666657 5.129186666666655  8.10351333333334 4.988093333333339  C 8.978066666666663 4.494396666666674  9.83853666666667 3.9584066666666757  10.656669999999991 3.3518700000000052  C 10.797719999999998 3.2671966666666634  10.924643333333336 3.154356666666658  11.051609999999997 3.0415166666666664  C 11.136239999999987 2.9710133333333317  11.136239999999987 2.8863833333333417  11.065736666666652 2.80171  C 10.995189999999994 2.71708000000001  10.924643333333321 2.71708000000001  10.840013333333317 2.787626666666668  C 10.797719999999998 2.8158366666666694  10.741299999999995 2.8581300000000027  10.684879999999993 2.9004666666666736  C 9.810326666666654 3.5352133333333455  8.879353333333327 4.071246666666681  7.906043333333315 4.536733333333331  C 7.553396666666657 4.691910000000007  7.186666666666667 4.81883333333333  6.791683333333324 4.8047499999999985  C 6.396743333333319 4.790623333333343  6.255693333333326 4.621363333333335  6.283903333333328 4.226423333333329  C 6.312113333333315 3.8737766666666573  6.439036666666652 3.5634233333333327  6.594213333333329 3.2531133333333315  C 6.664759999999987 3.097936666666655  6.678843333333319 3.097936666666655  6.834019999999995 3.1825666666666734  C 7.130246666666665 3.3518700000000052  7.454639999999998 3.450583333333327  7.793203333333324 3.5211300000000136  C 8.484369999999984 3.6621800000000064  9.02040333333332 3.4365000000000094  9.457679999999982 2.8863833333333417  C 9.641023333333322 2.6465766666666752  9.767989999999983 2.3785600000000215  9.838536666666656 2.068250000000006  C 9.894956666666658 1.7720233333333368  9.866746666666643 1.4757966666666675  9.72569666666665 1.2077800000000138  C 9.584603333333305 0.9821000000000026  9.42946999999998 0.7564200000000199  9.231999999999985 0.587116666666688  C 8.949856666666648 0.33322666666667544  8.625419999999977 0.24859666666668545  8.258689999999973 0.33322666666667544  C 8.004799999999975 0.38964666666667824  7.764993333333308 0.5024866666666838  7.539313333333311 0.6294533333333447  C 6.932733333333317 0.9961833333333487  6.50958333333331 1.518090000000015  6.185146666666654 2.124670000000009  Z M 7.821413333333325 2.9286766666666466  C 7.736783333333335 2.956886666666648  7.652153333333317 2.956886666666648  7.567523333333327 2.9568866666666622  C 7.384136666666663 2.9568866666666622  7.214876666666655 2.914593333333329  7.04561666666666 2.8581299999999885  C 6.876313333333329 2.8158366666666694  6.862229999999997 2.7734999999999985  6.960943333333333 2.6324499999999773  C 7.087909999999994 2.463189999999983  7.2289599999999865 2.2798033333333194  7.370010000000008 2.1246699999999805  C 7.7649933333333365 1.7296866666666375  8.216353333333345 1.3770399999999938  8.766469999999998 1.2077799999999854  C 8.893436666666659 1.1513599999999826  9.062696666666668 1.0808133333333245  9.175536666666673 1.2077799999999854  C 9.26021 1.3065366666666591  9.20374666666666 1.4616699999999838  9.161453333333327 1.5886366666666447  C 8.949856666666662 2.2798033333333194  8.484369999999998 2.7029966666666496  7.821413333333325 2.9286766666666466  Z " fill-rule="nonzero" fill="#6e273e" stroke="none" transform="matrix(1 0 0 1 310 125 )" />
  </g>
</svg>