<?xml version="1.0" encoding="utf-8"?>
<svg version="1.1" xmlns:xlink="http://www.w3.org/1999/xlink" width="11px" height="9px" xmlns="http://www.w3.org/2000/svg">
  <g transform="matrix(1 0 0 1 -307 -93 )">
    <path d="M 7.029226666666645 6.98283666666665  C 6.851993333333311 6.9311833333333155  6.939829999999972 6.999693333333312  6.849133333333327 6.864233333333331  C 6.772996666666657 6.497719999999994  6.550219999999995 5.851836666666664  6.424813333333333 5.2806599999999975  C 6.365013333333337 5.008266666666657  6.312666666666658 4.719623333333331  6.277783333333331 4.4369166666666615  C 6.2335833333333275 4.0790700000000015  6.247016666666667 3.8300766666666632  6.238479999999995 3.4802899999999966  C 6.117103333333347 3.5572066666666657  5.825990000000004 3.8803866666666664  5.729876666666669 4.03482666666666  C 5.895973333333345 3.5511399999999895  6.075936666666678 3.2750633333333283  6.315136666666675 2.8859299999999948  C 6.320206666666664 2.8823766666666657  6.372770000000003 2.853126666666668  6.384470000000007 2.843679999999999  C 6.472653333333341 2.7725699999999946  6.415366666666686 2.844633333333327  6.4371200000000215 2.7661999999999978  C 7.0101166666666765 2.3137133333333324  7.692876666666692 2.6381066666666726  7.847793333333357 3.0051399999999973  C 7.656216666666694 2.8771766666666636  7.522750000000031 2.7775099999999924  7.225570000000019 2.74860666666666  L 7.894463333333348 4.130073333333328  C 8.457536666666684 5.015286666666661  9.265703333333349 4.998299999999993  10.132066666666688 4.55378666666666  L 10.254916666666674 4.462483333333331  C 9.638326666666671 4.526486666666663  9.215133333333341 4.556603333333328  8.784616666666679 4.208809999999993  L 9.026330000000016 4.272466666666659  C 8.459183333333343 3.512053333333327  8.56938000000001 2.8093166666666605  8.214393333333348 1.8785166666666555  C 7.877476666666681 0.9951233333333249  7.223056666666679 0.6348066666666554  6.291173333333346 0.603996666666653  C 5.610450000000014 0.5814633333333177  5.07831666666668 0.7004566666666534  4.536606666666671 0.9693399999999883  C 3.1319133333333435 1.6664866666666498  2.3781733333333506 3.2839033333333134  1.9809800000000166 4.788913333333319  C 1.8820500000000067 5.163789999999992  1.624043333333347 6.202706666666657  1.6326666666666796 6.5686999999999856  C 1.7295600000000209 6.668886666666658  1.9960166666666765 6.822069999999982  2.150326666666672 6.867006666666654  C 2.22802333333334 6.972436666666653  2.92062 7.1494533333333194  3.1123699999999985 7.193739999999984  C 3.51636666666667 7.287036666666651  3.8794566666666697 7.302983333333316  4.284796666666679 7.365036666666654  L 3.978213333333343 7.403819999999989  C 3.422073333333344 7.458896666666654  2.8476466666666624 7.411143333333328  2.3376133333333513 7.267233333333323  C 2.099713333333341 7.2000666666666575  1.8848666666666816 7.1167799999999914  1.6772133333333414 7.013343333333324  C 1.3965866666666784 6.873593333333318  1.1941766666666638 7.066989999999983  1.120900000000006 7.284263333333321  C 1.086190000000002 7.328073333333329  1.044546666666676 7.381546666666658  1.0127833333333314 7.430339999999987  C 0.9164099999999991 7.535119999999985  0.7110966666666769 7.87086666666665  0.6388166666666706 8.043073333333318  C 0.5082100000000054 8.354206666666649  0.743380000000002 8.506869999999985  0.9711399999999912 8.609829999999988  C 1.5092099999999962 8.853146666666653  2.1907133333333206 8.769123333333319  2.7954733333333337 8.72054666666665  L 5.072726666666668 8.321879999999986  L 5.226083333333335 8.300429999999984  L 5.370643333333334 8.274299999999975  C 5.471350000000001 8.264376666666642  5.4979999999999905 8.274776666666646  5.574266666666673 8.239026666666646  C 5.6493633333333415 8.233219999999982  5.7690066666666695 8.22173666666665  5.847700000000004 8.209343333333315  L 5.977353333333327 8.193223333333314  L 6.095523333333333 8.190839999999987  C 6.2011699999999905 8.172899999999991  6.257633333333331 8.198553333333322  6.339013333333327 8.15079999999999  C 6.584713333333326 8.18464333333332  6.900916666666646 8.140789999999988  7.180589999999981 8.175499999999992  C 7.5046366666666415 8.215756666666657  7.8004299999999915 8.333363333333324  7.8685933333333224 8.333926666666656  C 7.859839999999977 8.137193333333322  7.555033333333313 7.663906666666648  7.456276666666639 7.500409999999988  C 7.418186666666641 7.4373166666666535  7.373293333333308 7.383409999999984  7.341226666666643 7.320706666666652  C 7.291869999999989 7.224289999999989  7.295856666666638 7.182993333333322  7.230076666666648 7.107549999999989  C 7.185876666666644 7.056936666666651  7.118839999999977 7.008923333333321  7.029226666666645 6.98283666666665  Z " fill-rule="nonzero" fill="#6e273e" stroke="none" transform="matrix(1 0 0 1 307 93 )" />
  </g>
</svg>