<?xml version="1.0" encoding="utf-8"?>
<svg version="1.1" xmlns:xlink="http://www.w3.org/1999/xlink" width="18px" height="16px" xmlns="http://www.w3.org/2000/svg">
  <g transform="matrix(1 0 0 1 -302 -102 )">
    <path d="M 14.299936666666667 0.3984966666666594  L 17.539146666666667 0.3984966666666594  C 17.43618666666667 3.6859799999999936  15.416420000000002 6.489906666666656  12.560406666666665 7.73045333333333  C 15.416420000000016 8.970999999999997  17.43618666666667 11.774926666666659  17.539146666666667 15.06241  L 14.299936666666667 15.06241  C 14.162743333333339 12.401049999999998  11.96141 10.28534333333333  9.265946666666679 10.28534333333333  C 6.570483333333357 10.28534333333333  4.369150000000019 12.401049999999998  4.23195666666669 15.06241  L 0.9927466666666902 15.06241  C 1.0957066666666861 11.774926666666659  3.1154733333333553 8.970999999999997  5.971486666666692 7.73045333333333  C 3.115473333333341 6.489906666666656  1.0957066666666861 3.6859799999999936  0.9927466666666902 0.3984966666666594  L 4.23195666666669 0.3984966666666594  C 4.369150000000019 3.0598566666666613  6.570483333333357 5.175563333333329  9.265946666666679 5.175563333333329  C 11.96141 5.175563333333329  14.162743333333339 3.0598566666666613  14.299936666666667 0.3984966666666594  Z " fill-rule="nonzero" fill="#6e273e" stroke="none" transform="matrix(1 0 0 1 302 102 )" />
  </g>
</svg>