<?xml version="1.0" encoding="utf-8"?>
<svg version="1.1" xmlns:xlink="http://www.w3.org/1999/xlink" width="24px" height="22px" xmlns="http://www.w3.org/2000/svg">
  <g transform="matrix(1 0 0 1 -436 -103 )">
    <path d="M 4.595763333333338 9.72266333333333  L 11.978853333333333 14.679649999999995  L 19.361900000000006 9.72266333333333  L 19.361900000000006 11.99142333333333  L 19.361900000000006 12.999009999999998  L 19.361900000000006 20.30682999999999  L 17.218676666666667 21.74709999999999  L 17.218676666666667 14.438196666666656  L 11.978853333333333 17.955996666666664  L 6.739159999999998 14.438196666666668  L 6.739159999999998 21.74709999999999  L 4.595763333333338 20.30682999999999  L 4.595763333333338 12.999009999999998  L 4.595763333333338 11.99142333333333  L 4.595763333333338 9.72266333333333  Z M 0.3480133333333484 0.2529000000000039  L 11.978853333333333 8.12600333333333  L 23.609650000000002 0.2529000000000039  C 23.609650000000002 5.9660966666666715  23.609650000000002 11.67877333333334  23.609650000000002 17.3921  L 21 18.832240000000013  L 21 4.96860666666668  L 11.978853333333348 11.402220000000014  L 2.491410000000009 4.96860666666668  L 2.491410000000009 18.832240000000013  L 0.3480133333333484 17.3921  C 0.3480133333333484 11.67877333333334  0.3480133333333484 5.9660966666666715  0.3480133333333484 0.2529000000000039  Z " fill-rule="nonzero" fill="#5b5b5b" stroke="none" transform="matrix(1 0 0 1 436 103 )" />
  </g>
</svg>