<?xml version="1.0" encoding="utf-8"?>
<svg version="1.1" xmlns:xlink="http://www.w3.org/1999/xlink" width="54px" height="5px" xmlns="http://www.w3.org/2000/svg">
  <g transform="matrix(1 0 0 1 -421 -127 )">
    <path d="M 6.674976666666666 4.759473333333332  L 6.674976666666666 0.6753499999999946  L 5.770176666666671 0.6753499999999946  L 3.7131000000000043 4.160173333333319  L 1.644756666666673 0.6753499999999946  L 0.7397833333333423 0.6753499999999946  L 0.7397833333333423 4.759473333333332  L 1.1628900000000044 4.759473333333332  L 1.1628900000000044 1.0044666666666586  L 1.403650000000006 1.0044666666666586  L 3.6016466666666678 4.759473333333332  L 3.818746666666669 4.759473333333332  L 6.016743333333338 1.0044666666666586  L 6.25165333333333 1.0044666666666586  L 6.25165333333333 4.759473333333332  L 6.674976666666666 4.759473333333332  Z M 7.379923333333337 3.3589399999999614  L 7.379923333333337 0.6753499999999946  L 7.80307333333333 0.6753499999999946  L 7.80307333333333 3.524646666666655  C 7.80307333333333 3.81471999999998  7.875483333333328 4.020379999999989  8.020520000000005 4.142883333333316  C 8.185099999999998 4.279513333333313  8.476863333333334 4.348196666666652  8.896633333333334 4.348196666666652  L 10.688553333333338 4.348196666666652  C 11.057103333333338 4.348196666666652  11.320526666666673 4.2789499999999805  11.47873666666667 4.139719999999983  C 11.638030000000008 3.9993633333333207  11.71702666666667 3.7871166666666483  11.71702666666667 3.500986666666634  L 11.71702666666667 0.6753499999999804  L 12.140133333333338 0.6753499999999804  L 12.140133333333338 3.347326666666646  C 12.140133333333338 3.8967066666666312  12.02079333333333 4.2750066666666555  11.781550000000003 4.483483333333311  C 11.565966666666668 4.667346666666646  11.199886666666671 4.759473333333304  10.682746666666674 4.759473333333304  L 8.896633333333334 4.759473333333304  C 8.359603333333332 4.759473333333304  7.977403333333342 4.663793333333288  7.750336666666668 4.471999999999966  C 7.503423333333338 4.2590599999999625  7.379923333333337 3.889036666666641  7.379923333333337 3.3589399999999614  Z M 15.918626666666675 1.0984566666666495  L 13.244959999999999 1.0984566666666495  L 13.244959999999999 2.673493333333326  L 15.889160000000004 2.673493333333326  C 16.17156333333334 2.673493333333326  16.38285666666667 2.6087533333333255  16.52377666666667 2.479489999999984  C 16.68042666666667 2.334626666666651  16.75925000000001 2.1015799999999984  16.75925000000001 1.7805233333333206  C 16.75925000000001 1.5807133333333212  16.683460000000004 1.4165233333333305  16.532746666666668 1.2894699999999943  C 16.381730000000005 1.1624599999999958  16.177023333333338 1.0984566666666495  15.918626666666675 1.0984566666666495  Z M 16.053740000000005 3.085203333333297  L 13.244959999999999 3.0852033333333253  L 13.244959999999999 4.759473333333318  L 12.821853333333337 4.759473333333318  L 12.821853333333337 0.6873533333333057  L 15.75989666666667 0.6873533333333057  C 16.253550000000004 0.6873533333333057  16.620020000000004 0.7967266666666433  16.859263333333338 1.016469999999984  C 17.07428333333334 1.212163333333308  17.182010000000005 1.4921399999999778  17.182010000000005 1.856529999999978  C 17.182010000000005 2.1310466666666485  17.121386666666673 2.3501833333333053  16.999793333333336 2.5147633333333204  C 16.921533333333343 2.6243533333333318  16.790406666666676 2.7324266666666546  16.606326666666675 2.838073333333327  C 16.75119000000001 2.869013333333328  16.868623333333346 2.96135666666666  16.959060000000008 3.11406333333332  C 17.064706666666673 3.29047333333331  17.117270000000012 3.5216133333333204  17.117270000000012 3.807396666666648  L 17.117270000000012 4.759473333333318  L 16.694120000000012 4.759473333333318  L 16.694120000000012 3.7606833333333043  C 16.694120000000012 3.5135533333333058  16.643463333333344 3.339439999999982  16.541586666666674 3.2375633333332985  C 16.439710000000005 3.135643333333306  16.277210000000004 3.085203333333297  16.053740000000005 3.085203333333297  Z M 18.539166666666667 3.737023333333312  L 18.01643666666667 4.759473333333318  L 17.54618333333333 4.759473333333318  L 19.662193333333327 0.6753499999999804  L 20.308249999999994 0.6753499999999804  L 22.423869999999994 4.759473333333318  L 21.930389999999996 4.759473333333318  L 21.407443333333333 3.737023333333312  L 18.539166666666667 3.737023333333312  Z M 19.979133333333337 0.9691933333333083  L 18.768486666666668 3.3259199999999822  L 21.18978 3.3259199999999822  L 19.979133333333337 0.9691933333333083  Z M 28.747113333333317 4.759473333333332  L 28.747113333333335 0.6753499999999946  L 27.841749999999994 0.6753499999999946  L 25.785020000000003 4.160173333333319  L 23.716720000000002 0.6753499999999946  L 22.81135666666667 0.6753499999999946  L 22.81135666666667 4.759473333333332  L 23.23446333333333 4.759473333333332  L 23.23446333333333 1.0044666666666586  L 23.475223333333332 1.0044666666666586  L 25.673219999999993 4.759473333333332  L 25.89066666666666 4.759473333333332  L 28.08866333333333 1.0044666666666586  L 28.323616666666652 1.0044666666666586  L 28.323616666666652 4.759473333333332  L 28.747113333333317 4.759473333333332  Z M 30.13958666666667 3.737023333333326  L 29.616423333333326 4.759473333333332  L 29.146386666666668 4.759473333333332  L 31.26200666666666 0.6753499999999946  L 31.908453333333345 0.6753499999999946  L 34.02385666666666 4.759473333333332  L 33.53020333333333 4.759473333333332  L 33.00743 3.737023333333326  L 30.13958666666667 3.737023333333326  Z M 31.579336666666677 0.9691933333333225  L 30.36869 3.3259199999999964  L 32.78998333333334 3.3259199999999964  L 31.579336666666677 0.9691933333333225  Z M 34.652450000000016 2.607843333333321  C 34.476473333333345 2.4554833333333193  34.38807333333335 2.195786666666649  34.38807333333334 1.8300533333333249  C 34.38807333333334 1.421766666666656  34.49372000000001 1.12697  34.70536000000001 0.946486666666658  C 34.91687000000002 0.7656133333333202  35.25404666666667 0.6753499999999946  35.71602333333334 0.6753499999999946  L 37.77288333333334 0.6753499999999946  C 38.697746666666674 0.6753499999999946  39.159723333333346 1.061103333333321  39.159723333333346 1.8328699999999856  L 38.73661666666668 1.8328699999999856  C 38.73661666666668 1.5883833333333257  38.66247333333335 1.4069466666666415  38.51332000000002 1.288733333333326  C 38.345013333333355 1.1543999999999812  38.06841666666669 1.0870166666666563  37.68487333333336 1.0870166666666563  L 35.72239333333334 1.0870166666666563  C 35.35800333333334 1.0870166666666563  35.11104666666668 1.1476399999999956  34.98156666666668 1.2697966666666645  C 34.868076666666695 1.3757899999999808  34.81139666666668 1.5626866666666643  34.81139666666668 1.8300533333333249  C 34.81139666666668 2.0664799999999985  34.87371000000002 2.226163333333332  34.99903000000002 2.3081499999999977  C 35.14822666666669 2.40703666666667  35.43396666666668 2.455830000000006  35.85746333333334 2.455830000000006  L 37.67889333333335 2.455830000000006  C 38.20786333333335 2.455830000000006  38.592490000000026 2.5411966666666785  38.83381333333335 2.7112366666666645  C 39.074356666666674 2.8821433333333317  39.19499666666668 3.1534966666666833  39.19499666666668 3.5257733333333476  L 39.19499666666668 3.607759999999999  C 39.19499666666668 4.030866666666668  39.09104000000001 4.328869999999995  38.88373333333334 4.500903333333341  C 38.67621000000001 4.673716666666678  38.333356666666674 4.759473333333332  37.855086666666665 4.759473333333332  L 35.75129666666666 4.759473333333332  C 35.33208999999998 4.759473333333332  35.00899666666666 4.665483333333341  34.78158333333333 4.477459999999994  C 34.54251333333333 4.277996666666667  34.423346666666674 3.9841533333333246  34.423346666666674 3.596103333333332  L 34.84649666666668 3.596103333333332  C 34.84649666666668 3.8426699999999983  34.91890666666667 4.025059999999996  35.064160000000015 4.14288333333333  C 35.23246666666668 4.279513333333327  35.50902000000001 4.3481966666666665  35.892390000000006 4.3481966666666665  L 37.81981333333334 4.3481966666666665  C 38.14087000000002 4.3481966666666665  38.38028666666668 4.288526666666655  38.536763333333354 4.168970000000002  C 38.69345666666669 4.049283333333335  38.77189000000001 3.858616666666663  38.77189000000001 3.596103333333332  C 38.77189000000001 3.3294733333333255  38.702470000000005 3.1418399999999878  38.56358666666668 3.0320766666666543  C 38.42457333333334 2.922313333333321  38.16695666666669 2.867539999999991  37.79052 2.867539999999991  L 35.73964000000001 2.867539999999991  C 35.21517666666668 2.867539999999991  34.85230333333334 2.7813933333333125  34.652450000000016 2.607843333333321  Z M 39.61814666666665 1.0870166666666563  L 39.61814666666666 0.6753499999999946  L 44.01396666666666 0.6753499999999946  L 44.01396666666666 1.0870166666666563  L 42.021803333333324 1.0870166666666563  L 42.021803333333324 4.759473333333332  L 41.59865333333332 4.759473333333332  L 41.59865333333332 1.0870166666666563  L 39.61814666666665 1.0870166666666563  Z M 48.10970333333333 4.759473333333332  L 44.49544333333333 4.759473333333332  L 44.49544333333333 0.6753499999999946  L 48.10970333333333 0.6753499999999946  L 48.10970333333333 1.0870166666666563  L 44.91872333333333 1.0870166666666563  L 44.91872333333333 2.4442166666666623  L 48.02771666666666 2.4442166666666623  L 48.02771666666666 2.855493333333328  L 44.91872333333333 2.855493333333328  L 44.91872333333333 4.3481966666666665  L 48.10970333333333 4.3481966666666665  L 48.10970333333333 4.759473333333332  Z M 51.95293666666666 1.0984566666666638  L 49.27887999999999 1.0984566666666638  L 49.27887999999999 2.67349333333334  L 51.923469999999995 2.67349333333334  C 52.20548333333333 2.67349333333334  52.41716666666666 2.608753333333354  52.55808666666667 2.4794900000000126  C 52.71473666666667 2.334626666666665  52.79338666666666 2.1015800000000127  52.79338666666666 1.780523333333349  C 52.79338666666666 1.5807133333333354  52.717943333333324 1.4165233333333447  52.56705666666666 1.2894700000000086  C 52.41621333333332 1.16246000000001  52.211506666666665 1.0984566666666638  51.95293666666666 1.0984566666666638  Z M 52.08805000000001 3.0852033333333253  L 49.27887999999999 3.0852033333333395  L 49.27887999999999 4.759473333333332  L 48.85594666666667 4.759473333333332  L 48.85594666666667 0.6873533333333199  L 51.79420666666667 0.6873533333333199  C 52.28807666666667 0.6873533333333199  52.65450333333334 0.7967266666666717  52.89318333333334 1.0164699999999982  C 53.108419999999995 1.2121633333333222  53.216103333333336 1.492139999999992  53.216103333333336 1.8565299999999922  C 53.216103333333336 2.1310466666666628  53.155306666666675 2.3501833333333195  53.03432000000001 2.5147633333333346  C 52.955496666666676 2.624353333333346  52.824500000000015 2.732426666666669  52.640463333333344 2.838073333333341  C 52.785673333333335 2.869013333333342  52.90293333333334 2.961356666666674  52.993413333333336 3.114063333333334  C 53.09884333333335 3.290473333333324  53.151753333333346 3.5216133333333346  53.151753333333346 3.807396666666662  L 53.151753333333346 4.759473333333332  L 52.72864666666668 4.759473333333332  L 52.72864666666668 3.7606833333333185  C 52.72864666666668 3.513553333333334  52.67760000000003 3.339439999999996  52.57589666666668 3.2375633333333127  C 52.474020000000024 3.13564333333332  52.31134666666668 3.0852033333333253  52.08805000000001 3.0852033333333253  Z " fill-rule="nonzero" fill="#5b5b5b" stroke="none" transform="matrix(1 0 0 1 421 127 )" />
  </g>
</svg>