<?xml version="1.0" encoding="utf-8"?>
<svg version="1.1" xmlns:xlink="http://www.w3.org/1999/xlink" width="34px" height="5px" xmlns="http://www.w3.org/2000/svg">
  <g transform="matrix(1 0 0 1 -431 -133 )">
    <path d="M 3.7219300000000004 4.153519999999986  L 0.10762666666666831 4.153519999999986  L 0.10762666666666831 3.7420266666666606  L 0.5307766666666609 3.7420266666666606  L 2.416339999999991 3.7420266666666606  L 3.7219300000000004 3.7420266666666606  L 3.7219300000000004 4.153519999999986  Z M 0.5307766666666751 2.249539999999982  L 0.10762666666666831 2.249539999999982  L 0.10762666666666831 1.8380899999999798  L 0.5307766666666609 1.8380899999999798  L 2.6278066666666646 1.8380899999999798  L 3.6397699999999986 1.8380899999999798  L 3.6397699999999986 2.249539999999982  L 2.416339999999998 2.249539999999982  L 0.5307766666666751 2.249539999999982  Z M 0.5307766666666609 0.48049999999997794  L 0.10762666666666831 0.48049999999997794  L 0.10762666666666831 0.06900666666665245  L 3.7219300000000004 0.06900666666665245  L 3.7219300000000004 0.48049999999997794  L 2.6278066666666646 0.48049999999997794  L 0.5307766666666609 0.48049999999997794  Z M 8.805276666666657 0.06900666666665245  L 8.241206666666663 0.06900666666665245  L 6.5250766666666635 1.802773333333306  L 4.808946666666657 0.06900666666665245  L 4.27434333333332 0.06900666666665245  L 6.160296666666653 1.9878066666666427  L 3.9983099999999823 4.153519999999972  L 4.562163333333324 4.153519999999972  L 6.525076666666649 2.1906499999999767  L 8.487773333333323 4.153519999999972  L 9.051799999999986 4.153519999999972  L 6.889639999999993 1.9878066666666427  L 8.805276666666657 0.06900666666665245  Z M 9.92188999999999 4.153519999999986  L 9.498783333333328 4.153519999999986  L 9.498783333333328 0.06900666666665245  L 12.248629999999991 0.06900666666665245  C 12.758056666666654 0.06900666666665245  13.124526666666654 0.16524999999998613  13.347606666666664 0.35795333333331314  C 13.57072999999999 0.5501366666666456  13.68253 0.8743566666666425  13.68253 1.3295733333333288  C 13.68253 1.7733499999999935  13.575800000000001 2.073909999999998  13.362426666666664 2.2307766666666566  C 13.149096666666665 2.3885966666666576  12.779463333333325 2.466466666666662  12.254436666666656 2.466466666666662  L 9.92188999999999 2.466466666666662  L 9.92188999999999 4.153519999999986  Z M 9.92188999999999 0.48049999999997794  L 9.92188999999999 2.0555366666666544  L 12.377893333333326 2.0555366666666544  C 12.722783333333325 2.0555366666666544  12.952059999999989 2.0125933333333137  13.065419999999989 1.9260566666666534  C 13.194683333333323 1.827169999999981  13.259423333333324 1.6282699999999721  13.259423333333324 1.3295733333333146  C 13.259423333333324 1.0193933333332978  13.19598333333333 0.7996933333333089  13.068583333333322 0.672639999999987  C 12.941009999999984 0.5441133333333141  12.72464666666665 0.48049999999997794  12.418973333333327 0.48049999999997794  L 9.92188999999999 0.48049999999997794  Z M 17.390476666666657 0.4919399999999996  L 14.716809999999995 0.4919399999999712  L 14.716809999999995 2.0669766666666476  L 17.36139999999999 2.0669766666666476  C 17.643413333333314 2.0669766666666476  17.855053333333316 2.0026266666666572  17.995973333333325 1.873363333333316  C 18.15266666666666 1.7281099999999867  18.231099999999984 1.495453333333316  18.231099999999984 1.1740066666666564  C 18.231099999999984 0.9741966666666428  18.15565666666666 0.8105699999999842  18.004986666666653 0.6835166666666623  C 17.853926666666652 0.5559433333333317  17.648873333333327 0.4919399999999996  17.390476666666657 0.4919399999999996  Z M 17.525936666666666 2.478686666666661  L 14.716809999999995 2.478686666666647  L 14.716809999999995 4.153519999999972  L 14.293703333333326 4.153519999999972  L 14.293703333333326 0.08083666666665579  L 17.232093333333324 0.08083666666665579  C 17.72578999999999 0.08083666666665579  18.092043333333336 0.19020999999999333  18.330723333333324 0.40995333333331985  C 18.546350000000004 0.6058633333333177  18.654206666666667 0.8859699999999862  18.654206666666667 1.250403333333324  C 18.654206666666667 1.5247033333333206  18.59323666666667 1.7440566666666513  18.471643333333333 1.9086366666666663  C 18.393383333333333 2.018183333333326  18.262256666666673 2.1259099999999904  18.07835 2.2315566666666626  C 18.223039999999997 2.263059999999996  18.34086333333333 2.355186666666654  18.430953333333335 2.508110000000002  C 18.53655666666667 2.6843033333333324  18.589466666666667 2.9150966666666562  18.589466666666667 3.20144333333333  L 18.589466666666667 4.153519999999986  L 18.16618666666666 4.153519999999986  L 18.16618666666666 3.1541666666666686  C 18.16618666666666 2.907599999999988  18.115313333333333 2.7330966666666683  18.013263333333327 2.6310466666666628  C 17.911906666666667 2.529689999999988  17.74906 2.478686666666661  17.525936666666666 2.478686666666661  Z M 22.937836666666655 4.153519999999958  L 19.323706666666652 4.153519999999972  L 19.323706666666652 0.06900666666663824  L 22.937836666666655 0.06900666666663824  L 22.937836666666655 0.48049999999996373  L 19.74685666666666 0.48049999999996373  L 19.74685666666666 1.8380899999999656  L 22.855459999999994 1.8380899999999656  L 22.855459999999994 2.2495399999999677  L 19.74685666666666 2.2495399999999677  L 19.74685666666666 3.742026666666632  L 22.937836666666655 3.742026666666632  L 22.937836666666655 4.153519999999958  Z M 23.889696666666623 2.0013266666666283  C 23.713329999999942 1.8489666666666267  23.62553666666662 1.5892699999999564  23.625536666666648 1.2239266666666424  C 23.625536666666648 0.8154233333332996  23.731139999999982 0.5206699999999671  23.942823333333322 0.34031666666663796  C 24.15428999999999 0.15944333333330007  24.491076666666658 0.06900666666663824  24.953443333333325 0.06900666666663824  L 27.01034666666665 0.06900666666663824  C 27.935036666666647 0.06900666666663824  28.397186666666656 0.45480333333330236  28.397186666666656 1.2269166666666251  L 27.97403666666665 1.2269166666666251  C 27.97403666666665 0.982256666666629  27.89954666666665 0.8006033333332994  27.750739999999993 0.6822166666666334  C 27.58208666666667 0.5478833333332886  27.305879999999988 0.48049999999996373  26.92216333333333 0.48049999999996373  L 24.959249999999997 0.48049999999996373  C 24.59468666666666 0.48049999999996373  24.34812000000001 0.541123333333303  24.21881333333333 0.6632799999999719  C 24.105496666666667 0.7692733333333024  24.04864333333333 0.9565599999999677  24.04864333333333 1.2239266666666424  C 24.04864333333333 1.4601799999999656  24.11112999999999 1.6198633333332992  24.23649333333333 1.7020233333333152  C 24.385083333333327 1.8010833333333096  24.671429999999987 1.8498766666666455  25.094709999999992 1.8498766666666455  L 26.91631333333332 1.8498766666666455  C 27.445109999999985 1.8498766666666455  27.82995333333332 1.9352866666666415  28.070886666666652 2.105283333333304  C 28.311776666666645 2.275626666666639  28.432459999999978 2.5471533333333127  28.432459999999978 2.919429999999977  L 28.432459999999978 3.0018066666666385  C 28.432459999999978 3.4249133333332935  28.328503333333302 3.7225266666666244  28.120589999999964 3.894949999999966  C 27.91362999999997 4.067589999999967  27.570039999999977 4.153519999999958  27.0923333333333 4.153519999999958  L 24.988716666666633 4.153519999999958  C 24.56950999999995 4.153519999999958  24.246243333333297 4.059529999999967  24.019003333333302 3.871333333333297  C 23.779933333333304 3.671653333333296  23.66059333333331 3.3778099999999682  23.66059333333331 2.9895866666666393  L 24.083743333333317 2.9895866666666393  C 24.083743333333317 3.2367166666666236  24.156153333333307 3.4185433333333037  24.30101666666664 3.5363666666666376  C 24.469886666666653 3.6735599999999664  24.74570333333331 3.742026666666632  25.129809999999964 3.742026666666632  L 27.057059999999964 3.742026666666632  C 27.37828999999998 3.742026666666632  27.617359999999962 3.682009999999977  27.774226666666635 3.5626699999999687  C 27.930703333333298 3.4433299999999605  28.009136666666635 3.2520999999999702  28.009136666666635 2.9895866666666393  C 28.009136666666635 2.723173333333307  27.939716666666627 2.535539999999969  27.800659999999965 2.425733333333298  C 27.661819999999963 2.3157966666666425  27.403986666666626 2.2611966666666348  27.027593333333286 2.2611966666666348  L 24.977059999999952 2.2611966666666348  C 24.452076666666613 2.2611966666666348  24.089549999999946 2.175049999999956  23.889696666666623 2.0013266666666283  Z M 29.307576666666648 2.0013266666666283  C 29.131383333333318 1.8489666666666267  29.043763333333303 1.5892699999999564  29.043763333333317 1.2239266666666424  C 29.043763333333317 0.8154233333332996  29.14940999999999 0.5206699999999671  29.36070333333332 0.34031666666663796  C 29.572169999999986 0.15944333333330007  29.909519999999986 0.06900666666663824  30.371713333333318 0.06900666666663824  L 32.42822666666666 0.06900666666663824  C 33.35291666666666 0.06900666666663824  33.81506666666667 0.45480333333330236  33.81506666666667 1.2269166666666251  L 33.392089999999996 1.2269166666666251  C 33.392089999999996 0.982256666666629  33.3176 0.8006033333332994  33.16901 0.6822166666666334  C 33.00014 0.5478833333332886  32.72410666666667 0.48049999999996373  32.340563333333336 0.48049999999996373  L 30.377520000000004 0.48049999999996373  C 30.013130000000004 0.48049999999996373  29.766000000000005 0.541123333333303  29.63669333333334 0.6632799999999719  C 29.523376666666678 0.7692733333333024  29.466913333333338 0.9565599999999677  29.466913333333338 1.2239266666666424  C 29.466913333333338 1.4601799999999656  29.529010000000014 1.6198633333332992  29.654546666666675 1.7020233333333152  C 29.803136666666674 1.8010833333333096  30.08931000000001 1.8498766666666455  30.512590000000003 1.8498766666666455  L 32.33419333333333 1.8498766666666455  C 32.86355333333333 1.8498766666666455  33.24817999999999 1.9352866666666415  33.48894 2.105283333333304  C 33.729656666666656 2.275626666666639  33.850513333333325 2.5471533333333127  33.850513333333325 2.919429999999977  L 33.850513333333325 3.0018066666666385  C 33.850513333333325 3.4249133333332935  33.74655666666665 3.7225266666666244  33.53886 3.894949999999966  C 33.33151000000001 4.067589999999967  32.988483333333335 4.153519999999958  32.51077666666666 4.153519999999958  L 30.406986666666654 4.153519999999958  C 29.987389999999976 4.153519999999958  29.664469999999994 4.059529999999967  29.436883333333327 3.871333333333297  C 29.198203333333325 3.671653333333296  29.078473333333335 3.3778099999999682  29.078473333333335 2.9895866666666393  L 29.50162333333334 2.9895866666666393  C 29.50162333333334 3.2367166666666236  29.574033333333333 3.4185433333333037  29.71928666666666 3.5363666666666376  C 29.888156666666674 3.6735599999999664  30.164146666666667 3.742026666666632  30.54768999999999 3.742026666666632  L 32.47533 3.742026666666632  C 32.79656 3.742026666666632  33.035803333333334 3.682009999999977  33.19210666666666 3.5626699999999687  C 33.34897333333333 3.4433299999999605  33.427406666666656 3.2520999999999702  33.427406666666656 2.9895866666666393  C 33.427406666666656 2.723173333333307  33.35816 2.535539999999969  33.218929999999986 2.425733333333298  C 33.07969999999999 2.3157966666666425  32.82186666666665 2.2611966666666348  32.44586333333332 2.2611966666666348  L 30.395329999999973 2.2611966666666348  C 29.870129999999975 2.2611966666666348  29.50742999999997 2.175049999999956  29.307576666666648 2.0013266666666283  Z " fill-rule="nonzero" fill="#f28f39" stroke="none" transform="matrix(1 0 0 1 431 133 )" />
  </g>
</svg>