<?xml version="1.0" encoding="utf-8"?>
<svg version="1.1" xmlns:xlink="http://www.w3.org/1999/xlink" width="15px" height="15px" xmlns="http://www.w3.org/2000/svg">
  <g transform="matrix(1 0 0 1 -20 -2669 )">
    <path d="M 9.111328125 8.725775193798452  C 9.365234375 8.412467700258398  9.534505208333336 8.255813953488373  9.619140625 8.255813953488373  C 9.703776041666666 8.255813953488373  10.021158854166668 8.397932816537468  10.5712890625 8.68217054263566  C 11.121419270833334 8.966408268733849  11.412760416666668 9.137596899224807  11.4453125 9.195736434108529  C 11.458333333333334 9.228036175710594  11.46484375 9.276485788113694  11.46484375 9.34108527131783  C 11.46484375 9.554263565891471  11.409505208333336 9.799741602067183  11.298828125 10.077519379844961  C 11.194661458333334 10.329457364341085  10.963541666666666 10.541020671834625  10.60546875 10.712209302325581  C 10.247395833333336 10.883397932816536  9.915364583333334 10.968992248062015  9.609375 10.968992248062015  C 9.238281250000002 10.968992248062015  8.619791666666666 10.768733850129198  7.753906250000001 10.368217054263567  C 7.115885416666668 10.077519379844961  6.5625 9.696382428940566  6.09375 9.224806201550388  C 5.625 8.753229974160208  5.143229166666667 8.155684754521962  4.6484375 7.432170542635659  C 4.1796875 6.74095607235142  3.948567708333334 6.1143410852713185  3.955078125 5.5523255813953485  L 3.955078125 5.474806201550387  C 3.9746093750000004 4.886950904392763  4.215494791666668 4.376614987080102  4.677734375 3.9437984496124026  C 4.833984375 3.8016795865633064  5.003255208333334 3.730620155038759  5.185546875 3.730620155038759  C 5.224609375 3.730620155038759  5.283203125 3.7354651162790695  5.361328125 3.7451550387596892  C 5.439453125 3.7548449612403108  5.501302083333334 3.7596899224806197  5.546875 3.7596899224806197  C 5.670572916666667 3.7596899224806197  5.7568359375 3.780684754521963  5.8056640625 3.8226744186046515  C 5.8544921875 3.864664082687338  5.904947916666667 3.9534883720930236  5.95703125 4.089147286821705  C 6.009114583333333 4.218346253229973  6.116536458333334 4.502583979328164  6.279296875 4.94186046511628  C 6.442057291666668 5.381136950904392  6.5234375 5.623385012919896  6.5234375 5.6686046511627906  C 6.5234375 5.804263565891472  6.4111328125 5.989987080103359  6.1865234375 6.22577519379845  C 5.9619140625 6.461563307493538  5.849609375 6.611757105943152  5.849609375 6.676356589147288  C 5.849609375 6.721576227390181  5.865885416666668 6.770025839793281  5.8984375 6.821705426356589  C 6.119791666666668 7.29328165374677  6.451822916666668 7.735788113695089  6.89453125 8.149224806201548  C 7.259114583333334 8.491602067183463  7.750651041666668 8.817829457364342  8.369140625 9.127906976744185  C 8.447265625 9.173126614987078  8.518880208333334 9.195736434108529  8.583984375 9.195736434108529  C 8.681640625000002 9.195736434108529  8.857421875000002 9.0390826873385  9.111328125 8.725775193798452  Z M 4.267578125 12.383720930232558  C 5.296223958333334 13.055555555555555  6.419270833333332 13.391472868217054  7.636718750000001 13.391472868217054  C 8.463541666666668 13.391472868217054  9.256184895833336 13.229974160206716  10.0146484375 12.906976744186046  C 10.773111979166666 12.583979328165375  11.42578125 12.151162790697674  11.97265625 11.608527131782946  C 12.51953125 11.065891472868218  12.955729166666666 10.418281653746769  13.28125 9.665697674418606  C 13.606770833333336 8.913113695090438  13.76953125 8.126614987080101  13.76953125 7.306201550387597  C 13.76953125 6.48578811369509  13.606770833333336 5.699289405684754  13.28125 4.946705426356589  C 12.955729166666666 4.194121447028423  12.51953125 3.5465116279069764  11.97265625 3.003875968992248  C 11.42578125 2.4612403100775193  10.773111979166666 2.028423772609818  10.0146484375 1.7054263565891477  C 9.256184895833336 1.3824289405684738  8.463541666666668 1.22093023255814  7.636718750000001 1.22093023255814  C 6.809895833333334 1.22093023255814  6.017252604166668 1.3824289405684738  5.2587890625 1.7054263565891477  C 4.500325520833333 2.028423772609818  3.8476562500000004 2.4612403100775193  3.30078125 3.003875968992248  C 2.75390625 3.5465116279069764  2.3177083333333335 4.194121447028423  1.9921875 4.946705426356589  C 1.6666666666666667 5.699289405684754  1.50390625 6.48578811369509  1.50390625 7.306201550387597  C 1.50390625 8.617571059431524  1.8945312500000002 9.806201550387597  2.67578125 10.872093023255813  L 1.904296875 13.12984496124031  L 4.267578125 12.383720930232558  Z M 4.7802734375 0.5813953488372087  C 5.6884765625 0.19379844961240233  6.640625 0  7.636718750000001 0  C 8.6328125 0  9.5849609375 0.19379844961240233  10.4931640625 0.5813953488372087  C 11.4013671875 0.968992248062015  12.184244791666668 1.489018087855296  12.841796875 2.1414728682170536  C 13.499348958333336 2.793927648578811  14.0234375 3.570736434108528  14.4140625 4.471899224806203  C 14.8046875 5.373062015503875  15 6.31782945736434  15 7.306201550387597  C 15 8.294573643410851  14.8046875 9.239341085271318  14.4140625 10.140503875968992  C 14.0234375 11.041666666666668  13.499348958333336 11.818475452196381  12.841796875 12.47093023255814  C 12.184244791666668 13.123385012919895  11.4013671875 13.64341085271318  10.4931640625 14.031007751937985  C 9.5849609375 14.418604651162791  8.6328125 14.612403100775193  7.636718750000001 14.612403100775193  C 6.3671875 14.612403100775193  5.179036458333334 14.308785529715763  4.072265625 13.7015503875969  L 0 15  L 1.328125 11.075581395348838  C 0.625 9.925710594315246  0.2734375 8.669250645994833  0.2734375 7.306201550387597  C 0.2734375 6.31782945736434  0.46875 5.373062015503875  0.859375 4.471899224806203  C 1.25 3.570736434108528  1.774088541666667 2.793927648578811  2.431640625 2.1414728682170536  C 3.089192708333334 1.489018087855296  3.8720703124999996 0.968992248062015  4.7802734375 0.5813953488372087  Z " fill-rule="nonzero" fill="#000000" stroke="none" transform="matrix(1 0 0 1 20 2669 )" />
  </g>
</svg>