<?xml version="1.0" encoding="utf-8"?>
<svg version="1.1" xmlns:xlink="http://www.w3.org/1999/xlink" width="15px" height="11px" xmlns="http://www.w3.org/2000/svg">
  <g transform="matrix(1 0 0 1 -20 -2708 )">
    <path d="M 13.849051339285715 9.92578125  C 13.90206473214286 9.876302083333334  13.928571428571429 9.817708333333334  13.928571428571429 9.75  L 13.928571428571429 3.7500000000000004  C 13.750000000000004 3.9374999999999996  13.557477678571432 4.109375  13.351004464285715 4.265625  C 11.85546875 5.338541666666666  10.666852678571429 6.218750000000001  9.78515625 6.906250000000001  C 9.500558035714285 7.130208333333332  9.268973214285715 7.3046875  9.090401785714285 7.4296875  C 8.911830357142858 7.5546875  8.670479910714288 7.680989583333333  8.366350446428571 7.808593750000001  C 8.062220982142858 7.936197916666666  7.776227678571429 8  7.508370535714286 8  L 7.5 8  L 7.491629464285714 8  C 7.223772321428572 8  6.937779017857143 7.936197916666666  6.633649553571428 7.808593750000001  C 6.329520089285714 7.680989583333333  6.088169642857143 7.5546875  5.909598214285714 7.4296875  C 5.7310267857142865 7.3046875  5.499441964285714 7.130208333333332  5.21484375 6.906250000000001  C 4.333147321428572 6.218750000000001  3.144531250000001 5.338541666666666  1.6489955357142856 4.265625  C 1.4425223214285716 4.109375  1.2500000000000002 3.9374999999999996  1.0714285714285714 3.7500000000000004  L 1.0714285714285714 9.75  C 1.0714285714285714 9.817708333333334  1.097935267857143 9.876302083333334  1.1509486607142856 9.92578125  C 1.2039620535714286 9.975260416666666  1.2667410714285716 10  1.3392857142857144 10  L 13.660714285714285 10  C 13.733258928571429 10  13.796037946428573 9.975260416666666  13.849051339285715 9.92578125  Z M 13.539341517857144 2.5664062499999996  C 13.798828125 2.188802083333332  13.928571428571429 1.8463541666666665  13.928571428571429 1.5390624999999998  L 13.928571428571429 1.4531249999999998  L 13.928571428571429 1.3476562500000004  C 13.928571428571429 1.3476562500000004  13.927176339285715 1.3138020833333317  13.924386160714285 1.24609375  C 13.921595982142858 1.178385416666666  13.913225446428573 1.1458333333333317  13.899274553571429 1.1484374999999996  C 13.885323660714288 1.1510416666666665  13.869977678571429 1.1276041666666656  13.853236607142856 1.078125  C 13.836495535714285 1.0286458333333321  13.811383928571429 1.0091145833333326  13.777901785714285 1.0195312499999996  C 13.744419642857144 1.0299479166666665  13.705357142857144 1.0234374999999998  13.660714285714285 1  L 1.3392857142857144 1  C 1.2667410714285716 1.0000000000000004  1.2039620535714286 1.024739583333332  1.1509486607142856 1.07421875  C 1.097935267857143 1.1236979166666656  1.0714285714285714 1.182291666666666  1.0714285714285714 1.25  C 1.0714285714285714 2.1250000000000004  1.4815848214285714 2.8645833333333317  2.301897321428571 3.4687499999999996  C 3.378906250000001 4.260416666666666  4.497767857142858 5.0859375  5.658482142857142 5.9453125  C 5.691964285714286 5.971354166666665  5.7896205357142865 6.048177083333333  5.951450892857142 6.175781250000001  C 6.113281250000001 6.303385416666666  6.241629464285714 6.401041666666665  6.336495535714286 6.468750000000001  C 6.4313616071428585 6.536458333333332  6.55552455357143 6.618489583333332  6.708984375 6.714843749999999  C 6.862444196428571 6.811197916666666  7.003348214285714 6.8828125  7.131696428571428 6.929687499999999  C 7.260044642857143 6.9765625  7.380022321428572 7  7.491629464285714 7  L 7.5 7  L 7.508370535714286 7  C 7.61997767857143 7  7.739955357142858 6.9765625  7.868303571428571 6.929687499999999  C 7.996651785714287 6.8828125  8.137555803571429 6.811197916666666  8.291015625 6.714843749999999  C 8.444475446428571 6.618489583333332  8.568638392857142 6.536458333333332  8.663504464285715 6.468750000000001  C 8.758370535714288 6.401041666666665  8.886718750000002 6.303385416666666  9.048549107142856 6.175781250000001  C 9.210379464285715 6.048177083333333  9.308035714285715 5.971354166666665  9.341517857142856 5.9453125  C 10.502232142857142 5.0859375  11.62109375 4.260416666666666  12.698102678571429 3.4687499999999996  C 12.999441964285715 3.244791666666666  13.279854910714285 2.944010416666666  13.539341517857144 2.5664062499999996  Z M 14.606584821428571 0.36718749999999944  C 14.86886160714286 0.6119791666666657  15 0.9062500000000001  15 1.25  L 15 9.75  C 15 10.09375  14.86886160714286 10.388020833333334  14.606584821428571 10.6328125  C 14.344308035714288 10.877604166666666  14.02901785714286 11  13.660714285714285 11  L 1.3392857142857144 11  C 0.9709821428571429 11  0.6556919642857143 10.877604166666666  0.3934151785714286 10.6328125  C 0.13113839285714285 10.388020833333334  0 10.09375  0 9.75  L 0 1.25  C 0 0.9062500000000001  0.13113839285714285 0.6119791666666657  0.3934151785714286 0.36718749999999944  C 0.6556919642857143 0.12239583333333193  0.9709821428571429 0  1.3392857142857144 0  L 13.660714285714285 0  C 14.02901785714286 0  14.344308035714288 0.12239583333333193  14.606584821428571 0.36718749999999944  Z " fill-rule="nonzero" fill="#000000" stroke="none" transform="matrix(1 0 0 1 20 2708 )" />
  </g>
</svg>