<?xml version="1.0" encoding="utf-8"?>
<svg version="1.1" xmlns:xlink="http://www.w3.org/1999/xlink" width="12px" height="15px" xmlns="http://www.w3.org/2000/svg">
  <g transform="matrix(1 0 0 1 -34 -2824 )">
    <path d="M 11.920312500000001 10.844726562499998  C 11.9734375 11.336263020833332  12 11.858723958333334  12 12.412109375  C 12 13.121744791666668  11.8046875 13.73046875  11.4140625 14.23828125  C 11.0234375 14.74609375  10.553125000000001 15  10.003125 15  L 1.9968750000000002 15  C 1.446875 15  0.9765625000000001 14.74609375  0.5859375000000001 14.23828125  C 0.19531250000000006 13.73046875  0 13.121744791666668  0 12.412109375  C 0 11.858723958333334  0.026562500000000062 11.336263020833332  0.07968750000000008 10.844726562499998  C 0.13281250000000006 10.353190104166664  0.23125000000000007 9.8583984375  0.3750000000000001 9.3603515625  C 0.5187500000000002 8.8623046875  0.7015625000000001 8.435872395833334  0.9234374999999999 8.081054687500002  C 1.1453125000000002 7.726236979166665  1.4390625 7.436523437499999  1.8046875 7.211914062500001  C 2.1703124999999996 6.9873046875  2.590625 6.875000000000001  3.0656250000000003 6.875000000000001  C 3.8843750000000004 7.708333333333332  4.862500000000001 8.125000000000002  6 8.125000000000002  C 7.137500000000002 8.125000000000002  8.115625000000001 7.708333333333332  8.934375 6.875000000000001  C 9.409375 6.875000000000001  9.829687499999999 6.9873046875  10.1953125 7.211914062500001  C 10.560937500000001 7.436523437499999  10.8546875 7.726236979166665  11.076562500000001 8.081054687500002  C 11.298437500000002 8.435872395833334  11.48125 8.8623046875  11.625 9.3603515625  C 11.76875 9.8583984375  11.8671875 10.353190104166664  11.920312500000001 10.844726562499998  Z M 8.545312500000001 1.0986328125  C 9.248437500000001 1.8310546875  9.600000000000001 2.7148437500000004  9.600000000000001 3.75  C 9.600000000000001 4.785156249999999  9.248437500000001 5.6689453125  8.545312500000001 6.4013671875  C 7.8421875000000005 7.1337890625  6.9937499999999995 7.5  6 7.5  C 5.00625 7.5  4.1578125 7.1337890625  3.4546875000000004 6.4013671875  C 2.7515625000000004 5.6689453125  2.4000000000000004 4.785156249999999  2.4000000000000004 3.75  C 2.4000000000000004 2.7148437500000004  2.7515625000000004 1.8310546875  3.4546875000000004 1.0986328125  C 4.1578125 0.3662109375  5.00625 0  6 0  C 6.9937499999999995 0  7.8421875000000005 0.3662109375  8.545312500000001 1.0986328125  Z " fill-rule="nonzero" fill="#495057" stroke="none" transform="matrix(1 0 0 1 34 2824 )" />
  </g>
</svg>