<?xml version="1.0" encoding="utf-8"?>
<svg version="1.1" xmlns:xlink="http://www.w3.org/1999/xlink" width="15px" height="15px" xmlns="http://www.w3.org/2000/svg">
  <g transform="matrix(1 0 0 1 -37 -3060 )">
    <path d="M 14.464584495259341 0  C 14.576129392080313 0  14.676519799219186 0.030691964285715634  14.765755716675962 0.09207589285714357  C 14.949804796430564 0.22600446428571452  15.025097601784722 0.40457589285714246  14.991634132738428 0.627790178571429  L 12.849972113775795 13.484933035714285  C 12.822085889570552 13.646763392857142  12.732849972113776 13.772321428571427  12.582264361405466 13.861607142857144  C 12.504182933630787 13.906249999999998  12.417735638594534 13.928571428571429  12.32292247629671 13.928571428571429  C 12.261572783045176 13.928571428571429  12.194645844952595 13.914620535714285  12.122141662018963 13.88671875  L 8.332403792526492 12.338169642857142  L 6.307863915225878 14.807477678571429  C 6.207473508087005 14.935825892857142  6.070831009481317 15  5.897936419408812 15  C 5.825432236475182 15  5.7640825432236475 14.988839285714286  5.713887339654211 14.966517857142856  C 5.60791968767429 14.927455357142858  5.5228667038483 14.861886160714285  5.458728388176241 14.769810267857144  C 5.394590072504183 14.677734375  5.362520914668154 14.575892857142858  5.362520914668154 14.464285714285715  L 5.362520914668154 11.54296875  L 12.590630228667038 2.678571428571429  L 3.6475181260457337 10.421316964285715  L 0.3430005577244841 9.065290178571429  C 0.13664249860568878 8.987165178571427  0.02509760178471835 8.833705357142858  0.008365867261572783 8.604910714285715  C -0.0027886224205242623 8.381696428571427  0.08644729503625208 8.217075892857142  0.27607361963190186 8.111049107142858  L 14.196876742889012 0.07533482142857095  C 14.280535415504742 0.02511160714285643  14.369771332961518 0  14.464584495259341 0  Z " fill-rule="nonzero" fill="#ffffff" stroke="none" transform="matrix(1 0 0 1 37 3060 )" />
  </g>
</svg>