<?xml version="1.0" encoding="utf-8"?>
<svg version="1.1" xmlns:xlink="http://www.w3.org/1999/xlink" width="10px" height="10px" xmlns="http://www.w3.org/2000/svg">
  <g transform="matrix(1 0 0 1 -882 -2145 )">
    <path d="M 9.643056330172895 0  C 9.717419594720209 0  9.78434653281279 0.020461309523810423  9.84383714445064 0.06138392857142905  C 9.96653653095371 0.15066964285714302  10.016731734523148 0.26971726190476164  9.99442275515895 0.41852678571428603  L 8.56664807585053 8.989955357142858  C 8.548057259713701 9.097842261904761  8.48856664807585 9.181547619047619  8.388176240936978 9.241071428571429  C 8.336121955753859 9.270833333333332  8.27849042572969 9.285714285714286  8.215281650864473 9.285714285714286  C 8.17438185536345 9.285714285714286  8.129763896635062 9.27641369047619  8.081427774679309 9.2578125  L 5.554935861684328 8.225446428571427  L 4.205242610150586 9.871651785714286  C 4.138315672058003 9.957217261904761  4.047220672987545 10  3.931957612939208 10  C 3.8836214909834545 10  3.8427216954824317 9.992559523809524  3.8092582264361408 9.977678571428571  C 3.738613125116193 9.951636904761905  3.6819111358988668 9.907924107142858  3.6391522587841605 9.846540178571429  C 3.5963933816694555 9.78515625  3.5750139431121024 9.717261904761905  3.5750139431121024 9.642857142857142  L 3.5750139431121024 7.6953125  L 8.393753485778026 1.785714285714286  L 2.4316787506971558 6.947544642857143  L 0.22866703848298942 6.0435267857142865  C 0.09109499907045919 5.991443452380951  0.016731734523145567 5.889136904761905  0.005577244841048523 5.736607142857143  C -0.0018590816136828414 5.587797619047619  0.05763153002416806 5.478050595238095  0.18404907975460125 5.407366071428572  L 9.464584495259341 0.05022321428571397  C 9.520356943669828 0.016741071428570953  9.57984755530768 0  9.643056330172895 0  Z " fill-rule="nonzero" fill="#ffffff" stroke="none" transform="matrix(1 0 0 1 882 2145 )" />
  </g>
</svg>