<?xml version="1.0" encoding="utf-8"?>
<svg version="1.1" xmlns:xlink="http://www.w3.org/1999/xlink" width="145px" height="38px" xmlns="http://www.w3.org/2000/svg">
  <g transform="matrix(1 0 0 1 -188 -593 )">
    <path d="M 189.5 598  A 3.5 3.5 0 0 1 193 594.5 L 328 594.5  A 3.5 3.5 0 0 1 331.5 598 L 331.5 626  A 3.5 3.5 0 0 1 328 629.5 L 193 629.5  A 3.5 3.5 0 0 1 189.5 626 L 189.5 598  Z " fill-rule="nonzero" fill="#ffffff" stroke="none" />
    <path d="M 189 598  A 4 4 0 0 1 193 594 L 328 594  A 4 4 0 0 1 332 598 L 332 626  A 4 4 0 0 1 328 630 L 193 630  A 4 4 0 0 1 189 626 L 189 598  Z " stroke-width="2" stroke="#ffffff" fill="none" />
  </g>
</svg>