<?xml version="1.0" encoding="utf-8"?>
<svg version="1.1" xmlns:xlink="http://www.w3.org/1999/xlink" width="28px" height="24px" xmlns="http://www.w3.org/2000/svg">
  <g transform="matrix(1 0 0 1 -379 -110 )">
    <path d="M 27.653645833333336 19.55625  C 27.88454861111111 19.793750000000003  28 20.075000000000003  28 20.4  L 28 22.799999999999997  C 28 23.125  27.88454861111111 23.40625  27.653645833333336 23.643749999999997  C 27.42274305555556 23.88125  27.14930555555556 24  26.833333333333336 24  L 1.1666666666666665 24  C 0.8506944444444445 24  0.5772569444444444 23.88125  0.34635416666666663 23.643749999999997  C 0.1154513888888889 23.40625  0 23.125  0 22.799999999999997  L 0 20.4  C 0 20.075000000000003  0.1154513888888889 19.793750000000003  0.34635416666666663 19.55625  C 0.5772569444444444 19.31875  0.8506944444444445 19.200000000000003  1.1666666666666665 19  L 26.833333333333336 19  C 27.14930555555556 19.200000000000003  27.42274305555556 19.31875  27.653645833333336 19.55625  Z M 27.653645833333336 9.956249999999999  C 27.88454861111111 10.193749999999998  28 10.474999999999998  28 10.799999999999999  L 28 13.200000000000001  C 28 13.524999999999999  27.88454861111111 13.806249999999999  27.653645833333336 14.043750000000001  C 27.42274305555556 14.281249999999998  27.14930555555556 14.399999999999999  26.833333333333336 14  L 1.1666666666666665 14  C 0.8506944444444445 14.399999999999999  0.5772569444444444 14.281249999999998  0.34635416666666663 14.043750000000001  C 0.1154513888888889 13.806249999999999  0 13.524999999999999  0 13.200000000000001  L 0 10.799999999999999  C 0 10.474999999999998  0.1154513888888889 10.193749999999998  0.34635416666666663 9.956249999999999  C 0.5772569444444444 9.718750000000002  0.8506944444444445 9.600000000000001  1.1666666666666665 10  L 26.833333333333336 10  C 27.14930555555556 9.600000000000001  27.42274305555556 9.718750000000002  27.653645833333336 9.956249999999999  Z M 27.653645833333336 0.35625000000000107  C 27.88454861111111 0.5937499999999982  28 0.8749999999999982  28 1.200000000000001  L 28 3.6000000000000005  C 28 3.924999999999998  27.88454861111111 4.206249999999998  27.653645833333336 4.4437500000000005  C 27.42274305555556 4.681249999999998  27.14930555555556 4.799999999999999  26.833333333333336 5  L 1.1666666666666665 5  C 0.8506944444444445 4.799999999999999  0.5772569444444444 4.681249999999998  0.34635416666666663 4.4437500000000005  C 0.1154513888888889 4.206249999999998  0 3.924999999999998  0 3.6000000000000005  L 0 1.200000000000001  C 0 0.8749999999999982  0.1154513888888889 0.5937499999999982  0.34635416666666663 0.35625000000000107  C 0.5772569444444444 0.11874999999999858  0.8506944444444445 0  1.1666666666666665 0  L 26.833333333333336 0  C 27.14930555555556 0  27.42274305555556 0.11874999999999858  27.653645833333336 0.35625000000000107  Z " fill-rule="nonzero" fill="#000000" stroke="none" transform="matrix(1 0 0 1 379 110 )" />
  </g>
</svg>