<?xml version="1.0" encoding="utf-8"?>
<svg version="1.1" xmlns:xlink="http://www.w3.org/1999/xlink" width="7px" height="7px" xmlns="http://www.w3.org/2000/svg">
  <g transform="matrix(1 0 0 1 -69 -87 )">
    <path d="M 0.026348000000012917 5.284964666666653  C 0.013438666666672816 6.088639333333333  -0.08138999999999896 6.1378046666666535  0.8193793333333304 6.024367333333316  L 0.848700000000008 2.0410826666666537  C 1.4342893333333393 2.492634666666646  2.6395266666666544 5.442691999999994  3.2127559999999846 5.341889333333327  C 3.556707333333321 5.2813939999999775  5.063116666666673 2.3532413333333153  5.445109333333335 1.9637639999999976  C 5.458842666666669 2.7539800000000128  5.34554266666666 5.508268666666652  5.518033333333335 6.047370666666666  L 6.238072000000017 6.041808666666668  L 6.269246666666675 0.2622040000000112  C 5.428835333333353 0.09754133333333925  5.498806666666667 0.2892586666666688  5.200930666666693 0.8390726666666666  C 4.9919093333333535 1.2248419999999953  4.770665333333341 1.5648793333333373  4.530057333333332 1.974750666666651  C 4.318907333333357 2.3344266666666584  3.387650000000008 4.035231333333314  3.144020666666677 4.212871999999976  C 2.837286666666671 3.8744826666666508  1.4971193333333304 1.513310666666655  1.135863999999998 0.8808906666666302  C 0.8343486666666706 0.3531186666666315  0.8349666666666735 0.08270933333329822  0.02957533333332663 0.26831533333330526  L 0.026348000000012917 5.284964666666653  Z " fill-rule="nonzero" fill="#000000" stroke="none" transform="matrix(1 0 0 1 69 87 )" />
  </g>
</svg>