<?xml version="1.0" encoding="utf-8"?>
<svg version="1.1" xmlns:xlink="http://www.w3.org/1999/xlink" width="7px" height="7px" xmlns="http://www.w3.org/2000/svg">
  <g transform="matrix(1 0 0 1 -84 -87 )">
    <path d="M 5.914061333333336 5.541228666666655  C 6.35702999999998 5.19068533333332  6.139287999999993 3.7176479999999823  6.118550666666664 3.1026693333333384  L 5.3093140000000005 3.1101540000000085  L 5.308077999999995 5.013525333333334  C 4.523217999999986 5.3310400000000016  3.699629999999985 5.589775999999986  2.7333526666666614 5.051497999999981  C 1.149693333333346 4.169268666666653  1.2748726666666528 1.6503006666666522  3.130726666666675 1.0366953333333129  C 4.394674000000009 0.618858666666668  4.949363333333338 1.1756079999999827  5.654020666666668 1.5564333333333167  C 5.8530853333333255 1.425485999999978  6.009027333333336 1.3011993333333152  6.119649333333314 1.0386179999999712  C 4.290025999999983 -0.9998893333333427  -0.09042666666667287 0.6371926666666496  0.9029740000000003 3.9962973333333025  C 1.6550113333333343 6.539229999999989  4.8423806666666565 6.38919333333331  5.914061333333336 5.541228666666655  Z " fill-rule="nonzero" fill="#000000" stroke="none" transform="matrix(1 0 0 1 84 87 )" />
  </g>
</svg>