<?xml version="1.0" encoding="utf-8"?>
<svg version="1.1" xmlns:xlink="http://www.w3.org/1999/xlink" width="5px" height="7px" xmlns="http://www.w3.org/2000/svg">
  <g transform="matrix(1 0 0 1 -55 -87 )">
    <path d="M 2.1583446666666646 5.363313333333323  C 1.3700513333333504 5.272055333333313  1.1273146666666776 4.971844666666669  0.6269406666666555 4.774153333333331  C 0.48342733333333854 5.006177999999991  0.38331133333332446 5.155528000000004  0.3877746666666724 5.461163333333317  C 1.0394213333333369 5.883531999999974  1.8302553333333265 6.138628666666648  2.7957086666666555 6.098458666666659  C 3.6905040000000042 6.061241333333342  4.566416000000004 5.662425333333331  4.775231333333352 4.900500000000008  C 5.424131333333349 2.5319120000000055  2.0330280000000016 3.1703746666666746  1.331941333333333 2.0314006666666558  C 1.239859333333328 1.177118666666658  1.7325426666666601 0.9117219999999833  2.5231706666666582 0.8787619999999804  C 3.2343513333333362 0.8490293333333057  3.841570666666655 1.0777579999999887  4.289483333333322 1.3730246666666517  C 4.3895993333333365 1.1789039999999744  4.507911999999976 0.9225713333333232  4.552545333333313 0.6775686666666587  C 3.8387553333333244 0.04446199999998157  1.9400533333333385 0.00010333333332823713  1.1415973333333227 0.5613159999999908  C 0.12258399999998915 1.277715333333333  0.22812466666664477 2.7085913333333167  1.4462713333333284 3.2029913333333155  C 2.1383626666666657 3.483906666666641  4.6487473333333185 3.662165333333306  3.870891333333333 4.916842666666653  C 3.584139333333326 5.379381333333328  2.7770313333333263 5.434863999999976  2.1583446666666646 5.363313333333323  Z " fill-rule="nonzero" fill="#000000" stroke="none" transform="matrix(1 0 0 1 55 87 )" />
  </g>
</svg>