<?xml version="1.0" encoding="utf-8"?>
<svg version="1.1" xmlns:xlink="http://www.w3.org/1999/xlink" width="6px" height="7px" xmlns="http://www.w3.org/2000/svg">
  <g transform="matrix(1 0 0 1 -103 -87 )">
    <path d="M 2.4194753333333097 5.855172666666732  C 3.549728666666624 6.341126666666739  5.361635999999976 6.093446000000071  5.91364733333333 5.190410666666679  L 5.457700666666653 4.685642000000016  C 5.066849999999988 4.913546666666676  4.895320666666635 5.159098666666694  4.377573999999981 5.285308000000029  C 3.014815333333331 5.617448666666689  1.5293493333333288 4.775526666666693  1.4908273333333 3.2034033333333696  C 1.4493526666666412 1.5115253333333811  2.958371333333332 0.6700840000000454  4.32106133333329 0.9751013333333843  C 4.900401999999957 1.1048126666667173  5.045219999999972 1.3921140000000491  5.427487333333318 1.5846553333333873  L 5.942555999999968 1.157754666666733  C 5.789429333333288 0.8609086666667309  5.940564666666631 1.11648600000008  5.80144599999997 0.9448193333334132  C 5.75076999999996 0.8823326666667555  5.725294666666628 0.8565826666667533  5.665279999999967 0.8021986666667402  C 4.89559533333329 0.10578133333342521  3.5085286666666207 0.02063466666673719  2.573494666666619 0.3563460000000731  C 0.011678666666625759 1.2759300000000593  0.007970666666636816 4.818512000000084  2.4194753333333097 5.855172666666732  Z " fill-rule="nonzero" fill="#000000" stroke="none" transform="matrix(1 0 0 1 103 87 )" />
  </g>
</svg>