<?xml version="1.0" encoding="utf-8"?>
<svg version="1.1" xmlns:xlink="http://www.w3.org/1999/xlink" width="6px" height="7px" xmlns="http://www.w3.org/2000/svg">
  <g transform="matrix(1 0 0 1 -109 -87 )">
    <path d="M 1.684629333333362 2.7600913333333352  C 2.6346326666666755 4.349106666666671  2.425748666666692 3.80643400000001  2.4657126666666613 6.028968000000006  L 3.302415999999994 6.028350000000003  C 3.3014546666666718 5.571510666666683  3.2415086666666753 4.3957313333333445  3.340594666666675 4.048277999999996  C 3.4295866666666655 3.7361193333333347  5.4187226666666675 0.6781179999999978  5.572192666666666 0.23164733333332777  L 4.7479179999999985 0.22738999999999976  C 4.232162666666653 1.3228980000000092  3.440710666666689 2.3005053333333336  2.983116000000024 3.2259260000000154  C 2.604900000000015 3.044165333333339  2.8164620000000014 3.1224453333333457  2.3387480000000096 2.3693779999999975  L 1.2606126666667024 0.5588440000000077  C 0.9859460000000126 0.09843400000001168  0.7786413333333542 0.1698473333333368  0.17217733333336582 0.24778400000001  C 0.3623153333333562 0.7616853333333466  1.3165760000000262 2.144494666666688  1.684629333333362 2.7600913333333352  Z " fill-rule="nonzero" fill="#000000" stroke="none" transform="matrix(1 0 0 1 109 87 )" />
  </g>
</svg>