<?xml version="1.0" encoding="utf-8"?>
<svg version="1.1" xmlns:xlink="http://www.w3.org/1999/xlink" width="7px" height="7px" xmlns="http://www.w3.org/2000/svg">
  <g transform="matrix(1 0 0 1 -78 -87 )">
    <path d="M 1.7143833333333305 3.11365600000002  L 0.4346426666666616 6.035148000000007  L 1.2754659999999944 6.024367333333345  L 1.9039720000000102 4.580513333333343  L 4.981405999999993 4.5744020000000205  C 5.145862666666659 4.8836080000000095  5.257239999999996 5.15339933333334  5.415997333333337 5.556335333333351  C 5.675625999999994 6.215810000000019  5.670956666666655 6.037276666666685  6.478751333333349 6.050941333333341  C 6.2499540000000025 4.960858000000002  4.348162000000002 1.5864406666666895  3.901691333333332 0.2341880000000174  L 2.989385999999996 0.2234073333333555  C 2.828156666666672 0.8609086666666883  2.0448073333333525 2.4423706666666902  1.7143833333333305 3.11365600000002  Z M 4.651668666666637 3.8912373333333363  L 2.283973333333307 3.8897953333333244  C 2.295509333333314 3.6092919999999964  3.256293333333332 1.4561113333333253  3.440525999999977 1.2161213333333194  C 3.6976826666666507 1.4798013333333415  4.639102666666645 3.7385913333333463  4.651668666666637 3.8912373333333363  Z " fill-rule="nonzero" fill="#000000" stroke="none" transform="matrix(1 0 0 1 78 87 )" />
  </g>
</svg>