<?xml version="1.0" encoding="utf-8"?>
<svg version="1.1" xmlns:xlink="http://www.w3.org/1999/xlink" width="22px" height="12px" xmlns="http://www.w3.org/2000/svg">
  <g transform="matrix(1 0 0 1 -93 -72 )">
    <path d="M 0.8744800000000055 11.813420666666673  C 4.06487066666665 11.758693333333326  20.53161800000001 11.81513733333334  21.743584666666663 11.648551999999995  C 21.86224066666665 11.078550000000007  21.857434000000012 9.04210266666665  21.70389533333335 8.897490666666656  C 21.485192000000012 8.691490666666667  12.255842666666666 8.881834666666663  10.676509333333343 8.88121666666666  C 9.590752000000009 8.880804666666663  7.977771999999987 8.996370666666664  6.95999466666666 8.872839333333332  C 7.6544893333333155 8.089009333333323  10.16377533333332 5.838733999999988  11.118722666666654 4.948745333333335  C 11.839310666666648 4.277253999999985  12.371271333333311 3.742615333333333  13.170276666666666 3.0088433333333313  C 13.53434733333333 2.674505333333329  13.84980199999998 2.3954439999999977  14.215932666666646 2.055955999999995  C 14.39680066666665 1.8882033333333226  14.561325999999978 1.7343899999999906  14.732237333333302 1.577692666666664  C 15.070695333333305 1.2673193333333188  15.169643999999977 1.316209999999998  15.12933666666666 0.8769493333333287  C 14.736769333333342 0.6210286666666605  12.825638666666634 0.7599413333333302  12.218419333333344 0.755272000000005  C 11.134996666666666 0.7470320000000044  11.34127133333331 0.7969526666666695  10.264166000000017 1.8244120000000095  L 0.9879173333333426 10.512736666666683  C 0.23622333333335632 11.202905333333334  -0.7121319999999968 11.84068133333335  0.8744800000000055 11.813420666666673  Z " fill-rule="nonzero" fill="#000000" stroke="none" transform="matrix(1 0 0 1 93 72 )" />
  </g>
</svg>