<?xml version="1.0" encoding="utf-8"?>
<svg version="1.1" xmlns:xlink="http://www.w3.org/1999/xlink" width="22px" height="13px" xmlns="http://www.w3.org/2000/svg">
  <g transform="matrix(1 0 0 1 -55 -52 )">
    <path d="M 1.130267333333336 0.9721306666666578  C 0.6120400000000075 0.9661566666666489  0.1335019999999929 0.8485993333333256  0.1332960000000014 1.3688180000000045  L 0.17367199999998206 3.759859999999989  C 2.221037333333328 3.979867999999996  11.714478666666649 3.8559246666666667  14.94572599999998 3.8311359999999866  C 14.834211333333313 4.129355333333322  14.79857333333331 4.051830666666646  14.471033333333338 4.365019333333322  C 12.388785333333317 6.355803333333327  9.291987333333338 9.27894333333333  7.217361333333315 11.085357333333334  C 5.837435999999997 12.287023999999988  7.74733066666667 11.972530666666671  10.023149999999987 11.973285999999987  C 10.663191999999981 11.973491999999993  10.969445333333312 11.53491799999999  11.697518000000002 10.846534666666656  C 12.321423333333342 10.256687999999997  12.62273266666665 10.00433799999999  13.198914666666665 9.444635999999988  C 13.669556 8.987521999999998  14.133880000000003 8.559247999999982  14.657532000000002 8.089842666666655  C 15.153648666666667 7.645019999999988  15.61412733333333 7.186875999999998  16.16552066666665 6.697419999999994  L 21.352188666666677 1.9002293333333145  C 21.64745533333334 1.6379913333333178  21.837524666666667 1.526545333333317  21.701221333333336 1.025209999999987  C 15.237696666666665 0.820789333333309  7.735176666666661 1.0488313333333252  1.130267333333336 0.9721306666666578  Z " fill-rule="nonzero" fill="#000000" stroke="none" transform="matrix(1 0 0 1 55 52 )" />
  </g>
</svg>