<?xml version="1.0" encoding="utf-8"?>
<svg version="1.1" xmlns:xlink="http://www.w3.org/1999/xlink" width="22px" height="12px" xmlns="http://www.w3.org/2000/svg">
  <g transform="matrix(1 0 0 1 -55 -72 )">
    <path d="M 20.563758000000007 4.7801000000000045  C 20.845085333333344 4.073588666666666  21.56292666666667 1.7497026666666642  21.396821999999986 0.844607333333343  C 20.956187999999997 0.690794000000011  19.142769999999985 0.7094713333333402  18.662858666666665 0.8170033333333322  C 18.27351866666666 2.0696206666666654  18.483501333333322 2.637906000000001  17.57394266666668 4.518411333333333  C 17.04630800000001 5.609181333333339  16.28706066666666 6.553141999999994  15.413620666666674 7.264940666666661  C 11.755678666666682 10.245829333333333  4.853992000000005 9.198799999999991  3.360491999999993 3.001427333333325  C 2.7437280000000044 0.44201466666666533  3.8841439999999916 0.6301613333333336  0.7639306666666812 0.7280800000000056  C 0.03434733333332929 0.7510146666666628  0.05577133333335382 0.8835413333333264  0.2779766666666603 2.3594626666666585  C 0.39004066666666404 3.1039466666666584  0.5082846666666683 3.6692106666666575  0.7215633333333358 4.368649333333337  C 1.4754546666666783 6.840924000000001  2.9259693333333416 8.731179999999995  4.841014000000001 9.957498000000001  C 6.925596666666678 11.292378  9.569606666666658 12.141990666666658  12.64800200000002 11.584829333333332  C 16.667405333333335 10.857374666666672  19.229358666666684 8.131101999999998  20.563758000000007 4.7801000000000045  Z " fill-rule="nonzero" fill="#000000" stroke="none" transform="matrix(1 0 0 1 55 72 )" />
  </g>
</svg>