<?xml version="1.0" encoding="utf-8"?>
<svg version="1.1" xmlns:xlink="http://www.w3.org/1999/xlink" width="22px" height="13px" xmlns="http://www.w3.org/2000/svg">
  <g transform="matrix(1 0 0 1 -93 -52 )">
    <path d="M 0.4634413333333782 11.678431333333336  C 0.6297520000000247 12.230717333333331  3.0366560000000504 11.936823999999987  3.145492666666655 11.893563999999998  C 3.5331846666666706 11.402940666666666  3.3559560000000204 8.712992666666665  5.484485333333339 6.342619333333332  C 9.34471933333333 2.0438113333333234  17.19771400000002 3.2330493333333408  18.5590306666667 10.177995999999993  C 18.65921533333335 10.689013333333335  18.697943333333342 11.485409333333322  18.849696666666716 11.884980666666664  C 19.20010266666671 12.000821333333334  21.32698400000004 12.043600666666663  21.55571266666672 11.789327999999998  C 21.867596666666714 11.442698666666672  21.43225000000004 9.61266333333333  21.316684000000038 9.138313999999994  C 18.74017333333336 -1.4371766666666588  4.06191800000002 -2.097132000000002  0.8992686666666998 9.082556666666662  C 0.7884406666667019 9.474368666666663  0.3491113333333544 11.29849866666666  0.4634413333333782 11.678431333333336  Z " fill-rule="nonzero" fill="#000000" stroke="none" transform="matrix(1 0 0 1 93 52 )" />
  </g>
</svg>