<?xml version="1.0" encoding="utf-8"?>
<svg version="1.1" xmlns:xlink="http://www.w3.org/1999/xlink" width="165px" height="58px" xmlns="http://www.w3.org/2000/svg">
  <defs>
    <filter x="48px" y="458px" width="165px" height="58px" filterUnits="userSpaceOnUse" id="filter64">
      <feOffset dx="3" dy="3" in="SourceAlpha" result="shadowOffsetInner" />
      <feGaussianBlur stdDeviation="5" in="shadowOffsetInner" result="shadowGaussian" />
      <feComposite in2="shadowGaussian" operator="atop" in="SourceAlpha" result="shadowComposite" />
      <feColorMatrix type="matrix" values="0 0 0 0 0.5294117647058824  0 0 0 0 0.0196078431372549  0 0 0 0 0.6980392156862745  0 0 0 0.996078431372549 0  " in="shadowComposite" />
    </filter>
    <g id="widget65">
      <path d="M 56.5 470  A 3.5 3.5 0 0 1 60 466.5 L 195 466.5  A 3.5 3.5 0 0 1 198.5 470 L 198.5 498  A 3.5 3.5 0 0 1 195 501.5 L 60 501.5  A 3.5 3.5 0 0 1 56.5 498 L 56.5 470  Z " fill-rule="nonzero" fill="#ffffff" stroke="none" fill-opacity="0" />
      <path d="M 56 470  A 4 4 0 0 1 60 466 L 195 466  A 4 4 0 0 1 199 470 L 199 498  A 4 4 0 0 1 195 502 L 60 502  A 4 4 0 0 1 56 498 L 56 470  Z " stroke-width="2" stroke="#ffffff" fill="none" />
    </g>
  </defs>
  <g transform="matrix(1 0 0 1 -48 -458 )">
    <use xlink:href="#widget65" filter="url(#filter64)" />
    <use xlink:href="#widget65" />
  </g>
</svg>