<?xml version="1.0" encoding="utf-8"?>
<svg version="1.1" xmlns:xlink="http://www.w3.org/1999/xlink" width="142px" height="58px" xmlns="http://www.w3.org/2000/svg">
  <defs>
    <filter x="200px" y="458px" width="142px" height="58px" filterUnits="userSpaceOnUse" id="filter66">
      <feOffset dx="3" dy="3" in="SourceAlpha" result="shadowOffsetInner" />
      <feGaussianBlur stdDeviation="5" in="shadowOffsetInner" result="shadowGaussian" />
      <feComposite in2="shadowGaussian" operator="atop" in="SourceAlpha" result="shadowComposite" />
      <feColorMatrix type="matrix" values="0 0 0 0 0.5294117647058824  0 0 0 0 0.0196078431372549  0 0 0 0 0.6980392156862745  0 0 0 0.996078431372549 0  " in="shadowComposite" />
    </filter>
    <g id="widget67">
      <path d="M 208.5 470  A 3.5 3.5 0 0 1 212 466.5 L 324 466.5  A 3.5 3.5 0 0 1 327.5 470 L 327.5 498  A 3.5 3.5 0 0 1 324 501.5 L 212 501.5  A 3.5 3.5 0 0 1 208.5 498 L 208.5 470  Z " fill-rule="nonzero" fill="#ffffff" stroke="none" fill-opacity="0" />
      <path d="M 208 470  A 4 4 0 0 1 212 466 L 324 466  A 4 4 0 0 1 328 470 L 328 498  A 4 4 0 0 1 324 502 L 212 502  A 4 4 0 0 1 208 498 L 208 470  Z " stroke-width="2" stroke="#ffffff" fill="none" />
    </g>
  </defs>
  <g transform="matrix(1 0 0 1 -200 -458 )">
    <use xlink:href="#widget67" filter="url(#filter66)" />
    <use xlink:href="#widget67" />
  </g>
</svg>