<?xml version="1.0" encoding="utf-8"?>
<svg version="1.1" xmlns:xlink="http://www.w3.org/1999/xlink" width="30px" height="28px" xmlns="http://www.w3.org/2000/svg">
  <defs>
    <filter x="981px" y="7px" width="30px" height="28px" filterUnits="userSpaceOnUse" id="filter70">
      <feOffset dx="3" dy="3" in="SourceAlpha" result="shadowOffsetInner" />
      <feGaussianBlur stdDeviation="5" in="shadowOffsetInner" result="shadowGaussian" />
      <feComposite in2="shadowGaussian" operator="atop" in="SourceAlpha" result="shadowComposite" />
      <feColorMatrix type="matrix" values="0 0 0 0 0.5294117647058824  0 0 0 0 0.0196078431372549  0 0 0 0 0.6980392156862745  0 0 0 1 0  " in="shadowComposite" />
    </filter>
    <g id="widget71">
      <path d="M 9.232700892857142 7.21875  C 9.268043154761905 7.182765151515152  9.285714285714286 7.140151515151516  9.285714285714286 7.090909090909091  L 9.285714285714286 2.7272727272727275  C 9.166666666666668 2.8636363636363633  9.038318452380954 2.9886363636363633  8.900669642857142 3.1022727272727275  C 7.903645833333334 3.882575757575757  7.1112351190476195 4.522727272727273  6.5234375 5.022727272727273  C 6.333705357142857 5.18560606060606  6.179315476190476 5.3125  6.060267857142857 5.403409090909091  C 5.941220238095238 5.494318181818182  5.780319940476192 5.586174242424242  5.5775669642857135 5.678977272727273  C 5.374813988095238 5.771780303030303  5.1841517857142865 5.818181818181818  5.005580357142857 5.818181818181818  L 5 5.818181818181818  L 4.994419642857143 5.818181818181818  C 4.815848214285714 5.818181818181818  4.625186011904762 5.771780303030303  4.422433035714286 5.678977272727273  C 4.21968005952381 5.586174242424242  4.058779761904762 5.494318181818182  3.9397321428571432 5.403409090909091  C 3.8206845238095246 5.3125  3.6662946428571432 5.18560606060606  3.4765625 5.022727272727273  C 2.8887648809523814 4.522727272727273  2.096354166666667 3.882575757575757  1.0993303571428572 3.1022727272727275  C 0.9616815476190477 2.9886363636363633  0.8333333333333335 2.8636363636363633  0.7142857142857142 2.7272727272727275  L 0.7142857142857142 7.090909090909091  C 0.7142857142857142 7.140151515151516  0.7319568452380953 7.182765151515152  0.7672991071428571 7.21875  C 0.8026413690476191 7.254734848484848  0.8444940476190477 7.2727272727272725  0.8928571428571429 7.2727272727272725  L 9.107142857142858 7.2727272727272725  C 9.155505952380953 7.2727272727272725  9.197358630952381 7.254734848484848  9.232700892857142 7.21875  Z M 9.026227678571429 1.8664772727272725  C 9.19921875 1.5918560606060597  9.285714285714286 1.3428030303030303  9.285714285714286 1.1193181818181817  L 9.285714285714286 1.0568181818181817  L 9.285714285714286 0.9801136363636367  C 9.285714285714286 0.9801136363636367  9.284784226190476 0.955492424242423  9.282924107142858 0.90625  C 9.281063988095239 0.8570075757575752  9.275483630952381 0.8333333333333321  9.266183035714286 0.8352272727272725  C 9.256882440476192 0.8371212121212119  9.246651785714286 0.8200757575757569  9.235491071428571 0.7840909090909092  C 9.224330357142858 0.7481060606060597  9.207589285714286 0.7339015151515147  9.185267857142858 0.7414772727272725  C 9.162946428571429 0.7490530303030303  9.136904761904763 0.7443181818181817  9.107142857142858 0.7272727272727275  L 0.8928571428571429 0.7272727272727275  C 0.8444940476190477 0.7272727272727275  0.8026413690476191 0.7452651515151505  0.7672991071428571 0.78125  C 0.7319568452380953 0.8172348484848477  0.7142857142857142 0.8598484848484844  0.7142857142857142 0.9090909090909092  C 0.7142857142857142 1.5454545454545459  0.9877232142857142 2.083333333333332  1.5345982142857142 2.5227272727272725  C 2.252604166666667 3.0984848484848477  2.998511904761905 3.6988636363636367  3.7723214285714284 4.323863636363637  C 3.7946428571428568 4.342803030303029  3.8597470238095246 4.398674242424242  3.9676339285714284 4.491477272727273  C 4.075520833333334 4.584280303030303  4.16108630952381 4.655303030303029  4.224330357142857 4.704545454545455  C 4.287574404761906 4.753787878787878  4.3703497023809526 4.813446969696969  4.47265625 4.883522727272727  C 4.5749627976190474 4.953598484848484  4.66889880952381 5.005681818181818  4.754464285714286 5.039772727272727  C 4.840029761904762 5.073863636363637  4.920014880952381 5.090909090909091  4.994419642857143 5.090909090909091  L 5 5.090909090909091  L 5.005580357142857 5.090909090909091  C 5.0799851190476195 5.090909090909091  5.159970238095238 5.073863636363637  5.2455357142857135 5.039772727272727  C 5.331101190476192 5.005681818181818  5.4250372023809526 4.953598484848484  5.52734375 4.883522727272727  C 5.6296502976190474 4.813446969696969  5.712425595238095 4.753787878787878  5.775669642857143 4.704545454545455  C 5.838913690476192 4.655303030303029  5.924479166666668 4.584280303030303  6.032366071428571 4.491477272727273  C 6.140252976190476 4.398674242424242  6.205357142857143 4.342803030303029  6.227678571428571 4.323863636363637  C 7.001488095238095 3.6988636363636367  7.747395833333334 3.0984848484848477  8.465401785714286 2.5227272727272725  C 8.666294642857142 2.3598484848484844  8.853236607142858 2.1410984848484844  9.026227678571429 1.8664772727272725  Z M 9.737723214285714 0.26704545454545414  C 9.912574404761905 0.4450757575757569  10 0.6590909090909092  10 0.9090909090909092  L 10 7.090909090909091  C 10 7.340909090909091  9.912574404761905 7.554924242424243  9.737723214285714 7.732954545454546  C 9.562872023809526 7.910984848484848  9.352678571428573 8  9.107142857142858 8  L 0.8928571428571429 8  C 0.6473214285714286 8  0.4371279761904762 7.910984848484848  0.2622767857142857 7.732954545454546  C 0.08742559523809523 7.554924242424243  0 7.340909090909091  0 7.090909090909091  L 0 0.9090909090909092  C 0 0.6590909090909092  0.08742559523809523 0.4450757575757569  0.2622767857142857 0.26704545454545414  C 0.4371279761904762 0.08901515151515049  0.6473214285714286 0  0.8928571428571429 0  L 9.107142857142858 0  C 9.352678571428573 0  9.562872023809526 0.08901515151515049  9.737723214285714 0.26704545454545414  Z " fill-rule="nonzero" fill="#ffffff" stroke="none" transform="matrix(1 0 0 1 988 14 )" />
    </g>
  </defs>
  <g transform="matrix(1 0 0 1 -981 -7 )">
    <use xlink:href="#widget71" filter="url(#filter70)" />
    <use xlink:href="#widget71" />
  </g>
</svg>