<?xml version="1.0" encoding="utf-8"?>
<svg version="1.1" xmlns:xlink="http://www.w3.org/1999/xlink" width="86px" height="18px" xmlns="http://www.w3.org/2000/svg">
  <g transform="matrix(1 0 0 1 -402 -107 )">
    <path d="M 12.252183333333313 12.285453333333336  C 12.364156666666647 12.083043333333336  12.421356666666648 11.672243333333341  12.421356666666663 11.058903333333333  L 12.421356666666663 2.8993666666666655  C 12.421356666666663 1.962933333333332  12.149569999999997 1.3405800000000028  11.605866666666664 1.0323933333333315  L 16.067813333333326 1.0323933333333315  C 17.085929999999998 1.0323933333333315  17.949216666666665 1.25118333333333  18.65069666666666 1.6879400000000047  C 19.35074666666665 2.1240033333333344  19.704996666666652 2.7516866666666644  19.704996666666652 3.5729833333333403  L 19.704996666666652 3.6788033333333345  C 19.704996666666652 4.781116666666669  19.106909999999985 5.548940000000002  17.91667333333332 5.977853333333336  C 18.41803999999999 6.074443333333335  18.878716666666655 6.252586666666659  19.30624333333332 6.509596666666667  C 19.712406666666652 6.753866666666667  20.036063333333317 7.022013333333334  20.269889999999982 7.325086666666664  C 20.383076666666653 7.4717700000000065  20.478063333333317 7.627510000000001  20.557016666666648 7.79031333333333  C 20.634756666666654 7.9506033333333335  20.702443333333314 8.13481333333334  20.756263333333315 8.342986666666675  C 20.83213999999998 8.636049999999997  20.871139999999983 8.902290000000008  20.871139999999983 9.13754666666668  L 20.871139999999983 9.457823333333337  C 20.871139999999983 10.589473333333345  20.25177666666665 11.451850000000007  19.33345666666665 12.055959999999999  C 18.415223333333316 12.65998333333333  17.23655666666665 12.962276666666668  15.798843333333316 12.962276666666668  L 11.60586666666665 12.962276666666668  C 11.926143333333314 12.714366666666677  12.140469999999981 12.487950000000012  12.252183333333313 12.285453333333336  Z M 51.979143333333326 5.736096666666654  C 52.07161666666667 5.300899999999984  52.21314333333334 4.883036666666655  52.39301999999999 4.473363333333332  C 52.72659999999999 3.7141633333333317  53.20066666666666 3.0453133333333327  53.82492666666665 2.4645166666666682  C 54.42110666666666 1.9096766666666625  55.114959999999996 1.4821066666666667  55.906573333333334 1.180419999999998  C 56.29614 1.0320466666666661  56.70069999999998 0.9159133333333287  57.12094666666667 0.8301133333333297  C 57.54327333333333 0.7438799999999972  57.972966666666665 0.7031466666666688  58.410849999999996 0.7031466666666688  L 58.65875999999999 0.7031466666666688  C 59.74308999999998 0.7031466666666688  60.75019999999997 0.9311233333333391  61.685593333333316 1.376893333333335  C 62.695779999999985 1.8583700000000007  63.519893333333314 2.552916666666661  64.13574666666665 3.4824166666666656  C 64.45021666666665 3.9575233333333273  64.6937933333333 4.473709999999997  64.86989999999997 5.017153333333333  C 65.0471333333333 5.564193333333328  65.13566333333331 6.131990000000002  65.13566333333331 6.72405333333333  L 65.13566333333331 7.013953333333333  C 65.13566333333331 7.705553333333327  65.01905333333332 8.387013333333329  64.77296333333331 9.059156666666652  C 64.48765666666664 9.840109999999981  64.04712999999998 10.538729999999987  63.461999999999975 11.161646666666655  C 62.87825666666664 11.783393333333322  62.18323333333332 12.27509666666667  61.38355999999999 12.635976666666664  C 60.94472333333331 12.833836666666656  60.51047999999999 12.989923333333323  60.078489999999995 13.09505  C 59.64355333333333 13.20117333333333  59.190286666666644 13.25542666666665  58.71908 13.25542666666665  L 58.60429 13.25542666666665  C 58.115056666666646 13.25542666666665  57.64658 13.215646666666657  57.202629999999985 13.140419999999978  C 56.75564666666665 13.064673333333317  56.33071999999999 12.937576666666658  55.92161 12.777849999999987  C 55.06205 12.442319999999981  54.32265333333332 11.987146666666646  53.710266666666655 11.397249999999985  C 53.09636333333333 10.805879999999988  52.625329999999984 10.157049999999984  52.31155333333332 9.448853333333318  C 52.14216333333333 9.066696666666644  52.01996333333332 8.69077999999999  51.933989999999994 8.328079999999986  C 51.84797333333333 7.965943333333328  51.807109999999994 7.587773333333317  51.807109999999994 7.192096666666657  C 51.81915666666666 7.186203333333324  51.83124666666665 7.168089999999978  51.84316333333332 7.137929999999983  C 51.84316333333332 6.636346666666654  51.88745 6.167826666666656  51.979143333333326 5.736096666666654  Z M 1.9368566666666673 15.179643333333317  C 2.1783533333333303 14.521019999999979  2.2992099999999986 13.657039999999995  2.2992099999999986 12.58159333333333  L 2.2992099999999986 8.094079999999991  L 2.2992099999999986 3.4856233333333293  C 2.2992099999999986 3.1078866666666656  2.2901966666666667 2.7906866666666588  2.272126666666665 2.533936666666662  C 2.254013333333333 2.2772733333333264  2.221730000000001 2.0599566666666647  2.175536666666666 1.8812499999999872  C 2.092033333333333 1.5585899999999953  1.8612833333333325 1.2861966666666547  1.4835899999999995 1.0687066666666567  L 1.4835899999999995 1.0323933333333244  L 4.945576666666664 1.0323933333333244  L 4.945576666666664 1.0687066666666567  C 4.574123333333333 1.2257899999999893  4.3462333333333305 1.4771233333333242  4.259999999999998 1.8207999999999842  C 4.174243333333333 2.1626999999999867  4.129956666666665 2.718449999999983  4.129956666666665 3.485623333333322  L 4.129956666666665 8.724709999999988  L 4.129956666666665 12.811173333333329  L 4.129956666666665 13.379013333333319  C 4.129956666666665 14.382006666666655  3.882956666666665 15.213399999999993  3.3899100000000004 15.87133  C 2.8982933333333314 16.52744  1.7888299999999973 16.94681999999999  0.06680666666666468 17.131246666666655  L 0.06680666666666468 17.076733333333323  C 1.0698000000000008 16.469676666666658  1.6951866666666646 15.838136666666642  1.9368566666666673 15.179643333333317  Z M 6.910136666666664 12.143579999999986  C 6.997626666666662 11.768919999999994  7.043039999999998 11.188946666666652  7.043039999999998 10.403356666666667  L 7.043039999999998 3.4494399999999956  C 7.043039999999998 2.651543333333329  7.017776666666666 2.0870399999999947  6.937219999999996 1.7575766666666581  C 6.860779999999995 1.4434533333333306  6.623356666666663 1.2166033333333246  6.263603333333332 1.0687066666666638  L 6.263603333333332 1.0323933333333315  L 9.707649999999997 1.0323933333333315  L 9.707649999999997 1.0687066666666638  C 9.547446666666662 1.1321899999999943  9.404879999999999 1.2257899999999964  9.29078333333333 1.3586933333333278  C 9.181583333333332 1.4855299999999971  9.107829999999996 1.63650333333333  9.064149999999998 1.8027299999999968  C 9.020686666666666 1.9684799999999925  8.989876666666664 2.095793333333326  8.979519999999997 2.183413333333327  C 8.96916333333333 2.270643333333325  8.967429999999997 2.358956666666664  8.964396666666666 2.4492633333333274  L 8.928213333333332 3.4494399999999956  L 8.928213333333332 10.403356666666667  C 8.928213333333332 11.270153333333326  8.977136666666663 11.859616666666653  9.070086666666665 12.164726666666652  C 9.164163333333331 12.47269666666665  9.378273333333329 12.714366666666663  9.707649999999997 12.892639999999986  L 9.707649999999997 12.962276666666654  L 6.263603333333332 12.962276666666654  L 6.263603333333332 12.892639999999986  C 6.605026666666664 12.769096666666655  6.822429999999997 12.518109999999993  6.910136666666664 12.143579999999986  Z M 21.944116666666666 12.892640000000014  C 22.484960000000004 12.696383333333344  22.75674666666667 12.116280000000017  22.756746666666665 11.14661000000001  L 22.756746666666665 3.1925166666666698  C 22.756746666666665 2.5912666666666766  22.718786666666663 2.1193666666666715  22.638879999999997 1.7847466666666705  C 22.559146666666663 1.4490000000000052  22.327833333333324 1.2105800000000002  21.94411666666666 1.068706666666671  L 21.94411666666666 1.0323933333333386  L 27.750566666666664 1.0323933333333386  C 27.87424 1.0323933333333386  27.9681 1.0445700000000073  28.031366666666656 1.065716666666674  C 28.321439999999996 1.0205633333333424  28.511803333333333 0.9721166666666718  28.599509999999995 0.926703333333343  L 28.63556333333333 0.926703333333343  L 28.63556333333333 3.041456666666676  L 28.599509999999995 3.041456666666676  C 28.16743333333333 2.5761433333333486  27.493426666666668 2.343573333333346  26.57237666666666 2.343573333333346  L 26.36689 2.343573333333346  L 25.38508666666667 2.343573333333346  L 24.968219999999995 2.3796700000000115  L 24.587536666666665 2.4492633333333487  L 24.587536666666665 5.83892666666668  L 26.297513333333328 5.83892666666668  C 26.721399999999996 5.83892666666668  27.135623333333328 5.896170000000005  27.54499333333333 5.715036666666677  L 27.59959333333333 5.715036666666677  L 27.59959333333333 7.654333333333341  L 27.54499333333333 7.654333333333341  C 27.333483333333326 7.3008633333333535  26.82574666666666 7.122720000000015  26.022519999999993 7.122720000000015  L 24.587536666666665 7.122720000000015  L 24.587536666666665 11.439586666666685  L 27.076819999999998 11.651053333333351  C 27.14008666666667 11.656426666666675  27.19468666666667 11.651053333333351  27.23984 11.651053333333351  C 27.282176666666675 11.651053333333351  27.345790000000008 11.683726666666686  27.439173333333336 11.687236666666678  C 27.952283333333334 11.707603333333353  28.444680000000005 11.59168666666669  28.91671 11.40349000000002  C 29.389996666666658 11.214426666666682  29.83810666666666 10.941166666666675  30.263943333333327 10.581543333333343  L 30.297179999999997 10.581543333333343  L 29.48463666666666 12.962276666666682  L 21.944116666666666 12.962276666666682  L 21.944116666666666 12.892640000000014  Z M 37.674463333333335 11.442663333333357  L 34.167063333333324 6.76036666666667  L 37.05839333333333 2.8993666666666655  C 37.39379333333332 2.4509966666666685  37.57180666666666 2.092976666666665  37.57180666666666 1.8118300000000005  C 37.57180666666666 1.5036433333333363  37.38434666666666 1.2559499999999986  37.00682666666666 1.068706666666671  L 37.00682666666666 1.0323933333333386  L 40.30891333333333 1.0323933333333386  L 36.12169999999999 6.3766066666666745  L 39.80420999999999 11.216246666666677  C 39.94209666666666 11.397120000000015  40.08626666666666 11.553813333333338  40.22107666666666 11.693390000000008  C 40.357706666666665 11.834483333333338  40.48636333333332 11.963486666666682  40.61688333333333 12.077150000000017  C 40.83337666666666 12.26530333333335  41.281486666666666 12.536180000000016  41.95207 12.892640000000014  L 41.95207 12.962276666666682  L 40.10321 12.962276666666682  C 39.72603666666666 12.962276666666682  39.39089666666667 12.889346666666682  39.09428 12.774990000000017  C 38.795626666666664 12.659983333333344  38.56821333333333 12.53007000000001  38.40246333333334 12.379183333333344  C 38.23294333333333 12.224916666666672  38.103593333333336 12.058040000000005  37.98854333333333 11.892940000000024  L 37.674463333333335 11.442663333333357  Z M 31.946619999999996 12.10726666666666  C 32.03263666666666 11.738543333333325  32.07653333333332 11.146609999999995  32.07653333333332 10.333979999999997  L 32.07653333333332 3.4824166666666656  C 32.07653333333332 3.0896866666666654  32.06730333333333 2.760309999999997  32.04944999999999 2.4976233333333298  C 32.03137999999999 2.2349366666666626  31.998013333333322 2.0057899999999975  31.952729999999995 1.8118299999999934  C 31.87165333333333 1.4654233333333266  31.644543333333324 1.2166033333333246  31.261043333333323 1.0687066666666638  L 31.261043333333323 1.0323933333333315  L 34.741143333333326 1.0323933333333315  L 34.741143333333326 1.0687066666666638  C 34.393696666666656 1.2046433333333297  34.19535999999999 1.4548066666666628  34.10968999999999 1.8118299999999934  C 34.020379999999996 2.18592666666666  33.96157666666666 2.7274633333333256  33.96157666666666 3.4494399999999956  L 33.96157666666666 10.37012  C 33.96157666666666 10.916683333333324  33.98150999999999 11.363796666666659  34.01617666666666 11.705436666666657  C 34.05066999999999 12.046513333333323  34.13187666666666 12.289873333333333  34.23657 12.44869  C 34.34317 12.610019999999992  34.505410000000005 12.762813333333327  34.74114333333333 12.89264  L 34.74114333333333 12.962276666666668  L 31.29709666666666 12.962276666666668  L 31.29709666666666 12.89264  C 31.644543333333335 12.73872  31.860819999999997 12.475426666666664  31.946619999999996 12.10726666666666  Z M 48.11016999999998 15.179643333333331  C 48.35170999999998 14.521150000000006  48.47278333333331 13.65704000000001  48.472783333333325 12.58159333333333  L 48.472783333333325 8.294756666666672  L 48.472783333333325 3.4856233333333364  C 48.472783333333325 3.1078866666666727  48.463423333333324 2.790686666666666  48.44535333333333 2.533936666666669  C 48.427499999999995 2.2772733333333335  48.39504333333331 2.0599566666666718  48.348849999999985 1.8812499999999943  C 48.26547666666666 1.558806666666662  48.034769999999995 1.2861966666666618  47.65703333333333 1.0687066666666638  L 47.65703333333333 1.0323933333333315  L 50.94906666666665 1.0323933333333315  L 50.94906666666665 1.0687066666666638  C 50.577483333333326 1.2257899999999964  50.51937333333332 1.4771233333333313  50.433226666666656 1.8207999999999913  C 50.34746999999997 2.162483333333327  50.30344333333331 2.71844999999999  50.30344333333331 3.4856233333333293  L 50.30344333333331 8.552806666666669  L 50.30344333333331 12.811173333333329  L 50.30344333333331 13.379013333333333  C 50.30344333333331 14.381746666666672  50.05609666666663 15.213400000000007  49.56335333333331 15.871330000000015  C 49.07151999999998 16.527353333333338  47.96205666666665 16.946820000000002  46.240163333333314 17.131246666666684  L 46.240163333333314 17.076733333333337  C 47.24324333333331 16.469676666666672  47.86862999999998 15.838136666666657  48.11016999999998 15.179643333333331  Z M 67.14758666666661 11.07723333333334  L 67.14758666666665 10.696549999999988  L 67.14758666666665 3.2619366666666565  C 67.14758666666665 2.612326666666661  67.09931333333331 2.1199299999999894  67.0057133333333 1.7847466666666634  C 66.91206999999997 1.4493466666666635  66.68530666666665 1.210579999999993  66.33170666666663 1.0687066666666638  L 66.33170666666663 1.0323933333333315  L 69.79382333333331 1.0323933333333315  L 69.79382333333331 1.0687066666666638  C 69.46448999999997 1.1925966666666667  69.25254666666665 1.397823333333335  69.15959666666664 1.6879399999999976  C 69.1015733333333 1.8690733333333256  69.0585433333333 2.0507266666666553  69.0265633333333 2.2287833333333253  C 68.99518999999997 2.4043266666666625  68.9783333333333 2.6156199999999927  68.9783333333333 2.8631833333333248  L 68.9783333333333 3.2619366666666565  L 68.9783333333333 11.512256666666659  L 70.06586999999998 11.56334666666666  L 71.06578666666664 11.614783333333335  L 71.6065433333333 11.651053333333337  L 71.7577333333333 11.651053333333337  C 72.72432666666664 11.651053333333337  73.70001999999998 11.282589999999999  74.68797666666663 10.545446666666678  L 74.7300533333333 10.581543333333343  L 73.80284999999996 12.962276666666668  L 66.33170666666662 12.962276666666668  L 66.33170666666662 12.89264  C 66.87566999999996 12.702536666666674  67.14758666666661 12.09829666666667  67.14758666666661 11.07723333333334  Z M 76.58519666666663 12.131533333333323  C 75.85468333333328 11.439023333333324  75.4884733333333 10.503153333333316  75.48847333333332 9.315820000000002  L 75.48847333333332 3.2287000000000035  C 75.48847333333332 2.537013333333327  75.43408999999998 2.0593933333333325  75.32540999999998 1.793760000000006  C 75.21668666666665 1.527866666666668  74.99616333333331 1.286196666666676  74.66682999999998 1.068706666666671  L 74.66682999999998 1.0323933333333386  L 78.1499633333333 1.0323933333333386  L 78.1499633333333 1.068706666666671  C 77.77842333333331 1.2257900000000035  77.54905999999998 1.4705366666666677  77.46109333333331 1.802730000000004  C 77.3738633333333 2.1321066666666724  77.32831999999998 2.6184366666666676  77.32831999999998 3.2619366666666707  L 77.32831999999998 8.572826666666671  C 77.32831999999998 9.687316666666675  77.57999999999998 10.523389999999992  78.08955666666662 11.07723333333334  C 78.34704333333329 11.356863333333337  78.6421433333333 11.564170000000004  78.9658433333333 11.708513333333343  C 79.29166666666663 11.85424333333333  79.65458333333329 11.925916666666666  80.0564133333333 11.925916666666666  L 80.14390333333328 11.925916666666666  C 80.63313666666663 11.925916666666666  81.12219666666661 11.834136666666666  81.60891666666663 11.651053333333337  C 82.09472666666663 11.468706666666677  82.4923533333333 11.183486666666667  82.79325999999998 10.79301000000001  C 83.09316999999997 10.404136666666673  83.24331999999997 9.959450000000004  83.24331999999997 9.457823333333337  L 83.24331999999997 3.086739999999999  C 83.24331999999997 1.941743333333335  82.98357999999998 1.2681266666666673  82.4641433333333 1.0687066666666638  L 82.4641433333333 1.0323933333333315  L 85.90779999999997 1.0323933333333315  L 85.90779999999997 1.0687066666666638  C 85.36400999999995 1.2439033333333285  85.09217999999996 1.866429999999994  85.09217999999996 2.935766666666666  L 85.09217999999996 11.058903333333333  C 85.09217999999996 12.098079999999996  85.36400999999995 12.708429999999993  85.90779999999997 12.89264  L 85.90779999999997 12.962276666666668  L 83.24331999999995 12.962276666666668  L 83.24331999999995 11.765843333333322  C 82.44581333333329 12.759736666666669  81.29162999999996 13.25542666666665  79.78120333333328 13.25542666666665  L 79.45503333333329 13.25542666666665  C 78.87514666666662 13.25542666666665  78.34955666666662 13.157709999999994  77.86898999999995 12.962276666666654  C 77.39214999999996 12.768273333333326  76.96336666666662 12.489986666666653  76.58519666666663 12.131533333333323  Z M 14.306443333333334 7.0139533333333475  L 14.306443333333334 11.508963333333327  L 15.880439999999993 11.651053333333337  L 16.260993333333325 11.669253333333344  C 16.985223333333323 11.703746666666675  17.586949999999995 11.484956666666676  18.058546666666658 11.110426666666683  C 18.60168666666666 10.678913333333341  18.871176666666663 10.110423333333344  18.871176666666663 9.421510000000012  C 18.871176666666663 8.64233333333334  18.55675 8.007370000000009  17.898473333333335 7.554580000000016  C 17.287863333333334 7.13442000000002  16.590023333333328 6.944533333333339  15.82922 6.944533333333339  L 15.650816666666664 6.944533333333339  L 14.306443333333334 7.0139533333333475  Z M 14.306443333333334 2.261890000000008  L 14.306443333333334 5.838926666666673  L 14.98027666666666 5.838926666666673  C 15.729553333333326 5.838926666666673  16.381806666666662 5.668713333333336  16.93482666666666 5.337299999999999  C 17.49001333333333 5.004413333333339  17.768429999999995 4.548893333333332  17.768429999999995 3.9687900000000056  L 17.768429999999995 3.9358133333333356  C 17.768429999999995 3.3101666666666745  17.545089999999995 2.830770000000001  17.085929999999998 2.518813333333334  C 16.687393333333333 2.2482400000000027  16.23061666666667 2.1199300000000036  15.723529999999997 2.1199300000000036  L 15.536026666666665 2.1199300000000036  L 14.306443333333334 2.261890000000008  Z M 53.915709999999976 6.793559999999985  L 53.91570999999999 7.050223333333335  C 53.91570999999999 7.379253333333338  53.954623333333316 7.702823333333328  54.03041333333333 8.01976333333333  C 54.105596666666656 8.334103333333331  54.22151333333332 8.657110000000003  54.366029999999995 8.989563333333322  C 54.63222666666667 9.602643333333319  54.999606666666665 10.147473333333323  55.47150666666667 10.621019999999987  C 55.945139999999995 11.095866666666652  56.47029666666667 11.441146666666654  57.04836333333333 11.66925333333333  C 57.50345000000001 11.848696666666655  57.972966666666665 11.944029999999984  58.46215666666666 11.944029999999984  L 58.58617666666666 11.944029999999984  C 58.616206666666656 11.944029999999984  58.64944333333331 11.944029999999984  58.685843333333324 11.944029999999984  C 58.731126666666654 11.944029999999984  58.76730999999998 11.944029999999984  58.79153333333332 11.944029999999984  C 59.30212999999999 11.944029999999984  59.773163333333315 11.865076666666653  60.196356666666645 11.708513333333329  C 60.621976666666654 11.551083333333324  61.021553333333316 11.335239999999985  61.38355999999999 11.040919999999986  C 62.03940999999997 10.507573333333326  62.50121333333331 9.829276666666658  62.77325999999997 9.019679999999994  C 62.978356666666656 8.409546666666657  63.08144666666666 7.793389999999988  63.08144666666666 7.16501333333332  C 63.08144666666666 6.941456666666653  63.06415666666665 6.736446666666652  63.04513333333331 6.554879999999997  C 62.91032333333331 5.271563333333326  62.43408999999998 4.178003333333322  61.59493999999998 3.283083333333323  C 60.80003333333332 2.4350499999999897  59.78520999999998 2.014239999999994  58.5529833333333 2.014239999999994  L 58.41084999999997 2.014239999999994  C 57.731339999999975 2.014239999999994  57.11457666666665 2.1376533333333256  56.556096666666626 2.382963333333322  C 56.00008666666663 2.626973333333325  55.514623333333304 2.9785366666666633  55.0938133333333 3.4311099999999897  C 54.31233999999996 4.271516666666656  53.915709999999976 5.388866666666658  53.915709999999976 6.793559999999985  Z " fill-rule="nonzero" fill="#ffffff" stroke="none" transform="matrix(1 0 0 1 402 107 )" />
  </g>
</svg>