<?xml version="1.0" encoding="utf-8"?>
<svg version="1.1" xmlns:xlink="http://www.w3.org/1999/xlink" width="68px" height="24px" xmlns="http://www.w3.org/2000/svg">
  <g transform="matrix(1 0 0 1 -411 -76 )">
    <path d="M 5.524626666666656 21.070923333333333  L 5.30280333333333 20.753853333333332  L 3.670176666666663 18.45376333333334  C 3.589880000000001 18.35206000000001  3.5277399999999943 18.287666666666674  3.4845366666666635 18.259370000000004  C 3.3815766666666605 18.192680000000003  3.2831666666666592 18.19883333333334  3.1883966666666623 18.27995333333334  L 3.178386666666661 18.273453333333336  L 3.702633333333324 17.46602333333334  L 7.213759999999986 18.14228333333333  C 7.439829999999986 18.175823333333334  7.602763333333321 18.190730000000002  7.701736666666655 18.187350000000002  C 7.8010566666666605 18.18288666666666  7.91926999999999 18.14228333333333  8.05633333333332 18.06718666666667  L 8.07591999999999 18.080056666666664  L 7.3969299999999905 19.125473333333332  L 7.377386666666659 19.11286333333333  C 7.406723333333325 18.96132666666667  7.389433333333322 18.865386666666666  7.323653333333326 18.823093333333333  C 7.269529999999989 18.787689999999998  7.186026666666656 18.763683333333333  7.074963333333329 18.750596666666667  L 5.997003333333325 18.512393333333335  L 5.161839999999991 19.798179999999995  L 5.79199333333333 20.636549999999993  C 5.819769999999991 20.670219999999993  5.847069999999988 20.702546666666656  5.874153333333325 20.733486666666664  C 5.901193333333325 20.764426666666665  5.929533333333325 20.79116333333333  5.957179999999987 20.81382666666667  C 6.076736666666655 20.877093333333335  6.1910933333333205 20.863313333333338  6.300293333333322 20.771056666666667  L 6.320226666666663 20.78366666666666  L 5.714989999999993 21.715333333333334  L 5.69553333333333 21.702463333333334  C 5.704849999999993 21.57458666666667  5.693236666666657 21.458323333333333  5.6599999999999895 21.353326666666668  C 5.627499999999991 21.262196666666668  5.582563333333319 21.16751333333334  5.524626666666656 21.070923333333333  Z M 60.82480666666672 17.029396666666663  L 61.20024666666667 16.935969999999998  L 63.932500000000005 16.236179999999997  C 64.05799333333334 16.203896666666658  64.13876666666667 16.162599999999998  64.18054000000002 16.132310000000004  C 64.27951333333336 16.060289999999995  64.30911 15.966343333333334  64.26755333333335 15.848823333333335  L 64.2774766666667 15.841630000000002  L 64.8432366666667 16.620503333333332  L 62.9534266666667 19.655873333333332  C 62.83283000000003 19.84974666666666  62.76822000000003 20.0015  62.73667333333337 20.09536  C 62.70460666666669 20.189696666666663  62.70040333333337 20.314366666666665  62.72155000000002 20.469543333333334  L 62.702656666666684 20.483193333333332  L 61.970106666666695 19.47465333333333  L 61.988870000000034 19.46100333333333  C 62.11969333333336 19.54242666666667  62.21537333333336 19.56075666666667  62.27855333333336 19.514780000000002  C 62.3311166666667 19.476906666666665  62.37354000000002 19.401809999999998  62.435420000000036 19.308209999999995  L 63.044210000000035 18.387246666666663  L 62.14270333333337 17.146786666666664  L 61.1343366666667 17.434649999999998  C 61.0926066666667 17.446566666666662  61.053000000000026 17.462729999999993  61.01443333333337 17.476726666666657  C 60.975866666666704 17.490939999999995  60.937213333333375 17.503246666666662  60.909566666666706 17.525433333333325  C 60.80418000000003 17.61006333333333  60.77987000000003 17.726326666666658  60.82671333333337 17.86126666666666  L 60.807733333333374 17.87513333333333  L 60.155046666666706 16.976486666666666  L 60.173810000000046 16.962706666666662  C 60.28994333333337 17.017219999999995  60.40261000000004 17.050196666666665  60.512590000000046 17.05474666666666  C 60.60931000000005 17.05864666666666  60.715216666666706 17.056696666666667  60.82480666666672 17.029396666666663  Z M 58.815396666666686 12.04857666666667  C 58.94214666666669 11.96971  59.07513666666668 11.904753333333332  59.216446666666684 11.85422666666667  C 59.47709666666668 11.756076666666672  59.74931666666669 11.715776666666663  60.03488333333334 11.731593333333336  C 60.307926666666674 11.745720000000006  60.57256333333335 11.81410000000001  60.82979 11.934566666666669  C 60.956540000000004 11.994410000000002  61.07861 12.065173333333334  61.19760333333333 12.146076666666666  C 61.31638000000001 12.228540000000002  61.42675000000001 12.321966666666668  61.528583333333344 12.42774333333334  L 61.586476666666684 12.487500000000004  C 61.83928333333334 12.749146666666668  62.02037333333335 13.044723333333337  62.12940000000002 13.375010000000003  C 62.24973666666669 13.730516666666674  62.27170666666669 14.091396666666668  62.192190000000025 14.457043333333338  C 62.149420000000035 14.643420000000006  62.08329333333336 14.822733333333339  61.9927266666667 14.991906666666672  C 61.902420000000035 15.16220666666667  61.785810000000026 15.315780000000004  61.6430266666667 15.45366666666667  L 61.572826666666685 15.521353333333344  C 61.40616666666669 15.682466666666677  61.21363666666669 15.811600000000006  60.9949766666667 15.91048666666667  C 60.739353333333355 16.02194  60.468823333333376 16.080440000000003  60.18200000000003 16.084080000000007  C 59.89587000000003 16.088283333333337  59.61498333333337 16.035503333333338  59.341810000000024 15.92604333333334  C 59.191616666666704 15.866763333333338  59.0530366666667 15.797603333333342  58.92698000000003 15.718216666666677  C 58.80001333333337 15.637660000000011  58.68136666666669 15.541156666666673  58.57147333333336 15.427406666666677  L 58.54452000000002 15.399630000000009  C 58.430640000000025 15.281676666666677  58.33097333333336 15.159346666666671  58.24573666666669 15.034763333333338  C 58.15963333333336 14.90905333333334  58.09012666666669 14.77753666666667  58.034703333333354 14.641036666666672  C 57.91432333333336 14.35581666666667  57.85322333333335 14.07094333333334  57.85244333333334 13.785593333333338  C 57.85244333333334 13.499593333333337  57.90011000000001 13.235303333333341  57.99661333333334 12.994110000000006  C 58.05065000000002 12.864630000000005  58.112183333333334 12.747240000000005  58.17917666666668 12.641853333333337  C 58.24690666666669 12.536639999999998  58.32824333333336 12.438663333333338  58.42379333333335 12.346276666666675  C 58.427910000000026 12.347663333333337  58.43519000000002 12.346536666666672  58.44528666666669 12.342550000000003  C 58.56644666666668 12.225593333333336  58.690033333333346 12.127400000000002  58.815396666666686 12.04857666666667  Z M 16.378370000000004 7.4022033333333255  C 16.34015 7.2580766666666605  16.31657666666667 7.111783333333321  16.309513333333328 6.961590000000001  C 16.29200666666666 6.6839966666666655  16.33295666666666 6.411733333333331  16.431713333333335 6.143239999999999  C 16.524880000000003 5.886576666666663  16.66779333333333 5.653139999999993  16.858330000000002 5.442409999999995  C 16.95219 5.338799999999999  17.055843333333335 5.242773333333332  17.16816333333334 5.15255333333333  C 17.28143666666667 5.062896666666667  17.403203333333337 4.984939999999995  17.534156666666668 4.918163333333329  L 17.6083 4.880289999999999  C 17.932433333333336 4.715189999999996  18.268180000000008 4.628393333333332  18.615496666666672 4.620766666666661  C 18.99085000000001 4.609413333333329  19.342283333333334 4.694259999999996  19.668670000000006 4.876996666666663  C 19.83446333333334 4.9724599999999946  19.986650000000004 5.088159999999995  20.12180666666667 5.224096666666668  C 20.258480000000013 5.360379999999999  20.371320000000004 5.516596666666665  20.46132333333334 5.69374333333333  L 20.505566666666674 5.780453333333334  C 20.610910000000004 5.987153333333332  20.678163333333337 6.208889999999997  20.708756666666666 6.447006666666667  C 20.74060666666667 6.724166666666662  20.717423333333336 6.999940000000002  20.63708333333333 7.275366666666663  C 20.557436666666668 7.549883333333334  20.424793333333334 7.803123333333332  20.24028 8.032486666666664  C 20.139703333333337 8.158803333333331  20.03297333333333 8.27095  19.920003333333334 8.368449999999996  C 19.806123333333332 8.466166666666666  19.678940000000004 8.551533333333332  19.538063333333334 8.623206666666661  L 19.503700000000002 8.640929999999997  C 19.357623333333336 8.715333333333334  19.21154666666667 8.774829999999994  19.067290000000007 8.819896666666665  C 18.921993333333333 8.865526666666668  18.776046666666673 8.893519999999995  18.62919 8.906823333333328  C 18.321176666666673 8.938543333333328  18.031103333333334 8.91353999999999  17.757800000000003 8.830816666666657  C 17.484323333333336 8.747183333333325  17.245599999999996 8.624333333333325  17.043103333333335 8.46139999999999  C 16.934900000000006 8.372219999999992  16.840823333333333 8.278923333333324  16.759616666666666 8.183936666666654  C 16.678800000000003 8.08834333333332  16.60886 7.982089999999992  16.548453333333335 7.863659999999989  C 16.551183333333334 7.860019999999992  16.55209333333334 7.852869999999989  16.551183333333334 7.84194999999999  C 16.474829999999997 7.691973333333323  16.416936666666665 7.545116666666658  16.378370000000004 7.4022033333333255  Z M 62.904156666666694 20.770016666666663  C 63.08836666666669 20.87891333333333  63.30655000000003 20.86613  63.55979000000002 20.731319999999997  L 66.03473000000001 19.415459999999996  C 66.3105466666667 19.268950000000004  66.43508666666668 19.0993  66.40653000000002 18.907853333333335  L 66.41736333333334 18.90204666666667  L 67.12547333333335 20.23359333333334  C 67.35323333333335 20.662290000000006  67.46962666666667 21.070923333333333  67.47461000000001 21.462093333333335  C 67.47937666666667 21.853306666666676  67.38495333333334 22.19395  67.19268333333333 22.484500000000004  C 67.00656666666667 22.754250000000006  66.75822333333335 22.971220000000002  66.44943 23.13549666666667  L 66.37502666666667 23.175103333333333  C 66.22860333333334 23.25293  66.07741333333334 23.30809333333334  65.92020000000001 23.340073333333336  C 65.76363666666667 23.371446666666664  65.59208000000001 23.383623333333333  65.40717666666669 23.377253333333336  C 65.06181000000001 23.36828333333333  64.72550000000001 23.25440333333333  64.39816000000002 23.035829999999997  C 64.07177333333335 22.816823333333325  63.79006333333335 22.48567  63.55402666666669 22.041719999999998  L 62.88357333333336 20.78115333333333  L 62.904156666666694 20.770016666666663  Z M 4.759316666666663 23.597083333333323  C 4.789129999999993 23.405159999999988  4.663983333333327 23.234253333333328  4.38227333333333 23.084319999999998  L 1.763856666666669 21.692236666666666  L 1.523920000000004 22.143119999999996  C 1.3631533333333294 22.445629999999994  1.3145766666666674 22.703419999999994  1.3776266666666643 22.917053333333328  L 1.3667933333333337 22.93776666666667  L 0.8300666666666672 22.41009666666666  L 0.841073333333334 22.389513333333333  C 0.892943333333335 22.358573333333332  0.9506633333333347 22.284733333333328  1.0128899999999987 22.167689999999993  L 2.1064499999999953 20.111393333333325  C 2.180593333333327 19.971599999999988  2.2156499999999966 19.870763333333322  2.2123566666666648 19.810486666666655  L 2.2246199999999945 19.787389999999988  L 2.7722233333333293 20.294346666666655  L 2.7615199999999973 20.31484333333332  C 2.5972433333333313 20.290923333333318  2.448436666666659 20.404369999999986  2.3148399999999967 20.65578999999999  L 2.051026666666658 21.15160999999999  L 4.64894666666666 22.53298999999999  C 4.893433333333327 22.662903333333325  5.119156666666662 22.661299999999997  5.32780666666666 22.52752999999999  L 5.3485199999999935 22.538666666666657  L 4.779769999999992 23.608003333333322  L 4.759316666666663 23.597083333333323  Z M 54.995823333333306 11.614636666666662  C 55.097613333333314 11.53862999999999  55.231643333333295 11.401219999999995  55.398433333333344 11.202449999999999  L 56.89802666666668 9.415383333333338  C 56.983480000000014 9.31342  57.05151333333333 9.22766333333334  57.102256666666676 9.157680000000006  C 57.153000000000006 9.087696666666673  57.19260666666668 9.024560000000008  57.21943000000002 8.967576666666666  C 57.27065000000002 8.865526666666675  57.26267666666668 8.75528666666667  57.19473000000002 8.636163333333336  L 57.218866666666685 8.626153333333342  L 58.308093333333346 9.54005333333334  C 58.54486666666668 9.738693333333337  58.70342333333335 9.939066666666669  58.78320000000001 10.142343333333336  C 58.86432000000002 10.34518666666667  58.886160000000004 10.538150000000002  58.851666666666674 10.721233333333338  C 58.81890666666668 10.86943333333334  58.75598666666667 10.997916666666676  58.66273333333335 11.108806666666673  L 58.58525333333334 11.186850000000007  C 58.24825000000001 11.511460000000007  57.79567666666668 11.553666666666672  57.22662333333335 11.314293333333339  L 57.19031000000001 12.803746666666669  C 57.176876666666686 13.102053333333338  57.24547333333335 13.501153333333342  57.39623000000002 13.999356666666671  L 56.921123333333355 13.600603333333332  C 56.70905000000002 13.422763333333329  56.613500000000016 13.185123333333337  56.635123333333354 12.889676666666674  L 56.65319333333335 11.76309666666667  L 56.76698666666667 10.753993333333334  C 57.01897000000001 10.905963333333332  57.279273333333336 10.993366666666667  57.548893333333325 11.014296666666667  C 57.78987000000001 11.031240000000004  57.98235666666666 10.95467  58.12505333333333 10.784716666666668  L 58.16487666666666 10.737353333333338  C 58.234599999999986 10.65432666666667  58.27940666666666 10.567616666666666  58.29912333333333 10.479563333333338  C 58.318666666666644 10.391510000000004  58.31649999999998 10.301073333333335  58.29101999999999 10.208556666666667  C 58.23481666666666 10.03414  58.12175999999998 9.875799999999998  57.95007333333332 9.731759999999994  C 57.87567 9.66931666666666  57.76517 9.598856666666663  57.61956999999998 9.520249999999997  L 55.86569666666665 11.610433333333333  L 55.77582333333331 11.717509999999997  C 55.648856666666646 11.869046666666662  55.56864666666664 11.98816999999999  55.5350633333333 12.073709999999998  C 55.489129999999975 12.17428666666666  55.48921666666662 12.29076666666667  55.53462999999998 12.42128666666666  L 55.52678666666664 12.43060333333333  L 54.64629666666664 11.691899999999997  L 54.6614633333333 11.674046666666662  C 54.782493333333306 11.711009999999995  54.89442333333331 11.691206666666659  54.995823333333306 11.614636666666662  Z M 48.91732666666664 7.894946666666669  C 48.99948666666664 7.7981399999999965  49.10253333333331 7.627580000000002  49.226119999999995 7.384826666666669  L 50.26958666666667 5.33650333333334  C 50.32969 5.218983333333341  50.37701 5.119533333333337  50.411676666666665 5.038066666666673  C 50.44630000000001 4.956860000000006  50.47234333333334 4.883366666666671  50.48703333333333 4.818150000000006  C 50.51671666666665 4.702450000000006  50.485776666666666 4.5934666666666715  50.393606666666656 4.4909833333333395  L 50.399066666666656 4.480063333333337  L 51.43928333333332 5.0101166666666686  L 51.43369333333331 5.021036666666667  C 51.309239999999974 5.008513333333333  51.20922666666665 5.051066666666671  51.13187666666664 5.146963333333339  C 51.045383333333305 5.242860000000007  50.94835999999998 5.39782000000001  50.838336666666635 5.613880000000002  L 49.7841233333333 7.682786666666672  C 49.700966666666645 7.8461533333333335  49.63830666666664 7.982436666666672  49.59722666666663 8.090076666666668  C 49.55510666666663 8.19724  49.539896666666635 8.282780000000002  49.549906666666644 8.345830000000007  C 49.55432666666664 8.41057  49.58218999999998 8.480640000000001  49.63293333333331 8.555173333333336  L 49.622359999999986 8.576103333333336  L 48.592846666666645 8.051726666666667  L 48.60367999999997 8.030926666666666  C 48.730993333333316 8.037599999999998  48.83585999999998 7.992316666666667  48.91732666666664 7.894946666666669  Z M 50.730696666666674 8.568693333333314  L 50.395426666666665 6.6347266666666656  L 51.847570000000005 5.920940000000002  C 52.01722000000001 5.840383333333335  52.12403666666667 5.758353333333332  52.16706666666667 5.674286666666667  C 52.21391000000001 5.582030000000003  52.195493333333346 5.4794166666666655  52.111080000000015 5.366100000000003  L 52.116626666666676 5.355179999999997  L 53.10358666666666 5.858149999999995  L 51.038103333333325 6.817766666666664  L 51.40205999999999 8.825226666666659  C 51.41718333333334 8.900323333333326  51.43412666666667 8.969049999999996  51.45358333333333 9.031406666666662  C 51.472823333333324 9.094413333333328  51.49215000000001 9.152349999999991  51.51377333333333 9.206386666666653  C 51.55017333333333 9.295566666666659  51.642343333333315 9.444849999999995  51.78842 9.653499999999994  L 51.77793333333334 9.674299999999988  L 51.22513000000001 9.392849999999981  C 51.11229 9.335389999999983  51.02094333333335 9.264756666666656  50.95234666666667 9.183029999999981  C 50.878029999999995 9.105593333333317  50.82945333333333 9.030843333333316  50.80566333333334 8.959473333333314  C 50.77589333333334 8.888709999999982  50.75916666666667 8.818553333333313  50.75583 8.751083333333312  L 50.730696666666674 8.568693333333314  Z M 46.18914666666663 6.328923333333336  L 46.23477666666666 6.20993  L 47.12865666666666 3.8811533333333372  C 47.206699999999984 3.6779633333333344  47.250943333333325 3.517803333333333  47.26177666666666 3.40149666666667  C 47.27278333333334 3.2852333333333377  47.230576666666664 3.183313333333338  47.13671666666666 3.096386666666671  L 47.140919999999994 3.0851200000000034  L 48.225596666666675 3.5010766666666697  L 48.22104666666668 3.5126466666666687  C 48.10318000000001 3.5116500000000066  48.012310000000014 3.550780000000003  47.948263333333344 3.63029666666667  C 47.90831 3.680130000000002  47.87234333333333 3.731436666666667  47.84131666666667 3.783566666666669  C 47.8099 3.834526666666669  47.779740000000004 3.8989200000000004  47.750056666666666 3.97648666666667  L 47.702173333333334 4.10128666666667  L 46.71018666666667 6.685340000000004  L 47.04446 6.832239999999999  L 47.35165000000001 6.96852333333333  L 47.51662 7.044876666666667  L 47.56393999999999 7.062946666666669  C 47.86679666666666 7.179209999999998  48.216626666666656 7.181159999999998  48.614599999999996 7.069099999999999  L 48.623483333333326 7.085610000000003  L 48.046889999999976 7.719620000000006  L 45.70697666666665 6.82132  L 45.715296666666646 6.799566666666671  C 45.908476666666644 6.805503333333334  46.06625333333332 6.648853333333335  46.18914666666663 6.328923333333336  Z M 44.445629999999994 6.116503333333341  C 44.51262333333332 6.006133333333338  44.58715666666666 5.825823333333339  44.66862333333334 5.575096666666667  L 45.38934333333333 3.3563433333333386  C 45.47206666666666 3.101846666666674  45.518823333333344 2.9188066666666685  45.53108666666667 2.8055766666666706  C 45.53529 2.697156666666668  45.48684333333334 2.600350000000006  45.38765333333333 2.5160233333333366  L 45.39129333333334 2.5044533333333376  L 46.49005333333335 2.8613466666666696  L 46.48632666666667 2.873046666666667  C 46.42860666666668 2.876686666666668  46.37426666666667 2.8927200000000006  46.323263333333344 2.9221866666666685  C 46.27607333333334 2.9528233333333347  46.23659666666667 2.9921700000000016  46.204833333333326 3.0404000000000018  C 46.17411 3.0888899999999992  46.151489999999995 3.1264166666666675  46.13840333333333 3.1531533333333357  C 46.12644333333333 3.1800200000000025  46.11552333333333 3.2075366666666696  46.10607666666665 3.2364400000000053  L 45.990939999999995 3.551906666666671  L 45.270003333333335 5.7706599999999995  C 45.18021666666667 6.047213333333332  45.1345 6.2400466666666645  45.132549999999995 6.347340000000003  C 45.13064333333334 6.455196666666673  45.17384666666665 6.55464666666667  45.26055666666666 6.645516666666673  L 45.253276666666665 6.667833333333334  L 44.15460333333333 6.310593333333337  L 44.16175333333334 6.288536666666673  C 44.28339 6.284550000000003  44.37894 6.226960000000005  44.445629999999994 6.116503333333341  Z M 41.67706333333334 2.62115  L 41.687723333333324 2.574393333333333  C 41.73993999999999 2.349363333333333  41.85295333333333 2.1748600000000025  42.02789 2.0528766666666662  C 42.202653333333345 1.9310233333333322  42.41632999999999 1.8575300000000006  42.669439999999994 1.83296  C 42.89334333333332 1.812940000000001  43.12634666666665 1.8311399999999978  43.36745333333333 1.8867800000000017  L 43.43969 1.903290000000002  C 43.70224666666667 1.9640433333333362  43.97849666666666 2.0737200000000016  44.268613333333334 2.2320600000000006  L 44.11603666666667 2.8918099999999995  C 44.02321666666667 2.7487233333333343  43.89963 2.626523333333335  43.744583333333324 2.5241266666666675  C 43.588930000000005 2.42277  43.424436666666665 2.3514000000000017  43.25049666666666 2.3112733333333324  C 43.06606999999998 2.2685899999999997  42.897459999999995 2.2682433333333307  42.74635666666666 2.310450000000003  C 42.59503666666667 2.3535666666666692  42.49220666666666 2.4294866666666692  42.43621999999999 2.5403766666666705  C 42.41143333333332 2.5938500000000033  42.39310333333333 2.6459800000000016  42.38183666666667 2.6952500000000015  C 42.349639999999994 2.8346100000000014  42.375033333333334 2.958933333333338  42.456803333333326 3.069303333333334  C 42.57388999999999 3.2242633333333366  42.75901 3.4001533333333356  43.012033333333335 3.5968433333333323  L 43.45355666666666 3.9547766666666675  C 43.53480666666667 4.0182600000000015  43.611810000000006 4.090150000000001  43.68643 4.1718333333333355  C 43.76139666666667 4.252606666666672  43.83138000000001 4.341570000000004  43.89681333333334 4.437726666666666  C 44.00670666666667 4.614049999999999  44.03821000000001 4.802246666666669  43.99193000000001 5.002836666666667  L 43.97815 5.062896666666667  C 43.95063333333334 5.18154333333333  43.90452666666667 5.287146666666665  43.83978666666667 5.381439999999998  C 43.775306666666665 5.476903333333333  43.692930000000004 5.563266666666664  43.591660000000005 5.641613333333332  C 43.40463333333334 5.789856666666665  43.17639666666666 5.885536666666667  42.90634333333334 5.929563333333334  C 42.63602999999999 5.974196666666664  42.34487333333334 5.9602  42.03179 5.887703333333334  C 41.73643 5.819670000000002  41.421526666666665 5.68759  41.08703666666666 5.492806666666667  L 41.101596666666666 4.703359999999996  C 41.25088000000001 4.904426666666662  41.417410000000004 5.070869999999999  41.602660000000014 5.2010000000000005  C 41.787736666666675 5.331173333333332  41.99651666666668 5.423083333333331  42.227786666666674 5.4764266666666686  C 42.339196666666666 5.502036666666669  42.44679333333333 5.513433333333332  42.550793333333345 5.50931666666667  C 42.65340666666667 5.506153333333337  42.76343 5.4897300000000016  42.88051666666668 5.45961333333333  C 43.09198333333333 5.404536666666665  43.22159333333333 5.276313333333334  43.26835000000001 5.073686666666667  C 43.33114000000002 4.801120000000001  43.18575666666666 4.529419999999998  42.831680000000006 4.2563766666666645  L 42.22497000000001 3.7844766666666665  C 42.04041333333335 3.6335900000000017  41.88879 3.4530633333333363  41.76862666666668 3.2433733333333343  C 41.65726000000001 3.044863333333332  41.62723 2.8372100000000025  41.67706333333334 2.62115  Z M 34.60276666666667 4.884710000000009  C 34.78533 4.822050000000008  34.87988333333334 4.628956666666671  34.88569 4.303696666666667  L 34.93222999999999 1.6354900000000008  C 34.935869999999994 1.4342066666666682  34.925296666666654 1.2756066666666683  34.90094333333333 1.1627666666666663  C 34.87581 1.0498833333333337  34.80001999999999 0.9684166666666663  34.67214333333334 0.9186266666666647  L 34.67214333333334 0.9063199999999973  L 36.61963 0.9405533333333302  C 36.661403333333325 0.9411166666666659  36.69269 0.9456666666666642  36.713836666666666 0.953206666666663  C 36.81159666666666 0.9397733333333278  36.87564333333333 0.9246499999999962  36.90519666666667 0.9099599999999981  L 36.91737333333333 0.9101766666666684  L 36.904763333333335 1.619413333333334  L 36.89271666666666 1.6191966666666673  C 36.750583333333324 1.4605966666666639  36.52589999999999 1.3786966666666665  36.21688999999999 1.3731066666666685  L 36.14807666666667 1.3721100000000028  L 35.81870000000001 1.3663900000000027  L 35.678646666666666 1.3759666666666703  L 35.550466666666665 1.397113333333337  L 35.53066333333334 2.5341366666666723  L 36.104266666666675 2.5441466666666734  C 36.24627000000001 2.546400000000009  36.384936666666675 2.5679366666666716  36.52351666666668 2.5099133333333405  L 36.54184666666667 2.5102600000000095  L 36.53036333333334 3.1606500000000075  L 36.51225000000001 3.1604333333333408  C 36.44317666666667 3.040400000000009  36.27400333333334 2.9779566666666746  36.004513333333335 2.9731900000000095  L 35.52312333333333 2.9647400000000097  L 35.49790333333334 4.412680000000009  L 36.331463333333346 4.498263333333345  C 36.35287000000001 4.498696666666678  36.37107 4.498913333333341  36.38632333333334 4.499260000000007  C 36.40053666666668 4.499520000000011  36.42281000000001 4.504070000000006  36.45297000000001 4.51256333333334  C 36.62522 4.51555333333334  36.7911 4.48721333333334  36.95013333333334 4.426026666666672  C 37.11033666666667 4.36583666666667  37.262003333333325 4.276266666666672  37.406953333333334 4.158183333333337  L 37.41809000000001 4.158400000000004  L 37.131483333333335 4.951963333333339  L 34.60229000000001 4.9079366666666715  L 34.60276666666667 4.884710000000009  Z M 27.98273333333332 5.534579999999984  C 28.152339999999988 5.439939999999986  28.210059999999984 5.236143333333317  28.15463666666666 4.9218033333333295  L 27.639619999999994 2.0013533333333307  L 27.13651999999999 2.0899699999999974  C 26.799299999999995 2.149596666666664  26.56629666666666 2.2699766666666648  26.436729999999997 2.451196666666661  L 26.41363333333333 2.455269999999995  L 26.498956666666665 1.7075966666666602  L 26.522053333333332 1.7033933333333273  C 26.57834333333333 1.7252333333333247  26.671986666666662 1.725449999999995  26.80246333333333 1.7023533333333276  L 29.096313333333327 1.2979233333333262  C 29.251923333333323 1.2703633333333286  29.352846666666665 1.236259999999998  29.398259999999993 1.1962199999999932  L 29.42417333333333 1.1916699999999913  L 29.361946666666654 1.9354866666666588  L 29.339066666666653 1.9392133333333241  C 29.257079999999988 1.795433333333321  29.075816666666654 1.7479833333333232  28.795363333333327 1.79746999999999  L 28.242473333333322 1.8950999999999887  L 28.753286666666654 4.79245333333332  C 28.80151666666665 5.06506333333332  28.941699999999983 5.241949999999989  29.175483333333318 5.324196666666651  L 29.179469999999988 5.347076666666652  L 27.986589999999985 5.557546666666653  L 27.98273333333332 5.534579999999984  Z M 21.757250000000006 7.48072333333333  C 21.904930000000007 7.355663333333332  21.92018333333334 7.1413366666666676  21.802880000000002 6.835749999999997  L 20.85496333333333 4.3662699999999965  L 20.81570333333334 4.264219999999998  C 20.69432666666667 3.948059999999998  20.534599999999998 3.7858199999999975  20.335960000000007 3.7775  L 20.331410000000012 3.7662766666666663  L 22.147163333333346 3.0691733333333318  C 22.187766666666683 3.053616666666663  22.21974666666668 3.045643333333331  22.242930000000015 3.0441699999999976  C 22.330766666666683 2.998756666666665  22.384586666666685 2.9605366666666626  22.403003333333352 2.9328033333333323  L 22.425883333333353 2.9241366666666657  L 22.668766666666684 3.590689999999995  L 22.657413333333345 3.5951533333333288  C 22.565936666666673 3.543283333333328  22.457646666666676 3.521876666666664  22.33362666666668 3.5293733333333286  C 22.20960666666668 3.5369133333333274  22.05967333333335 3.5737466666666577  21.886513333333347 3.6400899999999936  C 21.644193333333348 3.733169999999994  21.461456666666678 3.816413333333326  21.33631000000002 3.889473333333328  L 21.739873333333342 4.940696666666664  L 22.284140000000015 4.743659999999995  C 22.472423333333353 4.671509999999998  22.598003333333345 4.607939999999996  22.659926666666678 4.554813333333328  L 22.671280000000017 4.550479999999997  L 22.904500000000013 5.157883333333331  L 22.893146666666674 5.162303333333334  C 22.82637000000001 5.109869999999994  22.75296333333334 5.085863333333329  22.67414000000001 5.092233333333333  C 22.594926666666673 5.097606666666664  22.48377666666667 5.128286666666661  22.34190333333334 5.182929999999999  L 21.90267666666667 5.364583333333329  L 22.357633333333332 6.550183333333337  C 22.36773 6.576486666666668  22.37345 6.60266  22.376180000000005 6.628790000000002  C 22.43303333333334 6.77729333333334  22.50098 6.887056666666666  22.58097333333334 6.959553333333332  C 22.659580000000005 7.031313333333337  22.74490333333334 7.066803333333333  22.836250000000007 7.066586666666666  L 22.844440000000006 7.088426666666663  L 21.76578666666667 7.502433333333336  L 21.757250000000006 7.48072333333333  Z M 12.27717333333333 13.47385333333331  C 12.374109999999995 13.30706333333331  12.318946666666655 13.099236666666641  12.10982 12.850069999999995  L 10.394556666666666 10.80564666666666  C 10.26473 10.651466666666664  10.153016666666666 10.538843333333332  10.060499999999998 10.469423333333324  C 9.967333333333329 10.400956666666666  9.856746666666666 10.389126666666655  9.72761333333333 10.435406666666658  L 9.719770000000004 10.426219999999986  L 11.211953333333334 9.17405999999999  C 11.24380333333334 9.147106666666666  11.270453333333336 9.13024999999999  11.291383333333336 9.121973333333322  C 11.355993333333338 9.047569999999993  11.394559999999998 8.994096666666657  11.4073 8.963719999999988  L 11.416530000000002 8.955833333333324  L 11.872526666666666 9.49931999999999  L 11.86329666666667 9.507163333333324  C 11.65204666666667 9.480903333333323  11.428793333333331 9.566226666666651  11.191716666666672 9.764736666666657  L 11.13915333333334 9.809023333333322  L 10.88669333333334 10.020836666666654  L 10.78750333333334 10.120156666666652  L 10.70465 10.220039999999983  L 11.43551 11.091299999999983  L 11.874996666666668 10.722446666666642  C 11.983893333333334 10.63144666666664  12.103016666666676 10.55591666666664  12.16901333333334 10.421539999999972  L 12.183010000000003 10.409839999999967  L 12.601306666666673 10.908346666666638  L 12.587223333333341 10.919959999999975  C 12.456833333333343 10.874676666666637  12.287790000000008 10.938506666666648  12.08126333333334 11.111796666666642  L 11.712453333333336 11.421239999999976  L 12.64342666666667 12.530703333333314  L 13.328656666666667 12.048229999999982  C 13.345036666666672 12.034579999999984  13.358816666666662 12.022836666666642  13.370516666666667 12.012956666666646  C 13.381566666666664 12.003943333333318  13.401109999999996 11.992589999999979  13.429666666666662 11.979156666666654  C 13.561659999999996 11.868483333333316  13.668129999999998 11.738179999999986  13.748123333333332 11.587899999999983  C 13.829459999999997 11.437403333333314  13.885229999999993 11.27026666666665  13.917426666666664 11.085969999999982  L 13.92583333333333 11.078906666666654  L 14.23016333333333 11.865969999999983  L 12.292426666666664 13.491966666666649  L 12.27717333333333 13.47385333333331  Z M 10.66928999999999 15.085506666666667  C 10.750539999999987 14.909313333333337  10.677696666666655 14.710413333333335  10.447986666666665 14.488806666666669  L 8.314816666666665 12.42865333333333  L 7.959873333333327 12.796033333333334  C 7.721973333333331 13.042686666666668  7.604236666666665 13.276816666666669  7.605926666666662 13.499810000000004  L 7.58976333333333 13.516536666666667  L 7.219349999999999 12.861336666666666  L 7.23551333333333 12.844740000000002  C 7.2941 12.82922666666667  7.369630000000001 12.774279999999997  7.461886666666665 12.678730000000002  L 9.079909999999991 11.003463333333336  C 9.189716666666662 10.889713333333333  9.251249999999999 10.802569999999996  9.264466666666664 10.743636666666674  L 9.282796666666663 10.724743333333336  L 9.669589999999992 11.363000000000007  L 9.653426666666661 11.379726666666677  C 9.50236666666666 11.31143333333334  9.327949999999994 11.37946666666668  9.130089999999996 11.584476666666674  L 8.740003333333327 11.98838666666667  L 10.856533333333324 14.032246666666673  C 11.05565 14.224386666666675  11.272836666666656 14.285053333333337  11.510389999999994 14.214290000000005  L 11.527203333333318 14.230453333333337  L 10.685886666666654 15.101669999999999  L 10.66928999999999 15.085506666666667  Z M 5.91393333333334 16.002180000000003  L 5.877793333333329 15.970980000000004  C 5.703376666666664 15.819226666666665  5.6024533333333295 15.637529999999998  5.576756666666668 15.426020000000001  C 5.551146666666668 15.214423333333336  5.586766666666669 14.991083333333329  5.683573333333335 14.756260000000005  C 5.771279999999997 14.548996666666667  5.896643333333337 14.351700000000001  6.059013333333333 14.165019999999998  L 6.107589999999995 14.109163333333335  C 6.284389999999988 13.905713333333331  6.510893333333328 13.713226666666664  6.786926666666666 13.53153000000001  L 7.297956666666664 13.975696666666671  C 7.128003333333332 13.990473333333341  6.962209999999999 14.042126666666675  6.798626666666664 14.131436666666673  C 6.63617 14.221006666666675  6.496116666666666 14.332936666666676  6.378943333333332 14.467400000000012  C 6.254576666666658 14.610313333333345  6.175146666666663 14.75890333333335  6.141606666666661 14.912346666666679  C 6.1082833333333255 15.066180000000017  6.127393333333323 15.192583333333346  6.19906666666666 15.29415666666668  C 6.234556666666663 15.341043333333346  6.271996666666666 15.381646666666683  6.310216666666662 15.414666666666683  C 6.4179433333333336 15.508526666666683  6.539926666666666 15.544710000000016  6.675646666666658 15.52421333333335  C 6.867439999999995 15.493706666666682  7.1095433333333276 15.412716666666682  7.40217333333333 15.281676666666684  L 7.92537999999999 15.059810000000013  C 8.019499999999994 15.017820000000015  8.119253333333326 14.983586666666682  8.226546666666657 14.95615666666668  C 8.332799999999992 14.927730000000018  8.44429666666666 14.907710000000016  8.559649999999998 14.895403333333348  C 8.767173333333325 14.880756666666684  8.948089999999993 14.941510000000015  9.103353333333324 15.076536666666676  L 9.150109999999998 15.117053333333345  C 9.241716666666662 15.19691666666668  9.313606666666665 15.287483333333348  9.36651666666667 15.388710000000017  C 9.420423333333332 15.490196666666684  9.457646666666669 15.603383333333355  9.479616666666665 15.73004666666668  C 9.52247333333333 15.964523333333354  9.5002 16.211176666666688  9.411929999999998 16.470093333333352  C 9.32465666666667 16.729833333333353  9.175503333333332 16.980126666666692  8.964773333333326 17.222576666666683  C 8.765699999999995 17.45159333333335  8.501409999999993 17.66739333333335  8.172509999999996 17.87140666666668  L 7.482599999999998 17.48812333333335  C 7.7297300000000035 17.45068333333335  7.955106666666673 17.381610000000016  8.15669333333333 17.279343333333344  C 8.358626666666666 17.176600000000015  8.53781 17.03576666666668  8.693333333333328 16.85667000000001  C 8.768429999999995 16.770220000000002  8.828966666666659 16.680476666666678  8.87399 16.586833333333338  C 8.919620000000002 16.49431666666667  8.956713333333333 16.39010000000001  8.985140000000001 16.27223333333334  C 9.035666666666664 16.05972666666667  8.983233333333331 15.885093333333337  8.826323333333335 15.748809999999999  C 8.615289999999995 15.565163333333338  8.307103333333338 15.566203333333334  7.899813333333334 15.750499999999995  L 7.198290000000007 16.064753333333336  C 6.978373333333337 16.156793333333333  6.7476666666666745 16.205933333333334  6.505996666666668 16.21364666666667  C 6.278713333333336 16.218890000000002  6.081416666666669 16.147693333333336  5.91393333333334 16.002180000000003  Z M 30.155163333333327 5.109090000000002  C 30.324553333333327 5.033299999999997  30.398176666666664 4.837303333333331  30.375859999999996 4.518846666666665  L 30.19134666666666 1.8800633333333323  L 30.181076666666662 1.7345499999999987  C 30.158239999999992 1.404869999999999  30.057446666666657 1.2108666666666643  29.87834999999999 1.152193333333333  L 29.87765666666666 1.1401033333333324  L 31.030149999999985 1.059546666666666  L 31.031059999999982 1.071636666666663  C 30.92710333333332 1.1245466666666637  30.862796666666654 1.2104333333333308  30.837663333333317 1.329903333333334  C 30.81261666666665 1.4505866666666662  30.80715666666665 1.6186333333333316  30.822279999999992 1.836036666666665  L 30.881689999999985 2.6863666666666646  L 33.070846666666654 2.5333566666666627  L 33.00701666666666 1.6233999999999966  C 32.994493333333324 1.4442166666666623  32.96914333333333 1.2975766666666644  32.93148666666666 1.1834799999999959  C 32.893916666666655 1.0702499999999944  32.81166999999999 0.9947199999999938  32.68595999999999 0.9559366666666627  L 32.68517999999999 0.9438466666666621  L 33.84980666666665 0.8624233333333287  L 33.850846666666655 0.8745566666666633  C 33.75256666666665 0.9228299999999976  33.68678666666665 0.9997033333333292  33.65333333333332 1.1055233333333305  C 33.62022666666665 1.2104333333333308  33.61090999999999 1.3686866666666617  33.62568666666665 1.5799366666666614  L 33.814229999999995 4.2783466666666605  C 33.836633333333324 4.596759999999993  33.94093666666666 4.780753333333326  34.12752999999999 4.831496666666659  L 34.12900333333333 4.854809999999993  L 32.96433333333332 4.936276666666661  L 32.96285999999999 4.913049999999995  C 33.14035333333332 4.836479999999995  33.21817999999999 4.640223333333328  33.19586333333332 4.3216799999999935  L 33.10065999999999 2.9628333333333288  L 30.911936666666662 3.1158433333333306  L 31.006836666666658 4.474906666666662  C 31.029369999999993 4.797219999999996  31.129686666666657 4.981213333333329  31.307743333333327 5.028533333333328  L 31.309346666666663 5.051976666666661  L 30.156766666666663 5.132533333333328  L 30.155163333333327 5.109090000000002  Z M 17.118069999999996 7.423393333333337  L 17.157200000000003 7.500050000000002  C 17.207510000000006 7.5985900000000015  17.26826333333333 7.68924333333333  17.33937333333334 7.772529999999996  C 17.40957333333334 7.854776666666666  17.493163333333335 7.934206666666668  17.58715333333334 8.011339999999997  C 17.760183333333337 8.154123333333331  17.953016666666677 8.260506666666664  18.166000000000004 8.330446666666667  C 18.380023333333334 8.400083333333335  18.589583333333337 8.425216666666664  18.79719333333334 8.403593333333333  C 18.96069 8.38964  19.115433333333343 8.345006666666663  19.261726666666675 8.270386666666667  L 19.29860333333334 8.251623333333335  C 19.30779000000001 8.246943333333334  19.317496666666678 8.242046666666667  19.32841666666667 8.23637  C 19.342066666666668 8.22956666666667  19.352856666666668 8.224106666666664  19.36013666666667 8.22020666666667  C 19.51258333333334 8.14264  19.641586666666676 8.047393333333332  19.74398333333334 7.935896666666672  C 19.847506666666668 7.824313333333336  19.93226666666667 7.698126666666667  19.997266666666675 7.555473333333339  C 20.110453333333346 7.295386666666666  20.14685333333334 7.023123333333338  20.104776666666673 6.739983333333335  C 20.073360000000008 6.526176666666672  20.010093333333337 6.32641000000001  19.914413333333336 6.138473333333337  C 19.88039666666667 6.071696666666668  19.845383333333338 6.011853333333335  19.810543333333342 5.9615433333333385  C 19.576196666666675 5.597586666666672  19.265713333333345 5.345170000000003  18.87887666666667 5.204423333333338  C 18.511626666666672 5.073123333333335  18.144853333333344 5.100640000000006  17.77634666666667 5.288490000000003  L 17.733923333333337 5.309983333333335  C 17.530733333333337 5.413636666666669  17.36528666666667 5.544460000000001  17.235590000000002 5.702973333333333  C 17.10671666666667 5.860749999999996  17.013290000000005 6.039023333333333  16.958126666666665 6.23892  C 16.850833333333334 6.608683333333332  16.904090000000004 7.0035799999999995  17.118069999999996 7.423393333333337  Z M 59.0113066666667 12.762363333333333  L 58.94942666666668 12.822206666666666  C 58.86978000000002 12.898863333333331  58.80105333333334 12.983623333333334  58.742120000000014 13.075879999999998  C 58.68409666666669 13.167270000000002  58.632573333333355 13.270316666666673  58.58625000000001 13.38263666666667  C 58.500233333333355 13.589813333333339  58.45495000000001 13.805483333333335  58.450313333333355 14.02973333333334  C 58.44645666666669 14.254676666666668  58.483506666666685 14.462633333333336  58.56488666666668 14.654556666666672  C 58.62585666666668 14.806786666666667  58.71391000000001 14.941726666666675  58.82813666666668 15.059810000000006  L 58.85669333333334 15.089623333333336  C 58.86397333333335 15.097120000000004  58.871730000000014 15.104963333333345  58.88013666666667 15.113846666666674  C 58.89071 15.124766666666673  58.89903000000001 15.133433333333343  58.90483666666668 15.139240000000008  C 59.023830000000004 15.262436666666673  59.15248666666669 15.357900000000008  59.28890000000001 15.423290000000001  C 59.426093333333355 15.489633333333337  59.57139000000001 15.533660000000005  59.72669666666668 15.554243333333332  C 60.00871000000002 15.586570000000002  60.279586666666674 15.541720000000005  60.53807000000002 15.41874  C 60.7334166666667 15.326050000000002  60.90614333333335 15.207013333333329  61.05781000000002 15.060719999999996  C 61.11171666666668 15.008633333333329  61.158603333333346 14.957889999999999  61.19660666666668 14.909616666666658  C 61.47610666666668 14.579156666666663  61.626733333333334 14.208483333333326  61.64827000000001 13.797293333333322  C 61.666470000000004 13.407986666666659  61.53265666666667 13.064959999999992  61.24561666666668 12.767563333333328  L 61.21229333333335 12.733329999999995  C 61.05391000000003 12.569183333333335  60.88040333333335 12.44958333333333  60.69099333333335 12.371670000000002  C 60.50236333333336 12.294623333333334  60.30450333333336 12.257313333333336  60.09732666666669 12.26312  C 59.71248333333335 12.268493333333339  59.350433333333356 12.434806666666674  59.0113066666667 12.762363333333333  Z M 3.912409999999994 18.080620000000003  L 4.865439999999992 19.426726666666667  L 5.51938333333333 18.41974666666667  L 3.912409999999994 18.080620000000003  Z M 64.19406000000001 16.595933333333335  L 62.59584000000001 17.00322333333333  L 63.30178333333335 17.974713333333334  L 64.19406000000001 16.595933333333335  Z M 66.39595666666669 19.92584  L 63.72272333333335 21.347173333333338  C 63.74751000000002 21.423613333333336  63.80089666666669 21.555953333333335  63.88063000000001 21.74523333333334  C 63.98679666666668 21.944783333333334  64.11203000000002 22.118073333333342  64.25585333333333 22.26553666666667  C 64.40089000000002 22.412393333333334  64.56521000000001 22.53615333333334  64.75132666666667 22.635603333333336  C 64.93653333333334 22.735703333333333  65.12867333333335 22.786360000000002  65.32731333333334 22.786360000000002  C 65.52495666666667 22.786706666666674  65.72858 22.731283333333344  65.93623333333333 22.62104333333334  L 66.08560333333334 22.54152666666667  C 66.40414666666666 22.372223333333338  66.63134333333333 22.173496666666672  66.76650000000001 21.944133333333333  C 66.92124333333334 21.682790000000004  66.98507333333333 21.422833333333337  66.95638666666667 21.163786666666667  C 66.92908666666668 20.90495666666667  66.84649333333334 20.645780000000002  66.70804333333334 20.385606666666668  C 66.66618333333334 20.306653333333337  66.62280666666668 20.234373333333338  66.57947333333334 20.169200000000004  C 66.53557666666667 20.104026666666662  66.47482333333333 20.022646666666667  66.39595666666669 19.92584  Z " fill-rule="nonzero" fill="#ffffff" stroke="none" transform="matrix(1 0 0 1 411 76 )" />
  </g>
</svg>