<?xml version="1.0" encoding="utf-8"?>
<svg version="1.1" xmlns:xlink="http://www.w3.org/1999/xlink" width="61px" height="64px" xmlns="http://www.w3.org/2000/svg">
  <g transform="matrix(1 0 0 1 -415 -82 )">
    <path d="M 0.849883333333338 21.103920000000002  C 5.311570000000003 9.007939999999998  16.962690000000002 0.3431366666666662  30.575423333333337 0.3431366666666662  C 44.188199999999995 0.3431366666666662  55.83932 9.007939999999998  60.301006666666666 21.103920000000002  L 59.58652666666666 21.103920000000002  C 55.15669 9.383726666666668  43.814233333333334 1.0114233333333331  30.575423333333337 1.0114233333333331  C 17.33665666666667 1.0114233333333331  5.994286666666667 9.383726666666668  1.5644500000000008 21.103920000000002  L 0.849883333333338 21.103920000000002  Z M 59.584706666666676 42.92524333333333  L 60.29931666666667 42.92524333333333  C 55.83624333333334 55.018709999999984  44.186466666666675 63.682689999999994  30.575423333333337 63.682689999999994  C 16.964423333333336 63.682689999999994  5.314646666666668 55.018709999999984  0.8515733333333344 42.92524333333333  L 1.5661399999999972 42.92524333333333  C 5.997233333333327 54.64300999999999  17.338346666666666 63.01418666666666  30.575423333333337 63.01418666666666  C 43.8125 63.01418666666666  55.153613333333325 54.64300999999999  59.584706666666676 42.92524333333333  Z " fill-rule="nonzero" fill="#f89c49" stroke="none" transform="matrix(1 0 0 1 415 82 )" />
  </g>
</svg>