<?xml version="1.0" encoding="utf-8"?>
<svg version="1.1" xmlns:xlink="http://www.w3.org/1999/xlink" width="77px" height="80px" xmlns="http://www.w3.org/2000/svg">
  <g transform="matrix(1 0 0 1 -407 -74 )">
    <path d="M 0.15652333333331825 29.103920000000002  C 4.92301666666665 12.378423333333338  20.356053333333314 0.071193333333337  38.57542333333333 0.07119333333332989  C 56.79449000000001 0.07119333333332989  72.22752666666666 12.378423333333338  76.99423666666665 29.103920000000002  L 76.33314333333331 29.103920000000002  C 71.58484999999999 12.73280333333333  56.44214666666665 0.7060266666666699  38.57542333333332 0.7060266666666699  C 20.70839666666665 0.7060266666666699  5.565563333333323 12.73280333333333  0.8175299999999837 29.103920000000002  L 0.15652333333331825 29.103920000000002  Z M 76.33175666666666 50.92524333333333  L 76.99289333333333 50.92524333333333  C 72.22445 67.64809666666666  56.792539999999995 79.95419999999999  38.57542333333333 79.95419999999999  C 20.358003333333336 79.95419999999999  4.926180000000002 67.64809666666666  0.15765000000000384 50.92524333333333  L 0.8187866666666714 50.92524333333333  C 5.56807666666667 67.29371666666665  20.71008666666667 79.31936666666665  38.57542333333333 79.31936666666665  C 56.440413333333325 79.31936666666665  71.58233666666666 67.29371666666664  76.33175666666666 50.92524333333333  Z " fill-rule="nonzero" fill="#f89c49" stroke="none" transform="matrix(1 0 0 1 407 74 )" />
  </g>
</svg>