<?xml version="1.0" encoding="utf-8"?>
<svg version="1.1" xmlns:xlink="http://www.w3.org/1999/xlink" width="55px" height="20px" xmlns="http://www.w3.org/2000/svg">
  <g transform="matrix(1 0 0 1 -418 -84 )">
    <path d="M 26.373703333333268 6.618373333333324  C 27.308316666666613 6.477669999999989  27.842226666666605 6.477669999999989  28.777663333333322 6.618373333333324  C 30.796693333333327 6.921359999999993  33.06151 7.930809999999994  33.87725999999999 10.095396666666652  C 34.106276666666645 10.702496666666654  34.218336666666644 11.375636666666658  34.20386333333332 12.119583333333324  C 34.89026333333332 11.463256666666659  35.56080333333331 11.000543333333326  36.43626666666664 10.777116666666657  C 38.62893333333331 10.217813333333325  41.20934666666663 10.91534999999999  43.14625999999997 12.375683333333328  C 45.129713333333314 13.870293333333322  46.54103666666664 16.442473333333325  45.96855999999997 19.064876666666656  L 45.2619233333333 19.064876666666656  C 45.27613666666663 19.020416666666655  45.29004666666664 18.97543666666666  45.30230999999996 18.930066666666654  C 45.613009999999974 17.80270666666666  45.431659999999965 16.69597333333332  44.99797999999997 15.700129999999987  C 44.50523666666663 14.571209999999986  43.67700666666663 13.584163333333322  42.716913333333295 12.870029999999986  C 40.91424666666663 11.529339999999983  38.52653666666663 10.856763333333312  36.57458666666663 11.383046666666651  C 35.7885633333333 11.595336666666654  35.215739999999954 12.041323333333317  34.637326666666624 12.677759999999985  C 34.1795533333333 13.181639999999987  33.96574666666663 13.755806666666658  33.55676666666662 14.422056666666656  C 33.36549333333329 14.617879999999992  33.07368666666663 14.491823333333322  32.98121333333329 14.180863333333328  C 33.605429999999956 12.798226666666658  33.716363333333305 11.524486666666654  33.29030999999996 10.379966666666661  C 32.55875666666664 8.415363333333325  30.515026666666632 7.485776666666666  28.692643333333308 7.2235233333333255  C 27.875896666666634 7.105873333333328  27.275079999999974 7.105873333333328  26.45867999999996 7.2235233333333255  C 24.63564666666663 7.485776666666666  22.592219999999962 8.415363333333332  21.860579999999963 10.379966666666661  C 21.434179999999962 11.524486666666668  21.54567666666663 12.798226666666658  22.16989333333329 14.180863333333328  C 22.07741999999996 14.491823333333322  21.785613333333295 14.617879999999992  21.594123333333293 14.422056666666656  C 21.185013333333288 13.755806666666658  20.971813333333287 13.181639999999987  20.513563333333288 12.677759999999985  C 19.935366666666617 12.041323333333317  19.362629999999953 11.595336666666654  18.576389999999954 11.383046666666651  C 16.624656666666617 10.856763333333312  14.236643333333284 11.529339999999983  12.43375999999995 12.870029999999986  C 11.474229999999949 13.584163333333315  10.645956666666613 14.571209999999986  10.153256666666614 15.700129999999987  C 9.718883333333281 16.695973333333313  9.538096666666618 17.802706666666644  9.84866666666661 18.930066666666654  C 9.861319999999942 18.975436666666653  9.873929999999945 19.020416666666655  9.88779666666661 19.064876666666656  L 9.18254666666661 19.064876666666656  C 8.609723333333278 16.442473333333325  10.021609999999939 13.870293333333322  12.004629999999942 12.375683333333328  C 13.941976666666612 10.91534999999999  16.52195666666661 10.217813333333325  18.71462333333327 10.777116666666657  C 19.590303333333274 11.000543333333326  20.26084333333327 11.463256666666659  20.94724333333327 12.119583333333324  C 20.93302999999994 11.375636666666658  21.04482999999994 10.702496666666654  21.273413333333274 10.095396666666652  C 22.089466666666603 7.930809999999987  24.35428333333327 6.921359999999993  26.373703333333268 6.618373333333324  Z M 15.086063333333314 7.616730000000004  C 16.14170666666665 6.447293333333334  15.765616666666645 4.601120000000002  14.586819999999983 4.016249999999999  C 16.07436666666665 3.2559233333333353  17.62517999999998 2.6216533333333345  19.22829666666665 2.1263100000000037  C 18.661496666666658 3.4128333333333316  19.467453333333317 5.100016666666669  20.96873666666665 5.239940000000004  C 22.370613333333317 5.159166666666671  23.276106666666642 4.364043333333342  23.69578999999998 3.2764200000000017  C 23.887149999999977 2.782420000000002  23.978409999999975 2.227103333333332  23.969526666666646 1.6515500000000003  C 26.329676666666643 5.596530000000001  21.340319999999984 9.411986666666671  18.224826666666644 7.015566666666672  C 18.224826666666644 7.015566666666672  18.224826666666644 7.0165633333333375  18.224826666666644 7.016910000000003  C 18.223916666666646 7.016910000000003  18.223829999999978 7.0157833333333315  18.223569999999974 7.015913333333337  C 17.318119999999972 10.846406666666674  11.195466666666647 11.532330000000002  10.68179333333331 7.021460000000005  C 11.015373333333308 7.465973333333338  11.412306666666645 7.823213333333342  11.850103333333308 8.063496666666673  C 12.811929999999975 8.59264000000001  13.970793333333313 8.55372666666667  15.086063333333314 7.616730000000004  Z M 40.06482666666663 7.61672999999999  C 39.00939999999996 6.447293333333313  39.38518666666663 4.601119999999987  40.564286666666646 4.016249999999992  C 39.07652333333331 3.255923333333328  37.525623333333314 2.6216533333333274  35.922593333333324 2.1263099999999895  C 36.48939333333331 3.4128333333333245  35.68369666666665 5.1000166666666615  34.18236999999999 5.239939999999997  C 32.78027666666665 5.159166666666664  31.874999999999982 4.364043333333335  31.45509999999999 3.2764199999999946  C 31.26395666666664 2.782419999999995  31.172696666666653 2.227103333333325  31.181579999999983 1.6515499999999932  C 28.821343333333314 5.596529999999994  33.81091666666664 9.411986666666657  36.926149999999964 7.015566666666665  C 36.926149999999964 7.015566666666665  36.926149999999964 7.01656333333333  36.926149999999964 7.016909999999996  C 36.92671333333331 7.016909999999996  36.92753666666664 7.015783333333324  36.92753666666664 7.015783333333324  C 37.833029999999965 10.84640666666666  43.95563999999996 11.532329999999995  44.469313333333304 7.0214599999999905  C 44.135733333333306 7.465973333333324  43.73853999999997 7.823213333333328  43.3010033333333 8.063496666666651  C 42.33895999999997 8.592639999999989  41.18022666666663 8.553726666666648  40.06482666666663 7.61672999999999  Z M 0.6349599999999924 19.064876666666656  L 6.035116666666667 19.064876666666663  C 9.108359999999998 17.92252333333333  10.25539333333333 12.563879999999997  6.5716699999999975 11.17418  C 6.8994433333333305 11.623806666666667  7.136866666666669 12.123483333333333  7.2606699999999975 12.64270333333333  C 7.535403333333336 13.785273333333329  7.262576666666669 15.022439999999996  6.1984833333333285 16.027469999999994  C 5.006556666666668 16.873336666666667  3.279420000000002 15.997309999999999  2.8433133333333274 14.712173333333325  C 1.9910766666666573 16.091516666666656  1.2508999999999943 17.546519999999994  0.6349599999999924 19.064876666666656  Z M 48.95262333333331 16.027469999999987  C 50.144679999999966 16.87333666666666  51.87194666666663 15.997309999999992  52.30788 14.712173333333325  C 53.16037666666665 16.091516666666656  53.900553333333335 17.546519999999994  54.51614666666666 19.064876666666656  L 49.116206666666656 19.064876666666656  C 46.041923333333315 17.92321666666666  44.89501999999999 12.564096666666657  48.57908999999998 11.174179999999993  C 48.25131666666665 11.62380666666666  48.01423999999999 12.123483333333319  47.890219999999985 12.642703333333323  C 47.615703333333315 13.785273333333322  47.888529999999975 15.022439999999989  48.95262333333331 16.027469999999987  Z M 33.995689999999996 3.445463333333329  C 33.88397666666667 2.9596533333333213  33.83631 2.1743233333333265  34.22448999999999 1.6600866666666576  C 33.70418666666666 1.5344633333333277  33.179159999999996 1.4234433333333243  32.64988666666666 1.3265066666666598  C 32.84089999999999 2.0587533333333283  33.36471333333333 3.2316999999999965  33.995689999999996 3.445463333333329  Z M 27.577156666666657 16.640809999999995  C 27.578066666666654 16.640809999999995  27.57828333333333 16.64046333333333  27.57828333333333 16.64046333333333  C 27.57875999999999 16.640809999999995  27.57941 16.64137333333332  27.579669999999993 16.64193666666666  C 28.587213333333324 15.448926666666651  29.807479999999998 15.099573333333325  31.217893333333326 15.460756666666661  C 32.91772999999999 16.197423333333326  33.46143333333332 17.238636666666665  33.55676666666666 19.233486666666657  C 33.198833333333326 18.763839999999995  32.89653999999999 18.17840666666666  32.41714333333333 17.736839999999994  C 32.088806666666656 17.434243333333328  31.678743333333333 17.19851  31.11003666666666 17.113966666666663  C 29.900213333333323 16.933656666666657  29.173426666666657 17.897476666666655  29.12714666666666 19.064876666666656  L 26.023179999999996 19.064876666666656  C 25.976856666666663 17.897476666666655  25.251240000000003 16.933656666666657  24.040636666666664 17.113966666666663  C 23.472363333333334 17.19851  23.06173666666666 17.434243333333328  22.733530000000002 17.736839999999994  C 22.254350000000002 18.17840666666666  21.95227333333333 18.763839999999995  21.59412333333333 19.233486666666657  C 21.68980333333333 17.238636666666658  22.233376666666665 16.197423333333326  23.93278 15.460756666666661  C 25.343149999999994 15.099573333333325  26.563806666666665 15.448926666666665  27.571566666666655 16.642153333333326  C 27.57178333333333 16.641373333333327  27.57247666666666 16.640809999999995  27.572693333333333 16.640246666666663  C 27.572953333333334 16.64046333333333  27.573039999999995 16.640809999999995  27.573516666666666 16.640809999999995  C 27.574209999999994 16.640809999999995  27.574209999999994 16.64046333333333  27.574209999999994 16.64046333333333  Z M 46.61634999999997 8.122299999999996  C 46.95218333333331 8.403533333333328  47.27631666666663 8.686933333333322  47.59455666666665 8.981166666666667  C 47.330353333333306 9.281596666666665  46.93536999999999 9.578083333333332  46.47313333333331 9.423469999999995  C 46.26755999999999 9.03303666666666  46.31678666666663 8.398983333333327  46.61634999999997 8.122299999999996  Z M 27.392036666666684 0.8728933333333444  C 27.24336000000001 0.8741500000000144  27.094640000000012 0.8753200000000092  26.946309999999997 0.8783533333333295  C 26.97712 1.287246666666661  27.13494 1.8334633333333272  27.56441666666666 2.0430233333333305  L 27.574860000000005 2.0480499999999964  L 27.58668999999999 2.0428066666666638  C 28.01560333333333 1.8330300000000008  28.17376999999999 1.287246666666661  28.20436333333333 0.8783533333333366  C 28.04121333333333 0.8750599999999977  27.877283333333335 0.8731533333333346  27.713570000000004 0.872243333333337  C 27.70707 0.872243333333337  27.700570000000003 0.872243333333337  27.694199999999995 0.872243333333337  C 27.60662333333333 0.8719833333333398  27.518916666666666 0.872243333333337  27.431426666666667 0.8723300000000052  C 27.42107 0.8723300000000052  27.411406666666664 0.8728066666666763  27.40126666666667 0.8728066666666763  C 27.398190000000014 0.8728066666666763  27.39533 0.8728933333333444  27.392036666666684 0.8728933333333444  Z M 21.15541666666664 3.445463333333336  C 21.267259999999972 2.9596533333333284  21.31457999999997 2.1743233333333336  20.926659999999977 1.6600866666666647  C 21.44665999999998 1.5344633333333348  21.97172999999998 1.4234433333333314  22.500959999999978 1.326506666666667  C 22.310293333333306 2.0587533333333354  21.786393333333308 3.2317000000000036  21.15541666666664 3.445463333333336  Z M 8.534539999999978 8.122299999999996  C 8.19831666666665 8.403533333333328  7.874789999999983 8.686933333333322  7.556333333333313 8.981166666666667  C 7.820493333333309 9.281596666666665  8.21595333333331 9.578083333333332  8.677973333333313 9.423469999999995  C 8.883676666666645 9.03303666666666  8.834406666666652 8.398983333333327  8.534539999999978 8.122299999999996  Z M 5.345683333333334 14.482809999999986  C 5.133046666666665 13.947773333333323  4.6395233333333366 13.10927333333332  3.8741699999999923 13.154903333333323  C 4.236783333333328 12.644306666666658  4.616513333333323 12.146666666666654  5.010759999999998 11.660856666666653  C 5.306640000000002 12.245293333333322  5.781876666666669 13.802693333333323  5.345683333333334 14.482809999999986  Z M 41.267153333333326 6.383679999999991  C 42.05373999999999 6.776409999999984  43.17754666666666 6.264469999999989  43.571663333333305 5.778096666666656  C 43.07527999999998 5.44780999999999  42.56944999999999 5.133253333333329  42.05603666666666 4.8327799999999925  C 42.213033333333314 5.5813633333333215  41.687876666666654 6.056036666666664  41.267153333333326 6.383679999999991  Z M 49.80520666666666 14.482809999999994  C 49.36936 13.802693333333323  49.844683333333336 12.245206666666654  50.14047666666667 11.660769999999992  C 50.53459333333333 12.146319999999989  50.91432333333334 12.644306666666658  51.27715333333333 13.154903333333323  C 50.51149666666667 13.10927333333332  50.018060000000006 13.947773333333323  49.80520666666666 14.482809999999994  Z M 16.96109666666665 18.116743333333332  C 16.961183333333317 18.116266666666668  16.96165999999998 18.116743333333332  16.962223333333313 18.116266666666668  C 16.987009999999977 17.67678  16.945063333333323 16.568096666666662  17.297839999999987 16.046363333333332  C 17.860653333333318 15.213323333333335  18.252386666666652 16.089566666666663  18.276263333333326 16.343759999999996  C 18.60152333333332 15.764653333333328  18.583886666666658 15.266103333333326  18.282199999999996 14.981446666666663  C 17.70911666666666 14.440039999999996  16.980639999999987 14.915493333333337  16.630376666666656 15.498109999999997  C 16.454833333333326 15.788876666666667  16.351873333333323 16.142259999999993  16.264686666666663 16.574596666666665  C 15.98960666666666 16.08445333333333  15.635096666666657 15.330626666666667  14.576376666666656 15.039383333333326  C 14.39047666666666 14.98781666666666  14.019673333333332 14.961903333333332  13.990466666666665 14.982269999999993  C 13.971009999999993 15.014336666666658  14.002729999999993 15.409926666666664  14.05095999999999 15.608003333333322  C 14.321533333333328 16.717119999999994  14.995366666666662 16.95432666666666  15.508953333333324 17.393033333333328  C 15.106083333333322 17.49087999999999  14.776143333333316 17.60566999999999  14.50721666666665 17.79646666666666  C 14.108203333333321 18.078176666666664  13.766563333333316 18.57884999999999  13.819689999999987 19.064876666666656  L 14.71040666666665 19.064876666666656  C 14.682066666666648 18.908226666666657  14.756903333333312 18.718209999999992  15.027823333333316 18.503319999999988  C 15.511683333333316 18.11934333333332  16.550253333333316 18.150283333333327  16.96109666666665 18.117653333333323  Z M 27.57576999999999 14.187709999999988  C 27.576593333333335 14.187796666666657  27.576939999999997 14.188619999999986  27.577156666666657 14.18905333333332  C 27.902416666666653 13.876403333333322  28.584223333333327 13.115296666666652  29.159776666666662 13.020309999999995  C 30.109773333333322 12.86331333333333  29.80158666666665 13.777213333333329  29.648879999999988 13.97312333333332  C 30.262999999999995 13.814089999999986  30.58271333333333 13.45082666666665  30.560396666666666 13.02087333333332  C 30.518883333333324 12.205383333333323  29.689613333333323 11.984643333333324  29.055256666666665 12.127686666666655  C 28.738749999999996 12.198666666666647  28.43099666666666 12.368619999999986  28.082379999999983 12.605826666666651  C 28.15088999999999 11.907509999999988  28.466616666666653 11.22856333333332  27.91801666666666 10.243639999999985  C 27.872473333333318 10.161739999999988  27.79013999999999 10.046733333333314  27.712313333333327 9.947153333333318  C 27.698663333333332 9.928953333333311  27.598996666666668 9.79799999999998  27.577156666666657 9.773776666666649  C 27.576939999999997 9.774599999999985  27.576809999999995 9.77516333333331  27.57602999999999 9.776073333333315  C 27.57576999999999 9.775943333333316  27.57576999999999 9.77572666666665  27.575553333333318 9.775249999999986  C 27.57542333333332 9.77572666666665  27.57542333333332 9.775943333333316  27.574859999999987 9.776073333333315  C 27.574426666666653 9.775163333333325  27.574209999999994 9.774599999999985  27.573516666666666 9.773776666666649  C 27.55210999999999 9.79799999999998  27.45257333333332 9.928953333333311  27.438446666666664 9.947153333333318  C 27.360879999999995 10.046733333333314  27.27815666666666 10.161739999999988  27.23321999999999 10.243639999999985  C 26.684273333333323 11.22856333333332  27.00021666666666 11.90750999999998  27.068813333333324 12.605826666666651  C 26.719893333333317 12.368619999999986  26.41213999999998 12.198666666666654  26.095633333333325 12.127686666666655  C 25.461363333333317 11.984643333333317  24.63187666666665 12.205383333333323  24.590363333333315 13.02087333333332  C 24.56782999999998 13.45082666666665  24.888106666666644 13.814089999999986  25.502096666666645 13.97312333333332  C 25.349519999999984 13.777213333333329  25.041116666666653 12.863313333333316  25.99106999999998 13.020309999999995  C 26.56688333333331 13.115296666666659  27.24834333333331 13.876403333333322  27.57351666666665 14.18905333333332  C 27.57420999999998 14.188619999999986  27.57442666666664 14.18779666666665  27.574859999999987 14.187709999999988  Z M 38.19000999999999 18.116743333333325  C 38.18979333333333 18.11626666666666  38.189099999999996 18.116743333333325  38.18875333333331 18.11626666666666  C 38.163836666666654 17.676779999999994  38.20539333333332 16.568096666666655  37.85313666666664 16.046363333333325  C 37.29045333333332 15.213323333333328  36.89871999999998 16.089566666666656  36.87462666666664 16.34375999999999  C 36.54966999999996 15.764653333333321  36.56791333333331 15.26610333333332  36.8683433333333 14.981446666666656  C 37.44120999999997 14.440039999999989  38.17046666666664 14.91549333333333  38.5206433333333 15.49810999999999  C 38.696056666666635 15.78887666666666  38.79949333333329 16.142259999999986  38.88615999999996 16.574596666666658  C 39.16102333333329 16.08445333333332  39.51600999999995 15.33062666666666  40.57472999999996 15.03938333333332  C 40.760196666666616 14.987816666666653  41.13143333333329 14.961903333333325  41.160899999999955 14.982269999999986  C 41.17931666666662 15.014336666666651  41.14824666666662 15.409926666666657  41.10014666666662 15.608003333333315  C 40.829703333333285 16.717119999999987  40.155739999999966 16.954326666666653  39.64206666666662 17.39303333333332  C 40.045239999999964 17.490879999999983  40.37448666666663 17.605669999999982  40.64345666666662 17.796466666666653  C 41.042903333333285 18.078479999999985  41.38354666666663 18.57884999999998  41.329249999999945 19.06487666666665  L 40.43935666666661 19.06487666666665  C 40.46804333333327 18.90822666666665  40.39428999999994 18.718469999999982  40.122719999999944 18.50331999999998  C 39.63942333333328 18.119343333333312  38.600853333333276 18.15028333333332  38.19000999999996 18.117653333333315  Z M 13.883606666666644 6.383679999999998  C 13.097496666666643 6.776409999999991  11.973343333333311 6.264469999999996  11.579443333333316 5.778096666666663  C 12.075609999999983 5.447810000000004  12.581526666666647 5.133253333333336  13.094853333333312 4.83278  C 12.937856666666647 5.581363333333336  13.46335999999998 6.056036666666671  13.883606666666644 6.383679999999998  Z " fill-rule="nonzero" fill="#ffffff" stroke="none" transform="matrix(1 0 0 1 418 84 )" />
  </g>
</svg>