<?xml version="1.0" encoding="utf-8"?>
<svg version="1.1" xmlns:xlink="http://www.w3.org/1999/xlink" width="55px" height="20px" xmlns="http://www.w3.org/2000/svg">
  <g transform="matrix(1 0 0 1 -418 -124 )">
    <path d="M 26.373703333333268 13.407453333333336  C 27.308316666666613 13.548199999999994  27.842226666666605 13.548199999999994  28.777663333333322 13.407453333333336  C 30.796693333333327 13.104380000000006  33.06151 12.094886666666667  33.87725999999999 9.930430000000001  C 34.106276666666645 9.323243333333338  34.218336666666644 8.649929999999998  34.20386333333332 7.906113333333337  C 34.89026333333332 8.56235333333332  35.56080333333331 9.025066666666675  36.43626666666664 9.248623333333342  C 38.62893333333331 9.807883333333336  41.20934666666663 9.110259999999997  43.14625999999997 7.650143333333332  C 45.129713333333314 6.155533333333338  46.54103666666664 3.5830066666666625  45.96855999999997 0.9609499999999969  L 45.2619233333333 0.9609499999999969  C 45.27613666666663 1.0051066666666628  45.29004666666664 1.05013000000001  45.30230999999996 1.0955433333333389  C 45.613009999999974 2.222903333333335  45.431659999999965 3.3298533333333467  44.99797999999997 4.3256966666666585  C 44.50523666666663 5.4546166666666664  43.67700666666663 6.441576666666663  42.716913333333295 7.1555800000000005  C 40.91424666666663 8.496356666666657  38.52653666666663 9.169063333333341  36.57458666666663 8.64243333333333  C 35.7885633333333 8.430359999999993  35.215739999999954 7.984156666666664  34.637326666666624 7.348066666666654  C 34.1795533333333 6.843969999999985  33.96574666666663 6.269889999999975  33.55676666666662 5.603769999999997  C 33.36549333333329 5.4078599999999994  33.07368666666663 5.533786666666657  32.98121333333329 5.844833333333327  C 33.605429999999956 7.227469999999997  33.716363333333305 8.501383333333322  33.29030999999996 9.645773333333324  C 32.55875666666664 11.610463333333328  30.515026666666632 12.539833333333334  28.692643333333308 12.802173333333329  C 27.875896666666634 12.919736666666665  27.275079999999974 12.919736666666665  26.45867999999996 12.802173333333329  C 24.63564666666663 12.539833333333334  22.592219999999962 11.610463333333342  21.860579999999963 9.645773333333324  C 21.434179999999962 8.501383333333322  21.54567666666663 7.227469999999997  22.16989333333329 5.844833333333327  C 22.07741999999996 5.533786666666671  21.785613333333295 5.4078599999999994  21.594123333333293 5.603769999999997  C 21.185013333333288 6.269890000000004  20.971813333333287 6.843969999999999  20.513563333333288 7.348066666666654  C 19.935366666666617 7.984156666666664  19.362629999999953 8.430359999999979  18.576389999999954 8.64243333333333  C 16.624656666666617 9.169063333333312  14.236643333333284 8.496356666666657  12.43375999999995 7.1555800000000005  C 11.474229999999949 6.441576666666663  10.645956666666613 5.4546166666666664  10.153256666666614 4.3256966666666585  C 9.718883333333281 3.3298533333333182  9.538096666666618 2.222903333333335  9.84866666666661 1.0955433333333389  C 9.861319999999942 1.05013000000001  9.873929999999945 1.005106666666677  9.88779666666661 0.9609499999999969  L 9.18254666666661 0.9609499999999969  C 8.609723333333278 3.5830066666666625  10.021609999999939 6.155533333333338  12.004629999999942 7.650143333333332  C 13.941976666666612 9.110259999999997  16.52195666666661 9.807883333333322  18.71462333333327 9.248623333333342  C 19.590303333333274 9.025066666666675  20.26084333333327 8.562353333333334  20.94724333333327 7.906113333333337  C 20.93302999999994 8.649929999999998  21.04482999999994 9.323243333333323  21.273413333333274 9.930430000000001  C 22.089466666666603 12.094886666666682  24.35428333333327 13.104380000000006  26.373703333333268 13.407453333333336  Z M 15.086063333333314 12.409139999999994  C 16.14170666666665 13.578576666666663  15.765616666666645 15.424706666666665  14.586819999999983 16.009576666666675  C 16.07436666666665 16.769903333333332  17.62517999999998 17.404043333333334  19.22829666666665 17.89951666666667  C 18.661496666666658 16.613036666666673  19.467453333333317 14.925593333333339  20.96873666666665 14.78588666666667  C 22.370613333333317 14.866530000000012  23.276106666666642 15.661783333333346  23.69578999999998 16.749319999999997  C 23.887149999999977 17.243190000000013  23.978409999999975 17.79837666666667  23.969526666666646 18.37414666666666  C 26.329676666666643 14.429209999999998  21.340319999999984 10.613623333333337  18.224826666666644 13.010173333333327  C 18.224826666666644 13.010173333333327  18.224826666666644 13.009263333333337  18.224826666666644 13.008700000000005  C 18.223916666666646 13.008700000000005  18.223829999999978 13.010043333333343  18.223569999999974 13.009609999999995  C 17.318119999999972 9.179419999999993  11.195466666666647 8.493496666666658  10.68179333333331 13.004236666666657  C 11.015373333333308 12.559766666666661  11.412306666666645 12.202526666666657  11.850103333333308 11.96224333333332  C 12.811929999999975 11.432969999999997  13.970793333333313 11.472013333333322  15.086063333333314 12.409139999999994  Z M 40.06482666666663 12.409139999999994  C 39.00939999999996 13.578576666666663  39.38518666666663 15.424706666666665  40.564286666666646 16.009576666666675  C 39.07652333333331 16.769903333333332  37.525623333333314 17.404043333333334  35.922593333333324 17.89951666666667  C 36.48939333333331 16.613036666666673  35.68369666666665 14.925593333333339  34.18236999999999 14.78588666666667  C 32.78027666666665 14.866530000000012  31.874999999999982 15.661783333333346  31.45509999999999 16.749319999999997  C 31.26395666666664 17.243190000000013  31.172696666666653 17.79837666666667  31.181579999999983 18.37414666666666  C 28.821343333333314 14.429209999999998  33.81091666666664 10.613623333333337  36.926149999999964 13.010173333333327  C 36.926149999999964 13.010173333333327  36.926149999999964 13.009263333333337  36.926149999999964 13.008700000000005  C 36.92671333333331 13.008700000000005  36.92753666666664 13.010043333333343  36.92753666666664 13.009609999999995  C 37.833029999999965 9.179419999999993  43.95563999999996 8.493496666666658  44.469313333333304 13.004236666666657  C 44.135733333333306 12.559766666666661  43.73853999999997 12.202526666666657  43.3010033333333 11.96224333333332  C 42.33895999999997 11.432969999999997  41.18022666666663 11.472013333333322  40.06482666666663 12.409139999999994  Z M 0.6349599999999924 0.9609499999999969  L 6.035116666666667 0.9609499999999969  C 9.108359999999998 2.1033033333333293  10.25539333333333 7.4618600000000015  6.5716699999999975 8.851646666666667  C 6.8994433333333305 8.40206333333333  7.136866666666669 7.902256666666673  7.2606699999999975 7.38312333333333  C 7.535403333333336 6.240553333333338  7.262576666666669 5.003430000000009  6.1984833333333285 3.998270000000005  C 5.006556666666668 3.152360000000016  3.279420000000002 4.028516666666675  2.8433133333333274 5.313653333333335  C 1.9910766666666573 3.9343099999999964  1.2508999999999943 2.479306666666659  0.6349599999999924 0.9609499999999969  Z M 48.95262333333331 3.998270000000005  C 50.144679999999966 3.152360000000016  51.87194666666663 4.028516666666675  52.30788 5.313653333333335  C 53.16037666666665 3.9343099999999964  53.900553333333335 2.479306666666659  54.51614666666666 0.9609499999999969  L 49.116206666666656 0.9609499999999969  C 46.041923333333315 2.1025233333333233  44.89501999999999 7.461643333333328  48.57908999999998 8.851646666666667  C 48.25131666666665 8.40206333333333  48.01423999999999 7.902256666666673  47.890219999999985 7.38312333333333  C 47.615703333333315 6.240553333333338  47.888529999999975 5.003430000000009  48.95262333333331 3.998270000000005  Z M 33.995689999999996 16.580363333333324  C 33.88397666666667 17.06617333333334  33.83631 17.851286666666667  34.22448999999999 18.365523333333343  C 33.70418666666666 18.49136333333334  33.179159999999996 18.602296666666675  32.64988666666666 18.69932  C 32.84089999999999 17.96698666666667  33.36471333333333 16.79412666666667  33.995689999999996 16.580363333333324  Z M 27.576593333333335 3.3853633333333306  C 27.576939999999997 3.3853633333333306  27.577156666666657 3.3850599999999957  27.577156666666657 3.3847999999999985  C 27.578066666666654 3.3850599999999957  27.57828333333333 3.3853633333333306  27.57828333333333 3.3853633333333306  C 27.57875999999999 3.3850599999999957  27.57941 3.38445333333334  27.579669999999993 3.383889999999994  C 28.587213333333324 4.576553333333351  29.807479999999998 4.926253333333335  31.217893333333326 4.564809999999994  C 32.91772999999999 3.828186666666653  33.46143333333332 2.7869733333333357  33.55676666666666 0.7923399999999958  C 33.198833333333326 1.2617700000000127  32.89653999999999 1.8473333333333244  32.41714333333333 2.2889866666666734  C 32.088806666666656 2.59162666666667  31.678743333333333 2.82723  31.11003666666666 2.9116433333333305  C 29.900213333333323 3.0922133333333193  29.173426666666657 2.128219999999999  29.12714666666666 0.9609499999999969  L 26.023179999999996 0.9609499999999969  C 25.976856666666663 2.128219999999999  25.251240000000003 3.0922133333333335  24.040636666666664 2.9116433333333305  C 23.472363333333334 2.82723  23.06173666666666 2.59162666666667  22.733530000000002 2.2889866666666734  C 22.254350000000002 1.8473333333333386  21.95227333333333 1.2617700000000127  21.59412333333333 0.7923399999999958  C 21.68980333333333 2.7869733333333357  22.233376666666665 3.8281866666666815  23.93278 4.564809999999994  C 25.343149999999994 4.926253333333335  26.563806666666665 4.576553333333322  27.571566666666655 3.3834566666666746  C 27.57178333333333 3.38445333333334  27.57247666666666 3.3850599999999957  27.572693333333333 3.385623333333342  C 27.572953333333334 3.3853633333333306  27.573039999999995 3.3850599999999957  27.573516666666666 3.3848000000000127  C 27.574209999999994 3.38506000000001  27.574209999999994 3.385363333333345  27.574209999999994 3.385363333333345  Z M 46.61634999999997 11.903396666666666  C 46.95218333333331 11.622163333333333  47.27631666666663 11.338676666666672  47.59455666666665 11.04470333333333  C 47.330353333333306 10.744230000000002  46.93536999999999 10.447743333333335  46.47313333333331 10.602356666666665  C 46.26755999999999 10.992789999999985  46.31678666666663 11.626843333333326  46.61634999999997 11.903396666666666  Z M 27.392036666666684 19.152803333333324  C 27.24336000000001 19.151676666666674  27.094640000000012 19.150549999999996  26.946309999999997 19.147213333333326  C 26.97712 18.73858  27.13494 18.192363333333333  27.56441666666666 17.982586666666663  L 27.574860000000005 17.977559999999997  L 27.58668999999999 17.982803333333322  C 28.01560333333333 18.19249333333333  28.17376999999999 18.73858  28.20436333333333 19.147213333333326  C 28.04121333333333 19.150766666666655  27.877283333333335 19.15245666666665  27.713570000000004 19.15358333333333  C 27.70707 19.15358333333333  27.700570000000003 19.15358333333333  27.694199999999995 19.15358333333333  C 27.60662333333333 19.15358333333333  27.518916666666666 19.15358333333333  27.431426666666667 19.15336666666667  C 27.42107 19.15336666666667  27.411406666666664 19.153019999999998  27.40126666666667 19.153019999999998  C 27.398190000000014 19.153019999999998  27.39533 19.152803333333324  27.392036666666684 19.152803333333324  Z M 21.15541666666664 16.580363333333324  C 21.267259999999972 17.06617333333334  21.31457999999997 17.851286666666667  20.926659999999977 18.365523333333343  C 21.44665999999998 18.49136333333334  21.97172999999998 18.602296666666675  22.500959999999978 18.69932  C 22.310293333333306 17.96698666666667  21.786393333333308 16.79412666666667  21.15541666666664 16.580363333333324  Z M 8.534539999999978 11.903396666666666  C 8.19831666666665 11.622163333333333  7.874789999999983 11.338676666666672  7.556333333333313 11.04470333333333  C 7.820493333333309 10.744230000000002  8.21595333333331 10.447743333333335  8.677973333333313 10.602356666666665  C 8.883676666666645 10.992789999999985  8.834406666666652 11.626843333333326  8.534539999999978 11.903396666666666  Z M 5.345683333333334 5.543016666666674  C 5.133046666666665 6.078096666666667  4.6395233333333366 6.9162066666666675  3.8741699999999923 6.870706666666663  C 4.236783333333328 7.381303333333349  4.616513333333323 7.87903  5.010759999999998 8.364840000000001  C 5.306640000000002 7.78018666666668  5.781876666666669 6.222786666666664  5.345683333333334 5.543016666666674  Z M 41.267153333333326 13.642146666666662  C 42.05373999999999 13.249200000000002  43.17754666666666 13.761400000000009  43.571663333333305 14.247730000000004  C 43.07527999999998 14.57801666666667  42.56944999999999 14.892573333333345  42.05603666666666 15.193046666666675  C 42.213033333333314 14.444463333333346  41.687876666666654 13.969573333333344  41.267153333333326 13.642146666666662  Z M 49.80520666666666 5.543016666666674  C 49.36936 6.222786666666664  49.844683333333336 7.780403333333339  50.14047666666667 8.36505666666666  C 50.53459333333333 7.8793766666666585  50.91432333333334 7.381519999999995  51.27715333333333 6.870706666666663  C 50.51149666666667 6.9162066666666675  50.018060000000006 6.078096666666667  49.80520666666666 5.543016666666674  Z M 16.96109666666665 1.9080866666666623  C 16.96109666666665 1.9080866666666623  16.96109666666665 1.908303333333322  16.96109666666665 1.9091266666666655  C 16.961183333333317 1.9094300000000004  16.96165999999998 1.9091266666666655  16.962223333333313 1.9094300000000004  C 16.987009999999977 2.3488300000000066  16.945063333333323 3.457643333333337  17.297839999999987 3.9795066666666656  C 17.860653333333318 4.812503333333325  18.252386666666652 3.9360433333333447  18.276263333333326 3.6821099999999944  C 18.60152333333332 4.261043333333319  18.583886666666658 4.759376666666654  18.282199999999996 5.044120000000007  C 17.70911666666666 5.585700000000003  16.980639999999987 5.110246666666654  16.630376666666656 4.527760000000001  C 16.454833333333326 4.236820000000009  16.351873333333323 3.883350000000007  16.264686666666663 3.4511433333333343  C 15.98960666666666 3.9411566666666715  15.635096666666657 4.69498333333334  14.576376666666656 4.986226666666667  C 14.39047666666666 5.03801  14.019673333333332 5.063923333333335  13.990466666666665 5.04355666666666  C 13.971009999999993 5.011489999999995  14.002729999999993 4.615813333333335  14.05095999999999 4.417823333333331  C 14.321533333333328 3.308489999999992  14.995366666666662 3.0715000000000003  15.508953333333324 2.6326633333333262  C 15.106083333333322 2.534729999999996  14.776143333333316 2.419939999999997  14.50721666666665 2.2292733333333246  C 14.108203333333321 1.9475633333333349  13.766563333333316 1.4469766666666715  13.819689999999987 0.9609499999999969  L 14.71040666666665 0.9609499999999969  C 14.682066666666648 1.117383333333322  14.756903333333312 1.3074866666666765  15.027823333333316 1.522506666666672  C 15.511683333333316 1.9063966666666659  16.550253333333316 1.8754133333333272  16.96109666666665 1.9080866666666623  Z M 27.576030000000003 5.838116666666664  C 27.576593333333335 5.8378133333333295  27.576939999999997 5.837206666666674  27.577156666666667 5.836773333333326  C 27.902416666666664 6.149423333333331  28.584223333333327 6.910529999999994  29.159776666666662 7.005516666666651  C 30.109773333333322 7.162513333333322  29.801586666666665 6.248613333333324  29.648880000000005 6.052703333333312  C 30.262999999999995 6.211519999999993  30.58271333333333 6.574783333333315  30.560396666666666 7.004736666666659  C 30.518883333333335 7.820226666666656  29.689613333333323 8.041183333333322  29.055256666666665 7.897923333333324  C 28.738749999999996 7.826943333333318  28.43099666666667 7.656989999999993  28.08238 7.41973999999999  C 28.150890000000004 8.11805666666666  28.466616666666667 8.79726333333332  27.91801666666666 9.78218666666666  C 27.87247333333333 9.864086666666665  27.79013999999999 9.979006666666649  27.71231333333334 10.078543333333329  C 27.698663333333343 10.09665666666666  27.598996666666668 10.227826666666658  27.577156666666667 10.251919999999984  C 27.576940000000008 10.251269999999977  27.576809999999995 10.250706666666659  27.576030000000003 10.249666666666641  C 27.576030000000003 10.249666666666641  27.575770000000002 10.250099999999975  27.575553333333332 10.250229999999988  C 27.575553333333332 10.250229999999988  27.57542333333333 10.249883333333315  27.574860000000005 10.249666666666641  C 27.574426666666664 10.250706666666659  27.574209999999994 10.251269999999977  27.573516666666666 10.251919999999984  C 27.55211 10.227826666666644  27.452573333333333 10.096656666666647  27.438446666666664 10.078543333333329  C 27.360879999999995 9.979006666666649  27.27815666666666 9.864086666666651  27.23321999999999 9.78218666666666  C 26.684273333333323 8.79726333333332  27.00021666666666 8.11805666666666  27.068813333333324 7.41973999999999  C 26.71989333333333 7.656989999999993  26.412139999999994 7.8269433333333325  26.095633333333325 7.897923333333324  C 25.461363333333324 8.041183333333322  24.631876666666656 7.820226666666656  24.590363333333322 7.004736666666659  C 24.567829999999987 6.574783333333315  24.88810666666665 6.211519999999993  25.502096666666652 6.052703333333312  C 25.34951999999999 6.24861333333331  25.04111666666666 7.162513333333322  25.991069999999986 7.005516666666651  C 26.566883333333323 6.910529999999994  27.248343333333324 6.149423333333317  27.573516666666666 5.836773333333326  C 27.574209999999994 5.83720666666666  27.574426666666653 5.8378133333333295  27.574859999999987 5.838116666666664  Z M 38.19000999999996 1.9080866666666623  C 38.19000999999996 1.9080866666666623  38.19000999999996 1.908303333333322  38.19000999999999 1.9091266666666655  C 38.18979333333333 1.9094300000000004  38.189099999999996 1.9091266666666655  38.18875333333331 1.9094300000000004  C 38.163836666666654 2.3488300000000066  38.20539333333332 3.457643333333337  37.85313666666664 3.9795066666666656  C 37.29045333333332 4.812503333333325  36.89871999999998 3.9360433333333447  36.87462666666664 3.6821099999999944  C 36.54966999999996 4.261043333333319  36.56791333333331 4.759376666666654  36.8683433333333 5.044120000000007  C 37.44120999999997 5.585700000000003  38.17046666666664 5.110246666666654  38.5206433333333 4.527760000000001  C 38.696056666666635 4.236820000000009  38.79949333333329 3.883350000000007  38.88615999999996 3.4511433333333343  C 39.16102333333329 3.9411566666666715  39.51600999999995 4.69498333333334  40.57472999999996 4.986226666666667  C 40.760196666666616 5.03801  41.13143333333329 5.063923333333335  41.160899999999955 5.04355666666666  C 41.17931666666662 5.011489999999995  41.14824666666662 4.615813333333335  41.10014666666662 4.417823333333331  C 40.829703333333285 3.308489999999992  40.155739999999966 3.0715000000000003  39.64206666666662 2.6326633333333262  C 40.045239999999964 2.534729999999996  40.37448666666663 2.419939999999997  40.64345666666662 2.2292733333333246  C 41.042903333333285 1.9472166666666624  41.38354666666663 1.4469766666666715  41.329249999999945 0.9609499999999969  L 40.43935666666661 0.9609499999999969  C 40.46804333333327 1.1176000000000101  40.39428999999994 1.3074000000000012  40.122719999999944 1.522506666666672  C 39.63942333333328 1.9063966666666659  38.600853333333276 1.8754133333333272  38.19000999999996 1.9080866666666623  Z M 13.883606666666644 13.642146666666662  C 13.097496666666643 13.249200000000002  11.973343333333311 13.761400000000009  11.579443333333316 14.247730000000004  C 12.075609999999983 14.57801666666667  12.581526666666647 14.892573333333345  13.094853333333312 15.193046666666675  C 12.937856666666647 14.444463333333346  13.46335999999998 13.969573333333344  13.883606666666644 13.642146666666662  Z " fill-rule="nonzero" fill="#ffffff" stroke="none" transform="matrix(1 0 0 1 418 124 )" />
  </g>
</svg>