<?xml version="1.0" encoding="utf-8"?>
<svg version="1.1" xmlns:xlink="http://www.w3.org/1999/xlink" width="49px" height="3px" xmlns="http://www.w3.org/2000/svg">
  <g transform="matrix(1 0 0 1 -421 -140 )">
    <path d="M 0.5737400000000008 1.767870000000002  C 0.5737400000000008 1.0935599999999965  1.123899999999999 0.5434000000000054  1.7983400000000032 0.5434000000000054  C 2.47278 0.5434000000000054  3.0229400000000055 1.0935599999999965  3.0229400000000055 1.767870000000002  C 3.0229400000000055 2.442223333333331  2.4727800000000073 2.992513333333335  1.7983400000000032 2.992513333333335  C 1.1239000000000061 2.992513333333335  0.5737400000000008 2.442223333333331  0.5737400000000008 1.767870000000002  Z M 46.12760333333334 1.767870000000002  C 46.12760333333334 1.0935599999999965  46.67776333333333 0.5434000000000054  47.352203333333335 0.5434000000000054  C 48.026643333333325 0.5434000000000054  48.57680333333333 1.0935599999999965  48.57680333333333 1.767870000000002  C 48.57680333333333 2.442223333333331  48.026643333333325 2.992513333333335  47.352203333333335 2.992513333333335  C 46.67776333333333 2.992513333333335  46.12760333333334 2.442223333333331  46.12760333333334 1.767870000000002  Z " fill-rule="nonzero" fill="#ffffff" stroke="none" transform="matrix(1 0 0 1 421 140 )" />
  </g>
</svg>